<svg width="40" height="40" viewBox="0 0 40 40" fill="none" xmlns="http://www.w3.org/2000/svg">
<rect width="40" height="40" rx="20" fill="white"/>
<path fill-rule="evenodd" clip-rule="evenodd" d="M12.0855 20.0004C12.0832 21.0251 12.0375 22.4228 12.6714 22.9453C13.2628 23.4326 13.6789 23.307 14.7585 23.3862C15.8389 23.4662 18.1189 26.642 19.8767 25.6375C20.7834 24.9244 20.8508 23.4296 20.8508 20.0004C20.8508 16.5713 20.7834 15.0765 19.8767 14.3634C18.1189 13.3581 15.8389 16.5347 14.7585 16.6146C13.6789 16.6939 13.2628 16.5683 12.6714 17.0556C12.0375 17.5781 12.0832 18.9757 12.0855 20.0004Z" stroke="#FF4B19" stroke-width="1.5" stroke-linecap="round" stroke-linejoin="round"/>
<path d="M26.3203 14.9199C28.4454 17.9791 28.4524 22.0144 26.3203 25.0796" stroke="#FF4B19" stroke-width="1.5" stroke-linecap="round" stroke-linejoin="round"/>
<path d="M24.2344 16.9287C25.3271 18.8376 25.3271 21.1688 24.2344 23.0717" stroke="#FF4B19" stroke-width="1.5" stroke-linecap="round" stroke-linejoin="round"/>
</svg>
