<svg width="40" height="40" viewBox="0 0 40 40" fill="none" xmlns="http://www.w3.org/2000/svg">
<rect width="40" height="40" rx="20" fill="white"/>
<path d="M24.9062 19.0814C26.0688 18.9181 26.9638 17.9214 26.9663 16.7139C26.9663 15.5239 26.0988 14.5373 24.9613 14.3506" stroke="#FF4B19" stroke-width="1.5" stroke-linecap="round" stroke-linejoin="round"/>
<path d="M26.4414 21.876C27.5672 22.0443 28.3531 22.4385 28.3531 23.251C28.3531 23.8101 27.9831 24.1735 27.3847 24.4018" stroke="#FF4B19" stroke-width="1.5" stroke-linecap="round" stroke-linejoin="round"/>
<path fill-rule="evenodd" clip-rule="evenodd" d="M19.9072 22.2207C17.2289 22.2207 14.9414 22.6265 14.9414 24.2474C14.9414 25.8674 17.2147 26.2849 19.9072 26.2849C22.5856 26.2849 24.8722 25.8832 24.8722 24.2615C24.8722 22.6399 22.5997 22.2207 19.9072 22.2207Z" stroke="#FF4B19" stroke-width="1.5" stroke-linecap="round" stroke-linejoin="round"/>
<path fill-rule="evenodd" clip-rule="evenodd" d="M19.9071 19.907C21.6646 19.907 23.0896 18.4828 23.0896 16.7245C23.0896 14.967 21.6646 13.542 19.9071 13.542C18.1496 13.542 16.7246 14.967 16.7246 16.7245C16.718 18.4762 18.1321 19.9012 19.8838 19.907H19.9071Z" stroke="#FF4B19" stroke-width="1.5" stroke-linecap="round" stroke-linejoin="round"/>
<path d="M14.9057 19.0814C13.7424 18.9181 12.8482 17.9214 12.8457 16.7139C12.8457 15.5239 13.7132 14.5373 14.8507 14.3506" stroke="#FF4B19" stroke-width="1.5" stroke-linecap="round" stroke-linejoin="round"/>
<path d="M13.3707 21.876C12.2448 22.0443 11.459 22.4385 11.459 23.251C11.459 23.8101 11.829 24.1735 12.4273 24.4018" stroke="#FF4B19" stroke-width="1.5" stroke-linecap="round" stroke-linejoin="round"/>
</svg>
