<svg width="40" height="40" viewBox="0 0 40 40" fill="none" xmlns="http://www.w3.org/2000/svg">
<rect width="40" height="40" rx="20" fill="white"/>
<path d="M19.576 12.3242H16.4602C13.8977 12.3242 12.291 14.1384 12.291 16.7067V23.6351C12.291 26.2034 13.8902 28.0176 16.4602 28.0176H23.8135C26.3843 28.0176 27.9835 26.2034 27.9835 23.6351V20.2784" stroke="#FF4B19" stroke-width="1.5" stroke-linecap="round" stroke-linejoin="round"/>
<path fill-rule="evenodd" clip-rule="evenodd" d="M17.3555 19.1007L23.583 12.8732C24.3589 12.0982 25.6164 12.0982 26.3922 12.8732L27.4064 13.8874C28.1822 14.6632 28.1822 15.9216 27.4064 16.6966L21.1489 22.9541C20.8097 23.2932 20.3497 23.4841 19.8697 23.4841H16.748L16.8264 20.3341C16.838 19.8707 17.0272 19.4291 17.3555 19.1007Z" stroke="#FF4B19" stroke-width="1.5" stroke-linecap="round" stroke-linejoin="round"/>
<path d="M22.6367 13.835L26.4417 17.64" stroke="#FF4B19" stroke-width="1.5" stroke-linecap="round" stroke-linejoin="round"/>
</svg>
