<svg width="40" height="40" viewBox="0 0 40 40" fill="none" xmlns="http://www.w3.org/2000/svg">
<rect width="40" height="40" rx="20" fill="white"/>
<g clip-path="url(#clip0_566_4740)">
<path d="M18.125 22.4375V24.1875C15.0625 24.75 12.75 26.5625 12.5 28.8125H27.5C27.25 26.5625 24.9375 24.75 21.875 24.1875V22.5" stroke="#FF4B19" stroke-width="1.5" stroke-miterlimit="10" stroke-linecap="round" stroke-linejoin="round"/>
<path d="M23.5625 24.625C23.0625 25.4375 21.6875 26 20 26C18.375 26 16.9375 25.4375 16.4375 24.625" stroke="#FF4B19" stroke-width="1.5" stroke-miterlimit="10" stroke-linecap="round" stroke-linejoin="round"/>
<path d="M23.5625 20.625H16.4375C15.3125 20.625 14.375 19.6875 14.375 18.5625V15.8125C14.375 14.6875 15.3125 13.75 16.4375 13.75H23.625C24.6875 13.75 25.625 14.6875 25.625 15.8125V18.625C25.625 19.6875 24.6875 20.625 23.5625 20.625Z" stroke="#FF4B19" stroke-width="1.5" stroke-miterlimit="10" stroke-linecap="round" stroke-linejoin="round"/>
<path d="M18.125 16.25H21.875" stroke="#FF4B19" stroke-width="1.5" stroke-miterlimit="10" stroke-linecap="round" stroke-linejoin="round"/>
<path d="M23.4375 20.625C22.5 22.1875 21.125 23.125 20 23.125C18.875 23.125 17.5 22.1875 16.5625 20.625" stroke="#FF4B19" stroke-width="1.5" stroke-miterlimit="10" stroke-linecap="round" stroke-linejoin="round"/>
<path d="M15.875 13.8125C16.625 12.1875 17.9375 11.25 20 11.25C22.0625 11.25 23.375 12.1875 24.125 13.8125" stroke="#FF4B19" stroke-width="1.5" stroke-miterlimit="10" stroke-linecap="round" stroke-linejoin="round"/>
</g>
<defs>
<clipPath id="clip0_566_4740">
<rect width="20" height="20" fill="white" transform="translate(10 10)"/>
</clipPath>
</defs>
</svg>
