<svg width="60" height="60" viewBox="0 0 60 60" fill="none" xmlns="http://www.w3.org/2000/svg">
<rect width="60" height="60" rx="30" fill="white"/>
<g clip-path="url(#clip0_546_972)">
<path d="M37.804 18.2522C37.9789 18.063 38.2719 18.0508 38.4611 18.2258C38.6503 18.4007 38.6625 18.6937 38.4876 18.8829L34.679 23.0048L34.6729 23.013C34.207 23.5765 33.8875 24.0974 33.7451 24.5734C33.619 24.9946 33.6373 25.3771 33.8245 25.7107C33.9242 25.8898 33.8916 26.1095 33.7594 26.2539L31.9507 28.2111C31.7737 28.0178 31.6333 27.8612 31.5397 27.7595C31.497 27.7025 31.4482 27.6476 31.3973 27.5947L31.3932 27.5987C31.3688 27.5723 31.3424 27.5479 31.3159 27.5235L32.8622 25.8491C32.6811 25.3649 32.6831 24.8501 32.8499 24.3028C33.029 23.7088 33.4094 23.076 33.9567 22.4169C33.9689 22.4006 33.9791 22.3843 33.9933 22.3701L37.7999 18.2482L37.804 18.2522ZM29.6232 29.2935C29.4523 29.1022 29.4686 28.8072 29.6598 28.6363C29.8511 28.4654 30.1461 28.4817 30.317 28.673C32.2315 30.8173 38.1498 37.163 39.7896 39.5352C41.9523 42.5971 38.6035 43.5615 37.4927 42.4466C34.7176 39.7631 28.8257 32.921 26.2358 30.0198C25.304 30.4145 24.3986 30.4755 23.4892 30.2151C22.5106 29.9364 21.5523 29.2833 20.5798 28.2803L20.5676 28.2681C19.8271 27.4868 19.2472 26.7158 18.8281 25.9528C18.3989 25.1675 18.1364 24.3903 18.0428 23.6193C17.9431 22.7892 18.0204 22.0161 18.2442 21.3304C18.5067 20.5248 18.9726 19.8432 19.5829 19.3366C20.1974 18.828 20.9522 18.4984 21.7944 18.3967C22.4943 18.3133 23.2573 18.3845 24.0466 18.6429C25.1392 18.9989 26.4128 19.8839 27.4687 21.0192C28.2479 21.8553 28.9152 22.8339 29.3119 23.841C29.7249 24.8908 29.8511 25.9772 29.5195 26.9945C29.3241 27.5967 28.9701 28.1623 28.4208 28.673C28.2316 28.8479 27.9387 28.8357 27.7637 28.6485C27.5887 28.4593 27.6009 28.1664 27.7881 27.9914C28.2133 27.5947 28.4859 27.1613 28.6345 26.7036C28.8908 25.9162 28.783 25.0434 28.4452 24.1848C28.0912 23.2856 27.4911 22.4067 26.7871 21.6519C25.835 20.6306 24.7058 19.8391 23.7537 19.5279C23.1006 19.3163 22.476 19.2552 21.9043 19.3244C21.2411 19.4058 20.647 19.6601 20.1729 20.0568C19.6969 20.4536 19.3327 20.9886 19.1231 21.6254C18.9421 22.1809 18.879 22.8197 18.9624 23.5094C19.0418 24.1604 19.2676 24.8257 19.6379 25.5052C20.0265 26.2031 20.5595 26.909 21.2451 27.6313L21.2492 27.6374C22.1078 28.5224 22.9317 29.0921 23.7476 29.324C24.5186 29.5437 25.304 29.4583 26.1239 29.0493C26.311 28.9415 26.5532 28.9781 26.7017 29.145C29.2285 31.975 35.3748 39.0978 38.0969 41.7365C39.279 42.2187 39.9341 41.6246 39.3685 40.5769C38.4876 38.9411 30.9192 30.7502 29.6232 29.2935ZM27.1696 33.3849L21.237 39.8037C21.2248 39.8159 21.2146 39.8282 21.2004 39.8404C20.3337 40.7762 21.8677 42.1394 22.8198 41.2279L28.5816 34.9921L29.2 35.694L23.4831 41.881C23.4709 41.8952 23.4587 41.9074 23.4424 41.9217C23.1006 42.2085 22.7568 42.3957 22.4089 42.473C22.0508 42.5544 21.6988 42.5178 21.3611 42.3591C21.3041 42.3367 21.2512 42.3082 21.2044 42.2655L20.3845 41.5066C20.3723 41.4944 20.3601 41.4842 20.3479 41.47C20.0305 41.1038 19.88 40.7132 19.9207 40.3002C19.9593 39.9095 20.1668 39.5291 20.5595 39.1629L26.5491 32.6809L27.1696 33.3849ZM33.3871 29.7919L33.739 29.4115C33.914 29.2223 34.209 29.2101 34.3962 29.385C34.5833 29.56 34.5976 29.853 34.4226 30.0422L34.0157 30.4816L33.3871 29.7919ZM39.2505 19.6133C39.4255 19.4241 39.7184 19.4119 39.9076 19.5869C40.0969 19.7618 40.1091 20.0548 39.9341 20.244L36.5955 23.8593C36.4205 24.0485 36.1275 24.0607 35.9383 23.8858C35.7491 23.7108 35.7369 23.4178 35.9119 23.2286L39.2505 19.6133ZM40.695 20.95C40.87 20.7608 41.1629 20.7486 41.3521 20.9235C41.5414 21.0985 41.5536 21.3915 41.3786 21.5807L38.042 25.194C37.867 25.3832 37.5741 25.3954 37.3849 25.2204C37.1956 25.0454 37.1834 24.7525 37.3584 24.5633L40.695 20.95ZM42.1924 22.3395C42.3674 22.1503 42.6603 22.1381 42.8495 22.3131C43.0387 22.4881 43.051 22.7831 42.876 22.9702L39.0674 27.0942C39.0532 27.1084 39.0389 27.1206 39.0247 27.1349C38.158 27.969 37.3299 28.4512 36.5385 28.5875C35.6799 28.736 34.8926 28.4919 34.1703 27.8612C33.9771 27.6923 33.9588 27.3973 34.1256 27.2061C34.2944 27.0128 34.5894 26.9945 34.7807 27.1613C35.2791 27.5967 35.8122 27.7676 36.3757 27.6679C36.982 27.5642 37.6493 27.1634 38.3777 26.4615L38.3818 26.4574L42.1883 22.3375L42.1924 22.3395Z" fill="#FF4B19"/>
</g>
<defs>
<clipPath id="clip0_546_972">
<rect width="25" height="25" fill="white" transform="translate(18 18)"/>
</clipPath>
</defs>
</svg>
