<svg width="40" height="40" viewBox="0 0 40 40" fill="none" xmlns="http://www.w3.org/2000/svg">
<rect width="40" height="40" rx="20" fill="#FF4B19"/>
<g clip-path="url(#clip0_539_5171)">
<path fill-rule="evenodd" clip-rule="evenodd" d="M19.9849 23.3457C16.1173 23.3457 12.8145 23.9305 12.8145 26.2724C12.8145 28.6143 16.0964 29.22 19.9849 29.22C23.8525 29.22 27.1545 28.6343 27.1545 26.2933C27.1545 23.9524 23.8735 23.3457 19.9849 23.3457Z" stroke="white" stroke-width="1.5" stroke-linecap="round" stroke-linejoin="round"/>
<path fill-rule="evenodd" clip-rule="evenodd" d="M19.9849 20.0059C22.523 20.0059 24.5801 17.9478 24.5801 15.4097C24.5801 12.8716 22.523 10.8145 19.9849 10.8145C17.4468 10.8145 15.3887 12.8716 15.3887 15.4097C15.3801 17.9392 17.4239 19.9973 19.9525 20.0059H19.9849Z" stroke="white" stroke-width="1.42857" stroke-linecap="round" stroke-linejoin="round"/>
</g>
<defs>
<clipPath id="clip0_539_5171">
<rect width="20" height="20" fill="white" transform="translate(10 10)"/>
</clipPath>
</defs>
</svg>
