<svg width="40" height="40" viewBox="0 0 40 40" fill="none" xmlns="http://www.w3.org/2000/svg">
<rect width="40" height="40" rx="20" fill="#FF4B19"/>
<path d="M21.5417 13.542V15.5587" stroke="white" stroke-width="1.2" stroke-linecap="round" stroke-linejoin="round"/>
<path d="M21.5417 24.7998V26.4865" stroke="white" stroke-width="1.2" stroke-linecap="round" stroke-linejoin="round"/>
<path d="M21.5417 21.9374V17.9199" stroke="white" stroke-width="1.2" stroke-linecap="round" stroke-linejoin="round"/>
<path fill-rule="evenodd" clip-rule="evenodd" d="M25.5845 26.6663C27.1028 26.6663 28.3327 25.4518 28.3327 23.9523V21.7919C27.328 21.7919 26.5188 20.9928 26.5188 20.0005C26.5188 19.0083 27.328 18.2083 28.3327 18.2083L28.3318 16.0471C28.3318 14.5475 27.1011 13.333 25.5836 13.333H14.4151C12.8976 13.333 11.6669 14.5475 11.6669 16.0471L11.666 18.2787C12.6707 18.2787 13.4799 19.0083 13.4799 20.0005C13.4799 20.9928 12.6707 21.7919 11.666 21.7919V23.9523C11.666 25.4518 12.8959 26.6663 14.4142 26.6663H25.5845Z" stroke="white" stroke-width="1.2" stroke-linecap="round" stroke-linejoin="round"/>
</svg>
