<svg width="40" height="40" viewBox="0 0 40 40" fill="none" xmlns="http://www.w3.org/2000/svg">
<rect width="40" height="40" rx="20" fill="#EAE9EE"/>
<path fill-rule="evenodd" clip-rule="evenodd" d="M12.5 15.4167C12.5 13.229 12.5234 12.5 15.4167 12.5C18.3099 12.5 18.3333 13.229 18.3333 15.4167C18.3333 17.6043 18.3426 18.3333 15.4167 18.3333C12.4908 18.3333 12.5 17.6043 12.5 15.4167Z" stroke="#9593A0" stroke-width="1.5" stroke-linecap="round" stroke-linejoin="round"/>
<path fill-rule="evenodd" clip-rule="evenodd" d="M21.666 15.4167C21.666 13.229 21.6894 12.5 24.5827 12.5C27.4759 12.5 27.4993 13.229 27.4993 15.4167C27.4993 17.6043 27.5086 18.3333 24.5827 18.3333C21.6568 18.3333 21.666 17.6043 21.666 15.4167Z" stroke="#9593A0" stroke-width="1.5" stroke-linecap="round" stroke-linejoin="round"/>
<path fill-rule="evenodd" clip-rule="evenodd" d="M12.5 24.5837C12.5 22.396 12.5234 21.667 15.4167 21.667C18.3099 21.667 18.3333 22.396 18.3333 24.5837C18.3333 26.7713 18.3426 27.5003 15.4167 27.5003C12.4908 27.5003 12.5 26.7713 12.5 24.5837Z" stroke="#9593A0" stroke-width="1.5" stroke-linecap="round" stroke-linejoin="round"/>
<path fill-rule="evenodd" clip-rule="evenodd" d="M21.666 24.5837C21.666 22.396 21.6894 21.667 24.5827 21.667C27.4759 21.667 27.4993 22.396 27.4993 24.5837C27.4993 26.7713 27.5086 27.5003 24.5827 27.5003C21.6568 27.5003 21.666 26.7713 21.666 24.5837Z" stroke="#9593A0" stroke-width="1.5" stroke-linecap="round" stroke-linejoin="round"/>
</svg>
