<svg width="40" height="40" viewBox="0 0 40 40" fill="none" xmlns="http://www.w3.org/2000/svg">
<rect width="40" height="40" rx="20" fill="white"/>
<g clip-path="url(#clip0_243_4751)">
<path d="M20.2518 18.7752L20.2519 18.7752L21.5146 17.5751C21.5146 17.5751 21.5146 17.5751 21.5147 17.5751C21.5314 17.5592 21.5496 17.5444 21.5665 17.5314V14.6359L16.3474 12.4518C16.3473 12.4518 16.3473 12.4518 16.3473 12.4518L16.3472 12.4517L16.3858 12.3595C16.2893 12.3194 16.244 12.2086 16.2844 12.1124L20.2518 18.7752ZM20.2518 18.7752C19.8757 19.133 19.4109 19.3898 18.908 19.518L18.908 19.518C18.5517 19.609 18.2657 19.6262 17.9997 19.6422C17.918 19.6471 17.8382 19.6519 17.7589 19.6586C17.4198 19.6876 17.1047 19.7536 16.741 20.0276M20.2518 18.7752L16.741 20.0276M20.1172 13.4031V12.6875C20.1172 12.2515 20.4704 11.8963 20.9056 11.8963C21.342 11.8963 21.6968 12.2511 21.6968 12.6875V14.0641L22.0145 14.197V13.7229C22.0145 13.2865 22.3693 12.9317 22.8057 12.9317C23.241 12.9317 23.5942 13.2869 23.5942 13.7229V14.858L27.3642 16.4355C27.5116 16.4972 27.5808 16.6665 27.5195 16.8136L27.5194 16.8138C27.4728 16.9247 27.3655 16.9912 27.2528 16.9912C27.2157 16.9912 27.1777 16.9841 27.1415 16.969L27.1413 16.969L22.2832 14.936L22.1655 14.8867L22.1632 14.8857L22.1622 14.8853L22.161 14.8848C22.161 14.8848 22.161 14.8848 22.161 14.8848L22.1444 14.8778V17.2869C22.3783 17.2631 22.618 17.3179 22.8183 17.4609C23.3446 17.8363 23.3923 18.5874 22.9319 19.025C22.9319 19.025 22.9319 19.025 22.9319 19.025L22.1444 19.7736V22.95L23.2832 22.5976C23.5035 22.5293 23.6963 22.5309 23.8949 22.6049C24.0879 22.6769 24.2806 22.8152 24.5065 23.0059C24.6496 23.1267 24.8074 23.2696 24.99 23.4349C25.3925 23.7992 25.9154 24.2727 26.6667 24.8592L26.6702 24.8619L26.6702 24.862C27.0927 25.2239 27.1454 25.8617 26.7893 26.2869C26.7879 26.2887 26.7865 26.2905 26.7849 26.2922M20.1172 13.4031L26.7095 26.2266M20.1172 13.4031L16.5708 11.9191C16.5706 11.9191 16.5705 11.919 16.5704 11.9189L20.1172 13.4031ZM26.7849 26.2922C26.7833 26.2941 26.7816 26.2959 26.7798 26.2977L26.7095 26.2266M26.7849 26.2922C26.7852 26.292 26.7854 26.2917 26.7856 26.2914L26.7095 26.2266M26.7849 26.2922C26.4195 26.7205 25.7786 26.7653 25.3564 26.4075L25.3563 26.4074L23.3471 24.699M26.7095 26.2266C26.3803 26.6131 25.8019 26.654 25.4211 26.3312L23.3702 24.5873M23.3471 24.699L23.3995 24.6829L23.3702 24.5873M23.3471 24.699L23.3054 24.6635L23.3702 24.5873M23.3471 24.699L20.7144 25.507M23.3702 24.5873L20.6761 25.4141M22.1865 14.787C22.1783 14.7836 22.1686 14.7795 22.1574 14.7749L22.1865 14.787ZM22.1865 14.787C22.1748 14.8128 22.1706 14.8448 22.1838 14.8823M22.1865 14.787L22.19 14.8969L22.1793 14.8924L22.165 14.8865L22.1713 14.8887C22.1757 14.8866 22.1798 14.8845 22.1838 14.8823M22.1838 14.8823C22.2181 14.8629 22.2365 14.8375 22.2458 14.8119C22.2542 14.8154 22.2641 14.8196 22.2757 14.8244L22.1838 14.8823ZM20.6761 25.4141L20.7229 25.5025C20.7201 25.5039 20.7173 25.5054 20.7144 25.507M20.6761 25.4141L20.7054 25.5097L20.7144 25.507M20.6761 25.4141C20.5134 25.5002 19.9797 25.7571 19.6537 25.7571C19.0929 25.7571 18.5627 25.4847 18.2356 25.0283L16.741 20.0276M20.7144 25.507C20.6273 25.5526 20.4547 25.637 20.2621 25.7112C20.0665 25.7867 19.8366 25.8571 19.6537 25.8571C19.0607 25.8571 18.5001 25.5692 18.1544 25.0865L18.1543 25.0865L16.3888 22.6192C15.794 21.788 15.9472 20.6253 16.741 20.0276M22.5338 18.6059L22.5339 18.6059C22.7269 18.4227 22.7181 18.0991 22.4827 17.9313C22.324 17.8185 22.0772 17.8381 21.9128 17.9942C21.9127 17.9942 21.9127 17.9942 21.9127 17.9942L20.65 19.1943L20.5811 19.1218L20.65 19.1943C20.2023 19.6197 19.6495 19.9253 19.0509 20.0779C18.6195 20.188 18.2928 20.2057 18.025 20.2202C17.9712 20.2231 17.9198 20.2258 17.8705 20.2292C17.5789 20.2491 17.3552 20.2889 17.0886 20.4893C16.5502 20.8948 16.4411 21.699 16.859 22.2828L16.8591 22.2828L18.6243 24.7501L22.5338 18.6059ZM22.5338 18.6059L20.4855 20.5532M22.5338 18.6059L20.4855 20.5532M19.2435 21.0568L19.2436 21.0567C19.2763 20.9672 19.3511 20.8994 19.4438 20.876L19.2435 21.0568ZM19.2435 21.0568C19.2109 21.1464 19.2243 21.2462 19.2796 21.3238M19.2435 21.0568L19.3611 21.266M25.73 25.9665L25.7303 25.9667C25.9042 26.1139 26.1971 26.091 26.345 25.9172C26.4995 25.7345 26.4773 25.4581 26.295 25.3015C26.2949 25.3014 26.2948 25.3014 26.2947 25.3013L23.8622 23.2348C23.8621 23.2348 23.8621 23.2347 23.862 23.2347C23.7799 23.1652 23.7113 23.137 23.6281 23.1329C23.5377 23.1284 23.4226 23.1518 23.2461 23.2059C23.1468 23.2363 23.0301 23.2758 22.8916 23.3228C22.5487 23.4389 22.072 23.6004 21.3949 23.7812C21.1609 23.8527 20.9089 23.7421 20.8133 23.5172M25.73 25.9665L20.9054 23.4781M25.73 25.9665C25.1775 25.5021 24.7672 25.1514 24.46 24.8873M25.73 25.9665L24.46 24.8873M20.8133 23.5172L20.9054 23.4781M20.8133 23.5172C20.8134 23.5172 20.8134 23.5172 20.8134 23.5172L20.9054 23.4781M20.8133 23.5172C20.7691 23.4131 20.7485 23.3748 20.555 23.1046C20.5064 23.0369 20.4473 22.9549 20.3745 22.854C20.1572 22.5529 19.8187 22.0837 19.2796 21.3238M20.9054 23.4781C20.8442 23.3341 20.8184 23.2984 20.4553 22.7952C20.2381 22.494 19.8999 22.0254 19.3611 21.266M19.2796 21.3238C19.2796 21.3239 19.2797 21.324 19.2797 21.3241L19.3611 21.266M19.2796 21.3238L19.3611 21.266M20.4855 20.5532C20.4854 20.5533 20.4852 20.5534 20.4851 20.5535M20.4855 20.5532L20.4851 20.5535M20.4851 20.5535C20.4286 20.6059 20.3631 20.6418 20.2902 20.6607L20.4851 20.5535ZM24.46 24.8873C24.3579 24.7995 24.267 24.7212 24.186 24.6514M24.46 24.8873L24.186 24.6514M24.186 24.6514C24.0238 24.5115 23.9012 24.4059 23.8074 24.327M24.186 24.6514L23.8074 24.327M23.8074 24.327C23.6699 24.2113 23.5843 24.1444 23.5206 24.1124M23.8074 24.327L23.5206 24.1124M23.5206 24.1124C23.4852 24.0947 23.4503 24.0842 23.4124 24.0844M23.5206 24.1124L23.4124 24.0844M23.4124 24.0844C23.3785 24.0846 23.3492 24.0937 23.3304 24.0996M23.4124 24.0844L23.3304 24.0996M23.3304 24.0996L23.329 24.1M23.3304 24.0996L23.329 24.1M23.329 24.1L23.3287 24.1001M23.329 24.1L23.3287 24.1001M23.3287 24.1001L20.5256 24.9605L20.5249 24.9607L20.5138 24.9639C20.5097 24.9651 20.5027 24.9671 20.495 24.9701C20.48 24.9761 20.468 24.9835 20.4574 24.9912C20.4032 25.0211 20.2536 25.0925 20.0887 25.1575C20.004 25.1909 19.9172 25.2219 19.8389 25.2443C19.7587 25.2673 19.695 25.2792 19.6537 25.2792C19.2468 25.2792 18.8617 25.0814 18.6243 24.7501L23.3287 24.1001ZM20.8434 22.5156C20.6574 22.2587 20.3905 21.8899 19.9953 21.332L20.4332 21.2207L20.4336 21.2206C20.5995 21.1777 20.7533 21.0933 20.8805 20.9751L20.8813 20.9743L21.5665 20.323V23.1289L21.3081 23.2088C21.2521 23.0925 21.1855 22.9914 21.0312 22.776C20.9796 22.7039 20.918 22.6188 20.8434 22.5156ZM20.2898 20.6608L19.444 20.876L20.2898 20.6608ZM20.6951 12.6875C20.6951 12.5662 20.7875 12.4742 20.9056 12.4742C21.0231 12.4742 21.1189 12.57 21.1189 12.6875V13.8219L20.6951 13.6445L20.6951 12.6875ZM22.5925 13.7229C22.5925 13.6054 22.6882 13.5097 22.8057 13.5097C22.9209 13.5097 23.0162 13.6046 23.0162 13.7229V14.6162L22.5925 14.4388V13.7229Z" fill="#FF4B19" stroke="#FF4B19" stroke-width="0.2"/>
<path d="M13.8824 17.6596C13.8824 18.7935 14.8049 19.716 15.9388 19.716C17.0728 19.716 17.9953 18.7935 17.9953 17.6596C17.9953 16.5256 17.0728 15.6031 15.9388 15.6031C14.8049 15.6031 13.8824 16.5256 13.8824 17.6596ZM17.4173 17.6596C17.4173 18.4747 16.7539 19.1381 15.9388 19.1381C15.1238 19.1381 14.4604 18.4747 14.4604 17.6596C14.4604 16.8445 15.1238 16.1811 15.9388 16.1811C16.7539 16.1811 17.4173 16.8445 17.4173 17.6596Z" fill="#FF4B19" stroke="#FF4B19" stroke-width="0.2"/>
<path d="M23.0825 25.1136L23.0825 25.1136C23.1741 25.0924 23.2714 25.1163 23.342 25.18L23.3419 25.18L23.2751 25.2543L23.3421 25.1801L23.0825 25.1136ZM23.0825 25.1136L23.0819 25.1137M23.0825 25.1136L23.0819 25.1137M23.0819 25.1137L21.2763 25.5436L21.2763 25.5436M23.0819 25.1137L21.2763 25.5436M21.2763 25.5436C21.1705 25.5688 21.0878 25.6513 21.0623 25.7572L21.0622 25.7575M21.2763 25.5436L21.0622 25.7575M21.0622 25.7575C21.037 25.863 21.073 25.9743 21.156 26.0448M21.0622 25.7575L21.156 26.0448M21.156 26.0448C21.156 26.0448 21.156 26.0448 21.156 26.0449L21.156 26.0448ZM24.6043 26.3148C24.604 26.3145 24.6037 26.3142 24.6034 26.314L24.5384 26.3899L24.6052 26.3155L24.6043 26.3148ZM24.2223 26.7482L24.2222 26.7483L24.224 26.7498C24.4066 26.9063 24.4288 27.1831 24.2748 27.3656C24.1269 27.5395 23.8331 27.5623 23.6599 27.4153L21.9648 25.9737L23.0684 25.711L24.2223 26.7482Z" fill="#FF4B19" stroke="#FF4B19" stroke-width="0.2"/>
<path d="M13.3435 21.8362L13.3435 21.8362C13.4138 21.6934 13.5866 21.6339 13.7297 21.7035L13.7298 21.7036L15.9545 22.79C15.9545 22.79 15.9545 22.79 15.9545 22.79C16.0979 22.86 16.1573 23.033 16.0873 23.1763C16.0873 23.1764 16.0873 23.1764 16.0873 23.1764L15.9974 23.1325C15.9647 23.1997 15.8975 23.2386 15.8274 23.2386C15.7996 23.2386 15.7713 23.2324 15.7447 23.2194L13.3435 21.8362ZM13.3435 21.8362L13.3434 21.8364C13.2734 21.9798 13.3328 22.1529 13.4762 22.2229C13.4762 22.2229 13.4762 22.2229 13.4762 22.2229L15.7007 23.3092C15.7007 23.3092 15.7008 23.3092 15.7008 23.3092L13.3435 21.8362Z" fill="#FF4B19" stroke="#FF4B19" stroke-width="0.2"/>
<path d="M14.5286 23.6755L14.5287 23.6755L16.7535 24.7619C16.7535 24.7619 16.7535 24.7619 16.7535 24.7619C16.8969 24.8319 16.9563 25.0049 16.8864 25.1483C16.8864 25.1483 16.8864 25.1483 16.8864 25.1483L16.7965 25.1045C16.7638 25.1716 16.6966 25.2105 16.6265 25.2105C16.5987 25.2105 16.5706 25.2044 16.5438 25.1913L14.5286 23.6755ZM14.5286 23.6755C14.3842 23.6052 14.2125 23.6653 14.1423 23.8082L14.1423 23.8082L14.1422 23.8084C14.0722 23.9517 14.1317 24.1248 14.2751 24.1948L14.5286 23.6755Z" fill="#FF4B19" stroke="#FF4B19" stroke-width="0.2"/>
</g>
<defs>
<clipPath id="clip0_243_4751">
<rect width="17" height="18" fill="white" transform="translate(12 11)"/>
</clipPath>
</defs>
</svg>
