<svg width="40" height="40" viewBox="0 0 40 40" fill="none" xmlns="http://www.w3.org/2000/svg">
<rect width="40" height="40" rx="20" fill="#FF4B19"/>
<g clip-path="url(#clip0_539_5069)">
<mask id="path-2-outside-1_539_5069" maskUnits="userSpaceOnUse" x="11" y="11.0654" width="18" height="18" fill="black">
<rect fill="white" x="11" y="11.0654" width="18" height="18"/>
<path d="M24.6745 12.1615C24.7865 12.0404 24.974 12.0326 25.0951 12.1446C25.2162 12.2566 25.224 12.4441 25.112 12.5652L22.6745 15.2032L22.6706 15.2084C22.3725 15.5691 22.168 15.9024 22.0769 16.2071C21.9962 16.4766 22.0079 16.7214 22.1277 16.935C22.1915 17.0496 22.1706 17.1902 22.086 17.2826L20.9284 18.5352C20.8152 18.4115 20.7253 18.3113 20.6654 18.2462C20.6381 18.2097 20.6068 18.1746 20.5743 18.1407L20.5717 18.1433C20.556 18.1264 20.5391 18.1108 20.5222 18.0951L21.5118 17.0235C21.3959 16.7136 21.3972 16.3842 21.504 16.0339C21.6185 15.6537 21.862 15.2488 22.2123 14.8269C22.2201 14.8165 22.2266 14.8061 22.2357 14.797L24.6719 12.1589L24.6745 12.1615ZM19.4389 19.2279C19.3295 19.1056 19.3399 18.9167 19.4623 18.8074C19.5847 18.698 19.7735 18.7084 19.8829 18.8308C21.1081 20.2032 24.8959 24.2644 25.9454 25.7826C27.3295 27.7423 25.1863 28.3595 24.4753 27.6459C22.6993 25.9285 18.9284 21.5496 17.2709 19.6928C16.6745 19.9454 16.0951 19.9845 15.5131 19.8178C14.8868 19.6394 14.2735 19.2214 13.6511 18.5795L13.6433 18.5717C13.1693 18.0717 12.7982 17.5782 12.53 17.0899C12.2553 16.5873 12.0873 16.0899 12.0274 15.5964C11.9636 15.0652 12.0131 14.5704 12.1563 14.1316C12.3243 13.616 12.6225 13.1798 13.0131 12.8556C13.4063 12.53 13.8894 12.3191 14.4284 12.254C14.8764 12.2006 15.3646 12.2462 15.8699 12.4115C16.5691 12.6394 17.3842 13.2058 18.06 13.9324C18.5587 14.4675 18.9857 15.0938 19.2396 15.7384C19.504 16.4102 19.5847 17.1056 19.3725 17.7566C19.2475 18.142 19.0209 18.504 18.6693 18.8308C18.5482 18.9428 18.3607 18.935 18.2488 18.8152C18.1368 18.6941 18.1446 18.5066 18.2644 18.3946C18.5365 18.1407 18.711 17.8634 18.806 17.5704C18.9701 17.0665 18.9011 16.5079 18.685 15.9584C18.4584 15.3829 18.0743 14.8204 17.6238 14.3373C17.0144 13.6837 16.2917 13.1772 15.6824 12.9779C15.2644 12.8425 14.8646 12.8035 14.4988 12.8477C14.0743 12.8998 13.6941 13.0626 13.3907 13.3165C13.086 13.5704 12.8529 13.9128 12.7188 14.3204C12.6029 14.6759 12.5626 15.0847 12.6159 15.5261C12.6667 15.9428 12.8113 16.3686 13.0482 16.8035C13.2969 17.2501 13.6381 17.7019 14.0769 18.1641L14.0795 18.1681C14.629 18.7345 15.1563 19.099 15.6784 19.2475C16.1719 19.3881 16.6745 19.3334 17.1993 19.0717C17.3191 19.0027 17.474 19.0261 17.5691 19.1329C19.1863 20.9441 23.1199 25.5027 24.862 27.1915C25.6185 27.5001 26.0378 27.1199 25.6758 26.4493C25.112 25.4024 20.2683 20.1602 19.4389 19.2279ZM17.8685 21.8464L14.0717 25.9545C14.0639 25.9623 14.0574 25.9701 14.0482 25.9779C13.4935 26.5769 14.4753 27.4493 15.0847 26.866L18.7722 22.8751L19.168 23.3243L15.5092 27.2839C15.5014 27.2931 15.4935 27.3009 15.4831 27.31C15.2644 27.4936 15.0443 27.6134 14.8217 27.6628C14.5925 27.7149 14.3672 27.6915 14.1511 27.5899C14.1146 27.5756 14.0808 27.5574 14.0508 27.53L13.5261 27.0444C13.5183 27.0365 13.5105 27.03 13.5027 27.0209C13.2995 26.7865 13.2032 26.5365 13.2292 26.2722C13.254 26.0222 13.3868 25.7787 13.6381 25.5444L17.4714 21.3959L17.8685 21.8464ZM21.8477 19.547L22.073 19.3035C22.185 19.1824 22.3738 19.1746 22.4935 19.2865C22.6133 19.3985 22.6225 19.586 22.5105 19.7071L22.2501 19.9884L21.8477 19.547ZM25.6003 13.0326C25.7123 12.9115 25.8998 12.9037 26.0209 13.0157C26.142 13.1277 26.1498 13.3152 26.0378 13.4363L23.9011 15.7501C23.7891 15.8712 23.6016 15.879 23.4805 15.767C23.3594 15.655 23.3516 15.4675 23.4636 15.3464L25.6003 13.0326ZM26.5248 13.8881C26.6368 13.767 26.8243 13.7592 26.9454 13.8712C27.0665 13.9832 27.0743 14.1707 26.9623 14.2918L24.8269 16.6043C24.7149 16.7253 24.5274 16.7332 24.4063 16.6212C24.2852 16.5092 24.2774 16.3217 24.3894 16.2006L26.5248 13.8881ZM27.4831 14.7774C27.5951 14.6563 27.7826 14.6485 27.9037 14.7605C28.0248 14.8725 28.0326 15.0613 27.9206 15.1811L25.4831 17.8204C25.474 17.8295 25.4649 17.8373 25.4558 17.8464C24.9011 18.3803 24.3712 18.6889 23.8646 18.7761C23.3152 18.8712 22.8113 18.7149 22.349 18.3113C22.2253 18.2032 22.2136 18.0144 22.3204 17.892C22.4284 17.7683 22.6172 17.7566 22.7396 17.8634C23.0587 18.142 23.3998 18.2514 23.7605 18.1876C24.1485 18.1212 24.5756 17.8647 25.0417 17.4154L25.0443 17.4128L27.4805 14.7761L27.4831 14.7774Z"/>
</mask>
<path d="M24.6745 12.1615C24.7865 12.0404 24.974 12.0326 25.0951 12.1446C25.2162 12.2566 25.224 12.4441 25.112 12.5652L22.6745 15.2032L22.6706 15.2084C22.3725 15.5691 22.168 15.9024 22.0769 16.2071C21.9962 16.4766 22.0079 16.7214 22.1277 16.935C22.1915 17.0496 22.1706 17.1902 22.086 17.2826L20.9284 18.5352C20.8152 18.4115 20.7253 18.3113 20.6654 18.2462C20.6381 18.2097 20.6068 18.1746 20.5743 18.1407L20.5717 18.1433C20.556 18.1264 20.5391 18.1108 20.5222 18.0951L21.5118 17.0235C21.3959 16.7136 21.3972 16.3842 21.504 16.0339C21.6185 15.6537 21.862 15.2488 22.2123 14.8269C22.2201 14.8165 22.2266 14.8061 22.2357 14.797L24.6719 12.1589L24.6745 12.1615ZM19.4389 19.2279C19.3295 19.1056 19.3399 18.9167 19.4623 18.8074C19.5847 18.698 19.7735 18.7084 19.8829 18.8308C21.1081 20.2032 24.8959 24.2644 25.9454 25.7826C27.3295 27.7423 25.1863 28.3595 24.4753 27.6459C22.6993 25.9285 18.9284 21.5496 17.2709 19.6928C16.6745 19.9454 16.0951 19.9845 15.5131 19.8178C14.8868 19.6394 14.2735 19.2214 13.6511 18.5795L13.6433 18.5717C13.1693 18.0717 12.7982 17.5782 12.53 17.0899C12.2553 16.5873 12.0873 16.0899 12.0274 15.5964C11.9636 15.0652 12.0131 14.5704 12.1563 14.1316C12.3243 13.616 12.6225 13.1798 13.0131 12.8556C13.4063 12.53 13.8894 12.3191 14.4284 12.254C14.8764 12.2006 15.3646 12.2462 15.8699 12.4115C16.5691 12.6394 17.3842 13.2058 18.06 13.9324C18.5587 14.4675 18.9857 15.0938 19.2396 15.7384C19.504 16.4102 19.5847 17.1056 19.3725 17.7566C19.2475 18.142 19.0209 18.504 18.6693 18.8308C18.5482 18.9428 18.3607 18.935 18.2488 18.8152C18.1368 18.6941 18.1446 18.5066 18.2644 18.3946C18.5365 18.1407 18.711 17.8634 18.806 17.5704C18.9701 17.0665 18.9011 16.5079 18.685 15.9584C18.4584 15.3829 18.0743 14.8204 17.6238 14.3373C17.0144 13.6837 16.2917 13.1772 15.6824 12.9779C15.2644 12.8425 14.8646 12.8035 14.4988 12.8477C14.0743 12.8998 13.6941 13.0626 13.3907 13.3165C13.086 13.5704 12.8529 13.9128 12.7188 14.3204C12.6029 14.6759 12.5626 15.0847 12.6159 15.5261C12.6667 15.9428 12.8113 16.3686 13.0482 16.8035C13.2969 17.2501 13.6381 17.7019 14.0769 18.1641L14.0795 18.1681C14.629 18.7345 15.1563 19.099 15.6784 19.2475C16.1719 19.3881 16.6745 19.3334 17.1993 19.0717C17.3191 19.0027 17.474 19.0261 17.5691 19.1329C19.1863 20.9441 23.1199 25.5027 24.862 27.1915C25.6185 27.5001 26.0378 27.1199 25.6758 26.4493C25.112 25.4024 20.2683 20.1602 19.4389 19.2279ZM17.8685 21.8464L14.0717 25.9545C14.0639 25.9623 14.0574 25.9701 14.0482 25.9779C13.4935 26.5769 14.4753 27.4493 15.0847 26.866L18.7722 22.8751L19.168 23.3243L15.5092 27.2839C15.5014 27.2931 15.4935 27.3009 15.4831 27.31C15.2644 27.4936 15.0443 27.6134 14.8217 27.6628C14.5925 27.7149 14.3672 27.6915 14.1511 27.5899C14.1146 27.5756 14.0808 27.5574 14.0508 27.53L13.5261 27.0444C13.5183 27.0365 13.5105 27.03 13.5027 27.0209C13.2995 26.7865 13.2032 26.5365 13.2292 26.2722C13.254 26.0222 13.3868 25.7787 13.6381 25.5444L17.4714 21.3959L17.8685 21.8464ZM21.8477 19.547L22.073 19.3035C22.185 19.1824 22.3738 19.1746 22.4935 19.2865C22.6133 19.3985 22.6225 19.586 22.5105 19.7071L22.2501 19.9884L21.8477 19.547ZM25.6003 13.0326C25.7123 12.9115 25.8998 12.9037 26.0209 13.0157C26.142 13.1277 26.1498 13.3152 26.0378 13.4363L23.9011 15.7501C23.7891 15.8712 23.6016 15.879 23.4805 15.767C23.3594 15.655 23.3516 15.4675 23.4636 15.3464L25.6003 13.0326ZM26.5248 13.8881C26.6368 13.767 26.8243 13.7592 26.9454 13.8712C27.0665 13.9832 27.0743 14.1707 26.9623 14.2918L24.8269 16.6043C24.7149 16.7253 24.5274 16.7332 24.4063 16.6212C24.2852 16.5092 24.2774 16.3217 24.3894 16.2006L26.5248 13.8881ZM27.4831 14.7774C27.5951 14.6563 27.7826 14.6485 27.9037 14.7605C28.0248 14.8725 28.0326 15.0613 27.9206 15.1811L25.4831 17.8204C25.474 17.8295 25.4649 17.8373 25.4558 17.8464C24.9011 18.3803 24.3712 18.6889 23.8646 18.7761C23.3152 18.8712 22.8113 18.7149 22.349 18.3113C22.2253 18.2032 22.2136 18.0144 22.3204 17.892C22.4284 17.7683 22.6172 17.7566 22.7396 17.8634C23.0587 18.142 23.3998 18.2514 23.7605 18.1876C24.1485 18.1212 24.5756 17.8647 25.0417 17.4154L25.0443 17.4128L27.4805 14.7761L27.4831 14.7774Z" fill="white"/>
<path d="M24.6745 12.1615C24.7865 12.0404 24.974 12.0326 25.0951 12.1446C25.2162 12.2566 25.224 12.4441 25.112 12.5652L22.6745 15.2032L22.6706 15.2084C22.3725 15.5691 22.168 15.9024 22.0769 16.2071C21.9962 16.4766 22.0079 16.7214 22.1277 16.935C22.1915 17.0496 22.1706 17.1902 22.086 17.2826L20.9284 18.5352C20.8152 18.4115 20.7253 18.3113 20.6654 18.2462C20.6381 18.2097 20.6068 18.1746 20.5743 18.1407L20.5717 18.1433C20.556 18.1264 20.5391 18.1108 20.5222 18.0951L21.5118 17.0235C21.3959 16.7136 21.3972 16.3842 21.504 16.0339C21.6185 15.6537 21.862 15.2488 22.2123 14.8269C22.2201 14.8165 22.2266 14.8061 22.2357 14.797L24.6719 12.1589L24.6745 12.1615ZM19.4389 19.2279C19.3295 19.1056 19.3399 18.9167 19.4623 18.8074C19.5847 18.698 19.7735 18.7084 19.8829 18.8308C21.1081 20.2032 24.8959 24.2644 25.9454 25.7826C27.3295 27.7423 25.1863 28.3595 24.4753 27.6459C22.6993 25.9285 18.9284 21.5496 17.2709 19.6928C16.6745 19.9454 16.0951 19.9845 15.5131 19.8178C14.8868 19.6394 14.2735 19.2214 13.6511 18.5795L13.6433 18.5717C13.1693 18.0717 12.7982 17.5782 12.53 17.0899C12.2553 16.5873 12.0873 16.0899 12.0274 15.5964C11.9636 15.0652 12.0131 14.5704 12.1563 14.1316C12.3243 13.616 12.6225 13.1798 13.0131 12.8556C13.4063 12.53 13.8894 12.3191 14.4284 12.254C14.8764 12.2006 15.3646 12.2462 15.8699 12.4115C16.5691 12.6394 17.3842 13.2058 18.06 13.9324C18.5587 14.4675 18.9857 15.0938 19.2396 15.7384C19.504 16.4102 19.5847 17.1056 19.3725 17.7566C19.2475 18.142 19.0209 18.504 18.6693 18.8308C18.5482 18.9428 18.3607 18.935 18.2488 18.8152C18.1368 18.6941 18.1446 18.5066 18.2644 18.3946C18.5365 18.1407 18.711 17.8634 18.806 17.5704C18.9701 17.0665 18.9011 16.5079 18.685 15.9584C18.4584 15.3829 18.0743 14.8204 17.6238 14.3373C17.0144 13.6837 16.2917 13.1772 15.6824 12.9779C15.2644 12.8425 14.8646 12.8035 14.4988 12.8477C14.0743 12.8998 13.6941 13.0626 13.3907 13.3165C13.086 13.5704 12.8529 13.9128 12.7188 14.3204C12.6029 14.6759 12.5626 15.0847 12.6159 15.5261C12.6667 15.9428 12.8113 16.3686 13.0482 16.8035C13.2969 17.2501 13.6381 17.7019 14.0769 18.1641L14.0795 18.1681C14.629 18.7345 15.1563 19.099 15.6784 19.2475C16.1719 19.3881 16.6745 19.3334 17.1993 19.0717C17.3191 19.0027 17.474 19.0261 17.5691 19.1329C19.1863 20.9441 23.1199 25.5027 24.862 27.1915C25.6185 27.5001 26.0378 27.1199 25.6758 26.4493C25.112 25.4024 20.2683 20.1602 19.4389 19.2279ZM17.8685 21.8464L14.0717 25.9545C14.0639 25.9623 14.0574 25.9701 14.0482 25.9779C13.4935 26.5769 14.4753 27.4493 15.0847 26.866L18.7722 22.8751L19.168 23.3243L15.5092 27.2839C15.5014 27.2931 15.4935 27.3009 15.4831 27.31C15.2644 27.4936 15.0443 27.6134 14.8217 27.6628C14.5925 27.7149 14.3672 27.6915 14.1511 27.5899C14.1146 27.5756 14.0808 27.5574 14.0508 27.53L13.5261 27.0444C13.5183 27.0365 13.5105 27.03 13.5027 27.0209C13.2995 26.7865 13.2032 26.5365 13.2292 26.2722C13.254 26.0222 13.3868 25.7787 13.6381 25.5444L17.4714 21.3959L17.8685 21.8464ZM21.8477 19.547L22.073 19.3035C22.185 19.1824 22.3738 19.1746 22.4935 19.2865C22.6133 19.3985 22.6225 19.586 22.5105 19.7071L22.2501 19.9884L21.8477 19.547ZM25.6003 13.0326C25.7123 12.9115 25.8998 12.9037 26.0209 13.0157C26.142 13.1277 26.1498 13.3152 26.0378 13.4363L23.9011 15.7501C23.7891 15.8712 23.6016 15.879 23.4805 15.767C23.3594 15.655 23.3516 15.4675 23.4636 15.3464L25.6003 13.0326ZM26.5248 13.8881C26.6368 13.767 26.8243 13.7592 26.9454 13.8712C27.0665 13.9832 27.0743 14.1707 26.9623 14.2918L24.8269 16.6043C24.7149 16.7253 24.5274 16.7332 24.4063 16.6212C24.2852 16.5092 24.2774 16.3217 24.3894 16.2006L26.5248 13.8881ZM27.4831 14.7774C27.5951 14.6563 27.7826 14.6485 27.9037 14.7605C28.0248 14.8725 28.0326 15.0613 27.9206 15.1811L25.4831 17.8204C25.474 17.8295 25.4649 17.8373 25.4558 17.8464C24.9011 18.3803 24.3712 18.6889 23.8646 18.7761C23.3152 18.8712 22.8113 18.7149 22.349 18.3113C22.2253 18.2032 22.2136 18.0144 22.3204 17.892C22.4284 17.7683 22.6172 17.7566 22.7396 17.8634C23.0587 18.142 23.3998 18.2514 23.7605 18.1876C24.1485 18.1212 24.5756 17.8647 25.0417 17.4154L25.0443 17.4128L27.4805 14.7761L27.4831 14.7774Z" stroke="white" stroke-width="0.4" mask="url(#path-2-outside-1_539_5069)"/>
</g>
<defs>
<clipPath id="clip0_539_5069">
<rect width="18" height="18" fill="white" transform="translate(11 11)"/>
</clipPath>
</defs>
</svg>
