<svg width="40" height="40" viewBox="0 0 40 40" fill="none" xmlns="http://www.w3.org/2000/svg">
<rect width="40" height="40" rx="20" fill="#FF4B19"/>
<path fill-rule="evenodd" clip-rule="evenodd" d="M20.9202 13.4812L22.4431 16.5235C22.5923 16.8221 22.8804 17.0292 23.2145 17.0771L26.6211 17.5675C27.4628 17.689 27.7977 18.7091 27.1886 19.2936L24.7252 21.6607C24.4831 21.8935 24.3729 22.2281 24.4301 22.5567L25.0115 25.8985C25.1547 26.7252 24.2748 27.3559 23.5225 26.9648L20.4777 25.3859C20.1792 25.231 19.8217 25.231 19.5223 25.3859L16.4775 26.9648C15.7252 27.3559 14.8453 26.7252 14.9894 25.8985L15.5699 22.5567C15.6271 22.2281 15.5169 21.8935 15.2748 21.6607L12.8114 19.2936C12.2023 18.7091 12.5372 17.689 13.3789 17.5675L16.7855 17.0771C17.1196 17.0292 17.4086 16.8221 17.5578 16.5235L19.0798 13.4812C19.4564 12.7289 20.5436 12.7289 20.9202 13.4812Z" stroke="white" stroke-width="1.5" stroke-linecap="round" stroke-linejoin="round"/>
</svg>
