<svg width="40" height="40" viewBox="0 0 40 40" fill="none" xmlns="http://www.w3.org/2000/svg">
<rect width="40" height="40" rx="20" fill="white"/>
<path d="M17.6317 27.3098V24.7542C17.6316 24.1042 18.1616 23.576 18.8182 23.5717H21.2232C21.8829 23.5717 22.4177 24.1011 22.4177 24.7542V24.7542V27.3178C22.4176 27.8697 22.8625 28.3207 23.4198 28.3337H25.0232C26.6216 28.3337 27.9173 27.0509 27.9173 25.4685V25.4685V18.1985C27.9088 17.576 27.6135 16.9915 27.1156 16.6112L21.6321 12.2381C20.6714 11.4766 19.3058 11.4766 18.3452 12.2381L12.8857 16.6191C12.3859 16.9978 12.0901 17.5834 12.084 18.2065V25.4685C12.084 27.0509 13.3797 28.3337 14.9781 28.3337H16.5815C17.1526 28.3337 17.6156 27.8753 17.6156 27.3098V27.3098" stroke="#FF4B19" stroke-width="1.5" stroke-linecap="round" stroke-linejoin="round"/>
</svg>
