<svg width="40" height="40" viewBox="0 0 40 40" fill="none" xmlns="http://www.w3.org/2000/svg">
<rect width="40" height="40" rx="20" fill="white"/>
<path d="M23.1729 17.9889L23.1538 17.8908C23.7014 17.7842 24.0631 17.67 24.2989 17.5727C24.0631 17.4753 23.7014 17.3611 23.1538 17.2546C22.1915 17.0675 20.9531 16.9638 19.6671 16.9638C18.3811 16.9638 17.1427 17.0674 16.1804 17.2546M23.1729 17.9889L16.1804 17.2546C16.1804 17.2546 16.1804 17.2546 16.1804 17.2546M23.1729 17.9889L23.1538 17.8908C22.1915 18.078 20.9531 18.1815 19.6671 18.1815C18.3811 18.1815 17.1427 18.0779 16.1804 17.8908C15.6328 17.7843 15.271 17.6701 15.0353 17.5727C15.2711 17.4753 15.6328 17.3611 16.1804 17.2546M23.1729 17.9889L16.1804 17.2546M15.7677 16.1177L15.7677 16.1177C15.1004 16.2672 14.6165 16.4435 14.298 16.6747C13.9725 16.911 13.8199 17.2052 13.8199 17.5727C13.8199 17.9401 13.9725 18.2343 14.298 18.4706C14.6165 18.7018 15.1004 18.8781 15.7677 19.0276C16.8153 19.2624 18.2001 19.3908 19.6671 19.3908C21.1341 19.3908 22.5189 19.2623 23.5665 19.0276L23.5446 18.93L23.5665 19.0276C24.2338 18.8781 24.7177 18.7018 25.0362 18.4706C25.3617 18.2343 25.5143 17.9401 25.5143 17.5727C25.5143 17.2052 25.3616 16.911 25.0362 16.6747C24.7177 16.4435 24.2338 16.2673 23.5665 16.1177L23.5446 16.2153L23.5665 16.1177C22.5189 15.8829 21.1341 15.7545 19.6671 15.7545C18.2001 15.7545 16.8153 15.883 15.7677 16.1177Z" fill="#FF4B19" stroke="#FF4B19" stroke-width="0.2"/>
<path d="M27.9939 23.125L27.961 22.8611C27.927 22.5873 27.7532 22.4073 27.5731 22.4591C27.3929 22.5108 27.2745 22.7748 27.3086 23.0487L27.3414 23.3125C27.3716 23.5547 27.5109 23.7235 27.6672 23.7235C27.6877 23.7235 27.7085 23.7206 27.7293 23.7146C27.9095 23.6628 28.0279 23.3988 27.9939 23.125Z" fill="#FF4B19"/>
<path d="M11.3398 23.1246L11.2406 23.1123L11.9545 17.3759C12.0477 16.3227 12.8887 15.485 14.3876 14.8666C15.8071 14.281 17.6823 13.9605 19.6673 13.9605C21.6523 13.9605 23.5275 14.281 24.9469 14.8666C26.4459 15.485 27.2869 16.3228 27.38 17.376L27.8379 21.0544C27.8571 21.2085 27.8338 21.3615 27.778 21.4858C27.7231 21.6082 27.6302 21.7156 27.502 21.7525C27.5019 21.7526 27.5019 21.7526 27.5018 21.7526L27.4742 21.6565C27.4533 21.6625 27.4326 21.6654 27.4121 21.6654C27.2557 21.6654 27.1164 21.4967 27.0863 21.2545L11.3398 23.1246ZM11.3398 23.1246L11.2406 23.1123C11.2214 23.2663 11.2447 23.4193 11.3005 23.5437C11.3554 23.6661 11.4484 23.7735 11.5767 23.8104L11.5768 23.8104C11.6063 23.8189 11.6363 23.8232 11.6664 23.8232C11.7829 23.8232 11.8832 23.7603 11.9547 23.6711C12.0263 23.5818 12.0745 23.4608 12.0915 23.3247C12.0915 23.3247 12.0915 23.3247 12.0915 23.3247L12.6108 19.1523L11.3398 23.1246ZM24.947 20.2789C25.7185 19.9606 26.3138 19.5851 26.7238 19.1523L12.627 19.0222C13.0245 19.4667 13.6247 19.856 14.4258 20.1864L14.3876 20.2789C14.3876 20.2789 14.3876 20.2789 14.3876 20.2789C15.7039 20.8219 17.4117 21.1367 19.2353 21.1797V25.4345C19.2353 25.5906 19.2767 25.7364 19.349 25.8463C19.4207 25.9553 19.5312 26.0391 19.6673 26.0391C19.8034 26.0391 19.9139 25.9553 19.9856 25.8463C20.0579 25.7364 20.0993 25.5906 20.0993 25.4345V21.1797C21.9229 21.1367 23.6307 20.8219 24.947 20.2789ZM24.6968 19.1199C23.3627 19.6703 21.5767 19.9756 19.6673 19.9756C17.758 19.9756 15.9719 19.6703 14.6379 19.1199C13.9931 18.8539 13.5317 18.5568 13.2334 18.278C12.9313 17.9957 12.8097 17.7452 12.8097 17.5728C12.8097 17.5646 12.8101 17.5557 12.8108 17.5458L12.8166 17.4989C12.8484 17.3175 12.9949 17.0753 13.2951 16.8117C13.594 16.5493 14.0361 16.2739 14.6379 16.0256C15.9719 15.4752 17.758 15.1699 19.6673 15.1699C21.5767 15.1699 23.3627 15.4752 24.6968 16.0256L24.7349 15.9331L24.6968 16.0256C25.2986 16.2738 25.7407 16.5492 26.0396 16.8117C26.3398 17.0753 26.4863 17.3175 26.518 17.4989L26.5239 17.5458C26.5246 17.5557 26.525 17.5646 26.525 17.5728C26.525 17.7452 26.4034 17.9957 26.1013 18.278C25.8029 18.5568 25.3416 18.8539 24.6968 19.1199Z" fill="#FF4B19" stroke="#FF4B19" stroke-width="0.2"/>
</svg>
