<svg width="40" height="40" viewBox="0 0 40 40" fill="none" xmlns="http://www.w3.org/2000/svg">
<rect width="40" height="40" rx="20" fill="#FF4B19"/>
<g clip-path="url(#clip0_539_5058)">
<path d="M17.3496 19.4675C17.3496 20.931 18.5388 22.1216 20.0004 22.1216C21.4621 22.1216 22.6512 20.931 22.6512 19.4675C22.6512 18.0041 21.4621 16.8135 20.0004 16.8135C18.5388 16.8135 17.3496 18.0041 17.3496 19.4675ZM21.5753 19.4675C21.5753 20.337 20.8688 21.0443 20.0004 21.0443C19.132 21.0443 18.4255 20.337 18.4255 19.4675C18.4255 18.5981 19.132 17.8907 20.0004 17.8907C20.8688 17.8907 21.5753 18.5981 21.5753 19.4675Z" fill="white"/>
<path d="M20.1159 25.472C20.5456 25.472 20.8939 25.1232 20.8939 24.693C20.8939 24.2628 20.5456 23.9141 20.1159 23.9141C19.6862 23.9141 19.3379 24.2628 19.3379 24.693C19.3379 25.1232 19.6862 25.472 20.1159 25.472Z" fill="white"/>
<path d="M26.8939 20.9307L20.4319 12.2175C20.3304 12.0807 20.1702 12 20 12C19.8297 12 19.6696 12.0807 19.5681 12.2175L13.1061 20.9307C12.929 21.1696 12.9787 21.5069 13.2173 21.6843C13.4559 21.8616 13.7928 21.8118 13.9699 21.5729L15.1461 19.987L16.2513 26.9227H14.9942C14.6971 26.9227 14.4563 27.1639 14.4563 27.4614C14.4563 27.7588 14.6971 28 14.9942 28H25.0058C25.3029 28 25.5437 27.7588 25.5437 27.4614C25.5437 27.1639 25.3029 26.9227 25.0058 26.9227H23.7487L24.8539 19.987L26.0301 21.573C26.1356 21.7153 26.298 21.7905 26.4625 21.7905C26.5739 21.7905 26.6864 21.7559 26.7828 21.6843C27.0213 21.5069 27.071 21.1695 26.8939 20.9307ZM22.6591 26.9227H17.3408L16.0429 18.7777L20 13.4421L23.9571 18.7777L22.6591 26.9227Z" fill="white"/>
</g>
<defs>
<clipPath id="clip0_539_5058">
<rect width="20" height="20" fill="white" transform="translate(10 10)"/>
</clipPath>
</defs>
</svg>
