<svg width="777" height="88" viewBox="0 0 777 88" fill="none" xmlns="http://www.w3.org/2000/svg">
<rect y="2" width="55" height="55" rx="27.5" fill="#FF8C09"/>
<path d="M29.1659 40V35.62H19.3859V33.4L29.6759 18.85H32.1959V33.19H35.3459V35.62H32.1959V40H29.1659ZM29.1659 33.19V22.54H29.8559L21.8159 33.94V33.19H29.1659Z" fill="white"/>
<rect x="80" y="19" width="20" height="20" rx="10" fill="#783F17"/>
<rect x="98" y="24" width="49" height="10" fill="#783F17"/>
<rect x="777" y="39" width="20" height="20" rx="10" transform="rotate(-180 777 39)" fill="#783F17"/>
<rect x="759" y="34" width="49" height="10" transform="rotate(-180 759 34)" fill="#783F17"/>
<rect x="200" y="24" width="49" height="10" fill="#783F17"/>
<rect x="146" width="55" height="55" rx="27.5" fill="#FF8C09"/>
<rect x="302" y="24" width="49" height="10" fill="#783F17"/>
<rect x="404" y="24" width="49" height="10" fill="#783F17"/>
<rect x="350" width="55" height="55" rx="27.5" fill="#FF8C09"/>
<rect x="506" y="24" width="49" height="10" fill="#783F17"/>
<rect x="608" y="24" width="49" height="10" fill="#783F17"/>
<rect x="554" width="55" height="55" rx="27.5" fill="#FF8C09"/>
<rect x="656" y="2" width="55" height="55" rx="27.5" fill="#FF8C09"/>
<rect x="452" y="2" width="55" height="55" rx="27.5" fill="#FF8C09"/>
<rect x="248" y="2" width="55" height="55" rx="27.5" fill="#FF8C09"/>
<path d="M262.62 45.0508H258.419V20.1447H262.62V45.0508Z" fill="#A55922"/>
<path d="M273.025 45.0508H268.824V14.9112H273.025V45.0508Z" fill="#A55922"/>
<path d="M283.073 45.0508H278.872V23.8353H283.073V45.0508Z" fill="#A55922"/>
<path d="M292.912 45.0508H288.711V17.6242H292.912V45.0508Z" fill="#A55922"/>
<path d="M264.643 20.1454C264.643 20.6487 262.797 21.0566 260.519 21.0566C258.242 21.0566 256.396 20.6487 256.396 20.1454C256.396 19.6422 258.242 19.2342 260.519 19.2342C262.797 19.2342 264.643 19.6422 264.643 20.1454Z" fill="#482811"/>
<path d="M275.05 14.911C275.05 15.4143 273.204 15.8223 270.926 15.8223C268.649 15.8223 266.803 15.4143 266.803 14.911C266.803 14.4078 268.649 13.9998 270.926 13.9998C273.204 13.9998 275.05 14.4078 275.05 14.911Z" fill="#482811"/>
<path d="M285.097 23.8353C285.097 24.3381 283.251 24.7461 280.973 24.7461C278.696 24.7461 276.85 24.3381 276.85 23.8353C276.85 23.3321 278.696 22.9241 280.973 22.9241C283.251 22.9241 285.097 23.3321 285.097 23.8353Z" fill="#482811"/>
<path d="M294.935 17.6244C294.935 18.1272 293.089 18.5352 290.811 18.5352C288.534 18.5352 286.688 18.1272 286.688 17.6244C286.688 17.1211 288.534 16.7132 290.811 16.7132C293.089 16.7132 294.935 17.1211 294.935 17.6244Z" fill="#482811"/>
<path d="M298 33.6377H253V29.9819H298V33.6377Z" fill="#482811"/>
<path d="M400 24.6723V30.5234C400 32.5521 398.356 34.1963 396.327 34.1963H358.563C356.595 34.1963 355 32.6013 355 30.6335V24.5626C355 22.5948 356.595 20.9998 358.563 20.9998H396.327C398.356 20.9998 400 22.644 400 24.6723Z" fill="#482811"/>
<path d="M400 24.5822V28.5732C400 30.5516 398.396 32.1553 396.418 32.1553H358.81C356.965 32.1553 355.47 30.6598 355.47 28.8151V24.3404C355.47 22.4957 356.965 21.0002 358.81 21.0002H396.418C398.396 21.0002 400 22.6038 400 24.5822Z" fill="#A55922"/>
<path d="M358.736 21.4879V31.667C358.027 31.667 357.451 31.0917 357.451 30.3823V22.6606C357.451 22.0129 357.976 21.4879 358.624 21.4879H358.736Z" fill="#482811"/>
<path d="M362.328 21.4879V31.667C361.618 31.667 361.043 31.0917 361.043 30.3823V22.6606C361.043 22.0129 361.568 21.4879 362.216 21.4879H362.328Z" fill="#482811"/>
<path d="M365.92 21.4879V31.667C365.21 31.667 364.635 31.0917 364.635 30.3823V22.6606C364.635 22.0129 365.16 21.4879 365.807 21.4879H365.92Z" fill="#482811"/>
<path d="M369.511 21.4879V31.667C368.802 31.667 368.227 31.0917 368.227 30.3823V22.6606C368.227 22.0129 368.752 21.4879 369.399 21.4879H369.511Z" fill="#482811"/>
<path d="M373.103 21.4879V31.667C372.394 31.667 371.818 31.0917 371.818 30.3823V22.6606C371.818 22.0129 372.343 21.4879 372.991 21.4879H373.103Z" fill="#482811"/>
<path d="M376.696 21.4879V31.667C375.986 31.667 375.411 31.0917 375.411 30.3823V22.6606C375.411 22.0129 375.936 21.4879 376.583 21.4879H376.696Z" fill="#482811"/>
<path d="M380.288 21.4879V31.667C379.578 31.667 379.003 31.0917 379.003 30.3823V22.6606C379.003 22.0129 379.528 21.4879 380.176 21.4879H380.288Z" fill="#482811"/>
<path d="M383.88 21.4879V31.667C383.17 31.667 382.595 31.0917 382.595 30.3823V22.6606C382.595 22.0129 383.12 21.4879 383.767 21.4879H383.88Z" fill="#482811"/>
<path d="M387.471 21.4879V31.667C386.762 31.667 386.187 31.0917 386.187 30.3823V22.6606C386.187 22.0129 386.712 21.4879 387.359 21.4879H387.471Z" fill="#482811"/>
<path d="M391.063 21.4879V31.667C390.354 31.667 389.778 31.0917 389.778 30.3823V22.6606C389.778 22.0129 390.303 21.4879 390.951 21.4879H391.063Z" fill="#482811"/>
<path d="M394.655 21.4879V31.667C393.945 31.667 393.37 31.0917 393.37 30.3823V22.6606C393.37 22.0129 393.895 21.4879 394.543 21.4879H394.655Z" fill="#482811"/>
<path d="M398.248 21.4879V31.667C397.538 31.667 396.963 31.0917 396.963 30.3823V22.6606C396.963 22.0129 397.488 21.4879 398.136 21.4879H398.248Z" fill="#482811"/>
<path d="M705.089 14.0195H662.177C661.673 14.0195 661.266 13.6112 661.266 13.1082V8.78035C661.266 8.27737 661.673 7.86903 662.177 7.86903H705.089C705.592 7.86903 706 8.27737 706 8.78035V13.1082C706 13.6112 705.592 14.0195 705.089 14.0195Z" fill="#482811"/>
<path d="M704.824 32.2715H661.911C661.408 32.2715 661 31.8632 661 31.3602V27.0323C661 26.5293 661.408 26.121 661.911 26.121H704.824C705.327 26.121 705.735 26.5293 705.735 27.0323V31.3602C705.735 31.8632 705.327 32.2715 704.824 32.2715Z" fill="#482811"/>
<path d="M705.089 50.5244H662.177C661.673 50.5244 661.266 50.1161 661.266 49.6131V45.2852C661.266 44.7816 661.673 44.3739 662.177 44.3739H705.089C705.592 44.3739 706 44.7816 706 45.2852V49.6131C706 50.1161 705.592 50.5244 705.089 50.5244Z" fill="#482811"/>
<path d="M668.138 53.3926H667.605C666.904 53.3926 666.335 52.8241 666.335 52.1227V6.26909C666.335 5.56831 666.904 4.9998 667.605 4.9998H668.138C668.839 4.9998 669.408 5.56831 669.408 6.26909V52.1227C669.408 52.8241 668.839 53.3926 668.138 53.3926Z" fill="#A55922"/>
<path d="M699.158 53.3926H698.625C697.924 53.3926 697.355 52.8241 697.355 52.1227V6.26909C697.355 5.56831 697.924 4.9998 698.625 4.9998H699.158C699.86 4.9998 700.428 5.56831 700.428 6.26909V52.1227C700.428 52.8241 699.86 53.3926 699.158 53.3926Z" fill="#A55922"/>
<path d="M580.775 29.5792C580.762 30.4072 581.371 31.0371 582.189 31.0427C582.991 31.0483 583.616 30.4437 583.63 29.6476C583.645 28.8431 583.047 28.2066 582.258 28.1879C581.425 28.1678 580.787 28.7667 580.775 29.5792ZM580.813 16.9195C580.808 16.1271 580.18 15.4991 579.389 15.4963C578.579 15.4935 577.949 16.1341 577.957 16.9536C577.965 17.7488 578.587 18.3684 579.379 18.3698C580.189 18.3717 580.819 17.7338 580.813 16.9195ZM594.876 26.7783C594.081 26.7802 593.451 27.4002 593.443 28.187C593.436 28.9957 594.073 29.6359 594.884 29.6345C595.675 29.6336 596.313 29.0102 596.328 28.2235C596.343 27.4292 595.687 26.7759 594.876 26.7783ZM568.813 26.7783C568.016 26.7802 567.386 27.3988 567.374 28.1898C567.361 28.9906 568.012 29.6373 568.826 29.634C569.62 29.6312 570.248 29.0093 570.255 28.2207C570.261 27.4105 569.627 26.7759 568.813 26.7783ZM585.744 42.3083C585.751 41.5 585.121 40.8556 584.32 40.8533C583.535 40.851 582.902 41.4701 582.888 42.2535C582.873 43.0703 583.481 43.717 584.287 43.7404C585.073 43.7638 585.737 43.111 585.744 42.3083ZM571.618 40.1494C570.826 40.1574 570.176 40.8294 570.197 41.6176C570.217 42.3968 570.861 43.0323 571.633 43.0342C572.427 43.0361 573.073 42.3823 573.069 41.5801C573.066 40.7774 572.42 40.1415 571.618 40.1494ZM596.992 38.7422C596.192 38.7436 595.547 39.3926 595.553 40.1911C595.56 40.9826 596.232 41.641 597.016 41.6237C597.79 41.6068 598.435 40.9563 598.442 40.1883C598.45 39.4039 597.785 38.7408 596.992 38.7422ZM592.082 17.6664C592.876 17.658 593.529 16.9869 593.507 16.202C593.485 15.4227 592.838 14.7887 592.065 14.7887C591.271 14.7877 590.626 15.4401 590.629 16.2413C590.632 17.0436 591.275 17.6744 592.082 17.6664ZM566.71 16.963C567.51 16.9616 568.151 16.3135 568.145 15.5122C568.139 14.7381 567.501 14.0979 566.723 14.0848C565.939 14.0717 565.262 14.7353 565.258 15.5211C565.255 16.3107 565.913 16.9644 566.71 16.963ZM582.607 32.4027C580.959 32.383 580.316 31.9578 579.546 30.4302C579.497 30.3313 579.329 30.2466 579.208 30.2358C576.632 30.0031 574.054 29.7801 571.476 29.5633C571.379 29.5554 571.245 29.5952 571.181 29.6631C570.484 30.3978 570.487 30.3997 570.814 31.385C570.897 31.6342 570.974 31.8852 571.048 32.1367C571.656 34.2094 571.954 36.3323 572.066 38.4846C572.077 38.7056 572.106 38.855 572.37 38.9272C573.42 39.2161 574.064 39.9242 574.335 40.9657C574.393 41.1891 574.478 41.2837 574.706 41.2949C576.898 41.4026 579.09 41.5141 581.281 41.6335C581.53 41.6471 581.633 41.5595 581.72 41.3263C582.009 40.5452 582.551 39.9926 583.337 39.7027C583.542 39.6268 583.628 39.536 583.622 39.2999C583.564 36.9668 583.275 34.6698 582.607 32.4027ZM567.091 18.2939C567.24 20.6729 567.653 22.977 568.452 25.2034C568.489 25.3041 568.677 25.3996 568.803 25.4118C570.279 25.5527 571.376 26.4125 571.529 27.6943C571.589 28.1945 571.78 28.3148 572.203 28.3031C572.29 28.3008 572.376 28.3303 572.463 28.3378C574.706 28.5284 576.949 28.7152 579.191 28.9124C579.446 28.9349 579.525 28.8117 579.635 28.6098C579.835 28.2432 580.05 27.8591 580.35 27.58C580.62 27.329 580.632 27.1454 580.507 26.835C579.616 24.6161 579.009 22.3242 578.761 19.94C578.746 19.8005 578.582 19.6178 578.443 19.5598C577.596 19.2048 576.999 18.6246 576.741 17.7367C576.665 17.4744 576.529 17.4028 576.278 17.3896C575.71 17.3601 575.14 17.3217 574.575 17.2524C572.823 17.0384 571.072 16.808 569.287 16.5795C568.872 17.5048 568.132 18.0865 567.091 18.2939ZM594.213 40.4468C594.208 38.8948 594.939 37.9198 596.345 37.4623C596.362 37.4155 596.383 37.3874 596.381 37.3616C596.216 35.2692 595.812 33.2255 595.109 31.2464C595.07 31.135 594.895 31.0123 594.772 30.9996C593.793 30.8966 593.026 30.4676 592.486 29.6298C592.424 29.5338 592.23 29.4664 592.105 29.4781C591.669 29.5193 591.239 29.6083 590.804 29.6649C590.265 29.7357 589.87 29.2856 590.034 28.7915C590.156 28.4258 590.475 28.3556 590.801 28.305C591.242 28.2371 591.683 28.1729 592.11 28.1092C592.164 27.3576 592.433 26.7769 592.889 26.2669C592.98 26.1653 593.018 25.9503 592.982 25.8136C592.874 25.4057 592.7 25.0156 592.584 24.6091C592.098 22.9063 591.726 21.1806 591.599 19.4099C591.578 19.1257 591.504 18.9514 591.176 18.8512C590.447 18.6292 589.901 18.1446 589.577 17.4449C589.477 17.2271 589.374 17.1522 589.116 17.1836C588.347 17.2763 587.574 17.3456 586.8 17.3873C585.339 17.4664 583.876 17.5161 582.415 17.5896C582.288 17.5962 582.082 17.658 582.053 17.7423C581.723 18.7159 581.045 19.3233 580.093 19.6427C580.093 19.7284 580.087 19.7869 580.093 19.844C580.361 22.1645 580.941 24.4058 581.84 26.561C581.893 26.6865 582.105 26.8083 582.252 26.8209C583.234 26.9043 584.124 27.2658 584.522 28.1654C584.847 28.9039 585.313 28.8618 585.894 28.7981C585.952 28.7915 586.01 28.7808 586.069 28.7766C586.623 28.7358 590.245 28.3228 590.801 28.305C591.221 28.2914 591.772 28.378 591.798 28.741C591.826 29.1269 591.234 29.5924 590.804 29.6649C590.588 29.7015 587.41 30.026 587.191 30.0415C586.534 30.0878 585.875 30.1155 585.222 30.1904C585.081 30.2063 584.93 30.3693 584.835 30.5013C584.565 30.8765 584.31 31.2637 584.073 31.6604C583.99 31.7995 583.912 31.992 583.94 32.1395C584.175 33.3721 584.488 34.5915 584.672 35.8307C584.833 36.9125 584.864 38.0144 584.938 39.1084C584.959 39.4222 585.02 39.6184 585.376 39.7448C585.998 39.9663 586.486 40.4145 586.764 41.0191C586.918 41.3549 587.112 41.4153 587.438 41.3741C588.642 41.2228 589.851 41.1076 591.053 40.9451C592.107 40.8023 593.156 40.6149 594.213 40.4468ZM559 13.1772C559.288 12.7431 559.66 12.7009 560.14 12.8517C561.421 13.2531 562.717 13.608 564.001 14.001C564.239 14.074 564.354 14.0159 564.52 13.8464C564.813 13.5486 565.138 13.2652 565.494 13.0508C565.724 12.9121 565.835 12.7819 565.856 12.5197C566.05 10.1299 566.609 7.82256 567.461 5.58639C567.538 5.38501 567.711 5.1429 567.894 5.08108C568.089 5.01552 568.452 5.06469 568.554 5.20284C568.702 5.40141 568.777 5.75076 568.714 5.99147C568.519 6.73843 568.182 7.45072 568.015 8.20142C567.693 9.63866 567.45 11.0932 567.178 12.5408C567.165 12.6101 567.176 12.6831 567.176 12.774C568.387 13.0751 569.155 13.8071 569.45 15.0219C569.473 15.1179 569.641 15.2307 569.754 15.2462C571.651 15.5038 573.55 15.7473 575.448 15.9936C575.477 15.9974 575.508 15.9899 575.536 15.9974C576.298 16.1954 576.857 16.0751 577.24 15.2551C577.413 14.8847 577.925 14.6538 578.314 14.4098C578.51 14.2871 578.602 14.1864 578.614 13.948C578.764 11.1443 579.244 8.40561 580.264 5.77652C580.296 5.69504 580.32 5.61027 580.353 5.52925C580.525 5.11012 580.851 4.92139 581.205 5.03379C581.58 5.15274 581.747 5.52691 581.607 5.96431C581.383 6.65882 581.135 7.34535 580.922 8.04313C580.314 10.0395 580.034 12.0889 579.947 14.1958C580.952 14.4796 581.675 15.0762 582.035 16.0807C582.067 16.1688 582.259 16.2535 582.373 16.2493C583.908 16.1898 585.444 16.1257 586.978 16.0376C587.736 15.9941 588.492 15.8995 589.287 15.8241C589.568 14.6374 590.263 13.8258 591.454 13.5181C591.623 12.323 591.712 11.1218 591.976 9.95992C592.316 8.46976 592.784 7.0077 593.224 5.54096C593.358 5.09232 593.75 4.90828 594.109 5.04409C594.488 5.18739 594.633 5.55454 594.457 6.03736C593.876 7.63242 593.387 9.25231 593.147 10.9363C593.033 11.732 592.951 12.5323 592.873 13.3322C592.864 13.4268 592.948 13.5912 593.029 13.6244C593.694 13.8956 594.191 14.3456 594.566 15.0228C595.652 14.7802 596.753 14.5695 597.834 14.2833C599.499 13.8431 601.15 13.3514 602.806 12.8808C602.905 12.8531 603.001 12.8175 603.1 12.7932C603.489 12.6962 603.84 12.8634 603.959 13.2006C604.078 13.5369 603.912 13.9068 603.523 14.0403C602.778 14.2965 602.03 14.5536 601.267 14.7484C599.245 15.2659 597.216 15.7548 595.186 16.2404C594.951 16.2966 594.846 16.3786 594.806 16.624C594.642 17.6378 594.075 18.3501 593.15 18.7978C593.036 18.8531 592.917 19.0573 592.927 19.1814C593.098 21.2574 593.499 23.2875 594.216 25.2483C594.25 25.3429 594.391 25.4764 594.466 25.4666C595.832 25.2914 596.769 25.9091 597.465 27.107C599.179 26.6102 600.9 26.1109 602.621 25.6127C602.818 25.556 603.013 25.4918 603.213 25.4548C603.59 25.3855 603.851 25.5654 603.96 25.9072C604.067 26.2383 603.929 26.5114 603.619 26.6785C603.518 26.7333 603.403 26.767 603.292 26.7989C601.551 27.2958 599.813 27.8011 598.067 28.2769C597.752 28.363 597.62 28.4979 597.564 28.8173C597.453 29.4612 597.09 29.9633 596.592 30.3852C596.479 30.4812 596.364 30.7135 596.404 30.8306C597.1 32.8757 597.513 34.9774 597.706 37.1242C597.731 37.4066 597.835 37.5569 598.106 37.6613C598.824 37.9381 599.276 38.5047 599.609 39.2133C600.681 38.8845 601.726 38.5656 602.769 38.243C603.442 38.0355 603.818 38.1357 603.963 38.5694C604.104 38.9904 603.839 39.3238 603.184 39.5219C602.178 39.8263 601.171 40.127 600.162 40.4178C599.891 40.4955 599.738 40.6023 599.658 40.9165C599.44 41.7721 598.883 42.3659 598.078 42.7443C597.934 42.8122 597.775 43.0202 597.764 43.1738C597.609 45.2816 597.237 47.3469 596.592 49.3597C596.518 49.5924 596.316 49.7849 596.173 49.9961H595.646C595.237 49.6865 595.208 49.3039 595.357 48.8356C595.56 48.1973 595.747 47.5487 595.867 46.8907C596.107 45.5753 596.297 44.2504 596.478 43.1162C595.853 42.6703 595.347 42.3603 594.909 41.9744C594.694 41.7852 594.539 41.7379 594.264 41.7763C591.981 42.0967 589.695 42.4011 587.408 42.6919C587.146 42.7251 587.043 42.8118 586.969 43.0609C586.672 44.064 586.001 44.7103 584.989 44.9735C584.741 45.0376 584.689 45.1543 584.64 45.3837C584.366 46.666 584.084 47.9472 583.758 49.2173C583.685 49.5011 583.428 49.7376 583.255 49.9961H582.815C582.394 49.7301 582.334 49.3807 582.458 48.9035C582.773 47.6911 583.03 46.4641 583.318 45.2451C583.375 45.0086 583.323 44.8705 583.091 44.7609C582.426 44.448 581.986 43.9263 581.713 43.2445C581.664 43.1218 581.483 42.9794 581.356 42.9719C579.109 42.8403 576.861 42.7312 574.614 42.6081C574.355 42.5935 574.206 42.6413 574.07 42.9007C573.693 43.6201 573.092 44.1048 572.29 44.2724C571.963 44.3408 571.884 44.5089 571.833 44.7932C571.636 45.9124 571.458 47.0383 571.193 48.1421C571.037 48.7883 570.986 49.5062 570.424 49.9961H569.897C569.482 49.6875 569.495 49.3077 569.606 48.8352C569.946 47.3871 570.222 45.9251 570.538 44.4724C570.595 44.2139 570.493 44.1193 570.288 44.005C569.558 43.6009 569.088 42.9846 568.933 42.1599C568.881 41.8812 568.748 41.7773 568.482 41.7286C565.521 41.1825 562.611 40.4285 559.749 39.491C559.477 39.4015 559.249 39.1749 559 39.0119V38.4851C559.338 38.0795 559.75 38.0552 560.212 38.2369C560.428 38.3221 560.655 38.3825 560.878 38.4532C563.563 39.3023 566.293 39.9701 569.081 40.4857C569.417 39.8118 569.904 39.3116 570.591 39.0105C570.667 38.9768 570.729 38.7946 570.716 38.6916C570.509 37.0277 570.336 35.3577 570.055 33.7064C569.895 32.7684 569.554 31.8618 569.3 30.9593C567.74 31.076 566.483 30.2733 566.157 28.9573C566.073 28.6192 565.913 28.5279 565.62 28.4487C563.692 27.9261 561.766 27.3955 559.847 26.8401C559.544 26.7521 559.281 26.5226 559 26.3582V25.8309C559.307 25.4253 559.677 25.3987 560.154 25.5387C562.029 26.088 563.916 26.5961 565.797 27.1253C566.078 27.2049 566.262 27.2002 566.403 26.8682C566.519 26.5971 566.736 26.3381 566.972 26.1578C567.239 25.9531 567.226 25.7691 567.132 25.4951C566.348 23.2177 565.901 20.8743 565.758 18.47C565.748 18.3108 565.604 18.0987 565.462 18.0186C564.533 17.4983 564.007 16.7256 563.938 15.6663C563.921 15.4031 563.812 15.3328 563.587 15.2682C562.297 14.9006 561.007 14.5301 559.729 14.1218C559.46 14.0361 559.242 13.7893 559 13.6169V13.1772Z" fill="#482811"/>
<path d="M566.71 16.9629C565.913 16.9643 565.255 16.3105 565.259 15.521C565.263 14.7351 565.939 14.0716 566.723 14.0847C567.501 14.0978 568.139 14.738 568.145 15.5121C568.151 16.3133 567.51 16.9615 566.71 16.9629Z" fill="#A55922"/>
<path d="M592.083 17.6659C591.276 17.6744 590.633 17.0431 590.63 16.2409C590.627 15.4401 591.272 14.7877 592.066 14.7882C592.839 14.7886 593.486 15.4223 593.507 16.2015C593.53 16.9869 592.877 17.6575 592.083 17.6659Z" fill="#A55922"/>
<path d="M596.992 38.7422C597.785 38.7408 598.45 39.4035 598.443 40.1883C598.436 40.9564 597.79 41.6068 597.017 41.6237C596.232 41.6406 595.56 40.9826 595.554 40.1912C595.548 39.3927 596.192 38.7436 596.992 38.7422Z" fill="#A55922"/>
<path d="M571.618 40.1494C572.42 40.1414 573.066 40.7774 573.07 41.5801C573.073 42.3823 572.427 43.0365 571.634 43.0342C570.861 43.0323 570.217 42.3968 570.197 41.6175C570.176 40.8294 570.827 40.1574 571.618 40.1494Z" fill="#A55922"/>
<path d="M585.745 42.3085C585.738 43.1112 585.074 43.7636 584.288 43.7406C583.482 43.7172 582.873 43.07 582.888 42.2537C582.902 41.4703 583.536 40.8512 584.321 40.8535C585.121 40.8558 585.752 41.5002 585.745 42.3085Z" fill="#A55922"/>
<path d="M568.813 26.7776C569.627 26.7752 570.262 27.4098 570.255 28.22C570.248 29.0086 569.62 29.6305 568.826 29.6338C568.013 29.6366 567.362 28.9899 567.374 28.1895C567.386 27.3981 568.016 26.7799 568.813 26.7776Z" fill="#A55922"/>
<path d="M594.876 26.7781C595.687 26.7762 596.343 27.4295 596.328 28.2233C596.312 29.0105 595.675 29.6334 594.884 29.6348C594.072 29.6357 593.436 28.9955 593.443 28.1868C593.451 27.4 594.081 26.78 594.876 26.7781Z" fill="#A55922"/>
<path d="M580.814 16.9198C580.82 17.7341 580.189 18.372 579.38 18.3701C578.588 18.3682 577.966 17.7491 577.958 16.9535C577.95 16.1339 578.58 15.4938 579.39 15.4966C580.18 15.4994 580.808 16.1274 580.814 16.9198Z" fill="#A55922"/>
<path d="M580.776 29.5785C580.788 28.766 581.426 28.167 582.258 28.1871C583.047 28.2059 583.646 28.8423 583.631 29.6469C583.617 30.443 582.992 31.0476 582.19 31.042C581.372 31.0363 580.763 30.4065 580.776 29.5785Z" fill="#A55922"/>
<g clip-path="url(#clip0_121_40194)">
<path d="M167.956 27.62C167.094 27.7046 166.233 27.8098 165.369 27.8687C163.139 28.0217 160.922 27.8839 158.733 27.4331C156.483 26.9694 154.326 26.2423 152.396 24.9558C151.927 24.6439 151.471 24.3116 151.212 23.7779C150.872 23.0765 150.941 22.3599 151.417 21.8577C151.485 21.7864 151.564 21.7257 151.64 21.6586C156.327 25.7132 161.867 27.3904 167.956 27.62Z" fill="#A55922"/>
<path d="M173.53 42.5596C175.661 39.246 179.381 37.0513 183.613 37.0513C185.083 37.0513 186.491 37.3165 187.791 37.8006C187.454 36.8294 187.27 35.7858 187.27 34.6996C187.27 31.3539 193.375 28.4141 196 26.7369C193.375 25.0596 187.27 22.1198 187.27 18.7741C187.27 17.6873 187.454 16.6443 187.791 15.6725C186.491 16.1572 185.083 16.4224 183.613 16.4224C179.381 16.4224 175.661 14.2271 173.53 10.9142C172.233 14.4479 168.838 16.9696 164.855 16.9696C163.354 16.9696 161.937 16.611 160.685 15.9762C161.204 17.1313 161.492 18.4109 161.492 19.7587C161.492 22.5426 160.261 25.0386 158.313 26.7316C158.314 26.7334 158.315 26.7351 158.315 26.7369C158.315 26.7386 158.314 26.7398 158.313 26.7415C160.261 28.4351 161.492 30.9311 161.492 33.7144C161.492 35.0623 161.204 36.3424 160.685 37.4969C161.937 36.8621 163.354 36.5041 164.855 36.5041C168.838 36.5041 172.233 39.0258 173.53 42.5596Z" fill="#A55922"/>
<path d="M162.254 26.7678V26.7059C162.254 26.5635 162.37 26.4478 162.512 26.4478H190.07C190.213 26.4478 190.328 26.5635 190.328 26.7059V26.7678C190.328 26.9103 190.213 27.0254 190.07 27.0254H162.512C162.37 27.0254 162.254 26.9103 162.254 26.7678Z" fill="#482811"/>
<path d="M180.754 24.7761L180.705 24.7399C180.589 24.6558 180.563 24.4952 180.647 24.3796L184.994 18.3855C185.078 18.2699 185.24 18.2442 185.355 18.3277L185.405 18.3645C185.52 18.448 185.546 18.6092 185.462 18.7248L181.114 24.7189C181.031 24.8339 180.87 24.8596 180.754 24.7761Z" fill="#482811"/>
<path d="M180.754 28.7838L180.705 28.82C180.589 28.9041 180.563 29.0653 180.647 29.1803L184.994 35.1744C185.078 35.29 185.24 35.3157 185.355 35.2322L185.405 35.1954C185.52 35.1119 185.546 34.9507 185.462 34.8357L181.114 28.841C181.031 28.726 180.87 28.7003 180.754 28.7838Z" fill="#482811"/>
<path d="M167.812 24.7322L167.862 24.696C167.977 24.6119 168.003 24.4507 167.919 24.3357L163.572 18.3416C163.488 18.226 163.326 18.2003 163.211 18.2838L163.161 18.3206C163.046 18.4041 163.02 18.5653 163.104 18.6803L167.451 24.6744C167.535 24.79 167.696 24.8157 167.812 24.7322Z" fill="#482811"/>
<path d="M167.812 28.7408L167.862 28.777C167.977 28.8605 168.003 29.0217 167.919 29.1373L163.572 35.1314C163.488 35.2471 163.326 35.2728 163.211 35.1892L163.161 35.1525C163.046 35.0689 163.02 34.9078 163.104 34.7921L167.451 28.798C167.535 28.6824 167.696 28.6567 167.812 28.7408Z" fill="#482811"/>
<path d="M174.314 24.7939H174.252C174.109 24.7939 173.994 24.6783 173.994 24.5358V17.1314C173.994 16.9889 174.109 16.8732 174.252 16.8732H174.314C174.456 16.8732 174.572 16.9889 174.572 17.1314V24.5358C174.572 24.6783 174.456 24.7939 174.314 24.7939Z" fill="#482811"/>
<path d="M174.314 28.6799H174.252C174.109 28.6799 173.994 28.7955 173.994 28.938V36.343C173.994 36.485 174.109 36.6006 174.252 36.6006H174.314C174.456 36.6006 174.572 36.485 174.572 36.343V28.938C174.572 28.7955 174.456 28.6799 174.314 28.6799Z" fill="#482811"/>
<path d="M165.983 13.3057C164.932 13.3057 164.076 12.4501 164.076 11.3989V-5.40781C164.076 -6.459 164.932 -7.31455 165.983 -7.31455C167.034 -7.31455 167.89 -6.459 167.89 -5.40781V11.3989C167.89 12.4501 167.034 13.3057 165.983 13.3057Z" fill="#A55922"/>
<path d="M165.984 -8.00042C164.554 -8.00042 163.392 -6.83769 163.392 -5.40924V11.3981C163.392 12.8271 164.554 13.9893 165.984 13.9893C167.413 13.9893 168.575 12.8271 168.575 11.3981V-5.40924C168.575 -6.83769 167.413 -8.00042 165.984 -8.00042ZM165.984 -6.63095C166.659 -6.63095 167.206 -6.08375 167.206 -5.40924V11.3981C167.206 12.0726 166.659 12.6204 165.984 12.6204C165.308 12.6204 164.761 12.0726 164.761 11.3981V-5.40924C164.761 -6.08375 165.308 -6.63095 165.984 -6.63095Z" fill="#482811"/>
<path d="M181.081 13.3057C180.029 13.3057 179.174 12.4501 179.174 11.3989V-5.40781C179.174 -6.459 180.029 -7.31455 181.081 -7.31455C182.132 -7.31455 182.988 -6.459 182.988 -5.40781V11.3989C182.988 12.4501 182.132 13.3057 181.081 13.3057Z" fill="#A55922"/>
<path d="M181.08 -8.00042C179.651 -8.00042 178.488 -6.83769 178.488 -5.40924V11.3981C178.488 12.8271 179.651 13.9893 181.08 13.9893C182.509 13.9893 183.672 12.8271 183.672 11.3981V-5.40924C183.672 -6.83769 182.509 -8.00042 181.08 -8.00042ZM181.08 -6.63095C181.755 -6.63095 182.303 -6.08375 182.303 -5.40924V11.3981C182.303 12.0726 181.755 12.6204 181.08 12.6204C180.405 12.6204 179.858 12.0726 179.858 11.3981V-5.40924C179.858 -6.08375 180.405 -6.63095 181.08 -6.63095Z" fill="#482811"/>
<path d="M178.05 9.47266H169.14C168.656 9.47266 168.263 9.07963 168.263 8.5955V8.35665C168.263 7.87252 168.656 7.47949 169.14 7.47949H178.05C178.535 7.47949 178.928 7.87252 178.928 8.35665V8.5955C178.928 9.07963 178.535 9.47266 178.05 9.47266Z" fill="#A55922"/>
<path d="M166.046 61.3662C164.994 61.3662 164.139 60.5107 164.139 59.4595V42.6527C164.139 41.6015 164.994 40.746 166.046 40.746C167.097 40.746 167.952 41.6015 167.952 42.6527V59.4595C167.952 60.5107 167.097 61.3662 166.046 61.3662Z" fill="#A55922"/>
<path d="M166.046 40.0615C164.617 40.0615 163.454 41.2242 163.454 42.6533V59.46C163.454 60.889 164.617 62.0518 166.046 62.0518C167.475 62.0518 168.638 60.889 168.638 59.46V42.6533C168.638 41.2242 167.475 40.0615 166.046 40.0615ZM166.046 41.431C166.721 41.431 167.268 41.9782 167.268 42.6533V59.46C167.268 60.1351 166.721 60.6823 166.046 60.6823C165.371 60.6823 164.824 60.1351 164.824 59.46V42.6533C164.824 41.9782 165.371 41.431 166.046 41.431Z" fill="#482811"/>
<path d="M181.144 61.3662C180.092 61.3662 179.236 60.5107 179.236 59.4595V42.6527C179.236 41.6015 180.092 40.746 181.144 40.746C182.195 40.746 183.051 41.6015 183.051 42.6527V59.4595C183.051 60.5107 182.195 61.3662 181.144 61.3662Z" fill="#A55922"/>
<path d="M181.144 40.0615C179.715 40.0615 178.552 41.2242 178.552 42.6533V59.46C178.552 60.889 179.715 62.0518 181.144 62.0518C182.573 62.0518 183.735 60.889 183.735 59.46V42.6533C183.735 41.2242 182.573 40.0615 181.144 40.0615ZM181.144 41.431C181.819 41.431 182.366 41.9782 182.366 42.6533V59.46C182.366 60.1351 181.819 60.6823 181.144 60.6823C180.469 60.6823 179.921 60.1351 179.921 59.46V42.6533C179.921 41.9782 180.469 41.431 181.144 41.431Z" fill="#482811"/>
<path d="M178.114 45.7061H169.203C168.719 45.7061 168.326 45.3136 168.326 44.8289V44.5906C168.326 44.1059 168.719 43.7135 169.203 43.7135H178.114C178.599 43.7135 178.991 44.1059 178.991 44.5906V44.8289C178.991 45.3136 178.599 45.7061 178.114 45.7061Z" fill="#A55922"/>
<path d="M178.05 51.6201H169.14C168.656 51.6201 168.263 51.2271 168.263 50.743V50.5041C168.263 50.02 168.656 49.6269 169.14 49.6269H178.05C178.535 49.6269 178.928 50.02 178.928 50.5041V50.743C178.928 51.2271 178.535 51.6201 178.05 51.6201Z" fill="#A55922"/>
</g>
<path d="M496.151 10.6465H463.055C462.586 10.6465 462.206 10.266 462.206 9.79736V8.7939C462.206 8.32467 462.586 7.94477 463.055 7.94477H496.151C496.619 7.94477 497 8.32467 497 8.7939V9.79736C497 10.266 496.619 10.6465 496.151 10.6465Z" fill="#482811"/>
<path d="M495.945 23.8604H462.849C462.38 23.8604 462 23.4804 462 23.0112V22.0078C462 21.5391 462.38 21.1586 462.849 21.1586H495.945C496.414 21.1586 496.794 21.5391 496.794 22.0078V23.0112C496.794 23.4804 496.414 23.8604 495.945 23.8604Z" fill="#482811"/>
<path d="M496.047 37.0732H462.952C462.483 37.0732 462.103 36.6933 462.103 36.2241V35.2207C462.103 34.752 462.483 34.3715 462.952 34.3715H496.047C496.516 34.3715 496.896 34.752 496.896 35.2207V36.2241C496.896 36.6933 496.516 37.0732 496.047 37.0732Z" fill="#482811"/>
<path d="M496.151 50.2871H463.055C462.586 50.2871 462.206 49.9072 462.206 49.438V48.4345C462.206 47.9659 462.586 47.5854 463.055 47.5854H496.151C496.619 47.5854 497 47.9659 497 48.4345V49.438C497 49.9072 496.619 50.2871 496.151 50.2871Z" fill="#482811"/>
<path d="M463.972 54.6787H463.184C462.531 54.6787 462.001 54.149 462.001 53.4955V6.183C462.001 5.52948 462.531 5.00033 463.184 5.00033H463.972C464.625 5.00033 465.155 5.52948 465.155 6.183V53.4955C465.155 54.149 464.625 54.6787 463.972 54.6787Z" fill="#A55922"/>
<path d="M495.817 54.6787H495.028C494.375 54.6787 493.846 54.149 493.846 53.4955V6.183C493.846 5.52948 494.375 5.00033 495.028 5.00033H495.817C496.47 5.00033 497 5.52948 497 6.183V53.4955C497 54.149 496.47 54.6787 495.817 54.6787Z" fill="#A55922"/>
<path d="M80.28 86.3V80.98H81.74C82.4067 80.18 82.9 79.0867 83.22 77.7C83.54 76.3133 83.7 74.6067 83.7 72.58V68.9H93.92V80.98H95.98V86.3H93.74V83H82.54V86.3H80.28ZM84.32 80.98H91.36V70.9H86.06V72.82C86.06 74.7533 85.9133 76.38 85.62 77.7C85.34 79.02 84.9067 80.1133 84.32 80.98ZM97.6053 83.28L96.8253 81.32C97.2653 81.16 97.632 80.9533 97.9253 80.7C98.232 80.4333 98.472 80.1 98.6453 79.7C98.832 79.2867 98.9653 78.78 99.0453 78.18C99.1253 77.5667 99.1653 76.84 99.1653 76V72.9H107.205V83H104.725V74.82H101.445V76.08C101.445 77.5333 101.312 78.7533 101.045 79.74C100.779 80.7133 100.365 81.4867 99.8053 82.06C99.2453 82.6333 98.512 83.04 97.6053 83.28ZM110.053 83V72.9H112.313V80.54H111.713L117.453 72.9H119.513V83H117.253V75.34H117.873L112.113 83H110.053ZM122.358 83V72.9H124.838V76.86H129.398V72.9H131.878V83H129.398V78.78H124.838V83H122.358ZM138.701 83.2C137.821 83.2 137.047 82.9933 136.381 82.58C135.714 82.1533 135.194 81.5467 134.821 80.76C134.447 79.9733 134.261 79.0333 134.261 77.94C134.261 76.8467 134.447 75.9133 134.821 75.14C135.194 74.3533 135.714 73.7533 136.381 73.34C137.047 72.9133 137.821 72.7 138.701 72.7C139.554 72.7 140.301 72.9133 140.941 73.34C141.594 73.7533 142.027 74.3133 142.241 75.02H142.021L142.241 72.9H144.641C144.601 73.3133 144.561 73.7333 144.521 74.16C144.494 74.5867 144.481 75.0067 144.481 75.42V83H142.001L141.981 80.92H142.221C142.007 81.6133 141.574 82.1667 140.921 82.58C140.267 82.9933 139.527 83.2 138.701 83.2ZM139.401 81.28C140.187 81.28 140.821 81.0067 141.301 80.46C141.781 79.9 142.021 79.06 142.021 77.94C142.021 76.82 141.781 75.9867 141.301 75.44C140.821 74.8933 140.187 74.62 139.401 74.62C138.614 74.62 137.981 74.8933 137.501 75.44C137.021 75.9867 136.781 76.82 136.781 77.94C136.781 79.06 137.014 79.9 137.481 80.46C137.961 81.0067 138.601 81.28 139.401 81.28ZM157.209 83.18C156.249 83.18 155.329 83.0333 154.449 82.74C153.582 82.4467 152.855 82.0333 152.269 81.5L152.929 80.06C153.582 80.5933 154.255 80.98 154.949 81.22C155.642 81.46 156.375 81.58 157.149 81.58C158.175 81.58 158.955 81.3667 159.489 80.94C160.022 80.5 160.289 79.8733 160.289 79.06C160.289 78.26 160.015 77.6533 159.469 77.24C158.935 76.8267 158.149 76.62 157.109 76.62H154.949V75.08H156.969C157.849 75.08 158.555 74.8533 159.089 74.4C159.622 73.9467 159.889 73.3267 159.889 72.54C159.889 71.82 159.642 71.2733 159.149 70.9C158.669 70.5133 157.982 70.32 157.089 70.32C155.582 70.32 154.275 70.8467 153.169 71.9L152.509 70.48C153.069 69.92 153.762 69.4867 154.589 69.18C155.415 68.8733 156.289 68.72 157.209 68.72C158.609 68.72 159.709 69.04 160.509 69.68C161.309 70.32 161.709 71.2133 161.709 72.36C161.709 73.2267 161.462 73.9733 160.969 74.6C160.489 75.2133 159.829 75.62 158.989 75.82V75.6C159.975 75.7733 160.742 76.18 161.289 76.82C161.835 77.4467 162.109 78.2333 162.109 79.18C162.109 80.42 161.669 81.4 160.789 82.12C159.922 82.8267 158.729 83.18 157.209 83.18ZM165.421 83L172.361 69.74V70.5H164.561V68.9H174.061V70.28L167.481 83H165.421ZM176.853 83V72.94H178.373L182.073 79.52L185.793 72.94H187.293V83H185.693V74.98H186.133L182.533 81.38H181.633L178.033 74.96H178.453V83H176.853Z" fill="#482811"/>
<path d="M257.12 83.2C255.653 83.2 254.393 82.9067 253.34 82.32C252.3 81.72 251.5 80.88 250.94 79.8C250.38 78.7067 250.1 77.42 250.1 75.94C250.1 74.46 250.38 73.18 250.94 72.1C251.5 71.02 252.3 70.1867 253.34 69.6C254.393 69 255.653 68.7 257.12 68.7C258.107 68.7 258.993 68.84 259.78 69.12C260.58 69.4 261.267 69.8133 261.84 70.36L261 72.4C260.373 71.8933 259.767 71.5333 259.18 71.32C258.607 71.0933 257.947 70.98 257.2 70.98C255.773 70.98 254.68 71.4133 253.92 72.28C253.173 73.1333 252.8 74.3533 252.8 75.94C252.8 77.5267 253.173 78.7533 253.92 79.62C254.68 80.4867 255.773 80.92 257.2 80.92C257.947 80.92 258.607 80.8133 259.18 80.6C259.767 80.3733 260.373 80 261 79.48L261.84 81.52C261.267 82.0533 260.58 82.4667 259.78 82.76C258.993 83.0533 258.107 83.2 257.12 83.2ZM263.851 83.28L263.071 81.32C263.511 81.16 263.878 80.9533 264.171 80.7C264.478 80.4333 264.718 80.1 264.891 79.7C265.078 79.2867 265.211 78.78 265.291 78.18C265.371 77.5667 265.411 76.84 265.411 76V72.9H273.451V83H270.971V74.82H267.691V76.08C267.691 77.5333 267.558 78.7533 267.291 79.74C267.025 80.7133 266.611 81.4867 266.051 82.06C265.491 82.6333 264.758 83.04 263.851 83.28ZM280.939 83.2C279.899 83.2 278.999 82.9867 278.239 82.56C277.479 82.1333 276.886 81.5267 276.459 80.74C276.046 79.9533 275.839 79.02 275.839 77.94C275.839 76.86 276.046 75.9333 276.459 75.16C276.886 74.3733 277.479 73.7667 278.239 73.34C278.999 72.9133 279.899 72.7 280.939 72.7C281.979 72.7 282.879 72.9133 283.639 73.34C284.412 73.7667 285.006 74.3733 285.419 75.16C285.846 75.9333 286.059 76.86 286.059 77.94C286.059 79.02 285.846 79.9533 285.419 80.74C285.006 81.5267 284.412 82.1333 283.639 82.56C282.879 82.9867 281.979 83.2 280.939 83.2ZM280.939 81.28C281.726 81.28 282.352 81.0067 282.819 80.46C283.286 79.9 283.519 79.06 283.519 77.94C283.519 76.82 283.286 75.9867 282.819 75.44C282.352 74.8933 281.726 74.62 280.939 74.62C280.152 74.62 279.526 74.8933 279.059 75.44C278.592 75.9867 278.359 76.82 278.359 77.94C278.359 79.06 278.592 79.9 279.059 80.46C279.526 81.0067 280.152 81.28 280.939 81.28ZM286.908 83L289.028 79.22C289.294 78.78 289.548 78.42 289.788 78.14C290.041 77.8467 290.314 77.62 290.608 77.46C290.901 77.3 291.234 77.2 291.608 77.16L291.088 77.94L287.348 72.9H290.028L293.008 76.86H294.268V72.9H296.748V76.86H297.988L300.948 72.9H303.648L299.888 77.94L299.368 77.16C299.741 77.2 300.074 77.3 300.368 77.46C300.661 77.62 300.934 77.8467 301.188 78.14C301.454 78.42 301.714 78.78 301.968 79.22L304.088 83H301.428L299.708 79.96C299.534 79.6533 299.361 79.4133 299.188 79.24C299.014 79.0667 298.821 78.9467 298.608 78.88C298.394 78.8133 298.134 78.78 297.828 78.78H296.748V83H294.268V78.78H293.168C292.861 78.78 292.601 78.8133 292.388 78.88C292.174 78.9467 291.981 79.0667 291.808 79.24C291.648 79.4133 291.474 79.6533 291.288 79.96L289.568 83H286.908ZM305.4 83V72.9H307.88V76.86H312.44V72.9H314.92V83H312.44V78.78H307.88V83H305.4ZM322.404 83.2C321.364 83.2 320.464 82.9867 319.704 82.56C318.944 82.1333 318.35 81.5267 317.924 80.74C317.51 79.9533 317.304 79.02 317.304 77.94C317.304 76.86 317.51 75.9333 317.924 75.16C318.35 74.3733 318.944 73.7667 319.704 73.34C320.464 72.9133 321.364 72.7 322.404 72.7C323.444 72.7 324.344 72.9133 325.104 73.34C325.877 73.7667 326.47 74.3733 326.884 75.16C327.31 75.9333 327.524 76.86 327.524 77.94C327.524 79.02 327.31 79.9533 326.884 80.74C326.47 81.5267 325.877 82.1333 325.104 82.56C324.344 82.9867 323.444 83.2 322.404 83.2ZM322.404 81.28C323.19 81.28 323.817 81.0067 324.284 80.46C324.75 79.9 324.984 79.06 324.984 77.94C324.984 76.82 324.75 75.9867 324.284 75.44C323.817 74.8933 323.19 74.62 322.404 74.62C321.617 74.62 320.99 74.8933 320.524 75.44C320.057 75.9867 319.824 76.82 319.824 77.94C319.824 79.06 320.057 79.9 320.524 80.46C320.99 81.0067 321.617 81.28 322.404 81.28ZM334.613 83.2C333.573 83.2 332.659 82.9867 331.873 82.56C331.099 82.1333 330.499 81.5267 330.073 80.74C329.646 79.94 329.433 78.9933 329.433 77.9C329.433 76.8067 329.646 75.8733 330.073 75.1C330.513 74.3267 331.119 73.7333 331.893 73.32C332.666 72.9067 333.573 72.7 334.613 72.7C335.279 72.7 335.926 72.8067 336.553 73.02C337.193 73.22 337.713 73.5133 338.113 73.9L337.353 75.64C336.993 75.3067 336.586 75.06 336.133 74.9C335.693 74.7267 335.259 74.64 334.833 74.64C333.939 74.64 333.239 74.92 332.733 75.48C332.239 76.04 331.993 76.8533 331.993 77.92C331.993 78.9867 332.239 79.8067 332.733 80.38C333.239 80.9533 333.939 81.24 334.833 81.24C335.246 81.24 335.673 81.16 336.113 81C336.566 80.84 336.979 80.5933 337.353 80.26L338.113 81.98C337.699 82.3667 337.173 82.6667 336.533 82.88C335.906 83.0933 335.266 83.2 334.613 83.2ZM342.424 83V74.86H338.964V72.9H348.384V74.86H344.904V83H342.424ZM349.932 83V72.9H352.412V76.28H355.072C356.418 76.28 357.432 76.5667 358.112 77.14C358.792 77.7 359.132 78.5133 359.132 79.58C359.132 80.2733 358.972 80.88 358.652 81.4C358.332 81.9067 357.865 82.3 357.252 82.58C356.652 82.86 355.925 83 355.072 83H349.932ZM352.412 81.36H354.732C355.412 81.36 355.932 81.22 356.292 80.94C356.652 80.6467 356.832 80.2067 356.832 79.62C356.832 79.0333 356.652 78.6067 356.292 78.34C355.945 78.06 355.425 77.92 354.732 77.92H352.412V81.36ZM373.073 83.18C371.659 83.18 370.446 82.8867 369.433 82.3C368.433 81.7133 367.666 80.88 367.133 79.8C366.599 78.7067 366.333 77.42 366.333 75.94C366.333 74.46 366.599 73.18 367.133 72.1C367.666 71.02 368.433 70.1867 369.433 69.6C370.446 69.0133 371.659 68.72 373.073 68.72C374.086 68.72 374.986 68.8733 375.773 69.18C376.559 69.4733 377.246 69.9067 377.833 70.48L377.153 71.98C376.513 71.42 375.879 71.02 375.253 70.78C374.639 70.5267 373.926 70.4 373.113 70.4C371.553 70.4 370.359 70.88 369.533 71.84C368.706 72.8 368.293 74.1667 368.293 75.94C368.293 77.7133 368.706 79.0867 369.533 80.06C370.359 81.02 371.553 81.5 373.113 81.5C373.926 81.5 374.639 81.38 375.253 81.14C375.879 80.8867 376.513 80.48 377.153 79.92L377.833 81.4C377.246 81.9733 376.553 82.4133 375.753 82.72C374.966 83.0267 374.073 83.18 373.073 83.18ZM380.444 87.32V75.32C380.444 74.9333 380.431 74.54 380.404 74.14C380.378 73.74 380.338 73.34 380.284 72.94H382.044L382.264 75.26H382.044C382.244 74.4867 382.671 73.88 383.324 73.44C383.978 72.9867 384.758 72.76 385.664 72.76C386.558 72.76 387.338 72.9667 388.004 73.38C388.671 73.7933 389.184 74.3933 389.544 75.18C389.918 75.9533 390.104 76.88 390.104 77.96C390.104 79.04 389.918 79.9733 389.544 80.76C389.184 81.5467 388.671 82.1467 388.004 82.56C387.338 82.9733 386.558 83.18 385.664 83.18C384.771 83.18 383.998 82.96 383.344 82.52C382.704 82.0667 382.271 81.46 382.044 80.7H382.264V87.32H380.444ZM385.244 81.74C386.164 81.74 386.898 81.42 387.444 80.78C387.991 80.14 388.264 79.2 388.264 77.96C388.264 76.72 387.991 75.7867 387.444 75.16C386.898 74.5333 386.164 74.22 385.244 74.22C384.324 74.22 383.591 74.5333 383.044 75.16C382.511 75.7867 382.244 76.72 382.244 77.96C382.244 79.2 382.511 80.14 383.044 80.78C383.591 81.42 384.324 81.74 385.244 81.74ZM397.348 83.18C395.748 83.18 394.482 82.72 393.548 81.8C392.628 80.88 392.168 79.6133 392.168 78C392.168 76.9333 392.368 76.0133 392.768 75.24C393.182 74.4533 393.748 73.8467 394.468 73.42C395.188 72.98 396.028 72.76 396.988 72.76C397.908 72.76 398.688 72.96 399.328 73.36C399.968 73.7467 400.455 74.3 400.788 75.02C401.122 75.74 401.288 76.5933 401.288 77.58V78.18H393.588V77.1H400.048L399.708 77.36C399.708 76.32 399.475 75.5133 399.008 74.94C398.555 74.3667 397.882 74.08 396.988 74.08C396.015 74.08 395.262 74.42 394.728 75.1C394.195 75.7667 393.928 76.68 393.928 77.84V78.02C393.928 79.2467 394.228 80.1733 394.828 80.8C395.442 81.4267 396.288 81.74 397.368 81.74C397.968 81.74 398.528 81.6533 399.048 81.48C399.568 81.3067 400.068 81.02 400.548 80.62L401.148 81.88C400.695 82.2933 400.128 82.6133 399.448 82.84C398.782 83.0667 398.082 83.18 397.348 83.18ZM402.782 85.6V81.58H403.882C404.335 80.9 404.662 80.1 404.862 79.18C405.075 78.26 405.182 77.1667 405.182 75.9V72.94H412.402V81.58H414.002V85.6H412.442V83H404.362V85.6H402.782ZM405.602 81.6H410.702V74.34H406.782V76.22C406.782 77.2333 406.682 78.22 406.482 79.18C406.282 80.1267 405.988 80.9333 405.602 81.6ZM416.107 83V72.94H417.907V77.1H423.227V72.94H425.027V83H423.227V78.54H417.907V83H416.107ZM427.338 83L428.918 80.26C429.171 79.82 429.491 79.4667 429.878 79.2C430.265 78.92 430.671 78.78 431.098 78.78H431.418L431.398 78.96C430.265 78.96 429.378 78.7067 428.738 78.2C428.098 77.68 427.778 76.9333 427.778 75.96C427.778 75 428.091 74.26 428.718 73.74C429.345 73.2067 430.278 72.94 431.518 72.94H436.098V83H434.418V79.2H432.978C432.458 79.2 432.011 79.3333 431.638 79.6C431.265 79.8533 430.958 80.1933 430.718 80.62L429.358 83H427.338ZM431.838 77.94H434.418V74.18H431.838C431.051 74.18 430.465 74.3467 430.078 74.68C429.705 75.0133 429.518 75.4733 429.518 76.06C429.518 76.66 429.705 77.1267 430.078 77.46C430.465 77.78 431.051 77.94 431.838 77.94ZM438.412 83L439.992 80.26C440.246 79.82 440.566 79.4667 440.952 79.2C441.339 78.92 441.746 78.78 442.172 78.78H442.492L442.472 78.96C441.339 78.96 440.452 78.7067 439.812 78.2C439.172 77.68 438.852 76.9333 438.852 75.96C438.852 75 439.166 74.26 439.792 73.74C440.419 73.2067 441.352 72.94 442.592 72.94H447.172V83H445.492V79.2H444.052C443.532 79.2 443.086 79.3333 442.712 79.6C442.339 79.8533 442.032 80.1933 441.792 80.62L440.432 83H438.412ZM442.912 77.94H445.492V74.18H442.912C442.126 74.18 441.539 74.3467 441.152 74.68C440.779 75.0133 440.592 75.4733 440.592 76.06C440.592 76.66 440.779 77.1267 441.152 77.46C441.539 77.78 442.126 77.94 442.912 77.94Z" fill="#482811"/>
<path d="M503.56 82V67.9H509.74C511.273 67.9 512.453 68.2267 513.28 68.88C514.107 69.52 514.52 70.4133 514.52 71.56C514.52 72.4133 514.267 73.1333 513.76 73.72C513.253 74.3067 512.553 74.7 511.66 74.9V74.6C512.687 74.7467 513.48 75.12 514.04 75.72C514.613 76.3067 514.9 77.0867 514.9 78.06C514.9 79.3133 514.467 80.2867 513.6 80.98C512.733 81.66 511.527 82 509.98 82H503.56ZM506.04 80.04H509.68C510.547 80.04 511.22 79.88 511.7 79.56C512.18 79.2267 512.42 78.6867 512.42 77.94C512.42 77.18 512.18 76.64 511.7 76.32C511.22 75.9867 510.547 75.82 509.68 75.82H506.04V80.04ZM506.04 73.88H509.3C510.22 73.88 510.9 73.7133 511.34 73.38C511.793 73.0333 512.02 72.5267 512.02 71.86C512.02 71.1933 511.793 70.6933 511.34 70.36C510.9 70.0133 510.22 69.84 509.3 69.84H506.04V73.88ZM517.309 86.32V74.42C517.309 74.0067 517.295 73.5867 517.269 73.16C517.242 72.7333 517.202 72.3133 517.149 71.9H519.569L519.789 74.02H519.569C519.769 73.3133 520.189 72.7533 520.829 72.34C521.482 71.9133 522.235 71.7 523.089 71.7C523.982 71.7 524.762 71.9133 525.429 72.34C526.095 72.7533 526.615 73.3533 526.989 74.14C527.362 74.9133 527.549 75.8467 527.549 76.94C527.549 78.0333 527.362 78.9733 526.989 79.76C526.615 80.5467 526.095 81.1533 525.429 81.58C524.762 81.9933 523.982 82.2 523.089 82.2C522.249 82.2 521.509 81.9933 520.869 81.58C520.229 81.1667 519.802 80.6133 519.589 79.92H519.809V86.32H517.309ZM522.389 80.28C523.189 80.28 523.829 80.0067 524.309 79.46C524.789 78.9 525.029 78.06 525.029 76.94C525.029 75.82 524.789 74.9867 524.309 74.44C523.829 73.8933 523.189 73.62 522.389 73.62C521.602 73.62 520.969 73.8933 520.489 74.44C520.009 74.9867 519.769 75.82 519.769 76.94C519.769 78.06 520.009 78.9 520.489 79.46C520.969 80.0067 521.602 80.28 522.389 80.28ZM534.864 82.2C533.171 82.2 531.844 81.7333 530.884 80.8C529.924 79.8667 529.444 78.5867 529.444 76.96C529.444 75.9067 529.651 74.9867 530.064 74.2C530.478 73.4133 531.051 72.8 531.784 72.36C532.531 71.92 533.398 71.7 534.384 71.7C535.358 71.7 536.171 71.9067 536.824 72.32C537.478 72.7333 537.971 73.3133 538.304 74.06C538.651 74.8067 538.824 75.68 538.824 76.68V77.34H531.464V76.02H537.044L536.704 76.3C536.704 75.3667 536.504 74.6533 536.104 74.16C535.718 73.6667 535.151 73.42 534.404 73.42C533.578 73.42 532.938 73.7133 532.484 74.3C532.044 74.8867 531.824 75.7067 531.824 76.76V77.02C531.824 78.1133 532.091 78.9333 532.624 79.48C533.171 80.0133 533.938 80.28 534.924 80.28C535.498 80.28 536.031 80.2067 536.524 80.06C537.031 79.9 537.511 79.6467 537.964 79.3L538.704 80.98C538.224 81.3667 537.651 81.6667 536.984 81.88C536.318 82.0933 535.611 82.2 534.864 82.2ZM541.135 82V71.9H543.215L546.695 77.94L550.175 71.9H552.255V82H550.055V74.7H550.515L547.275 80.36H546.115L542.875 74.7H543.335V82H541.135ZM554.26 82L555.8 79.34C556.066 78.8867 556.393 78.5267 556.78 78.26C557.18 77.98 557.593 77.84 558.02 77.84H558.46L558.44 78.06C557.253 78.06 556.34 77.8 555.7 77.28C555.06 76.76 554.74 76 554.74 75C554.74 74.0133 555.066 73.2533 555.72 72.72C556.386 72.1733 557.36 71.9 558.64 71.9H563.66V82H561.38V78.44H560.24C559.826 78.44 559.46 78.5533 559.14 78.78C558.833 79.0067 558.573 79.3 558.36 79.66L557.04 82H554.26ZM559.12 76.82H561.38V73.52H559.12C558.44 73.52 557.926 73.6667 557.58 73.96C557.246 74.2533 557.08 74.6533 557.08 75.16C557.08 75.6933 557.246 76.1067 557.58 76.4C557.926 76.68 558.44 76.82 559.12 76.82ZM576.618 82.18C576.005 82.18 575.398 82.1133 574.798 81.98C574.198 81.8467 573.638 81.66 573.118 81.42C572.598 81.1667 572.145 80.8667 571.758 80.52L572.478 78.94C573.118 79.4333 573.771 79.8067 574.438 80.06C575.118 80.3 575.831 80.42 576.578 80.42C577.525 80.42 578.265 80.1733 578.798 79.68C579.345 79.1867 579.618 78.5267 579.618 77.7C579.618 76.8467 579.358 76.16 578.838 75.64C578.331 75.1067 577.625 74.84 576.718 74.84C576.091 74.84 575.518 74.9667 574.998 75.22C574.491 75.4733 574.045 75.86 573.658 76.38H572.218V67.9H580.758V69.64H574.198V74.72H573.678C574.038 74.2133 574.518 73.82 575.118 73.54C575.731 73.26 576.418 73.12 577.178 73.12C578.085 73.12 578.871 73.3067 579.538 73.68C580.205 74.0533 580.718 74.5733 581.078 75.24C581.451 75.9067 581.638 76.6933 581.638 77.6C581.638 78.5067 581.431 79.3067 581.018 80C580.618 80.68 580.038 81.2133 579.278 81.6C578.531 81.9867 577.645 82.18 576.618 82.18ZM583.81 77.32V75.7H589.67V77.32H583.81ZM593.463 82V80.26H596.743V69.66H597.783L593.783 72.1V70.1L597.323 67.9H598.823V80.26H601.903V82H593.463ZM609.055 82.18C607.428 82.18 606.175 81.56 605.295 80.32C604.428 79.0667 603.995 77.2733 603.995 74.94C603.995 72.5667 604.428 70.7733 605.295 69.56C606.175 68.3333 607.428 67.72 609.055 67.72C610.695 67.72 611.948 68.3333 612.815 69.56C613.681 70.7733 614.115 72.56 614.115 74.92C614.115 77.2667 613.675 79.0667 612.795 80.32C611.928 81.56 610.681 82.18 609.055 82.18ZM609.055 80.44C610.081 80.44 610.841 79.9933 611.335 79.1C611.841 78.2067 612.095 76.8133 612.095 74.92C612.095 73.0133 611.841 71.6267 611.335 70.76C610.841 69.88 610.081 69.44 609.055 69.44C608.041 69.44 607.281 69.88 606.775 70.76C606.268 71.6267 606.015 73.0067 606.015 74.9C606.015 76.8067 606.268 78.2067 606.775 79.1C607.295 79.9933 608.055 80.44 609.055 80.44ZM621.899 82V71.92H623.579L627.219 78.36L630.859 71.92H632.539V82H630.759V74.18H631.199L627.699 80.38H626.739L623.239 74.18H623.679V82H621.899ZM635.571 82V71.92H637.411V80.06H636.851L642.931 71.92H644.611V82H642.791V73.84H643.371L637.251 82H635.571ZM647.641 82V71.92H649.641V76.02H654.741V71.92H656.741V82H654.741V77.6H649.641V82H647.641Z" fill="#482811"/>
<defs>
<clipPath id="clip0_121_40194">
<rect x="146" width="55" height="55" rx="27.5" fill="white"/>
</clipPath>
</defs>
</svg>
