<svg width="879" height="88" viewBox="0 0 879 88" fill="none" xmlns="http://www.w3.org/2000/svg">
<rect y="2" width="55" height="55" rx="27.5" fill="#FF8C09"/>
<path d="M26.7959 40.27C25.3559 40.27 23.9759 40.06 22.6559 39.64C21.3359 39.2 20.2359 38.58 19.3559 37.78L20.4359 35.41C21.4159 36.17 22.4159 36.73 23.4359 37.09C24.4559 37.45 25.5459 37.63 26.7059 37.63C28.1859 37.63 29.3059 37.32 30.0659 36.7C30.8459 36.08 31.2359 35.19 31.2359 34.03C31.2359 32.89 30.8459 32.03 30.0659 31.45C29.3059 30.85 28.1759 30.55 26.6759 30.55H23.4059V28.03H26.4359C27.7159 28.03 28.7359 27.71 29.4959 27.07C30.2559 26.41 30.6359 25.52 30.6359 24.4C30.6359 23.38 30.2859 22.6 29.5859 22.06C28.8859 21.5 27.8859 21.22 26.5859 21.22C24.3859 21.22 22.4559 21.99 20.7959 23.53L19.7459 21.16C20.5659 20.34 21.6059 19.71 22.8659 19.27C24.1259 18.81 25.4459 18.58 26.8259 18.58C28.9459 18.58 30.6159 19.07 31.8359 20.05C33.0559 21.01 33.6659 22.35 33.6659 24.07C33.6659 25.37 33.2959 26.48 32.5559 27.4C31.8359 28.32 30.8459 28.93 29.5859 29.23V28.9C31.0859 29.14 32.2359 29.74 33.0359 30.7C33.8559 31.64 34.2659 32.82 34.2659 34.24C34.2659 36.12 33.5959 37.6 32.2559 38.68C30.9359 39.74 29.1159 40.27 26.7959 40.27Z" fill="white"/>
<rect x="80" y="19" width="20" height="20" rx="10" fill="#783F17"/>
<rect x="98" y="24" width="49" height="10" fill="#783F17"/>
<rect x="200" y="24" width="49" height="10" fill="#783F17"/>
<rect x="146" width="55" height="55" rx="27.5" fill="#FF8C09"/>
<rect x="302" y="24" width="49" height="10" fill="#783F17"/>
<rect x="404" y="24" width="49" height="10" fill="#783F17"/>
<rect x="350" width="55" height="55" rx="27.5" fill="#FF8C09"/>
<rect x="506" y="24" width="49" height="10" fill="#783F17"/>
<rect x="608" y="24" width="49" height="10" fill="#783F17"/>
<rect x="554" width="55" height="55" rx="27.5" fill="#FF8C09"/>
<rect x="656" y="2" width="55" height="55" rx="27.5" fill="#FF8C09"/>
<rect x="879" y="40" width="20" height="20" rx="10" transform="rotate(-180 879 40)" fill="#783F17"/>
<rect x="861" y="35" width="49" height="10" transform="rotate(-180 861 35)" fill="#783F17"/>
<rect x="710" y="24" width="49" height="10" fill="#783F17"/>
<rect x="758" y="2" width="55" height="55" rx="27.5" fill="#FF8C09"/>
<rect x="452" y="2" width="55" height="55" rx="27.5" fill="#FF8C09"/>
<rect x="248" y="2" width="55" height="55" rx="27.5" fill="#FF8C09"/>
<path fill-rule="evenodd" clip-rule="evenodd" d="M462.845 17.0771C462.196 17.0771 461.656 16.5369 461.656 15.8886C461.656 15.2404 462.196 14.7002 462.845 14.7002L496.095 14.5381C496.77 14.5381 497.283 15.0783 497.283 15.7266C497.283 16.3748 496.743 16.915 496.095 16.915L462.845 17.0771Z" fill="#A55922"/>
<path d="M496.104 14.1055L462.854 14.2675C461.963 14.2675 461.233 14.9968 461.233 15.8612C461.233 16.7255 461.963 17.4548 462.854 17.4548L496.104 17.2927C496.996 17.2927 497.725 16.5635 497.725 15.6991C497.725 14.8348 496.996 14.1055 496.104 14.1055ZM496.104 14.9698C496.537 14.9698 496.888 15.321 496.888 15.7261C496.888 16.1313 496.537 16.4824 496.104 16.4824L462.854 16.6445C462.422 16.6445 462.071 16.2933 462.071 15.8882C462.071 15.483 462.422 15.1319 462.854 15.1319L496.104 14.9698Z" fill="#482811"/>
<path fill-rule="evenodd" clip-rule="evenodd" d="M458.628 38.7089C457.98 38.7089 457.439 38.1687 457.439 37.5205C457.439 36.8722 457.98 36.332 458.628 36.332L500.387 36.1699C501.062 36.1699 501.575 36.7101 501.575 37.3584C501.575 38.0067 501.035 38.5469 500.387 38.5469L458.628 38.7089Z" fill="#A55922"/>
<path d="M500.379 35.7637L458.621 35.9258C457.729 35.9258 457 36.655 457 37.5194C457 38.3837 457.729 39.113 458.621 39.113L500.379 38.951C501.271 38.951 502 38.2217 502 37.3573C502 36.493 501.271 35.7637 500.379 35.7637ZM500.379 36.601C500.812 36.601 501.163 36.9522 501.163 37.3573C501.163 37.7625 500.812 38.1136 500.379 38.1136L458.621 38.2757C458.188 38.2757 457.837 37.9245 457.837 37.5194C457.837 37.1142 458.188 36.7631 458.621 36.7631L500.379 36.601Z" fill="#482811"/>
<path fill-rule="evenodd" clip-rule="evenodd" d="M462.874 45.4619C462.226 45.4619 461.686 44.9217 461.686 44.2734C461.686 43.6251 462.226 43.0849 462.874 43.0849L496.124 42.9229C496.8 42.9229 497.313 43.4631 497.313 44.1113C497.313 44.7596 496.773 45.2998 496.124 45.2998L462.874 45.4619Z" fill="#A55922"/>
<path d="M496.133 42.4902L462.882 42.6523C461.991 42.6523 461.262 43.3816 461.262 44.2459C461.262 45.1373 461.991 45.8395 462.882 45.8395L496.133 45.6775C497.024 45.6775 497.753 44.9482 497.753 44.0838C497.753 43.2195 497.024 42.4902 496.133 42.4902ZM496.133 43.3546C496.565 43.3546 496.916 43.7057 496.916 44.1109C496.916 44.516 496.565 44.8672 496.133 44.8672L462.882 45.0292C462.45 45.0292 462.099 44.6781 462.099 44.2729C462.099 43.8678 462.45 43.5166 462.882 43.5166L496.133 43.3546Z" fill="#482811"/>
<path fill-rule="evenodd" clip-rule="evenodd" d="M490.532 46.9651C490.37 46.9651 490.207 46.938 490.045 46.884L488.641 46.3438C487.966 46.0737 487.641 45.3174 487.912 44.6421L487.939 44.5881L495.259 35.3774C495.475 34.9182 495.934 34.6211 496.447 34.6211C496.609 34.6211 496.771 34.6481 496.933 34.7021L498.338 35.2424C499.013 35.5125 499.337 36.2688 499.067 36.917L499.04 36.9711L491.72 46.2087C491.504 46.6679 491.045 46.9651 490.532 46.9651Z" fill="#A55922"/>
<path d="M496.464 34.1953C495.789 34.1953 495.195 34.5735 494.925 35.1677L487.659 44.2974L487.578 44.4054L487.524 44.5134C487.362 44.9456 487.362 45.4048 487.551 45.837C487.74 46.2691 488.064 46.5933 488.496 46.7553L489.901 47.2956C490.09 47.3766 490.306 47.4036 490.522 47.4036C491.197 47.4036 491.791 47.0255 492.061 46.4312L499.327 37.3016L499.408 37.1935L499.462 37.0855C499.814 36.1941 499.381 35.1947 498.49 34.8436L497.085 34.3034C496.896 34.2223 496.68 34.1953 496.464 34.1953ZM496.464 35.0326C496.572 35.0326 496.68 35.0597 496.788 35.0867L498.193 35.6269C498.652 35.816 498.868 36.3022 498.679 36.7613L491.359 45.972C491.224 46.3232 490.9 46.5392 490.549 46.5392C490.441 46.5392 490.333 46.5122 490.225 46.4852L488.82 45.945C488.361 45.7559 488.145 45.2698 488.334 44.8106L495.654 35.5999C495.789 35.2487 496.113 35.0326 496.464 35.0326Z" fill="#482811"/>
<path fill-rule="evenodd" clip-rule="evenodd" d="M473.036 46.9651C472.874 46.9651 472.712 46.938 472.55 46.884L471.146 46.3438C470.47 46.0737 470.146 45.3174 470.416 44.6421L470.443 44.5881L477.763 35.3774C477.979 34.9182 478.439 34.6211 478.952 34.6211C479.114 34.6211 479.276 34.6481 479.438 34.7021L480.843 35.2424C481.518 35.5125 481.842 36.2688 481.572 36.917L481.545 36.9711L474.225 46.1817C474.009 46.6679 473.55 46.9651 473.036 46.9651Z" fill="#A55922"/>
<path d="M478.969 34.1953C478.294 34.1953 477.699 34.5735 477.429 35.1677L470.163 44.2974L470.082 44.4054L470.028 44.5134C469.677 45.4048 470.109 46.4042 471.001 46.7553L472.405 47.2956C472.594 47.3766 472.81 47.4036 473.026 47.4036C473.702 47.4036 474.296 47.0255 474.566 46.4312L481.832 37.3016L481.913 37.1935L481.967 37.0855C482.318 36.1941 481.886 35.1947 480.995 34.8436L479.59 34.3034C479.401 34.2223 479.185 34.1953 478.969 34.1953ZM478.969 35.0326C479.077 35.0326 479.185 35.0597 479.293 35.0867L480.698 35.6269C481.157 35.816 481.373 36.3022 481.184 36.7613L473.864 45.972C473.729 46.3232 473.405 46.5392 473.053 46.5392C472.945 46.5392 472.837 46.5122 472.729 46.4852L471.325 45.945C470.866 45.7559 470.649 45.2698 470.839 44.8106L478.158 35.5999C478.294 35.2487 478.618 35.0326 478.969 35.0326Z" fill="#482811"/>
<path fill-rule="evenodd" clip-rule="evenodd" d="M482.174 46.9651C482.012 46.9651 481.85 46.938 481.688 46.884L480.283 46.3438C479.608 46.0737 479.284 45.3174 479.554 44.6421L479.581 44.5881L486.901 35.3774C487.117 34.9182 487.576 34.6211 488.09 34.6211C488.252 34.6211 488.414 34.6481 488.576 34.7021L489.98 35.2424C490.656 35.5125 490.98 36.2688 490.71 36.917L490.683 36.9711L483.363 46.1817C483.147 46.6679 482.687 46.9651 482.174 46.9651Z" fill="#A55922"/>
<path d="M488.107 34.1953C487.432 34.1953 486.837 34.5735 486.567 35.1677L479.301 44.2974L479.22 44.4054L479.166 44.5134C479.004 44.9456 479.004 45.4048 479.193 45.837C479.382 46.2691 479.706 46.5933 480.139 46.7553L481.543 47.2956C481.732 47.3766 481.948 47.4036 482.164 47.4036C482.84 47.4036 483.434 47.0255 483.704 46.4312L490.97 37.3016L491.051 37.1935L491.105 37.0855C491.456 36.1941 491.024 35.1947 490.133 34.8436L488.728 34.3034C488.512 34.2223 488.323 34.1953 488.107 34.1953ZM488.107 35.0326C488.215 35.0326 488.323 35.0597 488.431 35.0867L489.835 35.6269C490.295 35.816 490.511 36.3022 490.322 36.7613L483.002 45.972C482.867 46.3232 482.543 46.5392 482.191 46.5392C482.083 46.5392 481.975 46.5122 481.867 46.4852L480.463 45.945C480.004 45.7559 479.787 45.2698 479.977 44.8106L487.296 35.5999C487.405 35.2487 487.756 35.0326 488.107 35.0326Z" fill="#482811"/>
<path fill-rule="evenodd" clip-rule="evenodd" d="M464.679 46.9651C464.517 46.9651 464.355 46.938 464.193 46.884L462.788 46.3438C462.113 46.0737 461.789 45.3174 462.059 44.6421L462.086 44.5881L469.406 35.3774C469.622 34.9182 470.081 34.6211 470.594 34.6211C470.757 34.6211 470.919 34.6481 471.081 34.7021L472.485 35.2424C473.16 35.5125 473.485 36.2688 473.214 36.917L473.187 36.9711L465.868 46.1817C465.651 46.6679 465.192 46.9651 464.679 46.9651Z" fill="#A55922"/>
<path d="M470.612 34.1953C469.936 34.1953 469.342 34.5735 469.072 35.1677L461.806 44.2974L461.725 44.4054L461.671 44.5134C461.509 44.9456 461.509 45.4048 461.698 45.837C461.887 46.2691 462.211 46.5933 462.643 46.7553L464.048 47.2956C464.237 47.3766 464.453 47.4036 464.669 47.4036C465.345 47.4036 465.939 47.0255 466.209 46.4312L473.475 37.3016L473.556 37.1935L473.61 37.0855C473.961 36.1941 473.529 35.1947 472.637 34.8436L471.233 34.3034C471.017 34.2223 470.828 34.1953 470.612 34.1953ZM470.612 35.0326C470.72 35.0326 470.828 35.0597 470.936 35.0867L472.34 35.6269C472.8 35.816 473.016 36.3022 472.827 36.7613L465.507 45.972C465.372 46.3232 465.047 46.5392 464.696 46.5392C464.588 46.5392 464.48 46.5122 464.372 46.4852L462.968 45.945C462.508 45.7559 462.292 45.2698 462.481 44.8106L469.801 35.5999C469.909 35.2487 470.261 35.0326 470.612 35.0326Z" fill="#482811"/>
<path fill-rule="evenodd" clip-rule="evenodd" d="M486.824 38.9538C486.392 38.9538 486.014 38.7377 486.662 37.7653C487.311 36.7659 487.959 36.5498 488.364 36.5498H496.845C497.278 36.5498 497.656 36.7659 497.088 37.7383C496.521 38.7377 495.9 38.9538 495.468 38.9538H486.824Z" fill="#A55922"/>
<path d="M497.095 36.1348H488.64C488.316 36.1348 487.236 36.2428 486.236 37.7554C485.237 39.268 486.209 39.3761 486.534 39.3761H495.204C495.528 39.3761 496.636 39.268 497.5 37.7554C498.364 36.2428 497.392 36.1348 497.095 36.1348ZM496.609 36.9721C497.041 36.9721 496.933 37.3232 496.69 37.7554C496.447 38.1876 496.176 38.5387 495.717 38.5387H487.101C486.669 38.5387 486.804 38.1876 487.074 37.7554C487.344 37.3232 487.641 36.9721 488.1 36.9721H496.609Z" fill="#482811"/>
<path fill-rule="evenodd" clip-rule="evenodd" d="M482.3 44.4176C481.868 44.4176 481.49 44.2015 482.138 43.2292C482.786 42.2298 483.434 42.0137 483.84 42.0137H492.321C492.753 42.0137 493.131 42.2298 492.564 43.2022C491.997 44.2016 491.376 44.4176 490.943 44.4176H482.3Z" fill="#A55922"/>
<path d="M492.57 41.5996H484.116C483.792 41.5996 482.711 41.7077 481.712 43.2203C480.713 44.7329 481.685 44.8409 482.009 44.8409H490.68C491.004 44.8409 492.111 44.7329 492.976 43.2203C493.84 41.7077 492.895 41.5996 492.57 41.5996ZM492.084 42.4369C492.516 42.4369 492.408 42.7881 492.165 43.2203C491.922 43.6524 491.652 44.0036 491.193 44.0036H482.576C482.144 44.0036 482.279 43.6524 482.549 43.2203C482.819 42.7881 483.117 42.4369 483.576 42.4369H492.084Z" fill="#482811"/>
<path fill-rule="evenodd" clip-rule="evenodd" d="M467.065 41.6628C466.632 41.6628 466.254 41.4467 466.903 40.4743C467.551 39.4749 468.199 39.2588 468.604 39.2588H477.086C477.518 39.2588 477.896 39.4749 477.329 40.4473C476.761 41.4467 476.14 41.6628 475.708 41.6628H467.065Z" fill="#A55922"/>
<path d="M477.335 38.8164H468.881C468.557 38.8164 467.476 38.9244 466.477 40.4371C465.477 41.9497 466.45 42.0577 466.774 42.0577H475.444C475.768 42.0577 476.876 41.9497 477.74 40.4371C478.605 38.9515 477.659 38.8164 477.335 38.8164ZM476.849 39.6807C477.281 39.6807 477.173 40.0319 476.93 40.4641C476.687 40.8962 476.417 41.2474 475.957 41.2474H467.341C466.909 41.2474 467.044 40.8962 467.314 40.4641C467.584 40.0319 467.881 39.6807 468.34 39.6807H476.849Z" fill="#482811"/>
<path fill-rule="evenodd" clip-rule="evenodd" d="M483.848 15.4842H482.389V18.6445H483.848V15.4842ZM475.258 15.7003C474.016 15.7003 473.016 16.6998 473.016 17.9422C473.016 19.1847 474.016 20.1842 475.258 20.1842C476.501 20.1842 477.5 19.1847 477.5 17.9422C477.5 16.6998 476.501 15.7003 475.258 15.7003ZM476.528 22.9122H474.448V23.6685H476.528V22.9122ZM483.172 21.6157C481.417 21.6157 479.931 22.5611 479.931 23.6685C479.931 24.776 481.417 25.7214 483.172 25.7214C484.928 25.7214 486.414 24.776 486.414 23.6685C486.387 22.5611 484.901 21.6157 483.172 21.6157ZM484.739 28.9356H481.579V30.6373H484.739V28.9356ZM474.826 27.423C473.584 27.423 472.584 28.4224 472.584 29.6649C472.584 30.9074 473.584 31.9068 474.826 31.9068C476.069 31.9068 477.068 30.9074 477.068 29.6649C477.095 28.4494 476.069 27.423 474.826 27.423ZM476.42 35.3642H473.259V37.0659H476.42V35.3642ZM484.145 33.9326C482.902 33.9326 481.903 34.932 481.903 36.1745C481.903 37.417 482.902 38.4165 484.145 38.4165C485.387 38.4165 486.387 37.417 486.387 36.1745C486.387 34.932 485.387 33.9326 484.145 33.9326ZM487.359 41.8738C486.63 41.8738 485.82 41.6847 485.171 41.5497C484.928 41.4956 484.685 41.4416 484.469 41.4146C483.848 41.3066 483.199 41.1715 482.551 41.0635C481.12 40.7933 479.634 40.4962 478.202 40.3882C478.04 40.3882 477.905 40.3612 477.743 40.3612C476.339 40.3612 475.123 40.9014 473.908 41.5227C473.53 41.7118 472.989 41.8198 472.449 41.8198C471.45 41.8198 470.126 41.4687 469.424 40.4963C469.073 40.0101 468.749 39.1997 469.181 37.9572C469.559 36.8768 469.235 35.1211 468.992 33.7165C468.911 33.2844 468.83 32.8792 468.803 32.5281C468.506 30.3672 468.695 28.0173 469.316 26.2346C470.099 24.0197 470.342 22.534 469.667 20.1301C469.505 19.5088 469.343 19.0497 469.181 18.6175C468.803 17.5101 468.533 16.6998 468.506 14.836C468.479 13.9446 468.776 13.1884 469.343 12.6211C470.099 11.8648 471.342 11.4326 472.827 11.4326C473.503 11.4326 474.178 11.5137 474.826 11.6758C475.177 11.7568 475.501 11.8378 475.799 11.9188C477.149 12.27 478.067 12.513 479.337 12.513C479.796 12.513 480.336 12.4861 480.931 12.405C481.336 12.351 481.849 12.27 482.47 12.1349C483.605 11.9188 485.009 11.6487 486.306 11.6487C489.034 11.6487 490.438 12.8912 490.465 15.3222C490.492 16.9159 490.114 17.9963 489.817 18.8876C489.493 19.833 489.277 20.5082 489.52 21.4266C491.195 27.477 490.276 29.5299 489.493 31.3126C489.061 32.258 488.71 33.0683 488.764 34.4458V34.6619C488.791 35.3912 488.818 35.8234 489.061 36.4176C489.439 37.363 489.709 38.3894 489.736 39.1457C489.79 40.0641 489.574 40.7393 489.142 41.1985C488.764 41.6307 488.142 41.8738 487.359 41.8738Z" fill="#A55922"/>
<path d="M473.665 35.7689H475.988V36.6332H473.665V35.7689ZM484.145 38.0108C483.146 38.0108 482.308 37.2005 482.308 36.1741C482.308 35.1747 483.119 34.3373 484.145 34.3373C485.144 34.3373 485.982 35.1476 485.982 36.1741C485.955 37.1735 485.144 38.0108 484.145 38.0108ZM482.011 29.3403H484.334V30.2046H482.011V29.3403ZM474.826 31.5012C473.827 31.5012 472.989 30.6908 472.989 29.6644C472.989 28.665 473.8 27.8277 474.826 27.8277C475.853 27.8277 476.663 28.638 476.663 29.6644C476.663 30.6908 475.853 31.5012 474.826 31.5012ZM483.173 25.3157C481.525 25.3157 480.363 24.4514 480.363 23.6951C480.363 22.9388 481.525 22.0744 483.173 22.0744C484.82 22.0744 485.982 22.9388 485.982 23.6951C485.982 24.4514 484.82 25.3157 483.173 25.3157ZM475.258 19.7785C474.259 19.7785 473.422 18.9682 473.422 17.9418C473.422 16.9154 474.232 16.105 475.258 16.105C476.258 16.105 477.095 16.9154 477.095 17.9418C477.095 18.9682 476.258 19.7785 475.258 19.7785ZM482.794 15.916H483.416V18.2388H482.794V15.916ZM472.854 11C471.234 11 469.91 11.4591 469.073 12.2965C468.425 12.9447 468.101 13.8091 468.128 14.8085C468.155 16.7533 468.452 17.5906 468.83 18.7251C468.965 19.1302 469.127 19.6164 469.289 20.2106C469.937 22.5336 469.694 23.8841 468.938 26.072C468.29 27.9087 468.101 30.3397 468.398 32.5546C468.452 32.9327 468.533 33.3379 468.614 33.7701C468.857 35.1206 469.154 36.8223 468.83 37.7947C468.344 39.1993 468.722 40.1447 469.127 40.7119C469.91 41.8193 471.396 42.1975 472.503 42.1975C473.125 42.1975 473.719 42.0894 474.151 41.8463C475.339 41.2521 476.501 40.7119 477.797 40.7119C477.932 40.7119 478.068 40.7118 478.203 40.7389C479.607 40.8739 481.093 41.144 482.524 41.4141C483.146 41.5222 483.821 41.6572 484.442 41.7653C484.631 41.7923 484.874 41.8463 485.117 41.9003C485.766 42.0624 486.603 42.2515 487.386 42.2515C488.305 42.2515 489.007 41.9813 489.493 41.4681C490.006 40.9279 490.249 40.1176 490.195 39.0912C490.141 38.2809 489.898 37.2005 489.493 36.2281C489.277 35.6878 489.25 35.3097 489.223 34.6074V34.3913C489.169 33.1218 489.493 32.3925 489.898 31.4472C490.736 29.5834 491.681 27.4766 489.952 21.2641C489.736 20.4538 489.925 19.8595 490.222 18.9682C490.52 18.0498 490.925 16.9153 490.898 15.2677C490.871 13.4039 490.06 11.1891 486.306 11.1891C484.982 11.1891 483.551 11.4592 482.389 11.6753C481.795 11.7833 481.282 11.8913 480.877 11.9183C480.282 11.9724 479.796 11.9994 479.337 11.9994C478.122 11.9994 477.284 11.7833 475.907 11.4321C475.61 11.3511 475.285 11.2701 474.934 11.1891C474.259 11.081 473.53 11 472.854 11ZM472.827 37.4976H476.852V34.9315H472.827V37.4976ZM484.145 38.8481C485.631 38.8481 486.819 37.6597 486.819 36.1741C486.819 34.6885 485.631 33.4999 484.145 33.4999C482.659 33.4999 481.471 34.6885 481.471 36.1741C481.471 37.6597 482.659 38.8481 484.145 38.8481ZM481.147 31.069H485.171V28.5029H481.147V31.069ZM474.826 32.3385C476.312 32.3385 477.5 31.15 477.5 29.6644C477.5 28.1788 476.312 26.9904 474.826 26.9904C473.341 26.9904 472.152 28.1788 472.152 29.6644C472.152 31.15 473.368 32.3385 474.826 32.3385ZM474.043 24.0732H476.96V22.4796H474.043V24.0732ZM483.173 26.153C485.198 26.153 486.819 25.0456 486.819 23.668C486.819 22.2905 485.171 21.1831 483.173 21.1831C481.147 21.1831 479.526 22.2905 479.526 23.668C479.526 25.0456 481.147 26.153 483.173 26.153ZM475.258 20.6158C476.744 20.6158 477.932 19.4274 477.932 17.9418C477.932 16.4562 476.744 15.2677 475.258 15.2677C473.773 15.2677 472.584 16.4562 472.584 17.9418C472.584 19.4274 473.773 20.6158 475.258 20.6158ZM481.957 19.0762H484.28V15.0516H481.957V19.0762ZM472.854 11.8373C473.503 11.8373 474.151 11.9184 474.745 12.0804C476.717 12.5666 477.743 12.9177 479.337 12.9177C479.823 12.9177 480.336 12.8907 480.985 12.8097C482.227 12.6747 484.388 12.0534 486.306 12.0534C488.305 12.0534 490.006 12.7287 490.06 15.2947C490.087 18.4279 488.548 19.4544 489.142 21.5072C491.681 30.6908 488.17 30.3397 488.359 34.4453C488.413 35.2827 488.413 35.8229 488.71 36.5522C489.061 37.3895 489.331 38.3889 489.358 39.1452C489.439 40.955 488.494 41.4141 487.386 41.4141C486.414 41.4141 485.279 41.063 484.604 40.955C482.524 40.6038 480.39 40.0906 478.311 39.9016C478.149 39.8745 477.986 39.8745 477.824 39.8745C476.366 39.8745 475.096 40.4417 473.8 41.09C473.476 41.2521 473.017 41.3331 472.53 41.3331C470.91 41.3331 468.884 40.3607 469.667 38.0378C470.18 36.5252 469.505 34.0132 469.289 32.4195C469.019 30.4747 469.127 28.1789 469.802 26.3151C470.586 24.1272 470.91 22.5606 470.18 19.9405C469.559 17.7257 469.1 17.2665 469.046 14.7545C468.911 12.6476 470.829 11.8373 472.854 11.8373Z" fill="#482811"/>
<path d="M257.33 33.145V32.6799C257.33 28.9299 258.057 25.0927 263.318 24.9764C263.784 23.988 265.499 20.6159 268.377 19.4822L268.464 19.4531H280.092L280.208 19.5113C282.01 20.6159 282.911 22.0694 283.929 23.7845C284.132 24.1043 284.336 24.4531 284.568 24.831C292.272 24.8892 293.202 28.2322 293.667 32.5927L293.725 33.0869C293.725 33.0869 258.086 33.1741 257.824 33.1741H257.33V33.145Z" fill="#A55922"/>
<path d="M280.226 19H279.993H268.569H268.394L268.22 19.0582C265.4 20.1919 263.656 23.2732 263.016 24.5523C256.854 24.8721 256.854 30.3372 256.854 32.721V33.6221H257.755C258.016 33.6221 291.737 33.5349 293.162 33.5349H294.179L294.092 32.5465C293.656 28.186 292.638 24.5523 284.819 24.3779C284.644 24.0872 284.47 23.8256 284.324 23.564C283.278 21.8198 282.348 20.3081 280.458 19.1453L280.226 19ZM279.993 19.9012C282.115 21.2093 282.9 23.0116 284.324 25.2791C291.912 25.2791 292.784 28.2733 293.22 32.6337C293.22 32.6337 258.074 32.721 257.813 32.721C257.813 28.8547 258.569 25.4535 263.656 25.4535C263.656 25.4535 265.4 21.1803 268.598 19.9303H279.993" fill="#482811"/>
<path fill-rule="evenodd" clip-rule="evenodd" d="M254.741 37.2023C254.043 37.2023 253.462 36.6209 253.462 35.9232C253.462 35.2255 254.043 34.6441 254.741 34.6441L296.253 34.4697C296.979 34.4697 297.532 35.0511 297.532 35.7488C297.532 36.4464 296.95 37.0278 296.253 37.0278L254.741 37.2023Z" fill="#A55922"/>
<path d="M296.256 34.0332L254.744 34.2076C253.785 34.2076 253 34.9925 253 35.9227C253 36.853 253.785 37.6379 254.744 37.6379L296.256 37.4634C297.215 37.4634 298 36.6786 298 35.7483C298 34.789 297.215 34.0332 296.256 34.0332ZM296.256 34.9344C296.721 34.9344 297.099 35.3123 297.099 35.7483C297.099 36.1844 296.721 36.5623 296.256 36.5623L254.744 36.7367C254.279 36.7367 253.901 36.3588 253.901 35.9227C253.901 35.4867 254.279 35.1088 254.744 35.1088L296.256 34.9344Z" fill="#482811"/>
<path fill-rule="evenodd" clip-rule="evenodd" d="M265.351 37.151C263.491 37.151 261.95 35.6393 261.95 33.7498C261.95 31.8893 263.462 30.3486 265.351 30.3486C267.241 30.3486 268.753 31.8602 268.753 33.7498C268.753 35.6393 267.241 37.151 265.351 37.151Z" fill="#A55922"/>
<path d="M265.351 29.9082C263.229 29.9082 261.514 31.6233 261.514 33.7454C261.514 35.8675 263.229 37.5826 265.351 37.5826C267.473 37.5826 269.188 35.8675 269.188 33.7454C269.217 31.6233 267.473 29.9082 265.351 29.9082ZM265.351 30.8094C266.979 30.8094 268.287 32.1175 268.287 33.7454C268.287 35.3733 266.979 36.6814 265.351 36.6814C263.723 36.6814 262.415 35.3733 262.415 33.7454C262.415 32.1175 263.752 30.8094 265.351 30.8094Z" fill="#482811"/>
<path fill-rule="evenodd" clip-rule="evenodd" d="M285.63 37.151C283.769 37.151 282.229 35.6393 282.229 33.7498C282.229 31.8893 283.74 30.3486 285.63 30.3486C287.49 30.3486 289.031 31.8602 289.031 33.7498C289.002 35.6393 287.49 37.151 285.63 37.151Z" fill="#A55922"/>
<path d="M285.629 29.9082C283.507 29.9082 281.792 31.6233 281.792 33.7454C281.792 35.8675 283.507 37.5826 285.629 37.5826C287.751 37.5826 289.466 35.8675 289.466 33.7454C289.466 31.6233 287.751 29.9082 285.629 29.9082ZM285.629 30.8094C287.257 30.8094 288.565 32.1175 288.565 33.7454C288.565 35.3733 287.257 36.6814 285.629 36.6814C284.001 36.6814 282.693 35.3733 282.693 33.7454C282.693 32.1175 284.001 30.8094 285.629 30.8094Z" fill="#482811"/>
<path fill-rule="evenodd" clip-rule="evenodd" d="M388.604 36.1533C387.857 36.1533 387.266 35.5621 387.266 34.8464L384.87 13.8428V13.8117C384.87 13.0649 385.461 12.4736 386.208 12.4736C386.955 12.4736 387.546 13.0649 387.546 13.7805L389.942 34.7842V34.8153C389.973 35.5621 389.351 36.1533 388.604 36.1533Z" fill="#A55922"/>
<path d="M386.219 12C385.192 12 384.383 12.8402 384.383 13.8359V13.8981V13.9603L386.779 34.9017C386.81 35.8974 387.619 36.6753 388.615 36.6753C389.641 36.6753 390.451 35.8352 390.451 34.8395V34.7772V34.715L388.055 13.7736C388.023 12.7779 387.214 12 386.219 12ZM386.219 12.9646C386.685 12.9646 387.09 13.338 387.09 13.8359L389.486 34.8395C389.486 35.3062 389.113 35.7107 388.615 35.7107C388.148 35.7107 387.743 35.3374 387.743 34.8395L385.347 13.8359C385.347 13.338 385.752 12.9646 386.219 12.9646Z" fill="#482811"/>
<path fill-rule="evenodd" clip-rule="evenodd" d="M361.971 36.1531C361.224 36.1531 360.633 35.5618 360.633 34.8462L358.361 15.6162V15.5851C358.361 14.8383 358.953 14.2471 359.699 14.2471C360.446 14.2471 361.037 14.8383 361.037 15.5539L363.309 34.7839V34.815C363.34 35.5618 362.718 36.1531 361.971 36.1531Z" fill="#A55922"/>
<path d="M359.71 13.7393C358.683 13.7393 357.874 14.5794 357.874 15.5751V15.6374V15.6996L360.146 34.8985C360.177 35.8942 360.986 36.6721 361.981 36.6721C363.008 36.6721 363.817 35.832 363.817 34.8362V34.774V34.7118L361.546 15.5129C361.515 14.5172 360.706 13.7393 359.71 13.7393ZM359.71 14.7039C360.177 14.7039 360.581 15.0773 360.581 15.5751L362.853 34.8051C362.853 35.2719 362.479 35.6764 361.981 35.6764C361.515 35.6764 361.11 35.303 361.11 34.8051L358.839 15.5751C358.839 15.1084 359.243 14.7039 359.71 14.7039Z" fill="#482811"/>
<path fill-rule="evenodd" clip-rule="evenodd" d="M355.489 36.3909C355.489 37.9778 355.832 39.2536 357.854 39.2536H397.123C399.146 39.2536 399.488 37.9778 399.488 36.3909V36.3598C399.488 34.7728 399.146 33.4971 397.123 33.4971H357.854C355.832 33.4971 355.489 34.7728 355.489 36.3598V36.3909Z" fill="#A55922"/>
<path d="M357.863 33.9511C356.462 33.9511 355.965 34.5423 355.965 36.347V36.3781C355.965 38.1518 356.431 38.7741 357.863 38.7741H397.132C398.532 38.7741 399.03 38.1829 399.03 36.3781C399.03 34.5423 398.563 33.9511 397.132 33.9511H357.863ZM397.163 39.7698H357.863C355 39.7698 355 37.3117 355 36.4093V36.3781C355 35.4446 355 33.0176 357.863 33.0176H397.132C399.994 33.0176 399.994 35.4758 399.994 36.3781C400.026 37.3116 400.026 39.7698 397.163 39.7698Z" fill="#482811"/>
<path fill-rule="evenodd" clip-rule="evenodd" d="M364.235 37.4091C363.489 37.4091 362.897 36.7867 362.897 36.0399V36.0088L367.129 14.1028C367.16 13.356 367.752 12.7959 368.467 12.7959C369.214 12.7959 369.805 13.4182 369.805 14.165V14.1961L365.573 36.1021C365.573 36.8178 364.982 37.4091 364.235 37.4091Z" fill="#A55922"/>
<path d="M368.463 12.2676C367.499 12.2676 366.69 13.0455 366.627 14.0101L362.427 35.8538L362.396 35.9472V36.0406C362.396 37.0674 363.236 37.9076 364.231 37.9076C365.196 37.9076 366.005 37.1296 366.067 36.165L370.268 14.3213L370.299 14.2279V14.1346C370.33 13.0766 369.49 12.2676 368.463 12.2676ZM368.463 13.2322C368.93 13.2322 369.334 13.6367 369.334 14.1035L365.103 36.0094C365.103 36.5073 364.729 36.8807 364.231 36.8807C363.765 36.8807 363.36 36.4762 363.36 36.0094L367.592 14.1035C367.623 13.6367 367.996 13.2322 368.463 13.2322Z" fill="#482811"/>
<path fill-rule="evenodd" clip-rule="evenodd" d="M390.869 37.4091C390.122 37.4091 389.531 36.7868 389.531 36.04V35.9777L393.514 15.7209C393.545 14.9741 394.136 14.4141 394.852 14.4141C395.599 14.4141 396.19 15.0364 396.19 15.7832V15.8454L392.207 36.1022C392.207 36.8179 391.616 37.4091 390.869 37.4091Z" fill="#A55922"/>
<path d="M394.841 13.9121C393.877 13.9121 393.068 14.6901 393.005 15.6547L389.054 35.8181L389.022 35.9115V36.0048C389.022 37.0316 389.863 37.8718 390.858 37.8718C391.823 37.8718 392.632 37.0939 392.694 36.1293L396.646 15.9658L396.677 15.8725V15.7791C396.677 14.7523 395.868 13.9121 394.841 13.9121ZM394.841 14.9079C395.308 14.9079 395.713 15.3124 395.713 15.7791L391.73 36.0359C391.73 36.5338 391.356 36.9072 390.858 36.9072C390.392 36.9072 389.987 36.5027 389.987 36.0359L393.97 15.7791C394.001 15.2812 394.374 14.9079 394.841 14.9079Z" fill="#482811"/>
<path fill-rule="evenodd" clip-rule="evenodd" d="M183.69 36.5305C183.494 36.5305 180.576 36.0389 180.544 34.9572C180.511 34.2034 181.593 34.0395 182.084 33.9739C182.674 33.8756 183.297 33.8429 183.592 33.8429L189.164 33.0234H189.197C189.983 33.0234 190.573 33.6134 190.573 34.3345C190.606 35.0556 190.016 35.6783 189.295 35.7111L183.723 36.5305H183.69Z" fill="#A55922"/>
<path d="M189.275 32.4795H189.209H189.143H189.078L183.571 33.2989C181.113 33.3645 180.031 33.8889 180.064 34.9705C180.097 36.6421 183.67 37.0355 183.702 37.0355H183.735H183.801H183.866L189.406 36.2161C189.864 36.1833 190.323 35.9866 190.618 35.6261C190.946 35.2655 191.143 34.8067 191.11 34.2822C191.077 33.2661 190.291 32.4795 189.275 32.4795ZM189.275 33.4956C189.733 33.4956 190.094 33.8561 190.127 34.315C190.127 34.7739 189.766 35.1672 189.307 35.1672L183.735 35.9866C183.244 35.9866 181.146 35.3639 181.113 34.905C181.113 34.4461 183.244 34.315 183.702 34.315L189.275 33.4956C189.242 33.4956 189.242 33.4956 189.275 33.4956Z" fill="#482811"/>
<path fill-rule="evenodd" clip-rule="evenodd" d="M153.886 39.5776C153.198 39.5776 152.641 38.9548 152.641 38.1681V36.136C152.641 35.3493 153.198 34.7266 153.886 34.7266H187.155C187.843 34.7266 188.4 35.3493 188.4 36.136V38.1681C188.4 38.9548 187.843 39.5776 187.155 39.5776H153.886Z" fill="#A55922"/>
<path d="M187.129 34.2051H153.893C152.943 34.2051 152.156 35.0573 152.156 36.1389V38.1711C152.156 39.2527 152.943 40.1049 153.893 40.1049H187.162C188.112 40.1049 188.899 39.2527 188.899 38.1711V36.1389C188.899 35.0573 188.112 34.2051 187.129 34.2051ZM187.129 35.2212C187.523 35.2212 187.85 35.6145 187.85 36.1389V38.1711C187.85 38.6627 187.523 39.0888 187.129 39.0888H153.893C153.5 39.0888 153.172 38.6955 153.172 38.1711V36.1389C153.172 35.6473 153.5 35.2212 153.893 35.2212H187.129Z" fill="#482811"/>
<path fill-rule="evenodd" clip-rule="evenodd" d="M185.665 47.5723C184.911 47.5723 184.321 46.9823 184.321 46.2285V41.9347C184.321 41.1808 184.911 40.5908 185.665 40.5908C186.419 40.5908 187.009 41.1808 187.009 41.9347V46.2285C187.009 46.9823 186.419 47.5723 185.665 47.5723Z" fill="#A55922"/>
<path d="M185.665 40.082C184.649 40.082 183.797 40.9014 183.797 41.9503V46.2441C183.797 47.2602 184.616 48.1124 185.665 48.1124C186.714 48.1124 187.533 47.293 187.533 46.2441V41.9503C187.533 40.9342 186.714 40.082 185.665 40.082ZM185.665 41.0981C186.124 41.0981 186.517 41.4586 186.517 41.9503V46.2441C186.517 46.703 186.157 47.0963 185.665 47.0963C185.206 47.0963 184.813 46.7358 184.813 46.2441V41.9503C184.846 41.4914 185.206 41.0981 185.665 41.0981Z" fill="#482811"/>
<path fill-rule="evenodd" clip-rule="evenodd" d="M187.953 45.0899C187.199 45.0899 186.609 44.4999 186.609 43.746V39.4522C186.609 38.6984 187.199 38.1084 187.953 38.1084C188.707 38.1084 189.297 38.6984 189.297 39.4522V43.746C189.297 44.4671 188.674 45.0899 187.953 45.0899Z" fill="#A55922"/>
<path d="M187.954 37.5664C186.938 37.5664 186.086 38.3859 186.086 39.4347V43.7285C186.086 44.7446 186.905 45.5967 187.954 45.5967C189.003 45.5967 189.823 44.7773 189.823 43.7285V39.4347C189.79 38.4186 188.97 37.5664 187.954 37.5664ZM187.954 38.6153C188.413 38.6153 188.806 38.9758 188.806 39.4675V43.7612C188.806 44.2201 188.446 44.6134 187.954 44.6134C187.495 44.6134 187.102 44.2529 187.102 43.7612V39.4675C187.102 38.9758 187.463 38.6153 187.954 38.6153Z" fill="#482811"/>
<path fill-rule="evenodd" clip-rule="evenodd" d="M184.681 41.9562C184.353 41.9562 184.058 41.8579 183.796 41.6285L177.503 38.023L177.47 37.9902C177.208 37.728 177.044 37.4002 177.044 37.0397C177.044 36.6792 177.175 36.3514 177.404 36.0892C177.667 35.8269 178.027 35.6631 178.388 35.6631C178.716 35.6631 179.011 35.7614 179.273 35.9909L185.566 39.5963L185.599 39.6291C185.861 39.8913 186.025 40.2191 186.025 40.5796C186.025 40.9402 185.894 41.2679 185.664 41.5301C185.402 41.7923 185.042 41.9562 184.681 41.9562Z" fill="#A55922"/>
<path d="M178.383 35.1436C177.859 35.1436 177.367 35.3402 177.039 35.7336C176.711 36.0941 176.515 36.553 176.547 37.0774C176.547 37.5691 176.777 38.0279 177.137 38.3885L177.236 38.4868L177.334 38.5524L183.562 42.125C183.89 42.3873 184.316 42.5511 184.742 42.5511C185.266 42.5511 185.758 42.3217 186.086 41.9612C186.807 41.2073 186.741 40.0273 186.02 39.339L185.922 39.2407L185.823 39.1751L179.596 35.6024C179.202 35.2747 178.809 35.1436 178.383 35.1436ZM178.383 36.1596C178.58 36.1596 178.809 36.2252 178.973 36.3891L185.266 39.9946C185.594 40.3223 185.627 40.8467 185.299 41.1745C185.135 41.3384 184.906 41.4367 184.676 41.4367C184.479 41.4367 184.25 41.3712 184.086 41.2073L177.793 37.6018C177.465 37.2741 177.432 36.7496 177.76 36.4219C177.924 36.258 178.154 36.1596 178.383 36.1596Z" fill="#A55922"/>
<path fill-rule="evenodd" clip-rule="evenodd" d="M189.842 42.4961C189.088 42.4961 188.498 41.9062 188.498 41.1523V36.8585C188.498 36.1046 189.088 35.5146 189.842 35.5146C190.596 35.5146 191.186 36.1046 191.186 36.8585V41.1523C191.186 41.9062 190.596 42.4961 189.842 42.4961Z" fill="#A55922"/>
<path d="M189.842 35.0059C188.826 35.0059 187.974 35.8253 187.974 36.8741V41.1679C187.974 42.184 188.793 43.0362 189.842 43.0362C190.891 43.0362 191.71 42.2168 191.71 41.1679V36.8741C191.71 35.858 190.858 35.0059 189.842 35.0059ZM189.842 36.0219C190.301 36.0219 190.694 36.3825 190.694 36.8741V41.1679C190.694 41.6268 190.334 42.0201 189.842 42.0201C189.383 42.0201 188.99 41.6595 188.99 41.1679V36.8741C188.99 36.4152 189.383 36.0219 189.842 36.0219Z" fill="#482811"/>
<path fill-rule="evenodd" clip-rule="evenodd" d="M191.778 40.3018C191.025 40.3018 190.435 39.7118 190.435 38.9579V34.6642C190.435 33.9103 191.025 33.3203 191.778 33.3203C192.532 33.3203 193.122 33.9103 193.122 34.6642V38.9579C193.122 39.7118 192.5 40.3018 191.778 40.3018Z" fill="#A55922"/>
<path d="M191.778 32.8125C190.762 32.8125 189.91 33.6319 189.91 34.6808V38.9746C189.91 39.9907 190.73 40.8428 191.778 40.8428C192.827 40.8428 193.647 40.0234 193.647 38.9746V34.6808C193.647 33.6647 192.795 32.8125 191.778 32.8125ZM191.778 33.8614C192.237 33.8614 192.631 34.2219 192.631 34.7136V39.0073C192.631 39.4662 192.27 39.8595 191.778 39.8595C191.32 39.8595 190.926 39.499 190.926 39.0073V34.7136C190.926 34.2219 191.32 33.8614 191.778 33.8614Z" fill="#482811"/>
<path fill-rule="evenodd" clip-rule="evenodd" d="M193.46 37.9619C192.706 37.9619 192.116 37.3719 192.116 36.6181V32.3243C192.116 31.5704 192.706 30.9805 193.46 30.9805C194.214 30.9805 194.804 31.5704 194.804 32.3243V36.6181C194.804 37.3719 194.181 37.9619 193.46 37.9619Z" fill="#A55922"/>
<path d="M193.46 30.4717C192.444 30.4717 191.592 31.2911 191.592 32.34V36.6338C191.592 37.6498 192.411 38.502 193.46 38.502C194.509 38.502 195.328 37.6826 195.328 36.6338V32.34C195.296 31.3239 194.476 30.4717 193.46 30.4717ZM193.46 31.4878C193.919 31.4878 194.312 31.8483 194.312 32.34V36.6338C194.312 37.0926 193.952 37.4859 193.46 37.4859C193.001 37.4859 192.608 37.1254 192.608 36.6338V32.34C192.608 31.8811 192.968 31.4878 193.46 31.4878Z" fill="#482811"/>
<path fill-rule="evenodd" clip-rule="evenodd" d="M184.5 44.4628C183.32 44.4628 182.631 44.0695 182.631 43.3812C182.631 43.2173 182.631 43.0206 182.598 42.824C182.533 42.1029 182.5 41.1851 183.025 40.5296C183.451 39.9068 183.975 39.2841 184.467 38.7269L184.663 38.4974C185.516 37.2519 186.565 36.0391 187.581 34.8592L188.007 34.3675C188.892 33.0565 190.006 31.7782 191.055 30.5654L191.514 30.041C191.842 29.5493 192.268 29.3527 192.825 29.3527C192.956 29.3527 193.12 29.3527 193.284 29.3199C193.48 29.3199 193.677 29.2871 193.874 29.2871C194.103 29.2871 194.3 29.3199 194.464 29.3527C194.66 29.3855 194.988 29.4838 195.218 29.9426C195.578 30.7293 195.48 32.4665 195.086 33.0237C194.628 33.6792 194.103 34.3348 193.546 34.9248L193.317 35.1869C192.432 36.498 191.317 37.7763 190.268 38.9891L189.809 39.5135C188.924 40.8246 187.81 42.1029 186.761 43.3156L186.401 43.7417V44.0695H186.073C185.647 44.43 184.795 44.4628 184.5 44.4628Z" fill="#A55922"/>
<path d="M193.933 28.7734C193.704 28.7734 193.474 28.7734 193.311 28.8062C193.147 28.8062 193.016 28.839 192.884 28.839C192.163 28.839 191.606 29.134 191.147 29.724C191.016 29.8879 190.852 30.0517 190.688 30.2484C189.607 31.4611 188.525 32.7395 187.607 34.0833L187.181 34.575C186.165 35.7549 185.116 36.9349 184.264 38.2132L184.067 38.4099C183.543 38.9998 183.019 39.5898 182.592 40.2453C181.937 41.032 182.035 42.0809 182.068 42.8675C182.068 43.0642 182.101 43.228 182.101 43.3919C182.101 44.1458 182.724 44.9652 184.461 44.9652C184.92 44.9652 185.641 44.8997 186.198 44.6047H186.886V43.9492C186.952 43.8508 187.05 43.7853 187.116 43.6869C188.197 42.4742 189.279 41.1959 190.197 39.852C190.361 39.6882 190.492 39.5243 190.656 39.3276C191.737 38.1149 192.819 36.8366 193.737 35.4927L193.966 35.2305C194.49 34.6077 195.08 33.9522 195.539 33.2639C196.097 32.4772 196.129 30.5762 195.736 29.6912C195.441 29.0029 194.917 28.839 194.622 28.8062C194.425 28.7734 194.196 28.7734 193.933 28.7734ZM193.933 29.7895C194.097 29.7895 194.294 29.7895 194.425 29.8551C195.146 29.8551 195.048 32.3133 194.687 32.7067C194.195 33.4605 193.507 34.1816 192.917 34.8699C191.901 36.3777 190.59 37.8526 189.41 39.2293C188.394 40.737 187.083 42.212 185.903 43.5886C185.739 43.8181 185.116 43.9492 184.494 43.9492C183.805 43.9492 183.15 43.7852 183.15 43.3919C183.15 42.6053 182.887 41.4909 183.445 40.8681C183.904 40.147 184.526 39.4587 185.084 38.836C186.034 37.3938 187.312 36.0171 188.427 34.706C189.443 33.1983 190.754 31.7234 191.934 30.3467C192.163 29.9862 192.426 29.8551 192.852 29.8551C193.212 29.8551 193.573 29.7895 193.933 29.7895Z" fill="#482811"/>
<path fill-rule="evenodd" clip-rule="evenodd" d="M158.406 35.1699C158.373 35.1699 158.34 35.1699 158.275 35.1699C157.98 35.1372 157.75 35.006 157.587 34.7766C157.455 34.5799 157.39 34.3505 157.455 34.1211L160.569 13.4716C160.668 13.0127 161.094 12.7178 161.553 12.7178C161.585 12.7178 161.618 12.7178 161.651 12.7178C161.946 12.7506 162.175 12.8816 162.339 13.1111C162.47 13.3077 162.536 13.5372 162.47 13.7666L159.356 34.4161C159.291 34.8749 158.898 35.1699 158.406 35.1699Z" fill="#A55922"/>
<path d="M161.561 12.2324C160.84 12.2324 160.217 12.6913 160.086 13.3468V13.3796V13.4124L156.972 34.0618C156.907 34.4224 157.005 34.7829 157.202 35.0779C157.431 35.4057 157.825 35.6351 158.251 35.6679C158.316 35.6679 158.349 35.6679 158.415 35.6679C159.136 35.6679 159.758 35.209 159.89 34.5535V34.5207V34.4879L163.003 13.8385C163.069 13.4779 162.971 13.1174 162.774 12.8224C162.544 12.4946 162.151 12.2652 161.725 12.2324C161.692 12.2324 161.627 12.2324 161.561 12.2324ZM161.561 13.2485C161.594 13.2485 161.594 13.2485 161.627 13.2485C161.889 13.2813 162.053 13.4451 162.02 13.6746L158.906 34.3568C158.873 34.5535 158.644 34.6846 158.415 34.6846C158.382 34.6846 158.382 34.6846 158.349 34.6846C158.087 34.6518 157.923 34.4879 157.956 34.2585L161.069 13.5763C161.135 13.3796 161.332 13.2485 161.561 13.2485Z" fill="#482811"/>
<path fill-rule="evenodd" clip-rule="evenodd" d="M156.618 38.2315C156.127 38.2315 155.701 37.9037 155.668 37.4448L152.554 18.0737C152.521 17.8115 152.587 17.582 152.751 17.4182C152.915 17.2215 153.177 17.0904 153.439 17.0576C153.472 17.0576 153.505 17.0576 153.537 17.0576C154.029 17.0576 154.455 17.3854 154.488 17.8443L157.602 37.2482C157.635 37.5104 157.569 37.7398 157.405 37.9037C157.241 38.1004 156.979 38.2315 156.717 38.2642C156.684 38.2315 156.651 38.2315 156.618 38.2315Z" fill="#A55922"/>
<path d="M153.517 16.502C153.451 16.502 153.418 16.502 153.353 16.502C152.927 16.5347 152.566 16.7314 152.304 17.0592C152.075 17.3542 151.944 17.7147 152.009 18.0753V18.108V18.1408L155.123 37.5447C155.221 38.2331 155.844 38.7575 156.598 38.7575C156.663 38.7575 156.696 38.7575 156.762 38.7575C157.188 38.7247 157.548 38.528 157.811 38.2003C158.04 37.9053 158.138 37.5447 158.106 37.1842V37.1514V37.1186L154.992 17.7147C154.893 17.0264 154.271 16.502 153.517 16.502ZM153.517 17.518C153.746 17.518 153.943 17.6491 153.976 17.8458L157.089 37.2497C157.122 37.4464 156.926 37.643 156.663 37.6758C156.631 37.6758 156.631 37.6758 156.598 37.6758C156.368 37.6758 156.172 37.5447 156.139 37.348L153.025 17.9441C152.992 17.7475 153.189 17.5508 153.451 17.518C153.484 17.518 153.484 17.518 153.517 17.518Z" fill="#482811"/>
<path fill-rule="evenodd" clip-rule="evenodd" d="M185.506 41.9498C184.883 41.9498 184.358 41.4581 184.358 40.8353V18.0226C184.358 17.3999 184.883 16.9082 185.506 16.9082C186.128 16.9082 186.653 17.3999 186.653 18.0226V40.8353C186.653 41.4581 186.128 41.9498 185.506 41.9498Z" fill="#A55922"/>
<path d="M185.506 16.3896C184.588 16.3896 183.867 17.1107 183.867 18.0285V40.8412C183.867 41.759 184.621 42.48 185.506 42.48C186.391 42.48 187.145 41.759 187.145 40.8412V18.0285C187.145 17.1435 186.424 16.3896 185.506 16.3896ZM185.506 17.4057C185.834 17.4057 186.129 17.6679 186.129 18.0285V40.8412C186.129 41.169 185.867 41.464 185.506 41.464C185.178 41.464 184.883 41.2017 184.883 40.8412V18.0285C184.883 17.7007 185.145 17.4057 185.506 17.4057Z" fill="#482811"/>
<path fill-rule="evenodd" clip-rule="evenodd" d="M192.989 31.6303C192.366 31.6303 191.842 31.1386 191.842 30.5158V15.2746C191.842 14.6846 192.366 14.1602 192.989 14.1602C193.612 14.1602 194.136 14.6518 194.136 15.2746V30.5158C194.136 31.1386 193.612 31.6303 192.989 31.6303Z" fill="#A55922"/>
<path d="M192.988 13.6865C192.071 13.6865 191.35 14.4076 191.35 15.2926V30.5339C191.35 31.4188 192.103 32.1399 192.988 32.1399C193.906 32.1399 194.627 31.4188 194.627 30.5339V15.2926C194.627 14.4404 193.906 13.6865 192.988 13.6865ZM192.988 14.7354C193.316 14.7354 193.611 14.9976 193.611 15.3254V30.5666C193.611 30.8944 193.349 31.1566 192.988 31.1566C192.661 31.1566 192.366 30.8944 192.366 30.5666V15.3254C192.366 14.9976 192.661 14.7354 192.988 14.7354Z" fill="#482811"/>
<path fill-rule="evenodd" clip-rule="evenodd" d="M156.028 12.9098C155.373 12.9098 154.881 12.3853 154.881 11.7298C154.881 11.0743 155.405 10.5498 156.028 10.5498H189.69C190.345 10.5498 190.837 11.0743 190.837 11.7298C190.837 12.3853 190.313 12.9098 189.69 12.9098H156.028Z" fill="#A55922"/>
<path d="M189.708 10H156.047C155.129 10 154.375 10.7539 154.375 11.7044C154.375 12.6549 155.129 13.4088 156.047 13.4088H189.708C190.626 13.4088 191.38 12.6549 191.38 11.7044C191.38 10.7866 190.626 10 189.708 10ZM189.708 11.0488C190.069 11.0488 190.364 11.3438 190.364 11.7372C190.364 12.0977 190.069 12.4255 189.708 12.4255H156.047C155.686 12.4255 155.391 12.1305 155.391 11.7372C155.391 11.3766 155.686 11.0488 156.047 11.0488H189.708Z" fill="#482811"/>
<path fill-rule="evenodd" clip-rule="evenodd" d="M152.651 17.0328C151.995 17.0328 151.471 16.5084 151.471 15.8529C151.471 15.1973 151.995 14.6729 152.651 14.6729H193.065C193.72 14.6729 194.245 15.1973 194.245 15.8529C194.245 16.5084 193.72 17.0328 193.065 17.0328H152.651Z" fill="#A55922"/>
<path d="M193.086 14.123H152.672C151.754 14.123 151 14.8769 151 15.8274C151 16.778 151.754 17.5319 152.672 17.5319H193.086C194.003 17.5319 194.757 16.778 194.757 15.8274C194.757 14.8769 194.003 14.123 193.086 14.123ZM193.086 15.1391C193.446 15.1391 193.741 15.4341 193.741 15.8274C193.741 16.188 193.446 16.5157 193.086 16.5157H152.672C152.311 16.5157 152.016 16.2208 152.016 15.8274C152.016 15.4669 152.311 15.1391 152.672 15.1391H193.086Z" fill="#482811"/>
<path fill-rule="evenodd" clip-rule="evenodd" d="M664.157 16.5675C663.592 16.5675 663.121 16.0965 663.121 15.5312C663.121 14.9659 663.592 14.4949 664.157 14.4949L700.571 14.3535C701.159 14.3535 701.607 14.8246 701.607 15.3898C701.607 15.9551 701.136 16.4262 700.571 16.4262L664.157 16.5675Z" fill="#A55922"/>
<path d="M700.587 14L664.174 14.1413C663.397 14.1413 662.761 14.7773 662.761 15.531C662.761 16.2847 663.397 16.9206 664.174 16.9206L700.587 16.7793C701.364 16.7793 702 16.1433 702 15.3896C702 14.6359 701.364 14 700.587 14ZM700.587 14.7301C700.964 14.7301 701.27 15.0363 701.27 15.3896C701.27 15.7429 700.964 16.0491 700.587 16.0491L664.174 16.1905C663.797 16.1905 663.491 15.8843 663.491 15.531C663.491 15.1777 663.797 14.8715 664.174 14.8715L700.587 14.7301Z" fill="#482811"/>
<path fill-rule="evenodd" clip-rule="evenodd" d="M664.157 44.7814C663.592 44.7814 663.121 44.3103 663.121 43.745C663.121 43.1798 663.592 42.7087 664.157 42.7087L700.571 42.5674C701.159 42.5674 701.607 43.0384 701.607 43.6037C701.607 44.169 701.136 44.64 700.571 44.64L664.157 44.7814Z" fill="#A55922"/>
<path d="M700.587 42.2139L664.174 42.3552C663.397 42.3552 662.761 42.9911 662.761 43.7448C662.761 44.5221 663.397 45.1345 664.174 45.1345L700.587 44.9932C701.364 44.9932 702 44.3572 702 43.6035C702 42.8498 701.364 42.2139 700.587 42.2139ZM700.587 42.944C700.964 42.944 701.27 43.2502 701.27 43.6035C701.27 43.9568 700.964 44.263 700.587 44.263L664.174 44.4043C663.797 44.4043 663.491 44.0981 663.491 43.7448C663.491 43.3915 663.797 43.0854 664.174 43.0854L700.587 42.944Z" fill="#482811"/>
<path d="M682.939 42.7216C679.218 42.7216 676.18 39.6833 676.18 35.9619C676.18 32.2405 679.218 29.2021 682.939 29.2021C686.661 29.2021 689.699 32.2405 689.699 35.9619C689.699 39.6833 686.661 42.7216 682.939 42.7216Z" fill="#A55922"/>
<path d="M682.939 28.8184C679.006 28.8184 675.803 32.0216 675.803 35.955C675.803 39.8884 679.006 43.0916 682.939 43.0916C686.873 43.0916 690.076 39.8884 690.076 35.955C690.076 32.0216 686.873 28.8184 682.939 28.8184ZM682.939 29.5485C686.472 29.5485 689.346 32.422 689.346 35.955C689.346 39.488 686.472 42.3614 682.939 42.3614C679.406 42.3614 676.533 39.488 676.533 35.955C676.533 32.422 679.406 29.5485 682.939 29.5485Z" fill="#482811"/>
<path d="M682.94 40.8684C680.231 40.8684 678.041 38.678 678.041 35.9694C678.041 33.2608 680.231 31.0703 682.94 31.0703C685.649 31.0703 687.839 33.2608 687.839 35.9694C687.839 38.6544 685.625 40.8684 682.94 40.8684Z" fill="#FF8C09"/>
<path d="M682.94 30.6953C680.043 30.6953 677.664 33.0506 677.664 35.9712C677.664 38.8682 680.019 41.2471 682.94 41.2471C685.837 41.2471 688.216 38.8918 688.216 35.9712C688.192 33.0506 685.837 30.6953 682.94 30.6953ZM682.94 31.4254C685.437 31.4254 687.486 33.451 687.486 35.9712C687.486 38.4914 685.46 40.517 682.94 40.517C680.42 40.517 678.394 38.4914 678.394 35.9712C678.394 33.451 680.42 31.4254 682.94 31.4254Z" fill="#482811"/>
<path d="M667.238 36.6422L667.144 36.336L664.294 23.3111C664.247 23.0991 664.388 22.8871 664.6 22.84L665.684 22.6045H665.731C665.919 22.6045 666.084 22.7458 666.108 22.9107L669.005 36.077L668.911 36.2182C668.864 36.3125 668.769 36.3595 668.652 36.3831L667.568 36.6186H667.521H667.238V36.6422Z" fill="#482811"/>
<path d="M665.726 22.2207H665.655L665.561 22.2443L664.525 22.4798C664.336 22.5269 664.148 22.6447 664.053 22.8095C663.936 22.9744 663.912 23.1864 663.959 23.3748L666.809 36.3998C666.88 36.7531 667.186 36.9886 667.563 36.9886H667.634L667.728 36.965L668.764 36.7295C668.953 36.6824 669.141 36.5646 669.235 36.3998C669.353 36.2349 669.377 36.0229 669.329 35.8345L666.479 22.8095C666.385 22.4798 666.079 22.2207 665.726 22.2207ZM665.726 22.9745L668.599 36.0229C668.599 36.0464 668.599 36.0465 668.576 36.0465L667.539 36.282C667.539 36.282 667.516 36.282 667.516 36.2584L664.666 23.2335C664.666 23.2099 664.666 23.21 664.689 23.21L665.726 22.9745Z" fill="#482811"/>
<path d="M682.138 36.6422L682.044 36.336L679.194 23.3111C679.147 23.0991 679.288 22.8871 679.5 22.84L680.583 22.6045H680.63C680.819 22.6045 680.984 22.7458 681.007 22.9107L683.857 35.9356C683.904 36.1476 683.763 36.3596 683.551 36.4067L682.468 36.6422H682.42H682.138Z" fill="#482811"/>
<path d="M680.627 22.2207H680.556L680.462 22.2443L679.426 22.4798C679.025 22.574 678.766 22.9744 678.837 23.3748L681.687 36.3998C681.757 36.7531 682.064 36.9886 682.44 36.9886H682.511L682.582 36.965L683.618 36.7295C684.018 36.6353 684.278 36.2349 684.207 35.8345L681.357 22.8095C681.31 22.4798 680.98 22.2207 680.627 22.2207ZM680.627 22.9745C680.65 22.9745 680.65 22.9745 680.627 22.9745L683.5 36.0229C683.5 36.0464 683.5 36.0465 683.477 36.0465L682.44 36.282C682.44 36.282 682.417 36.282 682.417 36.2584L679.567 23.2335C679.567 23.2099 679.567 23.21 679.59 23.21L680.627 22.9745Z" fill="#482811"/>
<path d="M667.73 33.5713C667.329 33.5713 666.952 33.3122 666.835 32.9118C666.764 32.6762 666.788 32.4172 666.905 32.2052C667.023 31.9932 667.212 31.8283 667.447 31.7577L680.684 27.6595C680.778 27.6359 680.872 27.6123 680.967 27.6123C681.367 27.6123 681.744 27.8714 681.862 28.2718C681.932 28.5073 681.909 28.7664 681.791 28.9784C681.673 29.1904 681.485 29.3553 681.249 29.4259L668.012 33.5242C667.918 33.5477 667.824 33.5713 667.73 33.5713Z" fill="#482811"/>
<path d="M680.982 27.2441C680.864 27.2441 680.722 27.2677 680.605 27.2912L667.368 31.3895C667.038 31.4837 666.779 31.7193 666.614 32.0254C666.449 32.3316 666.426 32.6849 666.52 33.0147C666.685 33.5564 667.179 33.9333 667.768 33.9333C667.886 33.9333 668.027 33.9097 668.145 33.8861L681.382 29.7879C681.712 29.6937 681.971 29.4582 682.136 29.152C682.301 28.8458 682.324 28.4925 682.23 28.1627C682.041 27.621 681.547 27.2441 680.982 27.2441ZM680.982 27.9743C681.217 27.9743 681.453 28.1392 681.523 28.3747C681.618 28.6573 681.453 28.9871 681.146 29.0813L667.91 33.1795C667.862 33.2031 667.792 33.2031 667.745 33.2031C667.509 33.2031 667.274 33.0382 667.203 32.8027C667.109 32.5201 667.274 32.1903 667.58 32.0961L680.817 27.9978C680.864 27.9978 680.934 27.9743 680.982 27.9743Z" fill="#482811"/>
<path d="M666.174 28.6867L665.962 28.4748L665.938 28.3099V27.0851L666.174 26.8496H681.201L681.413 27.0616L681.436 27.2264V28.4512L681.201 28.6867H666.174Z" fill="#482811"/>
<path d="M666.012 26.4648L665.8 26.6769L665.776 26.7004L665.564 26.9124V27.2186V28.2785V28.5846L665.776 28.7966L665.8 28.8202L666.012 29.0322H666.318H681.039H681.345L681.557 28.8202L681.581 28.7966L681.793 28.5846V28.2785V27.2186V26.9124L681.581 26.7004L681.557 26.6769L681.345 26.4648H681.039H666.318H666.012ZM666.318 27.195H681.039L681.062 27.2186V28.2785L681.039 28.302H666.318L666.295 28.2785L666.318 27.195C666.318 27.2186 666.295 27.2186 666.318 27.195Z" fill="#482811"/>
<path d="M667.536 36.2597L668.572 36.0242C668.595 36.0242 668.595 36.0006 668.595 36.0006L665.746 22.9757C665.746 22.9522 665.722 22.9521 665.722 22.9521L664.686 23.1877C664.662 23.1877 664.662 23.2113 664.662 23.2113L667.512 36.2362C667.512 36.2597 667.536 36.2597 667.536 36.2597Z" fill="#A55922"/>
<path d="M682.435 36.2597L683.471 36.0242C683.495 36.0242 683.495 36.0006 683.495 36.0006L680.645 22.9757C680.645 22.9522 680.621 22.9521 680.621 22.9521L679.585 23.1877C679.562 23.1877 679.562 23.2113 679.562 23.2113L682.411 36.2362C682.411 36.2597 682.435 36.2597 682.435 36.2597Z" fill="#A55922"/>
<path d="M681.523 28.3756C681.429 28.093 681.123 27.9281 680.817 27.9987L667.58 32.097C667.297 32.1912 667.132 32.4974 667.203 32.8036C667.297 33.0862 667.603 33.2511 667.909 33.1804L681.146 29.0822C681.429 28.988 681.594 28.6583 681.523 28.3756Z" fill="#A55922"/>
<path d="M681.065 28.2944V27.2345L681.041 27.2109H666.32L666.297 27.2345V28.2944L666.32 28.318L681.065 28.2944Z" fill="#A55922"/>
<path d="M677.683 24.4817C677.165 24.4817 676.765 24.0578 676.765 23.5631C676.765 23.045 677.189 22.6445 677.683 22.6445H680.769C681.287 22.6445 681.687 23.0685 681.687 23.5631C681.687 24.0813 681.263 24.4817 680.769 24.4817H677.683Z" fill="#A55922"/>
<path d="M680.743 22.2822H677.658C676.951 22.2822 676.362 22.8711 676.362 23.5777C676.362 24.2842 676.951 24.8731 677.658 24.8731H680.743C681.45 24.8731 682.039 24.2842 682.039 23.5777C682.039 22.8475 681.473 22.2822 680.743 22.2822ZM680.743 23.0123C681.049 23.0123 681.308 23.2715 681.308 23.5777C681.308 23.8838 681.049 24.1429 680.743 24.1429H677.658C677.352 24.1429 677.092 23.8838 677.092 23.5777C677.092 23.2715 677.352 23.0123 677.658 23.0123H680.743Z" fill="#482811"/>
<path d="M662.782 24.7054C662.57 24.7054 662.382 24.517 662.382 24.305V22.6563C662.382 22.4443 662.57 22.2559 662.782 22.2559H669.495C669.707 22.2559 669.895 22.4443 669.895 22.6563V24.305C669.895 24.517 669.707 24.7054 669.495 24.7054H662.782Z" fill="#A55922"/>
<path d="M669.49 21.8721H662.777C662.353 21.8721 662 22.2254 662 22.6493V24.2981C662 24.722 662.353 25.0753 662.777 25.0753H669.49C669.914 25.0753 670.267 24.722 670.267 24.2981V22.6493C670.244 22.2254 669.914 21.8721 669.49 21.8721ZM669.49 22.6258C669.513 22.6258 669.513 22.6493 669.513 22.6493V24.2981C669.513 24.3216 669.49 24.3216 669.49 24.3216H662.777C662.754 24.3216 662.754 24.2981 662.754 24.2981V22.6493C662.754 22.6258 662.777 22.6258 662.777 22.6258H669.49Z" fill="#482811"/>
<path d="M668.867 40.5808C667.36 40.5808 666.111 39.3561 666.111 37.8251C666.111 36.3177 667.336 35.0693 668.867 35.0693C670.374 35.0693 671.623 36.2941 671.623 37.8251C671.623 39.3561 670.398 40.5808 668.867 40.5808Z" fill="#A55922"/>
<path d="M668.868 34.7148C667.148 34.7148 665.759 36.1045 665.759 37.8239C665.759 39.5432 667.148 40.9329 668.868 40.9329C670.587 40.9329 671.977 39.5432 671.977 37.8239C672 36.1045 670.587 34.7148 668.868 34.7148ZM668.868 35.445C670.187 35.445 671.247 36.5049 671.247 37.8239C671.247 39.1428 670.187 40.2027 668.868 40.2027C667.549 40.2027 666.489 39.1428 666.489 37.8239C666.489 36.5284 667.572 35.445 668.868 35.445Z" fill="#482811"/>
<path d="M668.868 39.1143C668.161 39.1143 667.572 38.549 667.572 37.8189C667.572 37.1123 668.138 36.5234 668.868 36.5234C669.574 36.5234 670.163 37.0887 670.163 37.8189C670.163 38.549 669.574 39.1143 668.868 39.1143Z" fill="#A55922"/>
<path d="M668.867 36.1816C667.949 36.1816 667.219 36.9118 667.219 37.8304C667.219 38.7489 667.949 39.4791 668.867 39.4791C669.786 39.4791 670.516 38.7489 670.516 37.8304C670.54 36.9118 669.786 36.1816 668.867 36.1816ZM668.867 36.9118C669.362 36.9118 669.786 37.3122 669.786 37.8304C669.786 38.325 669.386 38.7489 668.867 38.7489C668.373 38.7489 667.949 38.3485 667.949 37.8304C667.972 37.3357 668.373 36.9118 668.867 36.9118Z" fill="#482811"/>
<path d="M669.52 40.0567C669.308 40.0567 669.119 39.8683 669.119 39.6564V38.2432C669.119 38.0312 669.308 37.8428 669.52 37.8428H672.911C673.123 37.8428 673.312 38.0312 673.312 38.2432V39.6564C673.312 39.8683 673.123 40.0567 672.911 40.0567H669.52Z" fill="#A55922"/>
<path d="M672.916 37.4912H669.524C669.1 37.4912 668.747 37.8445 668.747 38.2685V39.6817C668.747 40.1056 669.1 40.4589 669.524 40.4589H672.916C673.34 40.4589 673.693 40.1056 673.693 39.6817V38.2685C673.693 37.821 673.34 37.4912 672.916 37.4912ZM672.916 38.2213C672.94 38.2213 672.94 38.2449 672.94 38.2449V39.6581C672.94 39.6816 672.916 39.6817 672.916 39.6817H669.524C669.501 39.6817 669.501 39.6581 669.501 39.6581V38.2449C669.501 38.2213 669.524 38.2213 669.524 38.2213H672.916Z" fill="#482811"/>
<path fill-rule="evenodd" clip-rule="evenodd" d="M565.78 32.7947C565.372 32.7947 565.05 32.4511 565.05 32.0431L565.028 11.986C565.028 11.578 565.35 11.2344 565.758 11.2344C566.166 11.2344 566.51 11.578 566.51 11.986L566.532 32.0431C566.532 32.2363 566.467 32.4296 566.317 32.5799C566.166 32.7088 565.995 32.7947 565.78 32.7947Z" fill="#A55922"/>
<path d="M565.764 11C565.485 11 565.249 11.1074 565.056 11.3006C564.884 11.4939 564.776 11.7301 564.776 12.0093L564.798 32.0449C564.798 32.5817 565.249 33.0327 565.786 33.0327C566.323 33.0327 566.773 32.5817 566.773 32.0449L566.752 12.0093C566.731 11.4295 566.301 11 565.764 11ZM565.764 11.4724C566.043 11.4724 566.258 11.7087 566.258 11.9878L566.28 32.0449C566.28 32.3241 566.065 32.5603 565.786 32.5603C565.507 32.5603 565.292 32.3241 565.292 32.0449L565.27 11.9878C565.249 11.7087 565.485 11.4724 565.764 11.4724Z" fill="#482811"/>
<path fill-rule="evenodd" clip-rule="evenodd" d="M600.153 39.3682C600.153 39.7977 599.595 40.1413 598.908 40.1413C598.22 40.1413 597.662 39.7977 597.662 39.3682V35.9967C597.662 35.5672 598.22 35.2236 598.908 35.2236C599.595 35.2236 600.153 35.5672 600.153 35.9967V39.3682Z" fill="#A55922"/>
<path d="M598.914 35.5368C598.356 35.5368 597.991 35.7945 597.991 35.9878V39.3593C597.991 39.5311 598.356 39.8102 598.914 39.8102C599.473 39.8102 599.838 39.5525 599.838 39.3593V35.9878C599.816 35.816 599.473 35.5368 598.914 35.5368ZM598.914 40.4759C598.034 40.4759 597.325 39.982 597.325 39.3593V35.9878C597.325 35.365 598.012 34.8711 598.914 34.8711C599.816 34.8711 600.503 35.365 600.503 35.9878V39.3593C600.503 40.0035 599.795 40.4759 598.914 40.4759Z" fill="#482811"/>
<path fill-rule="evenodd" clip-rule="evenodd" d="M565.032 39.3682C565.032 39.7977 564.474 40.1413 563.787 40.1413C563.099 40.1413 562.541 39.7977 562.541 39.3682V35.9967C562.541 35.5672 563.099 35.2236 563.787 35.2236C564.474 35.2236 565.032 35.5672 565.032 35.9967V39.3682Z" fill="#A55922"/>
<path d="M563.794 35.5368C563.236 35.5368 562.871 35.7945 562.871 35.9878V39.3593C562.871 39.5311 563.236 39.8102 563.794 39.8102C564.353 39.8102 564.718 39.5525 564.718 39.3593V35.9878C564.696 35.816 564.353 35.5368 563.794 35.5368ZM563.794 40.4759C562.914 40.4759 562.205 39.982 562.205 39.3593V35.9878C562.205 35.365 562.892 34.8711 563.794 34.8711C564.675 34.8711 565.383 35.365 565.383 35.9878V39.3593C565.383 40.0035 564.675 40.4759 563.794 40.4759Z" fill="#482811"/>
<path fill-rule="evenodd" clip-rule="evenodd" d="M600.715 27.0635C600.715 27.536 600.479 27.9225 600.157 27.9225H562.534C562.233 27.9225 561.976 27.536 561.976 27.0635V26.0328C561.976 25.5604 562.212 25.1738 562.534 25.1738H600.157C600.458 25.1738 600.715 25.5604 600.715 26.0328V27.0635Z" fill="#A55922"/>
<path d="M562.535 25.4977C562.47 25.4977 562.32 25.6695 562.32 26.0131V27.0439C562.32 27.3875 562.47 27.5593 562.535 27.5593H600.158C600.222 27.5593 600.373 27.3875 600.373 27.0439V26.0131C600.373 25.6695 600.222 25.4977 600.158 25.4977H562.535ZM600.158 28.2464H562.535C562.041 28.2464 561.654 27.731 561.654 27.0439V26.0131C561.654 25.3474 562.041 24.8105 562.535 24.8105H600.158C600.652 24.8105 601.038 25.326 601.038 26.0131V27.0439C601.038 27.731 600.652 28.2464 600.158 28.2464Z" fill="#482811"/>
<path fill-rule="evenodd" clip-rule="evenodd" d="M600.715 29.7804C600.715 30.2528 600.479 30.6394 600.157 30.6394H562.534C562.233 30.6394 561.976 30.2528 561.976 29.7804V28.7496C561.976 28.2772 562.212 27.8906 562.534 27.8906H600.157C600.458 27.8906 600.715 28.2772 600.715 28.7496V29.7804Z" fill="#A55922"/>
<path d="M562.535 28.236C562.47 28.236 562.32 28.4078 562.32 28.7514V29.7821C562.32 30.1257 562.47 30.2976 562.535 30.2976H600.158C600.222 30.2976 600.373 30.1257 600.373 29.7821V28.7514C600.373 28.4078 600.222 28.236 600.158 28.236H562.535ZM600.158 30.9847H562.535C562.041 30.9847 561.654 30.4693 561.654 29.7821V28.7514C561.654 28.0857 562.041 27.5488 562.535 27.5488H600.158C600.652 27.5488 601.038 28.0642 601.038 28.7514V29.7821C601.038 30.4693 600.652 30.9847 600.158 30.9847Z" fill="#482811"/>
<path fill-rule="evenodd" clip-rule="evenodd" d="M600.715 32.5196C600.715 32.992 600.479 33.3786 600.157 33.3786H562.534C562.233 33.3786 561.976 32.992 561.976 32.5196V31.4889C561.976 31.0164 562.212 30.6299 562.534 30.6299H600.157C600.458 30.6299 600.715 31.0164 600.715 31.4889V32.5196Z" fill="#A55922"/>
<path d="M562.535 30.9753C562.47 30.9753 562.32 31.147 562.32 31.4906V32.5214C562.32 32.865 562.47 33.0368 562.535 33.0368H600.158C600.222 33.0368 600.373 32.865 600.373 32.5214V31.4906C600.373 31.147 600.222 30.9753 600.158 30.9753H562.535ZM600.158 33.724H562.535C562.041 33.724 561.654 33.2086 561.654 32.5214V31.4906C561.654 30.8249 562.041 30.2881 562.535 30.2881H600.158C600.652 30.2881 601.038 30.8034 601.038 31.4906V32.5214C601.038 33.1871 600.652 33.724 600.158 33.724Z" fill="#482811"/>
<path fill-rule="evenodd" clip-rule="evenodd" d="M559.537 34.0767C559.816 33.6043 560.331 33.2178 560.696 33.2178H602.421C602.765 33.2178 603.237 33.6043 603.452 34.0767L603.559 35.4081C603.774 35.8806 603.645 36.2671 603.28 36.2671H559.666C559.279 36.2671 559.215 35.8806 559.494 35.4081L559.537 34.0767Z" fill="#A55922"/>
<path d="M559.67 35.937H603.285C603.306 35.937 603.328 35.937 603.328 35.937C603.349 35.9156 603.371 35.7867 603.263 35.572L603.242 35.5075L603.134 34.1976C602.941 33.8326 602.597 33.5963 602.426 33.5963H560.701C560.529 33.5963 560.143 33.8325 559.885 34.2191L559.842 35.529L559.799 35.5935C559.692 35.7653 559.67 35.8726 559.67 35.937ZM603.285 36.6028H559.67C559.412 36.6028 559.198 36.4954 559.09 36.2806C558.94 36.023 558.983 35.6794 559.176 35.3143L559.219 33.9829L559.262 33.9185C559.563 33.4246 560.164 32.9092 560.701 32.9092H602.426C602.92 32.9092 603.478 33.3601 603.757 33.9614L603.779 34.0258L603.886 35.3572C604.036 35.7223 604.036 36.0659 603.886 36.3236C603.757 36.4739 603.542 36.6028 603.285 36.6028Z" fill="#482811"/>
<path d="M559.863 34.0465C560.056 33.617 560.464 33.2305 560.829 33.2305H602.425C602.769 33.2305 603.241 33.617 603.456 34.0894L603.563 35.4208C603.778 35.8933 603.649 36.2798 603.284 36.2798H560.078C559.691 36.2798 559.412 35.8933 559.498 35.4208L559.863 34.0465Z" fill="#A55922"/>
<path d="M560.187 34.1566L559.822 35.5095C559.8 35.6384 559.822 35.7672 559.908 35.8531C559.95 35.8961 559.993 35.939 560.079 35.939H603.286C603.307 35.939 603.329 35.939 603.329 35.939C603.35 35.9175 603.372 35.7887 603.264 35.5739L603.243 35.5095L603.135 34.1996C602.942 33.8345 602.599 33.5983 602.427 33.5983H560.831C560.659 33.5554 560.337 33.813 560.187 34.1566ZM603.286 36.6047H560.079C559.822 36.6047 559.564 36.4759 559.392 36.2611C559.199 36.0034 559.113 35.6813 559.177 35.3377L559.564 33.8989C559.779 33.405 560.294 32.8896 560.831 32.8896H602.427C602.921 32.8896 603.479 33.3406 603.758 33.9419L603.78 34.0063L603.887 35.3377C604.037 35.7028 604.037 36.0464 603.887 36.3041C603.758 36.4758 603.543 36.6047 603.286 36.6047Z" fill="#482811"/>
<path fill-rule="evenodd" clip-rule="evenodd" d="M789.382 35.0647L786.019 25.4207C786.019 24.7956 785.513 24.3193 784.917 24.3193L784.322 24.4086C781.316 24.4086 782.03 26.9387 782.03 27.5638L785.394 37.1781C785.691 38.0413 785.543 38.3687 786.495 38.2794L787.09 38.1901C787.834 38.1008 788.311 37.9818 788.608 37.6841V37.6246C789.62 36.94 789.382 35.7791 789.382 35.0647Z" fill="#A55922"/>
<path fill-rule="evenodd" clip-rule="evenodd" d="M766.819 28.8398C767.741 30.4472 768.664 31.608 770.063 31.7569L803.192 35.2097C804.591 35.3585 805.603 33.5428 803.906 31.5187C802.21 29.4649 802.567 29.5244 801.198 29.4054L768.039 25.9526C766.64 25.8037 765.271 26.3098 766.253 27.8576L766.819 28.8398Z" fill="#A55922"/>
<path d="M767.565 26.5824C767 26.5824 766.643 26.7312 766.583 26.8502C766.553 26.9098 766.553 27.1181 766.791 27.5051L767.387 28.5171C768.369 30.2435 769.173 30.9877 770.125 31.1067L803.254 34.5595C803.582 34.5893 803.85 34.4405 803.999 34.1726C804.237 33.7261 804.207 32.9224 803.403 31.9402C803.076 31.5235 802.808 31.2258 802.6 30.9579C801.945 30.1542 801.945 30.1542 801.171 30.0649L767.952 26.6121C767.804 26.5824 767.684 26.5824 767.565 26.5824ZM803.344 35.8692C803.254 35.8692 803.195 35.8692 803.106 35.8692L769.976 32.4164C768.19 32.2378 767.119 30.7495 766.226 29.172L765.66 28.1897C765.035 27.2074 765.214 26.5526 765.452 26.1359C765.869 25.4513 766.851 25.1536 768.071 25.2727L801.29 28.7255C802.6 28.8743 802.719 28.9934 803.612 30.1244C803.82 30.3626 804.058 30.69 804.385 31.077C805.427 32.3271 805.695 33.7261 805.13 34.7679C804.772 35.4823 804.088 35.8692 803.344 35.8692Z" fill="#482811"/>
<path d="M803.885 31.3331C803.587 31.0057 803.319 30.7378 803.14 30.5294C802.277 29.5769 802.188 29.5174 800.938 29.3983L767.898 25.7669C767.451 25.7074 765.874 25.6181 765.398 26.4813C765.219 26.7789 765.13 27.3147 765.636 28.0291L766.172 28.8625C767.005 30.1424 767.987 31.3628 769.654 31.5414L802.664 35.1728C802.753 35.2026 802.843 35.2026 802.902 35.2026C803.646 35.2026 804.301 34.8157 804.629 34.1906C804.837 33.7739 805.164 32.7023 803.885 31.3331Z" fill="#A55922"/>
<path d="M767.299 26.1863C766.703 26.1863 766.019 26.3053 765.781 26.6923C765.632 26.9602 765.691 27.3174 765.989 27.7341L766.555 28.5675C767.328 29.7582 768.221 30.8893 769.71 31.0381L802.779 34.6695C802.809 34.6695 802.869 34.6695 802.928 34.6695C803.494 34.6695 804 34.3718 804.238 33.9253C804.387 33.6277 804.625 32.7645 803.553 31.6334C803.226 31.306 802.988 31.0381 802.809 30.8297C802.035 29.9665 802.035 29.9665 800.904 29.8475L767.864 26.216C767.686 26.1863 767.477 26.1863 767.299 26.1863ZM802.928 35.6518C802.839 35.6518 802.72 35.6517 802.601 35.622L769.62 31.9906C767.745 31.7822 766.644 30.413 765.781 29.1033L765.245 28.2996C764.56 27.3471 764.798 26.603 764.977 26.2756C765.691 25.0552 767.715 25.3231 767.954 25.3528L800.993 28.9843C802.333 29.1331 802.541 29.2522 803.494 30.294C803.672 30.5023 803.91 30.7702 804.238 31.0976C805.726 32.6752 805.309 33.9849 805.071 34.4611C804.684 35.1755 803.851 35.6518 802.928 35.6518Z" fill="#482811"/>
<path d="M807.365 36.4909L801.769 26.9956C801.561 26.4896 801.174 26.1027 800.817 25.9241C799.954 25.5371 798.793 25.7455 798.793 25.7455C798.555 25.8348 798.257 26.0431 798.019 26.4003C797.84 26.6682 797.93 27.2337 798.079 27.5909L803.526 37.235C803.883 38.0089 804.389 38.2173 805.014 38.3364L806.83 38.5745L806.949 38.5149C807.187 38.4256 807.395 38.2173 807.484 37.9791C807.514 37.9196 807.604 37.0266 807.365 36.4909Z" fill="#A55922"/>
<path d="M798.906 26.2137C798.697 26.303 798.519 26.4518 798.4 26.6602C798.34 26.7495 798.37 27.1364 798.489 27.4043L803.936 37.0484C804.174 37.6139 804.531 37.7628 805.097 37.8818L806.764 38.0902C806.883 38.0307 806.972 37.9711 807.032 37.8521C807.061 37.6735 807.091 37.0484 806.942 36.6912L801.317 27.196C801.168 26.809 800.87 26.5113 800.602 26.3625C800.007 26.0946 799.144 26.1839 798.906 26.2137ZM806.913 39.0427L804.978 38.7748C804.263 38.626 803.549 38.3879 803.132 37.4354L797.685 27.821C797.477 27.4043 797.328 26.6304 797.626 26.1542C797.864 25.797 798.191 25.4993 798.608 25.3207L798.697 25.291C798.757 25.291 800.007 25.0529 800.989 25.4993C801.495 25.7375 801.912 26.1839 802.18 26.7792L807.806 36.2745C808.073 36.8996 808.014 37.9116 807.925 38.1199C807.776 38.4771 807.478 38.7748 807.121 38.9236L806.913 39.0427Z" fill="#482811"/>
<path d="M772.937 33.2633L767.341 23.7681C767.132 23.2621 766.745 22.8751 766.388 22.6965C765.525 22.3096 764.364 22.5179 764.364 22.5179C764.126 22.6072 763.828 22.8156 763.59 23.1728C763.412 23.4407 763.501 24.0062 763.65 24.3634L769.097 34.0075C769.454 34.7814 769.96 34.9897 770.585 35.1088L772.401 35.3469L772.52 35.2874C772.758 35.1981 772.966 34.9897 773.056 34.7516C773.086 34.6623 773.175 33.7693 772.937 33.2633Z" fill="#A55922"/>
<path d="M764.477 22.9861C764.269 23.0754 764.09 23.2243 763.971 23.4326C763.912 23.5219 763.942 23.9089 764.061 24.1768L769.508 33.8208C769.746 34.3864 770.103 34.5352 770.669 34.6543L772.335 34.8626C772.484 34.8031 772.574 34.7138 772.603 34.6245C772.633 34.4459 772.663 33.8209 772.514 33.4637L766.888 23.9684C766.74 23.5815 766.442 23.2838 766.174 23.135C765.549 22.8671 764.686 22.9564 764.477 22.9861ZM772.455 35.8152L770.52 35.5473C769.805 35.3984 769.091 35.1603 768.674 34.2078L763.227 24.5935C763.019 24.1768 762.87 23.4029 763.168 22.9266C763.406 22.5694 763.733 22.2718 764.15 22.0932L764.239 22.0634C764.299 22.0634 765.549 21.8253 766.531 22.2718C767.037 22.4802 767.454 22.9564 767.722 23.5517L773.348 33.0469C773.615 33.672 773.556 34.684 773.467 34.8924C773.318 35.2496 773.02 35.5473 772.663 35.6961L772.455 35.8152Z" fill="#482811"/>
<path d="M80.28 86.3V80.98H81.74C82.4067 80.18 82.9 79.0867 83.22 77.7C83.54 76.3133 83.7 74.6067 83.7 72.58V68.9H93.92V80.98H95.98V86.3H93.74V83H82.54V86.3H80.28ZM84.32 80.98H91.36V70.9H86.06V72.82C86.06 74.7533 85.9133 76.38 85.62 77.7C85.34 79.02 84.9067 80.1133 84.32 80.98ZM97.6053 83.28L96.8253 81.32C97.2653 81.16 97.632 80.9533 97.9253 80.7C98.232 80.4333 98.472 80.1 98.6453 79.7C98.832 79.2867 98.9653 78.78 99.0453 78.18C99.1253 77.5667 99.1653 76.84 99.1653 76V72.9H107.205V83H104.725V74.82H101.445V76.08C101.445 77.5333 101.312 78.7533 101.045 79.74C100.779 80.7133 100.365 81.4867 99.8053 82.06C99.2453 82.6333 98.512 83.04 97.6053 83.28ZM110.053 83V72.9H112.313V80.54H111.713L117.453 72.9H119.513V83H117.253V75.34H117.873L112.113 83H110.053ZM122.358 83V72.9H124.838V76.86H129.398V72.9H131.878V83H129.398V78.78H124.838V83H122.358ZM138.701 83.2C137.821 83.2 137.047 82.9933 136.381 82.58C135.714 82.1533 135.194 81.5467 134.821 80.76C134.447 79.9733 134.261 79.0333 134.261 77.94C134.261 76.8467 134.447 75.9133 134.821 75.14C135.194 74.3533 135.714 73.7533 136.381 73.34C137.047 72.9133 137.821 72.7 138.701 72.7C139.554 72.7 140.301 72.9133 140.941 73.34C141.594 73.7533 142.027 74.3133 142.241 75.02H142.021L142.241 72.9H144.641C144.601 73.3133 144.561 73.7333 144.521 74.16C144.494 74.5867 144.481 75.0067 144.481 75.42V83H142.001L141.981 80.92H142.221C142.007 81.6133 141.574 82.1667 140.921 82.58C140.267 82.9933 139.527 83.2 138.701 83.2ZM139.401 81.28C140.187 81.28 140.821 81.0067 141.301 80.46C141.781 79.9 142.021 79.06 142.021 77.94C142.021 76.82 141.781 75.9867 141.301 75.44C140.821 74.8933 140.187 74.62 139.401 74.62C138.614 74.62 137.981 74.8933 137.501 75.44C137.021 75.9867 136.781 76.82 136.781 77.94C136.781 79.06 137.014 79.9 137.481 80.46C137.961 81.0067 138.601 81.28 139.401 81.28ZM158.889 83V80.02H152.269V78.68L159.189 68.9H160.709V78.54H162.829V80.02H160.709V83H158.889ZM158.889 78.54V71.1H159.349L153.769 78.98V78.54H158.889ZM169.541 83.18C168.927 83.18 168.321 83.1133 167.721 82.98C167.134 82.8467 166.581 82.66 166.061 82.42C165.541 82.1667 165.087 81.86 164.701 81.5L165.361 80.06C166.014 80.58 166.681 80.9667 167.361 81.22C168.041 81.46 168.754 81.58 169.501 81.58C170.487 81.58 171.261 81.32 171.821 80.8C172.381 80.28 172.661 79.5867 172.661 78.72C172.661 77.8267 172.394 77.1067 171.861 76.56C171.327 76 170.587 75.72 169.641 75.72C168.987 75.72 168.394 75.8533 167.861 76.12C167.341 76.3733 166.881 76.78 166.481 77.34H165.161V68.9H173.621V70.48H166.961V75.82H166.481C166.841 75.2867 167.327 74.8733 167.941 74.58C168.567 74.2867 169.267 74.14 170.041 74.14C170.947 74.14 171.727 74.3267 172.381 74.7C173.047 75.0733 173.561 75.6 173.921 76.28C174.294 76.9467 174.481 77.7267 174.481 78.62C174.481 79.5133 174.281 80.3067 173.881 81C173.481 81.68 172.907 82.2133 172.161 82.6C171.427 82.9867 170.554 83.18 169.541 83.18ZM176.853 83V72.94H178.373L182.073 79.52L185.793 72.94H187.293V83H185.693V74.98H186.133L182.533 81.38H181.633L178.033 74.96H178.453V83H176.853Z" fill="#482811"/>
<path d="M257.12 83.2C255.653 83.2 254.393 82.9067 253.34 82.32C252.3 81.72 251.5 80.88 250.94 79.8C250.38 78.7067 250.1 77.42 250.1 75.94C250.1 74.46 250.38 73.18 250.94 72.1C251.5 71.02 252.3 70.1867 253.34 69.6C254.393 69 255.653 68.7 257.12 68.7C258.107 68.7 258.993 68.84 259.78 69.12C260.58 69.4 261.267 69.8133 261.84 70.36L261 72.4C260.373 71.8933 259.767 71.5333 259.18 71.32C258.607 71.0933 257.947 70.98 257.2 70.98C255.773 70.98 254.68 71.4133 253.92 72.28C253.173 73.1333 252.8 74.3533 252.8 75.94C252.8 77.5267 253.173 78.7533 253.92 79.62C254.68 80.4867 255.773 80.92 257.2 80.92C257.947 80.92 258.607 80.8133 259.18 80.6C259.767 80.3733 260.373 80 261 79.48L261.84 81.52C261.267 82.0533 260.58 82.4667 259.78 82.76C258.993 83.0533 258.107 83.2 257.12 83.2ZM263.851 83.28L263.071 81.32C263.511 81.16 263.878 80.9533 264.171 80.7C264.478 80.4333 264.718 80.1 264.891 79.7C265.078 79.2867 265.211 78.78 265.291 78.18C265.371 77.5667 265.411 76.84 265.411 76V72.9H273.451V83H270.971V74.82H267.691V76.08C267.691 77.5333 267.558 78.7533 267.291 79.74C267.025 80.7133 266.611 81.4867 266.051 82.06C265.491 82.6333 264.758 83.04 263.851 83.28ZM280.939 83.2C279.899 83.2 278.999 82.9867 278.239 82.56C277.479 82.1333 276.886 81.5267 276.459 80.74C276.046 79.9533 275.839 79.02 275.839 77.94C275.839 76.86 276.046 75.9333 276.459 75.16C276.886 74.3733 277.479 73.7667 278.239 73.34C278.999 72.9133 279.899 72.7 280.939 72.7C281.979 72.7 282.879 72.9133 283.639 73.34C284.412 73.7667 285.006 74.3733 285.419 75.16C285.846 75.9333 286.059 76.86 286.059 77.94C286.059 79.02 285.846 79.9533 285.419 80.74C285.006 81.5267 284.412 82.1333 283.639 82.56C282.879 82.9867 281.979 83.2 280.939 83.2ZM280.939 81.28C281.726 81.28 282.352 81.0067 282.819 80.46C283.286 79.9 283.519 79.06 283.519 77.94C283.519 76.82 283.286 75.9867 282.819 75.44C282.352 74.8933 281.726 74.62 280.939 74.62C280.152 74.62 279.526 74.8933 279.059 75.44C278.592 75.9867 278.359 76.82 278.359 77.94C278.359 79.06 278.592 79.9 279.059 80.46C279.526 81.0067 280.152 81.28 280.939 81.28ZM286.908 83L289.028 79.22C289.294 78.78 289.548 78.42 289.788 78.14C290.041 77.8467 290.314 77.62 290.608 77.46C290.901 77.3 291.234 77.2 291.608 77.16L291.088 77.94L287.348 72.9H290.028L293.008 76.86H294.268V72.9H296.748V76.86H297.988L300.948 72.9H303.648L299.888 77.94L299.368 77.16C299.741 77.2 300.074 77.3 300.368 77.46C300.661 77.62 300.934 77.8467 301.188 78.14C301.454 78.42 301.714 78.78 301.968 79.22L304.088 83H301.428L299.708 79.96C299.534 79.6533 299.361 79.4133 299.188 79.24C299.014 79.0667 298.821 78.9467 298.608 78.88C298.394 78.8133 298.134 78.78 297.828 78.78H296.748V83H294.268V78.78H293.168C292.861 78.78 292.601 78.8133 292.388 78.88C292.174 78.9467 291.981 79.0667 291.808 79.24C291.648 79.4133 291.474 79.6533 291.288 79.96L289.568 83H286.908ZM305.4 83V72.9H307.88V76.86H312.44V72.9H314.92V83H312.44V78.78H307.88V83H305.4ZM322.404 83.2C321.364 83.2 320.464 82.9867 319.704 82.56C318.944 82.1333 318.35 81.5267 317.924 80.74C317.51 79.9533 317.304 79.02 317.304 77.94C317.304 76.86 317.51 75.9333 317.924 75.16C318.35 74.3733 318.944 73.7667 319.704 73.34C320.464 72.9133 321.364 72.7 322.404 72.7C323.444 72.7 324.344 72.9133 325.104 73.34C325.877 73.7667 326.47 74.3733 326.884 75.16C327.31 75.9333 327.524 76.86 327.524 77.94C327.524 79.02 327.31 79.9533 326.884 80.74C326.47 81.5267 325.877 82.1333 325.104 82.56C324.344 82.9867 323.444 83.2 322.404 83.2ZM322.404 81.28C323.19 81.28 323.817 81.0067 324.284 80.46C324.75 79.9 324.984 79.06 324.984 77.94C324.984 76.82 324.75 75.9867 324.284 75.44C323.817 74.8933 323.19 74.62 322.404 74.62C321.617 74.62 320.99 74.8933 320.524 75.44C320.057 75.9867 319.824 76.82 319.824 77.94C319.824 79.06 320.057 79.9 320.524 80.46C320.99 81.0067 321.617 81.28 322.404 81.28ZM334.613 83.2C333.573 83.2 332.659 82.9867 331.873 82.56C331.099 82.1333 330.499 81.5267 330.073 80.74C329.646 79.94 329.433 78.9933 329.433 77.9C329.433 76.8067 329.646 75.8733 330.073 75.1C330.513 74.3267 331.119 73.7333 331.893 73.32C332.666 72.9067 333.573 72.7 334.613 72.7C335.279 72.7 335.926 72.8067 336.553 73.02C337.193 73.22 337.713 73.5133 338.113 73.9L337.353 75.64C336.993 75.3067 336.586 75.06 336.133 74.9C335.693 74.7267 335.259 74.64 334.833 74.64C333.939 74.64 333.239 74.92 332.733 75.48C332.239 76.04 331.993 76.8533 331.993 77.92C331.993 78.9867 332.239 79.8067 332.733 80.38C333.239 80.9533 333.939 81.24 334.833 81.24C335.246 81.24 335.673 81.16 336.113 81C336.566 80.84 336.979 80.5933 337.353 80.26L338.113 81.98C337.699 82.3667 337.173 82.6667 336.533 82.88C335.906 83.0933 335.266 83.2 334.613 83.2ZM342.424 83V74.86H338.964V72.9H348.384V74.86H344.904V83H342.424ZM349.932 83V72.9H352.412V76.28H355.072C356.418 76.28 357.432 76.5667 358.112 77.14C358.792 77.7 359.132 78.5133 359.132 79.58C359.132 80.2733 358.972 80.88 358.652 81.4C358.332 81.9067 357.865 82.3 357.252 82.58C356.652 82.86 355.925 83 355.072 83H349.932ZM352.412 81.36H354.732C355.412 81.36 355.932 81.22 356.292 80.94C356.652 80.6467 356.832 80.2067 356.832 79.62C356.832 79.0333 356.652 78.6067 356.292 78.34C355.945 78.06 355.425 77.92 354.732 77.92H352.412V81.36ZM373.073 83.18C371.659 83.18 370.446 82.8867 369.433 82.3C368.433 81.7133 367.666 80.88 367.133 79.8C366.599 78.7067 366.333 77.42 366.333 75.94C366.333 74.46 366.599 73.18 367.133 72.1C367.666 71.02 368.433 70.1867 369.433 69.6C370.446 69.0133 371.659 68.72 373.073 68.72C374.086 68.72 374.986 68.8733 375.773 69.18C376.559 69.4733 377.246 69.9067 377.833 70.48L377.153 71.98C376.513 71.42 375.879 71.02 375.253 70.78C374.639 70.5267 373.926 70.4 373.113 70.4C371.553 70.4 370.359 70.88 369.533 71.84C368.706 72.8 368.293 74.1667 368.293 75.94C368.293 77.7133 368.706 79.0867 369.533 80.06C370.359 81.02 371.553 81.5 373.113 81.5C373.926 81.5 374.639 81.38 375.253 81.14C375.879 80.8867 376.513 80.48 377.153 79.92L377.833 81.4C377.246 81.9733 376.553 82.4133 375.753 82.72C374.966 83.0267 374.073 83.18 373.073 83.18ZM380.444 87.32V75.32C380.444 74.9333 380.431 74.54 380.404 74.14C380.378 73.74 380.338 73.34 380.284 72.94H382.044L382.264 75.26H382.044C382.244 74.4867 382.671 73.88 383.324 73.44C383.978 72.9867 384.758 72.76 385.664 72.76C386.558 72.76 387.338 72.9667 388.004 73.38C388.671 73.7933 389.184 74.3933 389.544 75.18C389.918 75.9533 390.104 76.88 390.104 77.96C390.104 79.04 389.918 79.9733 389.544 80.76C389.184 81.5467 388.671 82.1467 388.004 82.56C387.338 82.9733 386.558 83.18 385.664 83.18C384.771 83.18 383.998 82.96 383.344 82.52C382.704 82.0667 382.271 81.46 382.044 80.7H382.264V87.32H380.444ZM385.244 81.74C386.164 81.74 386.898 81.42 387.444 80.78C387.991 80.14 388.264 79.2 388.264 77.96C388.264 76.72 387.991 75.7867 387.444 75.16C386.898 74.5333 386.164 74.22 385.244 74.22C384.324 74.22 383.591 74.5333 383.044 75.16C382.511 75.7867 382.244 76.72 382.244 77.96C382.244 79.2 382.511 80.14 383.044 80.78C383.591 81.42 384.324 81.74 385.244 81.74ZM397.348 83.18C395.748 83.18 394.482 82.72 393.548 81.8C392.628 80.88 392.168 79.6133 392.168 78C392.168 76.9333 392.368 76.0133 392.768 75.24C393.182 74.4533 393.748 73.8467 394.468 73.42C395.188 72.98 396.028 72.76 396.988 72.76C397.908 72.76 398.688 72.96 399.328 73.36C399.968 73.7467 400.455 74.3 400.788 75.02C401.122 75.74 401.288 76.5933 401.288 77.58V78.18H393.588V77.1H400.048L399.708 77.36C399.708 76.32 399.475 75.5133 399.008 74.94C398.555 74.3667 397.882 74.08 396.988 74.08C396.015 74.08 395.262 74.42 394.728 75.1C394.195 75.7667 393.928 76.68 393.928 77.84V78.02C393.928 79.2467 394.228 80.1733 394.828 80.8C395.442 81.4267 396.288 81.74 397.368 81.74C397.968 81.74 398.528 81.6533 399.048 81.48C399.568 81.3067 400.068 81.02 400.548 80.62L401.148 81.88C400.695 82.2933 400.128 82.6133 399.448 82.84C398.782 83.0667 398.082 83.18 397.348 83.18ZM402.782 85.6V81.58H403.882C404.335 80.9 404.662 80.1 404.862 79.18C405.075 78.26 405.182 77.1667 405.182 75.9V72.94H412.402V81.58H414.002V85.6H412.442V83H404.362V85.6H402.782ZM405.602 81.6H410.702V74.34H406.782V76.22C406.782 77.2333 406.682 78.22 406.482 79.18C406.282 80.1267 405.988 80.9333 405.602 81.6ZM416.107 83V72.94H417.907V77.1H423.227V72.94H425.027V83H423.227V78.54H417.907V83H416.107ZM427.338 83L428.918 80.26C429.171 79.82 429.491 79.4667 429.878 79.2C430.265 78.92 430.671 78.78 431.098 78.78H431.418L431.398 78.96C430.265 78.96 429.378 78.7067 428.738 78.2C428.098 77.68 427.778 76.9333 427.778 75.96C427.778 75 428.091 74.26 428.718 73.74C429.345 73.2067 430.278 72.94 431.518 72.94H436.098V83H434.418V79.2H432.978C432.458 79.2 432.011 79.3333 431.638 79.6C431.265 79.8533 430.958 80.1933 430.718 80.62L429.358 83H427.338ZM431.838 77.94H434.418V74.18H431.838C431.051 74.18 430.465 74.3467 430.078 74.68C429.705 75.0133 429.518 75.4733 429.518 76.06C429.518 76.66 429.705 77.1267 430.078 77.46C430.465 77.78 431.051 77.94 431.838 77.94ZM438.412 83L439.992 80.26C440.246 79.82 440.566 79.4667 440.952 79.2C441.339 78.92 441.746 78.78 442.172 78.78H442.492L442.472 78.96C441.339 78.96 440.452 78.7067 439.812 78.2C439.172 77.68 438.852 76.9333 438.852 75.96C438.852 75 439.166 74.26 439.792 73.74C440.419 73.2067 441.352 72.94 442.592 72.94H447.172V83H445.492V79.2H444.052C443.532 79.2 443.086 79.3333 442.712 79.6C442.339 79.8533 442.032 80.1933 441.792 80.62L440.432 83H438.412ZM442.912 77.94H445.492V74.18H442.912C442.126 74.18 441.539 74.3467 441.152 74.68C440.779 75.0133 440.592 75.4733 440.592 76.06C440.592 76.66 440.779 77.1267 441.152 77.46C441.539 77.78 442.126 77.94 442.912 77.94Z" fill="#482811"/>
<path d="M503.56 82V67.9H509.74C511.273 67.9 512.453 68.2267 513.28 68.88C514.107 69.52 514.52 70.4133 514.52 71.56C514.52 72.4133 514.267 73.1333 513.76 73.72C513.253 74.3067 512.553 74.7 511.66 74.9V74.6C512.687 74.7467 513.48 75.12 514.04 75.72C514.613 76.3067 514.9 77.0867 514.9 78.06C514.9 79.3133 514.467 80.2867 513.6 80.98C512.733 81.66 511.527 82 509.98 82H503.56ZM506.04 80.04H509.68C510.547 80.04 511.22 79.88 511.7 79.56C512.18 79.2267 512.42 78.6867 512.42 77.94C512.42 77.18 512.18 76.64 511.7 76.32C511.22 75.9867 510.547 75.82 509.68 75.82H506.04V80.04ZM506.04 73.88H509.3C510.22 73.88 510.9 73.7133 511.34 73.38C511.793 73.0333 512.02 72.5267 512.02 71.86C512.02 71.1933 511.793 70.6933 511.34 70.36C510.9 70.0133 510.22 69.84 509.3 69.84H506.04V73.88ZM517.309 86.32V74.42C517.309 74.0067 517.295 73.5867 517.269 73.16C517.242 72.7333 517.202 72.3133 517.149 71.9H519.569L519.789 74.02H519.569C519.769 73.3133 520.189 72.7533 520.829 72.34C521.482 71.9133 522.235 71.7 523.089 71.7C523.982 71.7 524.762 71.9133 525.429 72.34C526.095 72.7533 526.615 73.3533 526.989 74.14C527.362 74.9133 527.549 75.8467 527.549 76.94C527.549 78.0333 527.362 78.9733 526.989 79.76C526.615 80.5467 526.095 81.1533 525.429 81.58C524.762 81.9933 523.982 82.2 523.089 82.2C522.249 82.2 521.509 81.9933 520.869 81.58C520.229 81.1667 519.802 80.6133 519.589 79.92H519.809V86.32H517.309ZM522.389 80.28C523.189 80.28 523.829 80.0067 524.309 79.46C524.789 78.9 525.029 78.06 525.029 76.94C525.029 75.82 524.789 74.9867 524.309 74.44C523.829 73.8933 523.189 73.62 522.389 73.62C521.602 73.62 520.969 73.8933 520.489 74.44C520.009 74.9867 519.769 75.82 519.769 76.94C519.769 78.06 520.009 78.9 520.489 79.46C520.969 80.0067 521.602 80.28 522.389 80.28ZM534.864 82.2C533.171 82.2 531.844 81.7333 530.884 80.8C529.924 79.8667 529.444 78.5867 529.444 76.96C529.444 75.9067 529.651 74.9867 530.064 74.2C530.478 73.4133 531.051 72.8 531.784 72.36C532.531 71.92 533.398 71.7 534.384 71.7C535.358 71.7 536.171 71.9067 536.824 72.32C537.478 72.7333 537.971 73.3133 538.304 74.06C538.651 74.8067 538.824 75.68 538.824 76.68V77.34H531.464V76.02H537.044L536.704 76.3C536.704 75.3667 536.504 74.6533 536.104 74.16C535.718 73.6667 535.151 73.42 534.404 73.42C533.578 73.42 532.938 73.7133 532.484 74.3C532.044 74.8867 531.824 75.7067 531.824 76.76V77.02C531.824 78.1133 532.091 78.9333 532.624 79.48C533.171 80.0133 533.938 80.28 534.924 80.28C535.498 80.28 536.031 80.2067 536.524 80.06C537.031 79.9 537.511 79.6467 537.964 79.3L538.704 80.98C538.224 81.3667 537.651 81.6667 536.984 81.88C536.318 82.0933 535.611 82.2 534.864 82.2ZM541.135 82V71.9H543.215L546.695 77.94L550.175 71.9H552.255V82H550.055V74.7H550.515L547.275 80.36H546.115L542.875 74.7H543.335V82H541.135ZM554.26 82L555.8 79.34C556.066 78.8867 556.393 78.5267 556.78 78.26C557.18 77.98 557.593 77.84 558.02 77.84H558.46L558.44 78.06C557.253 78.06 556.34 77.8 555.7 77.28C555.06 76.76 554.74 76 554.74 75C554.74 74.0133 555.066 73.2533 555.72 72.72C556.386 72.1733 557.36 71.9 558.64 71.9H563.66V82H561.38V78.44H560.24C559.826 78.44 559.46 78.5533 559.14 78.78C558.833 79.0067 558.573 79.3 558.36 79.66L557.04 82H554.26ZM559.12 76.82H561.38V73.52H559.12C558.44 73.52 557.926 73.6667 557.58 73.96C557.246 74.2533 557.08 74.6533 557.08 75.16C557.08 75.6933 557.246 76.1067 557.58 76.4C557.926 76.68 558.44 76.82 559.12 76.82ZM572.818 82V80.26H576.098V69.66H577.138L573.138 72.1V70.1L576.678 67.9H578.178V80.26H581.258V82H572.818ZM588.41 82.18C586.783 82.18 585.53 81.56 584.65 80.32C583.783 79.0667 583.35 77.2733 583.35 74.94C583.35 72.5667 583.783 70.7733 584.65 69.56C585.53 68.3333 586.783 67.72 588.41 67.72C590.05 67.72 591.303 68.3333 592.17 69.56C593.037 70.7733 593.47 72.56 593.47 74.92C593.47 77.2667 593.03 79.0667 592.15 80.32C591.283 81.56 590.037 82.18 588.41 82.18ZM588.41 80.44C589.437 80.44 590.197 79.9933 590.69 79.1C591.197 78.2067 591.45 76.8133 591.45 74.92C591.45 73.0133 591.197 71.6267 590.69 70.76C590.197 69.88 589.437 69.44 588.41 69.44C587.397 69.44 586.637 69.88 586.13 70.76C585.623 71.6267 585.37 73.0067 585.37 74.9C585.37 76.8067 585.623 78.2067 586.13 79.1C586.65 79.9933 587.41 80.44 588.41 80.44ZM595.802 77.32V75.7H601.662V77.32H595.802ZM604.715 82V80.46L609.555 75.4C610.181 74.7467 610.648 74.1333 610.955 73.56C611.261 72.9867 611.415 72.3933 611.415 71.78C611.415 71.02 611.175 70.4467 610.695 70.06C610.228 69.6733 609.548 69.48 608.655 69.48C607.948 69.48 607.281 69.6067 606.655 69.86C606.041 70.1133 605.448 70.5 604.875 71.02L604.155 69.44C604.715 68.92 605.408 68.5067 606.235 68.2C607.075 67.88 607.961 67.72 608.895 67.72C610.361 67.72 611.488 68.0533 612.275 68.72C613.075 69.3867 613.475 70.34 613.475 71.58C613.475 72.46 613.261 73.3067 612.835 74.12C612.408 74.92 611.768 75.7467 610.915 76.6L606.735 80.82V80.26H614.055V82H604.715ZM621.047 82.18C619.42 82.18 618.167 81.56 617.287 80.32C616.42 79.0667 615.987 77.2733 615.987 74.94C615.987 72.5667 616.42 70.7733 617.287 69.56C618.167 68.3333 619.42 67.72 621.047 67.72C622.687 67.72 623.94 68.3333 624.807 69.56C625.674 70.7733 626.107 72.56 626.107 74.92C626.107 77.2667 625.667 79.0667 624.787 80.32C623.92 81.56 622.674 82.18 621.047 82.18ZM621.047 80.44C622.074 80.44 622.834 79.9933 623.327 79.1C623.834 78.2067 624.087 76.8133 624.087 74.92C624.087 73.0133 623.834 71.6267 623.327 70.76C622.834 69.88 622.074 69.44 621.047 69.44C620.034 69.44 619.274 69.88 618.767 70.76C618.26 71.6267 618.007 73.0067 618.007 74.9C618.007 76.8067 618.26 78.2067 618.767 79.1C619.287 79.9933 620.047 80.44 621.047 80.44ZM633.891 82V71.92H635.571L639.211 78.36L642.851 71.92H644.531V82H642.751V74.18H643.191L639.691 80.38H638.731L635.231 74.18H635.671V82H633.891ZM647.563 82V71.92H649.403V80.06H648.843L654.923 71.92H656.603V82H654.783V73.84H655.363L649.243 82H647.563ZM659.633 82V71.92H661.633V76.02H666.733V71.92H668.733V82H666.733V77.6H661.633V82H659.633Z" fill="#482811"/>
</svg>
