<svg width="777" height="89" viewBox="0 0 777 89" fill="none" xmlns="http://www.w3.org/2000/svg">
<rect width="55" height="55" rx="27.5" fill="#FF8C09"/>
<path d="M21.6059 38V35.39H26.5259V19.49H28.0859L22.0859 23.15V20.15L27.3959 16.85H29.6459V35.39H34.2659V38H21.6059Z" fill="white"/>
<rect x="80" y="20" width="20" height="20" rx="10" fill="#783F17"/>
<rect x="98" y="25" width="49" height="10" fill="#783F17"/>
<rect x="777" y="40" width="20" height="20" rx="10" transform="rotate(-180 777 40)" fill="#783F17"/>
<rect x="759" y="35" width="49" height="10" transform="rotate(-180 759 35)" fill="#783F17"/>
<rect x="200" y="25" width="49" height="10" fill="#783F17"/>
<rect x="146" y="1" width="55" height="55" rx="27.5" fill="#FF8C09"/>
<rect x="302" y="25" width="49" height="10" fill="#783F17"/>
<rect x="404" y="25" width="49" height="10" fill="#783F17"/>
<rect x="350" y="1" width="55" height="55" rx="27.5" fill="#FF8C09"/>
<rect x="506" y="25" width="49" height="10" fill="#783F17"/>
<rect x="608" y="25" width="49" height="10" fill="#783F17"/>
<rect x="554" y="1" width="55" height="55" rx="27.5" fill="#FF8C09"/>
<rect x="656" y="3" width="55" height="55" rx="27.5" fill="#FF8C09"/>
<path fill-rule="evenodd" clip-rule="evenodd" d="M165.234 42.5735C165.088 42.5735 164.942 42.5472 164.797 42.4948L163.573 42.0758C163.281 41.9711 163.019 41.7616 162.902 41.4997C162.786 41.2379 162.756 40.9236 162.873 40.6617L162.902 40.6094L169.314 33.3814C169.518 32.9886 169.955 32.7529 170.421 32.7529C170.567 32.7529 170.713 32.7791 170.859 32.8314L172.083 33.2505C172.724 33.46 173.015 34.1147 172.782 34.6646L172.753 34.717L166.341 41.9711C166.137 42.3377 165.7 42.5735 165.234 42.5735Z" fill="#A55922"/>
<path d="M170.402 32.3154C169.761 32.3154 169.178 32.6296 168.916 33.1534L162.591 40.3028L162.504 40.4075L162.446 40.5123C162.271 40.8789 162.3 41.2979 162.475 41.6645C162.65 42.0311 162.97 42.3192 163.407 42.4764L164.631 42.8954C164.835 42.974 165.039 43.0001 165.243 43.0001C165.885 43.0001 166.468 42.686 166.73 42.1622L173.054 35.0128L173.142 34.908L173.2 34.8033C173.55 34.0177 173.112 33.1534 172.238 32.8392L171.014 32.4202C170.839 32.3416 170.606 32.3154 170.402 32.3154ZM170.402 33.1273C170.489 33.1273 170.577 33.1534 170.693 33.1796L171.917 33.5986C172.325 33.7296 172.5 34.1485 172.355 34.489L165.943 41.7169C165.826 41.9788 165.535 42.1622 165.214 42.1622C165.127 42.1622 165.039 42.136 164.923 42.1098L163.699 41.6907C163.291 41.5598 163.116 41.1408 163.262 40.8004L169.673 33.5724C169.819 33.2843 170.111 33.1273 170.402 33.1273Z" fill="#482811"/>
<path fill-rule="evenodd" clip-rule="evenodd" d="M153.907 42.5735C153.762 42.5735 153.616 42.5472 153.47 42.4948L152.246 42.0758C151.605 41.8663 151.313 41.2116 151.547 40.6617L151.576 40.6094L157.987 33.3814C158.191 32.9886 158.629 32.7529 159.095 32.7529C159.241 32.7529 159.386 32.7791 159.532 32.8314L160.756 33.2505C161.397 33.46 161.689 34.1147 161.456 34.6646L161.426 34.717L155.015 41.9711C154.811 42.3377 154.374 42.5735 153.907 42.5735Z" fill="#A55922"/>
<path d="M159.074 32.3154C158.433 32.3154 157.85 32.6296 157.587 33.1534L151.263 40.3028L151.176 40.4075L151.117 40.5123C150.943 40.8789 150.972 41.2979 151.147 41.6645C151.321 42.0311 151.642 42.3192 152.079 42.4764L153.303 42.8954C153.507 42.974 153.711 43.0001 153.915 43.0001C154.557 43.0001 155.139 42.686 155.402 42.1622L161.726 35.0128L161.813 34.908L161.872 34.8033C162.221 34.0177 161.784 33.1534 160.91 32.8392L159.686 32.4202C159.482 32.3416 159.278 32.3154 159.074 32.3154ZM159.074 33.1273C159.161 33.1273 159.249 33.1534 159.365 33.1796L160.589 33.5986C160.997 33.7296 161.172 34.1485 161.027 34.489L154.615 41.7169C154.498 41.9788 154.207 42.1622 153.886 42.1622C153.799 42.1622 153.711 42.136 153.595 42.1098L152.371 41.6907C151.963 41.5598 151.788 41.1408 151.934 40.8004L158.345 33.5724C158.491 33.2843 158.782 33.1273 159.074 33.1273Z" fill="#482811"/>
<path fill-rule="evenodd" clip-rule="evenodd" d="M164.815 39.0907C164.669 39.0907 164.552 39.0646 164.436 39.0122L163.474 38.6717C162.92 38.4884 162.658 37.9123 162.862 37.4409L162.891 37.3885L167.991 31.6271C168.166 31.2867 168.545 31.0771 168.953 31.0771C169.099 31.0771 169.215 31.1034 169.332 31.1558L170.294 31.4962C170.847 31.6795 171.11 32.2557 170.906 32.7271L170.877 32.7794L165.776 38.5408C165.601 38.8812 165.252 39.0907 164.815 39.0907Z" fill="#A55922"/>
<path d="M168.949 30.6855C168.366 30.6855 167.871 30.9736 167.608 31.4188L162.595 37.1016L162.508 37.2064L162.45 37.3111C162.129 38.0182 162.537 38.8038 163.324 39.0918L164.286 39.4324C164.461 39.4847 164.665 39.5371 164.84 39.5371C165.422 39.5371 165.918 39.2491 166.18 38.8039L171.193 33.121L171.28 33.0163L171.339 32.9115C171.63 32.2045 171.251 31.4187 170.464 31.1307L169.503 30.7903C169.328 30.7117 169.124 30.6855 168.949 30.6855ZM168.949 31.4973C169.036 31.4973 169.095 31.4973 169.182 31.5235L170.144 31.864C170.464 31.9688 170.61 32.2829 170.494 32.571L165.422 38.3324C165.335 38.5419 165.102 38.6729 164.84 38.6729C164.752 38.6729 164.694 38.6729 164.606 38.6467L163.645 38.3062C163.324 38.2014 163.178 37.8873 163.295 37.5992L168.366 31.8378C168.453 31.6283 168.687 31.4973 168.949 31.4973Z" fill="#482811"/>
<path fill-rule="evenodd" clip-rule="evenodd" d="M158.443 38.6845C158.298 38.6845 158.181 38.6582 158.065 38.6059L157.103 38.2655C156.549 38.0821 156.287 37.506 156.491 37.0346L156.52 36.9823L161.62 31.2209C161.795 30.8804 162.174 30.6709 162.582 30.6709C162.728 30.6709 162.844 30.697 162.961 30.7494L163.923 31.0899C164.476 31.2733 164.739 31.8493 164.535 32.3207L164.505 32.3731L159.405 38.1345C159.201 38.475 158.851 38.6845 158.443 38.6845Z" fill="#A55922"/>
<path d="M162.55 30.2793C161.968 30.2793 161.472 30.5673 161.21 31.0125L156.197 36.6954L156.11 36.8001L156.051 36.9048C155.731 37.6119 156.139 38.3976 156.926 38.6857L157.887 39.0261C158.062 39.0785 158.237 39.1308 158.441 39.1308C159.024 39.1308 159.519 38.8428 159.782 38.3976L164.795 32.7147L164.882 32.61L164.94 32.5053C165.232 31.7982 164.853 31.0126 164.066 30.7245L163.104 30.384C162.929 30.3055 162.725 30.2793 162.55 30.2793ZM162.55 31.0912C162.638 31.0912 162.696 31.0912 162.784 31.1174L163.745 31.4578C164.066 31.5625 164.212 31.8768 164.095 32.1649L159.024 37.9263C158.937 38.1358 158.703 38.2667 158.441 38.2667C158.354 38.2667 158.295 38.2667 158.208 38.2405L157.246 37.9001C156.926 37.7953 156.78 37.481 156.896 37.1929L161.968 31.4315C162.084 31.222 162.288 31.0912 162.55 31.0912Z" fill="#482811"/>
<path fill-rule="evenodd" clip-rule="evenodd" d="M161.995 38.033C161.85 38.033 161.733 38.0069 161.617 37.9545L160.655 37.6141C160.393 37.5093 160.189 37.3521 160.072 37.1164C159.955 36.8807 159.955 36.6189 160.043 36.3832L160.072 36.3308L165.172 30.5694C165.347 30.2289 165.726 30.0195 166.134 30.0195C166.28 30.0195 166.396 30.0457 166.513 30.098L167.475 30.4384C168.028 30.6218 168.291 31.1979 168.087 31.6693L168.057 31.7218L162.957 37.4831C162.782 37.8236 162.403 38.033 161.995 38.033Z" fill="#A55922"/>
<path d="M166.099 29.6025C165.516 29.6025 165.021 29.8906 164.759 30.3358L159.746 36.0186L159.658 36.1234L159.6 36.2281C159.279 36.9352 159.688 37.7209 160.474 38.009L161.436 38.3493C161.611 38.4017 161.786 38.4541 161.99 38.4541C162.573 38.4541 163.068 38.1661 163.331 37.7209L168.343 32.038L168.431 31.9333L168.489 31.8285C168.781 31.1215 168.402 30.3359 167.615 30.0478L166.653 29.7073C166.478 29.6287 166.303 29.6025 166.099 29.6025ZM166.099 30.4406C166.187 30.4406 166.245 30.4405 166.332 30.4667L167.294 30.8072C167.615 30.912 167.76 31.2262 167.644 31.5142L162.573 37.2756C162.485 37.4851 162.252 37.6161 161.99 37.6161C161.902 37.6161 161.844 37.6161 161.757 37.5899L160.795 37.2495C160.474 37.1448 160.329 36.8305 160.445 36.5424L165.516 30.781C165.633 30.5715 165.866 30.4406 166.099 30.4406Z" fill="#482811"/>
<path fill-rule="evenodd" clip-rule="evenodd" d="M167.19 40.1158C166.898 38.335 163.722 37.0518 160.195 37.0518C155.678 37.0518 153.929 38.6754 153.113 39.9062L167.19 40.1158Z" fill="#A55922"/>
<path d="M153.97 39.4912L166.531 39.6744C165.803 38.3912 163.15 37.4484 160.178 37.4484C157.263 37.4484 155.223 38.1294 153.97 39.4912ZM167.697 40.5125L152.338 40.3031L152.717 39.7007C154.028 37.658 156.535 36.6367 160.178 36.6367C164.083 36.6367 167.289 38.1033 167.609 40.0412L167.697 40.5125Z" fill="#482811"/>
<path fill-rule="evenodd" clip-rule="evenodd" d="M187.886 42.5735C187.74 42.5735 187.594 42.5472 187.449 42.4948L186.225 42.0758C185.583 41.8663 185.292 41.2116 185.525 40.6617L185.554 40.6094L191.966 33.3814C192.17 32.9886 192.607 32.7529 193.073 32.7529C193.219 32.7529 193.365 32.7791 193.511 32.8314L194.735 33.2505C195.376 33.46 195.667 34.1147 195.434 34.6646L195.405 34.717L188.993 41.9711C188.789 42.3377 188.381 42.5735 187.886 42.5735Z" fill="#A55922"/>
<path d="M193.082 32.3154C192.44 32.3154 191.858 32.6296 191.595 33.1534L185.271 40.3028L185.184 40.4075L185.125 40.5123C184.95 40.8789 184.98 41.2979 185.154 41.6645C185.329 42.0311 185.65 42.3192 186.087 42.4764L187.311 42.8954C187.515 42.974 187.719 43.0001 187.923 43.0001C188.564 43.0001 189.147 42.686 189.409 42.1622L195.734 35.0128L195.821 34.908L195.88 34.8033C196.229 34.0177 195.792 33.1534 194.918 32.8392L193.694 32.4202C193.49 32.3416 193.286 32.3154 193.082 32.3154ZM193.082 33.1273C193.169 33.1273 193.257 33.1534 193.373 33.1796L194.597 33.5986C195.005 33.7296 195.18 34.1485 195.034 34.489L188.623 41.7169C188.506 41.9788 188.215 42.1622 187.894 42.1622C187.807 42.1622 187.719 42.136 187.603 42.1098L186.378 41.6907C185.97 41.5598 185.796 41.1408 185.941 40.8004L192.353 33.5724C192.47 33.2843 192.761 33.1273 193.082 33.1273Z" fill="#482811"/>
<path fill-rule="evenodd" clip-rule="evenodd" d="M176.558 42.5735C176.412 42.5735 176.266 42.5472 176.121 42.4948L174.897 42.0758C174.605 41.9711 174.343 41.7616 174.226 41.4997C174.11 41.2379 174.081 40.9236 174.197 40.6617L174.226 40.6094L180.638 33.3814C180.842 32.9886 181.279 32.7529 181.746 32.7529C181.891 32.7529 182.037 32.7791 182.183 32.8314L183.407 33.2505C184.048 33.46 184.339 34.1147 184.106 34.6646L184.077 34.717L177.665 41.9711C177.461 42.3377 177.053 42.5735 176.558 42.5735Z" fill="#A55922"/>
<path d="M181.726 32.3154C181.085 32.3154 180.502 32.6296 180.24 33.1534L173.916 40.3028L173.828 40.4075L173.77 40.5123C173.595 40.8789 173.624 41.2979 173.799 41.6645C173.974 42.0311 174.294 42.3192 174.732 42.4764L175.956 42.8954C176.16 42.974 176.364 43.0001 176.568 43.0001C177.209 43.0001 177.792 42.686 178.054 42.1622L184.378 35.0128L184.466 34.908L184.524 34.8033C184.874 34.0177 184.437 33.1534 183.562 32.8392L182.338 32.4202C182.163 32.3416 181.959 32.3154 181.726 32.3154ZM181.726 33.1273C181.814 33.1273 181.901 33.1534 182.018 33.1796L183.242 33.5986C183.65 33.7296 183.825 34.1485 183.679 34.489L177.267 41.7169C177.151 41.9788 176.859 42.1622 176.539 42.1622C176.451 42.1622 176.364 42.136 176.247 42.1098L175.023 41.6907C174.615 41.5598 174.44 41.1408 174.586 40.8004L180.998 33.5724C181.143 33.2843 181.435 33.1273 181.726 33.1273Z" fill="#482811"/>
<path fill-rule="evenodd" clip-rule="evenodd" d="M187.493 39.0907C187.348 39.0907 187.231 39.0646 187.115 39.0122L186.153 38.6717C185.891 38.567 185.687 38.4099 185.57 38.1742C185.453 37.9385 185.453 37.6766 185.541 37.4409L185.57 37.3885L190.67 31.6271C190.845 31.2867 191.224 31.0771 191.632 31.0771C191.778 31.0771 191.894 31.1034 192.011 31.1558L192.973 31.4962C193.526 31.6795 193.789 32.2557 193.585 32.7271L193.555 32.7794L188.455 38.5408C188.28 38.8812 187.902 39.0907 187.493 39.0907Z" fill="#A55922"/>
<path d="M191.6 30.6855C191.017 30.6855 190.522 30.9736 190.26 31.4188L185.247 37.1016L185.159 37.2064L185.101 37.3111C184.955 37.6515 184.955 38.0182 185.13 38.3586C185.305 38.6991 185.596 38.9609 185.975 39.0918L186.937 39.4324C187.112 39.4847 187.287 39.5371 187.491 39.5371C188.074 39.5371 188.569 39.2491 188.831 38.8039L193.844 33.121L193.932 33.0163L193.99 32.9115C194.281 32.2045 193.903 31.4187 193.116 31.1307L192.154 30.7903C191.979 30.7117 191.804 30.6855 191.6 30.6855ZM191.6 31.4973C191.688 31.4973 191.746 31.4973 191.833 31.5235L192.795 31.864C193.116 31.9688 193.261 32.2829 193.145 32.571L188.074 38.3324C187.986 38.5419 187.753 38.6729 187.491 38.6729C187.403 38.6729 187.345 38.6729 187.258 38.6467L186.296 38.3062C185.975 38.2014 185.83 37.8873 185.946 37.5992L191.017 31.8378C191.134 31.6283 191.367 31.4973 191.6 31.4973Z" fill="#482811"/>
<path fill-rule="evenodd" clip-rule="evenodd" d="M181.095 38.6845C180.949 38.6845 180.833 38.6582 180.716 38.6059L179.754 38.2655C179.492 38.1607 179.288 38.0036 179.172 37.7679C179.055 37.5322 179.055 37.2703 179.142 37.0346L179.172 36.9823L184.272 31.2209C184.447 30.8804 184.826 30.6709 185.234 30.6709C185.379 30.6709 185.496 30.697 185.612 30.7494L186.574 31.0899C187.128 31.2733 187.39 31.8493 187.186 32.3207L187.157 32.3731L182.057 38.1345C181.882 38.475 181.503 38.6845 181.095 38.6845Z" fill="#A55922"/>
<path d="M185.202 30.2793C184.619 30.2793 184.123 30.5673 183.861 31.0125L178.848 36.6954L178.761 36.8001L178.703 36.9048C178.382 37.6119 178.79 38.3976 179.577 38.6857L180.539 39.0261C180.714 39.0785 180.888 39.1308 181.092 39.1308C181.675 39.1308 182.171 38.8428 182.433 38.3976L187.446 32.7147L187.533 32.61L187.592 32.5053C187.883 31.7982 187.504 31.0126 186.717 30.7245L185.756 30.384C185.581 30.3055 185.406 30.2793 185.202 30.2793ZM185.202 31.0912C185.289 31.0912 185.347 31.0912 185.435 31.1174L186.397 31.4578C186.717 31.5625 186.863 31.8768 186.746 32.1649L181.675 37.9263C181.588 38.1358 181.355 38.2667 181.092 38.2667C181.005 38.2667 180.947 38.2667 180.859 38.2405L179.898 37.9001C179.577 37.7953 179.431 37.481 179.548 37.1929L184.619 31.4315C184.735 31.222 184.969 31.0912 185.202 31.0912Z" fill="#482811"/>
<path fill-rule="evenodd" clip-rule="evenodd" d="M184.676 38.033C184.53 38.033 184.414 38.0069 184.297 37.9545L183.335 37.6141C182.781 37.4308 182.519 36.8546 182.723 36.3832L182.752 36.3308L187.853 30.5694C188.027 30.2289 188.406 30.0195 188.814 30.0195C188.96 30.0195 189.077 30.0457 189.193 30.098L190.155 30.4384C190.709 30.6218 190.971 31.1979 190.767 31.6693L190.738 31.7218L185.638 37.4831C185.463 37.8236 185.084 38.033 184.676 38.033Z" fill="#A55922"/>
<path d="M188.783 29.6025C188.2 29.6025 187.705 29.8906 187.442 30.3358L182.429 36.0186L182.342 36.1234L182.284 36.2281C181.963 36.9352 182.371 37.7209 183.158 38.009L184.12 38.3493C184.295 38.4017 184.469 38.4541 184.674 38.4541C185.256 38.4541 185.752 38.1661 186.014 37.7209L191.027 32.038L191.114 31.9333L191.173 31.8285C191.464 31.1215 191.085 30.3359 190.298 30.0478L189.337 29.7073C189.162 29.6287 188.958 29.6025 188.783 29.6025ZM188.783 30.4406C188.87 30.4406 188.929 30.4405 189.016 30.4667L189.978 30.8072C190.298 30.912 190.444 31.2262 190.327 31.5142L185.256 37.2756C185.169 37.4851 184.936 37.6161 184.674 37.6161C184.586 37.6161 184.528 37.6161 184.44 37.5899L183.479 37.2495C183.158 37.1448 183.012 36.8305 183.129 36.5424L188.2 30.781C188.317 30.5715 188.521 30.4406 188.783 30.4406Z" fill="#482811"/>
<path fill-rule="evenodd" clip-rule="evenodd" d="M189.842 40.1158C189.551 38.335 186.374 37.0518 182.848 37.0518C178.33 37.0518 176.582 38.6754 175.766 39.9062L189.842 40.1158Z" fill="#A55922"/>
<path d="M176.65 39.4912L189.211 39.6744C188.482 38.3912 185.83 37.4484 182.857 37.4484C179.914 37.4484 177.874 38.1294 176.65 39.4912ZM190.377 40.5125L175.018 40.3031L175.396 39.7007C176.708 37.658 179.214 36.6367 182.857 36.6367C186.763 36.6367 189.969 38.1033 190.289 40.0412L190.377 40.5125Z" fill="#482811"/>
<path fill-rule="evenodd" clip-rule="evenodd" d="M153.509 41.3835C152.956 41.3835 152.518 40.9645 152.518 40.4669L152.489 18.3902C152.489 17.8926 152.926 17.4736 153.48 17.4736C154.034 17.4736 154.5 17.8926 154.5 18.3902L154.529 40.4669C154.529 40.9645 154.092 41.3835 153.509 41.3835Z" fill="#A55922"/>
<path d="M153.487 17.1895C153.108 17.1895 152.788 17.3204 152.525 17.5561C152.292 17.7918 152.146 18.0799 152.146 18.4203L152.176 40.4969C152.176 41.1516 152.788 41.7016 153.516 41.7016C154.245 41.7016 154.857 41.1516 154.857 40.4969L154.828 18.4203C154.828 17.7133 154.216 17.1895 153.487 17.1895ZM153.487 17.7656C153.866 17.7656 154.157 18.0537 154.157 18.3941L154.187 40.4707C154.187 40.8111 153.895 41.0992 153.516 41.0992C153.137 41.0992 152.846 40.8111 152.846 40.4707L152.817 18.3941C152.817 18.0537 153.108 17.7656 153.487 17.7656Z" fill="#482811"/>
<path fill-rule="evenodd" clip-rule="evenodd" d="M164.863 41.1775C164.31 41.1775 163.872 40.7062 163.843 40.0777L163.756 11.4017C163.756 10.7732 164.193 10.3018 164.747 10.3018C165.301 10.3018 165.767 10.7732 165.767 11.4017L165.854 40.0777C165.854 40.68 165.417 41.1514 164.863 41.1775Z" fill="#A55922"/>
<path d="M164.772 10C164.394 10 164.015 10.1833 163.782 10.4713C163.578 10.7332 163.461 11.0475 163.461 11.3879L163.548 40.0378C163.548 40.8235 164.131 41.4258 164.889 41.4258C165.268 41.4258 165.647 41.2425 165.88 40.9544C166.084 40.6925 166.2 40.3783 166.2 40.0378L166.113 11.3879C166.084 10.6023 165.501 10 164.772 10ZM164.772 10.5762C165.151 10.5762 165.443 10.9427 165.443 11.3879L165.53 40.0639C165.53 40.5091 165.239 40.8758 164.86 40.8758C164.481 40.8758 164.19 40.5091 164.19 40.0639L164.102 11.3879C164.102 10.9427 164.394 10.6024 164.772 10.5762Z" fill="#482811"/>
<path fill-rule="evenodd" clip-rule="evenodd" d="M176.062 41.1891C175.508 41.1891 175.071 40.7178 175.042 40.0893L174.954 11.4133C174.954 11.1252 175.042 10.8632 175.216 10.6537C175.391 10.418 175.683 10.2871 175.945 10.2871C176.499 10.2871 176.965 10.7585 176.965 11.3871L177.052 40.0631C177.052 40.6916 176.615 41.1891 176.062 41.1891Z" fill="#A55922"/>
<path d="M175.971 10.0117C175.213 10.0117 174.63 10.6402 174.63 11.4259L174.717 40.0756C174.717 40.8613 175.3 41.4637 176.058 41.4637C176.816 41.4637 177.399 40.8351 177.399 40.0494L177.311 11.3996C177.311 10.6402 176.699 10.0117 175.971 10.0117ZM175.971 10.614C176.349 10.614 176.641 10.9807 176.641 11.4259L176.728 40.1019C176.728 40.5471 176.437 40.9137 176.058 40.9137C175.679 40.9137 175.388 40.5471 175.388 40.1019L175.3 11.4259C175.3 10.9807 175.592 10.614 175.971 10.614Z" fill="#482811"/>
<path fill-rule="evenodd" clip-rule="evenodd" d="M187.388 41.1999C186.834 41.1999 186.397 40.7284 186.368 40.0999L186.28 11.4239C186.28 11.1358 186.368 10.874 186.543 10.6645C186.717 10.4288 187.009 10.2979 187.271 10.2979C187.825 10.2979 188.291 10.7693 188.291 11.3978L188.379 40.0738C188.379 40.7023 187.942 41.1999 187.388 41.1999Z" fill="#A55922"/>
<path d="M187.296 10.0488C186.917 10.0488 186.538 10.2322 186.305 10.5203C186.101 10.7822 185.984 11.0964 185.984 11.4369L186.072 40.0867C186.072 40.8723 186.655 41.4746 187.412 41.4746C187.791 41.4746 188.17 41.2913 188.403 41.0033C188.607 40.7414 188.724 40.4271 188.724 40.0867L188.637 11.4369C188.637 10.6512 188.054 10.0488 187.296 10.0488ZM187.296 10.625C187.675 10.625 187.966 10.9917 187.966 11.4369L188.054 40.1129C188.054 40.5581 187.762 40.9247 187.383 40.9247C187.004 40.9247 186.713 40.5581 186.713 40.1129L186.626 11.4369C186.626 10.9917 186.917 10.625 187.296 10.625Z" fill="#482811"/>
<rect x="452" y="3" width="55" height="55" rx="27.5" fill="#FF8C09"/>
<rect x="248" y="3" width="55" height="55" rx="27.5" fill="#FF8C09"/>
<path fill-rule="evenodd" clip-rule="evenodd" d="M268.479 45.5259C268.305 45.5259 268.132 45.4965 267.987 45.4376L266.571 44.8779C265.877 44.6128 265.53 43.8175 265.819 43.1105L265.848 43.0515L273.307 33.5073C273.538 33.0065 274.001 32.7119 274.521 32.7119C274.695 32.7119 274.868 32.7415 275.013 32.8004L276.43 33.36C277.124 33.6252 277.47 34.4205 277.181 35.1275L277.152 35.1865L269.693 44.7307C269.491 45.202 269.028 45.5259 268.479 45.5259Z" fill="#A55922"/>
<path d="M274.501 32.2139C273.808 32.2139 273.2 32.5968 272.882 33.2449L265.51 42.7006L265.423 42.8186L265.365 42.9364C264.989 43.879 265.452 44.9395 266.377 45.3225L267.794 45.8821C267.996 45.9705 268.228 45.9999 268.459 45.9999C269.153 45.9999 269.76 45.617 270.078 44.9689L277.45 35.513L277.537 35.3952L277.595 35.2774C277.942 34.3348 277.508 33.2743 276.583 32.8913L275.166 32.3317C274.964 32.2433 274.733 32.2139 274.501 32.2139ZM274.501 33.1269C274.617 33.1269 274.733 33.1564 274.819 33.1859L276.236 33.7456C276.699 33.9223 276.93 34.4526 276.757 34.9239L269.297 44.4681C269.153 44.8216 268.835 45.0572 268.459 45.0572C268.343 45.0572 268.228 45.0279 268.141 44.9984L266.724 44.4387C266.262 44.262 266.03 43.7317 266.204 43.2604L273.663 33.7161C273.808 33.3331 274.154 33.1269 274.501 33.1269Z" fill="#482811"/>
<path fill-rule="evenodd" clip-rule="evenodd" d="M258.215 45.5259C258.042 45.5259 257.868 45.4965 257.724 45.4376L256.307 44.8779C255.613 44.6128 255.266 43.8175 255.555 43.1105L255.584 43.0515L263.043 33.5073C263.275 33.0065 263.737 32.7119 264.258 32.7119C264.431 32.7119 264.605 32.7415 264.749 32.8004L266.166 33.36C266.86 33.6252 267.207 34.4205 266.918 35.1275L266.889 35.1865L259.43 44.7307C259.227 45.202 258.765 45.5259 258.215 45.5259Z" fill="#A55922"/>
<path d="M264.267 32.2139C263.573 32.2139 262.966 32.5968 262.648 33.2449L255.276 42.7006L255.189 42.8186L255.131 42.9364C254.755 43.879 255.218 44.9395 256.143 45.3225L257.56 45.8821C257.762 45.9705 257.993 45.9999 258.225 45.9999C258.918 45.9999 259.526 45.617 259.844 44.9689L267.216 35.513L267.303 35.3952L267.361 35.2774C267.708 34.3348 267.274 33.2743 266.349 32.8913L264.932 32.3317C264.701 32.2433 264.469 32.2139 264.267 32.2139ZM264.267 33.1269C264.383 33.1269 264.498 33.1564 264.585 33.1859L266.002 33.7456C266.464 33.9223 266.696 34.4526 266.522 34.9239L259.063 44.4681C258.918 44.8216 258.6 45.0572 258.225 45.0572C258.109 45.0572 257.993 45.0279 257.906 44.9984L256.49 44.4387C256.027 44.262 255.796 43.7317 255.969 43.2604L263.429 33.7161C263.544 33.3331 263.891 33.1269 264.267 33.1269Z" fill="#482811"/>
<path fill-rule="evenodd" clip-rule="evenodd" d="M263.305 45.5259C263.132 45.5259 262.958 45.4965 262.814 45.4376L261.397 44.8779C260.703 44.6128 260.356 43.8175 260.645 43.1105L260.674 43.0515L268.133 33.5073C268.365 33.0065 268.827 32.7119 269.348 32.7119C269.521 32.7119 269.695 32.7415 269.839 32.8004L271.256 33.36C271.95 33.6252 272.297 34.4205 272.008 35.1275L271.979 35.1865L264.519 44.7307C264.317 45.202 263.854 45.5259 263.305 45.5259Z" fill="#A55922"/>
<path d="M269.357 32.2139C268.663 32.2139 268.056 32.5968 267.738 33.2449L260.365 42.7006L260.279 42.8186L260.221 42.9364C259.845 43.879 260.308 44.9395 261.233 45.3225L262.649 45.8821C262.852 45.9705 263.083 45.9999 263.314 45.9999C264.008 45.9999 264.615 45.617 264.933 44.9689L272.306 35.513L272.393 35.3952L272.45 35.2774C272.797 34.3348 272.364 33.2743 271.439 32.8913L270.022 32.3317C269.791 32.2433 269.559 32.2139 269.357 32.2139ZM269.357 33.1269C269.473 33.1269 269.588 33.1564 269.675 33.1859L271.092 33.7456C271.554 33.9223 271.785 34.4526 271.612 34.9239L264.153 44.4681C264.008 44.8216 263.69 45.0572 263.314 45.0572C263.199 45.0572 263.083 45.0279 262.996 44.9984L261.58 44.4387C261.117 44.262 260.886 43.7317 261.059 43.2604L268.518 33.7161C268.634 33.3331 268.981 33.1269 269.357 33.1269Z" fill="#482811"/>
<path fill-rule="evenodd" clip-rule="evenodd" d="M258.087 43.9414C257.567 43.9414 257.133 43.5489 257.133 43.0516L257.104 14.8898C257.104 14.6543 257.191 14.4449 257.365 14.2617C257.538 14.1047 257.798 14 258.059 14C258.579 14 259.013 14.3926 259.042 14.8898L259.07 43.0516C259.07 43.5489 258.637 43.9414 258.087 43.9414Z" fill="#A55922"/>
<path d="M258.068 14C257.345 14 256.767 14.5193 256.796 15.1684L256.825 43.107C256.825 43.7561 257.403 44.2755 258.097 44.2755C258.82 44.2755 259.398 43.7561 259.369 43.107L259.34 15.1684C259.34 14.5193 258.762 14 258.068 14ZM258.068 14.5713C258.415 14.5713 258.704 14.8309 258.704 15.1684L258.733 43.107C258.733 43.4446 258.444 43.7043 258.097 43.7043C257.75 43.7043 257.461 43.4446 257.461 43.133L257.432 15.1944C257.432 14.8309 257.721 14.5713 258.068 14.5713Z" fill="#482811"/>
<path fill-rule="evenodd" clip-rule="evenodd" d="M268.362 43.9414C267.842 43.9414 267.408 43.5489 267.408 43.0516L267.379 14.8898C267.379 14.6543 267.466 14.4449 267.639 14.2617C267.813 14.1047 268.073 14 268.333 14C268.853 14 269.287 14.3926 269.316 14.8898L269.345 43.0516C269.316 43.5489 268.911 43.9414 268.362 43.9414Z" fill="#A55922"/>
<path d="M268.342 14C267.619 14 267.04 14.5193 267.069 15.1684L267.098 43.107C267.098 43.7561 267.677 44.2755 268.37 44.2755C269.093 44.2755 269.671 43.7561 269.643 43.107L269.614 15.1684C269.614 14.5193 269.035 14 268.342 14ZM268.342 14.5713C268.688 14.5713 268.978 14.8309 268.978 15.1684L269.006 43.107C269.006 43.4446 268.717 43.7043 268.37 43.7043C268.023 43.7043 267.734 43.4446 267.734 43.133L267.705 15.1944C267.705 14.8309 267.966 14.5713 268.342 14.5713Z" fill="#482811"/>
<path fill-rule="evenodd" clip-rule="evenodd" d="M290.764 45.5259C290.591 45.5259 290.417 45.4965 290.273 45.4376L288.856 44.8779C288.162 44.6128 287.815 43.8175 288.104 43.1105L288.133 43.0515L295.592 33.5073C295.824 33.0065 296.286 32.7119 296.807 32.7119C296.98 32.7119 297.154 32.7415 297.298 32.8004L298.715 33.36C299.409 33.6252 299.756 34.4205 299.466 35.1275L299.438 35.1865L291.978 44.7307C291.747 45.202 291.284 45.5259 290.764 45.5259Z" fill="#A55922"/>
<path d="M296.788 32.2139C296.094 32.2139 295.487 32.5968 295.168 33.2449L287.796 42.7006L287.709 42.8186L287.651 42.9364C287.276 43.879 287.738 44.9395 288.663 45.3225L290.08 45.8821C290.282 45.9705 290.514 45.9999 290.745 45.9999C291.439 45.9999 292.046 45.617 292.364 44.9689L299.737 35.513L299.823 35.3952L299.881 35.2774C300.228 34.3348 299.794 33.2743 298.869 32.8913L297.453 32.3317C297.221 32.2433 297.019 32.2139 296.788 32.2139ZM296.788 33.1269C296.903 33.1269 297.019 33.1564 297.106 33.1859L298.522 33.7456C298.985 33.9223 299.216 34.4526 299.043 34.9239L291.583 44.4681C291.439 44.8216 291.121 45.0572 290.745 45.0572C290.629 45.0572 290.514 45.0279 290.427 44.9984L289.01 44.4387C288.548 44.262 288.316 43.7317 288.49 43.2604L295.949 33.7161C296.094 33.3331 296.412 33.1269 296.788 33.1269Z" fill="#482811"/>
<path fill-rule="evenodd" clip-rule="evenodd" d="M280.5 45.5259C280.327 45.5259 280.153 45.4965 280.009 45.4376L278.592 44.8779C277.898 44.6128 277.551 43.8175 277.841 43.1105L277.869 43.0515L285.329 33.5073C285.56 33.0065 286.023 32.7119 286.543 32.7119C286.716 32.7119 286.89 32.7415 287.034 32.8004L288.451 33.36C289.145 33.6252 289.492 34.4205 289.203 35.1275L289.174 35.1865L281.715 44.7307C281.512 45.202 281.021 45.5259 280.5 45.5259Z" fill="#A55922"/>
<path d="M286.524 32.2139C285.83 32.2139 285.223 32.5968 284.905 33.2449L277.532 42.7006L277.446 42.8186L277.388 42.9364C277.012 43.879 277.475 44.9395 278.4 45.3225L279.816 45.8821C280.019 45.9705 280.25 45.9999 280.481 45.9999C281.175 45.9999 281.782 45.617 282.1 44.9689L289.473 35.513L289.56 35.3952L289.617 35.2774C289.964 34.3348 289.531 33.2743 288.606 32.8913L287.189 32.3317C286.986 32.2433 286.755 32.2139 286.524 32.2139ZM286.524 33.1269C286.64 33.1269 286.755 33.1564 286.842 33.1859L288.259 33.7456C288.721 33.9223 288.952 34.4526 288.779 34.9239L281.32 44.4681C281.175 44.8216 280.857 45.0572 280.481 45.0572C280.366 45.0572 280.25 45.0279 280.163 44.9984L278.747 44.4387C278.284 44.262 278.053 43.7317 278.226 43.2604L285.685 33.7161C285.83 33.3331 286.177 33.1269 286.524 33.1269Z" fill="#482811"/>
<path fill-rule="evenodd" clip-rule="evenodd" d="M285.59 45.5259C285.417 45.5259 285.243 45.4965 285.099 45.4376L283.682 44.8779C282.988 44.6128 282.641 43.8175 282.93 43.1105L282.959 43.0515L290.418 33.5073C290.65 33.0065 291.112 32.7119 291.633 32.7119C291.806 32.7119 291.98 32.7415 292.124 32.8004L293.541 33.36C294.235 33.6252 294.582 34.4205 294.293 35.1275L294.264 35.1865L286.805 44.7307C286.602 45.202 286.111 45.5259 285.59 45.5259Z" fill="#A55922"/>
<path d="M291.613 32.2139C290.919 32.2139 290.312 32.5968 289.994 33.2449L282.621 42.7006L282.534 42.8186L282.477 42.9364C282.101 43.879 282.563 44.9395 283.489 45.3225L284.905 45.8821C285.108 45.9705 285.339 45.9999 285.57 45.9999C286.264 45.9999 286.871 45.617 287.189 44.9689L294.562 35.513L294.648 35.3952L294.706 35.2774C295.053 34.3348 294.62 33.2743 293.694 32.8913L292.278 32.3317C292.075 32.2433 291.844 32.2139 291.613 32.2139ZM291.613 33.1269C291.728 33.1269 291.844 33.1564 291.931 33.1859L293.347 33.7456C293.81 33.9223 294.041 34.4526 293.868 34.9239L286.409 44.4681C286.264 44.8216 285.946 45.0572 285.57 45.0572C285.455 45.0572 285.339 45.0279 285.252 44.9984L283.836 44.4387C283.373 44.262 283.142 43.7317 283.315 43.2604L290.774 33.7161C290.919 33.3331 291.266 33.1269 291.613 33.1269Z" fill="#482811"/>
<path fill-rule="evenodd" clip-rule="evenodd" d="M280.374 43.9414C279.853 43.9414 279.42 43.5489 279.42 43.0516L279.391 14.8898C279.391 14.6543 279.477 14.4449 279.651 14.2617C279.824 14.1047 280.085 14 280.345 14C280.865 14 281.299 14.3926 281.328 14.8898L281.357 43.0516C281.328 43.5489 280.894 43.9414 280.374 43.9414Z" fill="#A55922"/>
<path d="M280.354 14C280.007 14 279.689 14.1299 279.429 14.3636C279.197 14.5973 279.053 14.8828 279.053 15.1944L279.082 43.133C279.082 43.7821 279.66 44.3014 280.354 44.3014C280.701 44.3014 281.019 44.1716 281.279 43.938C281.51 43.7043 281.655 43.4186 281.655 43.107L281.626 15.1684C281.626 14.5193 281.048 14 280.354 14ZM280.354 14.5713C280.701 14.5713 280.99 14.8309 280.99 15.1684L281.019 43.107C281.019 43.4446 280.73 43.7043 280.383 43.7043C280.036 43.7043 279.747 43.4446 279.747 43.133L279.718 15.1944C279.689 14.8309 279.978 14.5713 280.354 14.5713Z" fill="#482811"/>
<path fill-rule="evenodd" clip-rule="evenodd" d="M290.647 43.9414C290.127 43.9414 289.693 43.5489 289.693 43.0516L289.664 14.8898C289.664 14.6543 289.751 14.4449 289.924 14.2617C290.098 14.1047 290.358 14 290.618 14C291.139 14 291.572 14.3926 291.601 14.8898L291.63 43.0516C291.601 43.5489 291.167 43.9414 290.647 43.9414Z" fill="#A55922"/>
<path d="M290.598 14C289.876 14 289.297 14.5193 289.326 15.1684L289.355 43.107C289.355 43.7561 289.933 44.2755 290.627 44.2755C291.35 44.2755 291.928 43.7561 291.899 43.107L291.87 15.1684C291.899 14.5193 291.321 14 290.598 14ZM290.598 14.5713C290.945 14.5713 291.234 14.8309 291.234 15.1684L291.263 43.107C291.263 43.4446 290.974 43.7043 290.627 43.7043C290.28 43.7043 289.991 43.4446 289.991 43.133L289.962 15.1944C289.962 14.8309 290.251 14.5713 290.598 14.5713Z" fill="#482811"/>
<path fill-rule="evenodd" clip-rule="evenodd" d="M560.602 26.8134C559.953 26.8134 559.413 26.2407 559.413 25.5536C559.413 24.8664 559.953 24.2939 560.602 24.2939L602.36 24.1221C603.036 24.1221 603.549 24.6948 603.549 25.3819C603.549 26.069 603.009 26.6416 602.36 26.6416L560.602 26.8134Z" fill="#A55922"/>
<path d="M602.379 23.6924L560.621 23.8642C559.729 23.8642 559 24.6372 559 25.5533C559 26.4981 559.729 27.2424 560.621 27.2424L602.379 27.0706C603.271 27.0706 604 26.2977 604 25.3815C604 24.4367 603.271 23.6924 602.379 23.6924ZM602.379 24.5799C602.812 24.5799 603.163 24.9521 603.163 25.3815C603.163 25.8109 602.812 26.1831 602.379 26.1831L560.621 26.3549C560.188 26.3549 559.837 25.9828 559.837 25.5533C559.837 25.1239 560.188 24.7516 560.621 24.7516L602.379 24.5799Z" fill="#482811"/>
<path fill-rule="evenodd" clip-rule="evenodd" d="M560.602 34.0087C559.953 34.0087 559.413 33.436 559.413 32.7489C559.413 32.0618 559.953 31.4892 560.602 31.4892L602.36 31.3174C603.036 31.3174 603.549 31.8901 603.549 32.5772C603.549 33.2643 603.009 33.8369 602.36 33.8369L560.602 34.0087Z" fill="#A55922"/>
<path d="M602.379 30.8877L560.621 31.0595C559.729 31.0595 559 31.8325 559 32.7486C559 33.6934 559.729 34.4377 560.621 34.4377L602.379 34.2659C603.271 34.2659 604 33.493 604 32.5768C604 31.632 603.271 30.8877 602.379 30.8877ZM602.379 31.7752C602.812 31.7752 603.163 32.1474 603.163 32.5768C603.163 33.0063 602.812 33.3784 602.379 33.3784L560.621 33.5502C560.188 33.5502 559.837 33.1781 559.837 32.7486C559.837 32.3192 560.188 31.9469 560.621 31.9469L602.379 31.7752Z" fill="#482811"/>
<path fill-rule="evenodd" clip-rule="evenodd" d="M591.597 35.5643C591.435 35.5643 591.273 35.5356 591.111 35.4783L589.706 34.9057C589.382 34.7626 589.139 34.5049 588.977 34.1613C588.842 33.8177 588.842 33.4456 588.95 33.1021L588.977 33.0448L596.297 23.282C596.513 22.7953 596.972 22.4805 597.485 22.4805C597.647 22.4805 597.81 22.509 597.972 22.5663L599.376 23.1389C600.051 23.4252 600.376 24.2269 600.105 24.914L600.078 24.9713L592.759 34.7339C592.569 35.2492 592.11 35.5643 591.597 35.5643Z" fill="#A55922"/>
<path d="M597.529 22C596.854 22 596.26 22.4008 595.99 23.0307L588.724 32.7076L588.643 32.8221L588.589 32.9366C588.238 33.8814 588.67 34.9406 589.561 35.3128L590.966 35.8854C591.155 35.9713 591.371 36 591.587 36C592.262 36 592.856 35.5992 593.127 34.9693L600.393 25.2924L600.474 25.1779L600.528 25.0634C600.879 24.1186 600.447 23.0594 599.555 22.6872L598.151 22.1146C597.962 22.0574 597.745 22 597.529 22ZM597.529 22.8875C597.637 22.8875 597.745 22.9162 597.853 22.9449L599.258 23.5175C599.717 23.7179 599.933 24.2331 599.744 24.7198L592.424 34.4825C592.289 34.8547 591.965 35.0838 591.614 35.0838C591.506 35.0838 591.398 35.0551 591.29 35.0265L589.885 34.4539C589.426 34.2535 589.21 33.7382 589.399 33.2515L596.719 23.4888C596.854 23.1166 597.178 22.8875 597.529 22.8875Z" fill="#482811"/>
<path fill-rule="evenodd" clip-rule="evenodd" d="M572.873 35.5643C572.711 35.5643 572.549 35.5356 572.387 35.4783L570.983 34.9057C570.307 34.6194 569.983 33.8178 570.253 33.1021L570.28 33.0448L577.6 23.282C577.816 22.7953 578.276 22.4805 578.789 22.4805C578.951 22.4805 579.113 22.509 579.275 22.5663L580.68 23.1389C581.355 23.4252 581.679 24.2269 581.409 24.914L581.382 24.9713L574.062 34.7339C573.846 35.2492 573.387 35.5643 572.873 35.5643Z" fill="#A55922"/>
<path d="M578.806 22C578.13 22 577.536 22.4008 577.266 23.0307L570 32.7076L569.919 32.8221L569.865 32.9366C569.514 33.8814 569.946 34.9406 570.838 35.3128L572.242 35.8854C572.431 35.9713 572.647 36 572.863 36C573.539 36 574.133 35.5992 574.403 34.9693L581.669 25.2924L581.75 25.1779L581.804 25.0634C582.155 24.1186 581.723 23.0594 580.832 22.6872L579.427 22.1146C579.211 22.0574 579.022 22 578.806 22ZM578.806 22.8875C578.914 22.8875 579.022 22.9162 579.13 22.9449L580.534 23.5175C580.994 23.7179 581.21 24.2331 581.021 24.7198L573.701 34.4825C573.566 34.8547 573.242 35.0838 572.89 35.0838C572.782 35.0838 572.674 35.0551 572.566 35.0265L571.162 34.4539C570.702 34.2535 570.486 33.7382 570.675 33.2515L577.995 23.4888C578.103 23.1166 578.455 22.8875 578.806 22.8875Z" fill="#482811"/>
<path fill-rule="evenodd" clip-rule="evenodd" d="M583.241 35.5643C583.079 35.5643 582.916 35.5356 582.754 35.4783L581.35 34.9057C581.026 34.7626 580.783 34.5049 580.621 34.1613C580.486 33.8177 580.486 33.4456 580.594 33.1021L580.621 33.0448L587.941 23.282C588.157 22.7953 588.616 22.4805 589.129 22.4805C589.291 22.4805 589.453 22.509 589.615 22.5663L591.02 23.1389C591.695 23.4252 592.019 24.2269 591.749 24.914L591.722 24.9713L584.402 34.7339C584.213 35.2492 583.754 35.5643 583.241 35.5643Z" fill="#A55922"/>
<path d="M589.172 22C588.497 22 587.902 22.4008 587.632 23.0307L580.366 32.7076L580.285 32.8221L580.231 32.9366C579.88 33.8814 580.312 34.9406 581.204 35.3128L582.608 35.8854C582.797 35.9713 583.013 36 583.23 36C583.905 36 584.499 35.5992 584.769 34.9693L592.035 25.2924L592.116 25.1779L592.17 25.0634C592.521 24.1186 592.089 23.0594 591.198 22.6872L589.793 22.1146C589.577 22.0574 589.388 22 589.172 22ZM589.172 22.8875C589.28 22.8875 589.388 22.9162 589.496 22.9449L590.901 23.5175C591.36 23.7179 591.576 24.2331 591.387 24.7198L584.067 34.4825C583.932 34.8547 583.608 35.0838 583.257 35.0838C583.149 35.0838 583.04 35.0551 582.932 35.0265L581.528 34.4539C581.069 34.2535 580.853 33.7382 581.042 33.2515L588.362 23.4888C588.47 23.1166 588.821 22.8875 589.172 22.8875Z" fill="#482811"/>
<path fill-rule="evenodd" clip-rule="evenodd" d="M564.489 35.5643C564.327 35.5643 564.165 35.5356 564.002 35.4783L562.598 34.9057C562.274 34.7626 562.031 34.5049 561.869 34.1613C561.734 33.8177 561.734 33.4456 561.842 33.1021L561.869 33.0448L569.189 23.282C569.405 22.7953 569.864 22.4805 570.377 22.4805C570.539 22.4805 570.701 22.509 570.863 22.5663L572.268 23.1389C572.943 23.4252 573.267 24.2269 572.997 24.914L572.97 24.9713L565.65 34.7339C565.461 35.2492 565.002 35.5643 564.489 35.5643Z" fill="#A55922"/>
<path d="M570.421 22C569.746 22 569.151 22.4008 568.881 23.0307L561.615 32.7076L561.534 32.8221L561.48 32.9366C561.129 33.8814 561.561 34.9406 562.453 35.3128L563.857 35.8854C564.046 35.9713 564.262 36 564.479 36C565.154 36 565.748 35.5992 566.018 34.9693L573.284 25.2924L573.365 25.1779L573.419 25.0634C573.77 24.1186 573.338 23.0594 572.447 22.6872L571.042 22.1146C570.853 22.0574 570.637 22 570.421 22ZM570.421 22.8875C570.529 22.8875 570.637 22.9162 570.745 22.9449L572.15 23.5175C572.609 23.7179 572.825 24.2331 572.636 24.7198L565.316 34.4825C565.181 34.8547 564.857 35.0838 564.506 35.0838C564.398 35.0838 564.29 35.0551 564.181 35.0265L562.777 34.4539C562.318 34.2535 562.102 33.7382 562.291 33.2515L569.611 23.4888C569.746 23.1166 570.07 22.8875 570.421 22.8875Z" fill="#482811"/>
<path fill-rule="evenodd" clip-rule="evenodd" d="M587.889 27.0734C587.457 27.0734 587.078 26.8444 587.727 25.8137C588.375 24.7544 589.023 24.5254 589.428 24.5254H597.91C598.342 24.5254 598.72 24.7544 598.153 25.7851C597.586 26.8444 596.964 27.0734 596.532 27.0734H587.889Z" fill="#A55922"/>
<path d="M598.16 24.0566H589.706C589.382 24.0566 588.301 24.1712 587.302 25.7744C586.302 27.3777 587.275 27.4922 587.599 27.4922H596.269C596.594 27.4922 597.701 27.3777 598.565 25.7744C599.43 24.1998 598.457 24.0566 598.16 24.0566ZM597.674 24.9728C598.106 24.9728 597.998 25.345 597.755 25.8031C597.512 26.2611 597.242 26.6333 596.783 26.6333H588.166C587.734 26.6333 587.869 26.2611 588.139 25.8031C588.409 25.345 588.706 24.9728 589.166 24.9728H597.674Z" fill="#482811"/>
<path fill-rule="evenodd" clip-rule="evenodd" d="M583.365 32.8646C582.933 32.8646 582.555 32.6354 583.203 31.6047C583.852 30.5454 584.5 30.3164 584.905 30.3164H593.386C593.819 30.3164 594.197 30.5456 593.629 31.5762C593.062 32.6355 592.441 32.8646 592.009 32.8646H583.365Z" fill="#A55922"/>
<path d="M593.636 29.8486H585.181C584.857 29.8486 583.777 29.9632 582.777 31.5664C581.778 33.1697 582.75 33.2842 583.075 33.2842H591.745C592.069 33.2842 593.177 33.1697 594.041 31.5664C594.905 29.9918 593.96 29.8486 593.636 29.8486ZM593.15 30.7648C593.582 30.7648 593.474 31.137 593.231 31.5951C592.988 32.0531 592.717 32.4253 592.258 32.4253H583.642C583.21 32.4253 583.345 32.0531 583.615 31.5951C583.885 31.137 584.182 30.7648 584.641 30.7648H593.15Z" fill="#482811"/>
<path fill-rule="evenodd" clip-rule="evenodd" d="M569.34 27.2171C568.908 27.2171 568.53 26.9879 569.178 25.9573C569.826 24.898 570.474 24.6689 570.88 24.6689H579.361C579.793 24.6689 580.171 24.8981 579.604 25.9288C579.037 26.9881 578.416 27.2171 577.983 27.2171H569.34Z" fill="#A55922"/>
<path d="M579.609 24.2295H571.155C570.831 24.2295 569.75 24.344 568.751 25.9473C567.752 27.5505 568.724 27.665 569.048 27.665H577.719C578.043 27.665 579.15 27.5505 580.015 25.9473C580.879 24.344 579.934 24.2295 579.609 24.2295ZM579.123 25.117C579.555 25.117 579.447 25.4892 579.204 25.9473C578.961 26.4053 578.691 26.7775 578.232 26.7775H569.615C569.183 26.7775 569.318 26.4053 569.588 25.9473C569.859 25.4892 570.156 25.117 570.615 25.117H579.123Z" fill="#482811"/>
<path fill-rule="evenodd" clip-rule="evenodd" d="M458.602 32.0218C457.953 32.0218 457.413 31.4755 457.413 30.8199C457.413 30.1643 457.953 29.618 458.602 29.618L500.36 29.4541C501.036 29.4541 501.549 30.0004 501.549 30.656C501.549 31.3116 501.009 31.8578 500.36 31.8578L458.602 32.0218Z" fill="#A55922"/>
<path d="M500.379 29.0439L458.621 29.2079C457.729 29.2079 457 29.9454 457 30.8195C457 31.7209 457.729 32.4312 458.621 32.4312L500.379 32.2673C501.271 32.2673 502 31.5298 502 30.6557C502 29.7816 501.271 29.0439 500.379 29.0439ZM500.379 29.8908C500.812 29.8908 501.163 30.246 501.163 30.6557C501.163 31.0654 500.812 31.4205 500.379 31.4205L458.621 31.5844C458.188 31.5844 457.837 31.2292 457.837 30.8195C457.837 30.4097 458.188 30.0547 458.621 30.0547L500.379 29.8908Z" fill="#482811"/>
<path fill-rule="evenodd" clip-rule="evenodd" d="M458.602 25.4524C457.953 25.4524 457.413 24.9061 457.413 24.2506C457.413 23.595 457.953 23.0487 458.602 23.0487L500.36 22.8848C501.036 22.8848 501.549 23.4311 501.549 24.0866C501.549 24.7422 501.009 25.2886 500.36 25.2886L458.602 25.4524Z" fill="#A55922"/>
<path d="M500.379 22.4746L458.621 22.6384C457.729 22.6384 457 23.376 457 24.2501C457 25.1516 457.729 25.8618 458.621 25.8618L500.379 25.6978C501.271 25.6978 502 24.9603 502 24.0862C502 23.1848 501.271 22.4746 500.379 22.4746ZM500.379 23.3213C500.812 23.3213 501.163 23.6765 501.163 24.0862C501.163 24.496 500.812 24.851 500.379 24.851L458.621 25.0149C458.188 25.0149 457.837 24.6599 457.837 24.2501C457.837 23.8404 458.188 23.4852 458.621 23.4852L500.379 23.3213Z" fill="#482811"/>
<path fill-rule="evenodd" clip-rule="evenodd" d="M458.602 38.5911C457.953 38.5911 457.413 38.0448 457.413 37.3892C457.413 36.7337 457.953 36.1874 458.602 36.1874L500.36 36.0234C501.036 36.0234 501.549 36.5697 501.549 37.2253C501.549 37.8809 501.009 38.4272 500.36 38.4272L458.602 38.5911Z" fill="#A55922"/>
<path d="M500.379 35.6133L458.621 35.7772C457.729 35.7772 457 36.5147 457 37.3888C457 38.2902 457.729 39.0004 458.621 39.0004L500.379 38.8366C501.271 38.8366 502 38.099 502 37.2249C502 36.3508 501.271 35.6133 500.379 35.6133ZM500.379 36.4601C500.812 36.4601 501.163 36.8152 501.163 37.2249C501.163 37.6346 500.812 37.9898 500.379 37.9898L458.621 38.1537C458.188 38.1537 457.837 37.7986 457.837 37.3888C457.837 36.9791 458.188 36.624 458.621 36.624L500.379 36.4601Z" fill="#482811"/>
<path fill-rule="evenodd" clip-rule="evenodd" d="M462.147 29.8216C462.066 29.8216 461.958 29.8216 461.877 29.8216C461.283 29.7669 460.473 29.4938 459.986 28.9202C459.743 28.6197 459.635 28.2647 459.662 27.8823C459.743 27.0081 460.581 26.2432 461.337 25.5876C461.553 25.3964 461.742 25.2325 461.904 25.0686C462.85 24.0853 464.632 22.4463 466.037 22.4463C466.604 22.4463 467.063 22.7195 467.387 23.2112C467.522 23.4571 467.468 23.6756 467.333 23.8941C467.549 23.8122 467.793 23.7575 468.063 23.7575C468.441 23.7575 468.765 23.8941 469.008 24.1946C469.224 24.4405 469.305 24.6862 469.278 24.9321C469.251 25.1233 469.197 25.2599 469.089 25.3965C469.197 25.3692 469.278 25.3691 469.386 25.3691C469.629 25.3691 469.872 25.4511 470.088 25.6423C470.521 26.0247 470.656 26.3799 470.575 26.7623C470.359 27.5818 469.035 27.8822 467.036 28.2647C466.361 28.4012 465.713 28.5105 465.389 28.647C465.091 28.7563 464.794 28.9202 464.47 29.0841C463.741 29.4392 463.012 29.8216 462.147 29.8216Z" fill="#A55922"/>
<path d="M466.041 22C464.555 22 462.8 23.5023 461.611 24.7588C461.476 24.8954 461.287 25.0867 461.071 25.2506C460.261 25.9608 459.369 26.7802 459.261 27.8182C459.207 28.3099 459.369 28.7743 459.666 29.1567C460.207 29.8396 461.152 30.1401 461.827 30.1948C461.935 30.1948 462.043 30.222 462.124 30.222C463.097 30.222 463.907 29.7849 464.609 29.4025C464.907 29.2386 465.204 29.0748 465.501 28.9655C465.798 28.8563 466.446 28.7196 467.067 28.6104C468.985 28.2553 470.633 27.9275 470.93 26.7803C471.038 26.3979 471.011 25.8242 470.309 25.2232C470.12 25.0593 469.904 24.95 469.66 24.8954C469.687 24.6222 469.633 24.2398 469.282 23.8301C468.958 23.4477 468.526 23.2564 468.013 23.2564C467.959 23.2564 467.905 23.2564 467.824 23.2564C467.797 23.1745 467.77 23.0652 467.716 22.9833L467.689 22.9561L467.662 22.9287C467.338 22.3551 466.743 22 466.041 22ZM466.041 22.874C466.446 22.874 466.77 23.0379 467.04 23.4203C467.175 23.6662 466.23 24.3491 466.419 24.4856C466.473 24.513 466.527 24.5403 466.608 24.5403C466.959 24.5403 467.527 24.1306 468.04 24.1306C468.256 24.1306 468.472 24.2126 468.661 24.4311C469.363 25.2232 467.662 25.5237 467.905 26.07C467.959 26.1793 468.04 26.234 468.148 26.234C468.472 26.234 468.904 25.7695 469.363 25.7695C469.498 25.7695 469.633 25.8242 469.768 25.9335C471.497 27.4631 466.527 27.709 465.177 28.228C464.177 28.6104 463.232 29.4025 462.124 29.4025C462.043 29.4025 461.962 29.4025 461.908 29.4025C461.044 29.3205 459.991 28.7743 460.072 27.9548C460.153 26.9988 461.503 26.0974 462.178 25.3871C462.854 24.6769 464.717 22.874 466.041 22.874Z" fill="#482811"/>
<path fill-rule="evenodd" clip-rule="evenodd" d="M475.465 37.7863C474.141 37.7863 472.223 36.284 471.197 35.3825C471.008 35.2186 470.792 35.0548 470.549 34.8909C469.738 34.2626 468.793 33.5797 468.523 32.6783C468.388 32.2686 468.442 31.8315 468.658 31.4764C468.955 30.9847 469.549 30.5749 470.198 30.4383C470.36 30.411 470.522 30.3838 470.684 30.3838C471.413 30.3838 472.088 30.6842 472.764 30.9847C473.088 31.1212 473.412 31.2851 473.709 31.3671C474.033 31.4763 474.654 31.5311 475.33 31.613C476.896 31.8042 478.544 31.9681 478.922 32.8422C479.03 33.0881 479.084 33.4977 478.706 34.0167C478.517 34.2626 478.274 34.3991 477.95 34.3991C477.923 34.3991 477.869 34.3991 477.842 34.3991C478.112 34.6723 478.328 35.082 478.031 35.6284C477.842 36.0108 477.49 36.2294 477.058 36.2294C476.896 36.2294 476.761 36.202 476.599 36.1747C476.734 36.3659 476.815 36.5572 476.761 36.7757C476.572 37.4313 476.113 37.7863 475.465 37.7863Z" fill="#A55922"/>
<path d="M470.707 29.9482C470.518 29.9482 470.302 29.9755 470.113 30.0028C469.33 30.1667 468.655 30.6311 468.303 31.232C468.033 31.7237 467.952 32.2427 468.114 32.7891C468.412 33.7998 469.411 34.5646 470.275 35.2202C470.518 35.384 470.734 35.548 470.897 35.7119C472.22 36.8592 474.057 38.1976 475.434 38.1976C476.272 38.1976 476.893 37.7333 477.163 36.9411V36.9138V36.8864C477.19 36.8045 477.19 36.7499 477.19 36.668C477.73 36.6133 478.135 36.3402 478.379 35.8485C478.595 35.4114 478.622 35.029 478.514 34.7285C478.703 34.6193 478.892 34.4827 479.027 34.2914C479.513 33.6085 479.432 33.0349 479.297 32.6798C478.811 31.5872 477.136 31.396 475.353 31.2048C474.759 31.1229 474.111 31.0681 473.814 30.9588C473.517 30.8769 473.219 30.7403 472.895 30.5765C472.274 30.3033 471.518 29.9482 470.707 29.9482ZM470.707 30.7951C471.68 30.7951 472.652 31.4779 473.625 31.7783C474.975 32.2154 479.675 32.0242 478.406 33.7725C478.297 33.9364 478.162 33.9909 478 33.9909C477.595 33.9909 477.136 33.6085 476.839 33.6085C476.731 33.6085 476.677 33.6632 476.623 33.7998C476.542 34.4008 478.162 34.5372 477.703 35.466C477.568 35.7391 477.352 35.8212 477.109 35.8212C476.677 35.8212 476.137 35.5207 475.812 35.5207C475.731 35.5207 475.65 35.5479 475.596 35.6025C475.461 35.7664 476.461 36.3948 476.407 36.668C476.245 37.1597 475.894 37.3509 475.488 37.3509C474.246 37.3509 472.247 35.7118 471.491 35.0562C470.707 34.3733 469.249 33.5266 468.952 32.5433C468.682 31.6691 469.519 31.0135 470.329 30.8496C470.437 30.8223 470.572 30.7951 470.707 30.7951Z" fill="#482811"/>
<path fill-rule="evenodd" clip-rule="evenodd" d="M481.7 29.8216C481.619 29.8216 481.511 29.8216 481.43 29.8216C480.836 29.7669 480.025 29.4938 479.539 28.9202C479.296 28.6197 479.188 28.2647 479.215 27.8823C479.296 27.0081 480.133 26.2432 480.89 25.5876C481.106 25.3964 481.295 25.2325 481.457 25.0686C482.402 24.0853 484.185 22.4463 485.59 22.4463C486.157 22.4463 486.616 22.7195 486.94 23.2112C487.075 23.4571 487.021 23.6756 486.886 23.8941C487.102 23.8122 487.345 23.7575 487.588 23.7575C487.966 23.7575 488.291 23.8941 488.534 24.1946C488.75 24.4405 488.831 24.6862 488.804 24.9321C488.777 25.1233 488.723 25.2599 488.615 25.3965C488.723 25.3692 488.804 25.3691 488.912 25.3691C489.155 25.3691 489.398 25.4511 489.614 25.6423C490.046 26.0247 490.181 26.3799 490.1 26.7623C489.884 27.5818 488.561 27.8822 486.562 28.2647C485.887 28.4012 485.238 28.5105 484.914 28.647C484.617 28.7563 484.32 28.9202 483.996 29.0841C483.294 29.4392 482.564 29.8216 481.7 29.8216Z" fill="#A55922"/>
<path d="M485.596 22C484.11 22 482.354 23.5023 481.166 24.7588C481.031 24.8954 480.842 25.0867 480.626 25.2506C479.815 25.9608 478.924 26.7802 478.816 27.8182C478.762 28.3099 478.924 28.7743 479.221 29.1567C479.761 29.8396 480.707 30.1401 481.382 30.1948C481.49 30.1948 481.598 30.222 481.679 30.222C482.651 30.222 483.462 29.7849 484.164 29.4025C484.461 29.2386 484.758 29.0748 485.055 28.9655C485.353 28.8563 486.001 28.7196 486.622 28.6104C488.54 28.2553 490.188 27.9275 490.485 26.7803C490.593 26.3979 490.566 25.8242 489.863 25.2232C489.674 25.0593 489.458 24.95 489.215 24.8954C489.242 24.6222 489.188 24.2398 488.837 23.8301C488.513 23.4477 488.081 23.2564 487.567 23.2564C487.513 23.2564 487.459 23.2564 487.378 23.2564C487.351 23.1745 487.324 23.0652 487.27 22.9833L487.243 22.9561L487.216 22.9287C486.892 22.3551 486.298 22 485.596 22ZM485.596 22.874C486.001 22.874 486.325 23.0379 486.595 23.4203C486.73 23.6662 485.785 24.3491 485.974 24.4856C486.028 24.513 486.082 24.5403 486.163 24.5403C486.514 24.5403 487.081 24.1306 487.594 24.1306C487.811 24.1306 488.027 24.2126 488.216 24.4311C488.918 25.2232 487.216 25.5237 487.459 26.07C487.513 26.1793 487.594 26.234 487.703 26.234C488.027 26.234 488.459 25.7695 488.918 25.7695C489.053 25.7695 489.188 25.8242 489.323 25.9335C491.052 27.4631 486.082 27.709 484.731 28.228C483.732 28.6104 482.787 29.4025 481.679 29.4025C481.598 29.4025 481.517 29.4025 481.463 29.4025C480.599 29.3205 479.545 28.7743 479.626 27.9548C479.707 26.9988 481.058 26.0974 481.733 25.3871C482.408 24.6769 484.272 22.874 485.596 22.874Z" fill="#482811"/>
<path fill-rule="evenodd" clip-rule="evenodd" d="M495.017 37.7863C493.694 37.7863 491.776 36.284 490.75 35.3825C490.561 35.2186 490.344 35.0548 490.101 34.8909C489.291 34.2626 488.346 33.5797 488.076 32.6783C487.941 32.2686 487.995 31.8315 488.211 31.4764C488.508 30.9847 489.102 30.5749 489.75 30.4383C489.912 30.411 490.074 30.3838 490.236 30.3838C490.966 30.3838 491.641 30.6842 492.316 30.9847C492.64 31.1212 492.965 31.2851 493.262 31.3671C493.586 31.4763 494.207 31.5311 494.882 31.613C496.449 31.8042 498.097 31.9681 498.475 32.8422C498.583 33.0881 498.637 33.4977 498.259 34.0167C498.07 34.2626 497.826 34.3991 497.502 34.3991C497.475 34.3991 497.421 34.3991 497.394 34.3991C497.664 34.6723 497.881 35.082 497.583 35.6284C497.394 36.0108 497.043 36.2294 496.611 36.2294C496.449 36.2294 496.314 36.202 496.152 36.1747C496.287 36.3659 496.368 36.5572 496.314 36.7757C496.125 37.4313 495.666 37.7863 495.017 37.7863Z" fill="#A55922"/>
<path d="M490.261 29.9482C490.072 29.9482 489.856 29.9755 489.667 30.0028C488.884 30.1667 488.208 30.6311 487.857 31.232C487.587 31.7237 487.506 32.2427 487.668 32.7891C487.965 33.7998 488.965 34.5646 489.829 35.2202C490.072 35.384 490.288 35.5753 490.45 35.7119C491.774 36.8592 493.61 38.1976 494.988 38.1976C495.825 38.1976 496.447 37.7333 496.717 36.9411V36.9138V36.8864C496.744 36.8045 496.744 36.7499 496.744 36.668C497.284 36.6133 497.689 36.3402 497.932 35.8485C498.148 35.4114 498.175 35.029 498.067 34.7285C498.256 34.6193 498.445 34.4827 498.58 34.2914C499.067 33.6085 498.986 33.0349 498.851 32.6798C498.364 31.5872 496.69 31.396 494.907 31.2048C494.313 31.1229 493.665 31.0681 493.367 30.9588C493.07 30.8769 492.773 30.7403 492.449 30.5765C491.828 30.3033 491.071 29.9482 490.261 29.9482ZM490.261 30.7951C491.234 30.7951 492.206 31.4779 493.178 31.7783C494.529 32.2154 499.229 32.0242 497.959 33.7725C497.851 33.9364 497.716 33.9909 497.554 33.9909C497.149 33.9909 496.69 33.6085 496.393 33.6085C496.285 33.6085 496.231 33.6632 496.177 33.7998C496.095 34.4008 497.716 34.5372 497.257 35.466C497.122 35.7391 496.906 35.8212 496.663 35.8212C496.231 35.8212 495.69 35.5207 495.366 35.5207C495.285 35.5207 495.204 35.5479 495.15 35.6025C495.015 35.7664 496.014 36.3948 495.96 36.668C495.798 37.1597 495.447 37.3509 495.042 37.3509C493.8 37.3509 491.801 35.7118 491.044 35.0562C490.261 34.3733 488.803 33.5266 488.505 32.5433C488.235 31.6691 489.073 31.0135 489.883 30.8496C489.991 30.8223 490.126 30.7951 490.261 30.7951Z" fill="#482811"/>
<path fill-rule="evenodd" clip-rule="evenodd" d="M388.577 36.5134C387.83 36.5134 387.239 35.9385 387.239 35.2427L384.843 14.8214V14.7912C384.843 14.0651 385.434 13.4902 386.181 13.4902C386.928 13.4902 387.519 14.0651 387.519 14.761L389.915 35.1822V35.2125C389.947 35.9084 389.324 36.5134 388.577 36.5134Z" fill="#A55922"/>
<path fill-rule="evenodd" clip-rule="evenodd" d="M361.941 36.5135C361.194 36.5135 360.603 35.9386 360.603 35.2427L358.331 16.546V16.5157C358.331 15.7896 358.922 15.2148 359.669 15.2148C360.416 15.2148 361.007 15.7896 361.007 16.4854L363.279 35.1823V35.2126C363.31 35.9084 362.688 36.5135 361.941 36.5135Z" fill="#A55922"/>
<path d="M357.832 34.3725C356.432 34.3725 355.934 34.9472 355.934 36.7019V36.7322C355.934 38.4567 356.4 39.0618 357.832 39.0618H397.106C398.506 39.0618 399.004 38.4869 399.004 36.7322C399.004 34.9472 398.537 34.3725 397.106 34.3725H357.832ZM397.137 39.9997H357.863C355 39.9997 355 37.6096 355 36.7322V36.7019C355 35.7943 355 33.4346 357.863 33.4346H397.137C400 33.4346 400 35.8246 400 36.7019C400 37.6095 400 39.9997 397.137 39.9997Z" fill="#482811"/>
<path fill-rule="evenodd" clip-rule="evenodd" d="M364.205 37.7042C363.458 37.7042 362.867 37.0991 362.867 36.3731V36.3428L367.1 15.0442C367.131 14.3181 367.722 13.7734 368.438 13.7734C369.185 13.7734 369.776 14.3786 369.776 15.1047V15.1349L365.544 36.4336C365.544 37.1295 364.952 37.7042 364.205 37.7042Z" fill="#A55922"/>
<path fill-rule="evenodd" clip-rule="evenodd" d="M390.842 37.7042C390.095 37.7042 389.504 37.0991 389.504 36.373V36.3125L393.487 16.6174C393.518 15.8913 394.11 15.3467 394.825 15.3467C395.572 15.3467 396.164 15.9517 396.164 16.6778V16.7384L392.18 36.4336C392.18 37.1294 391.589 37.7042 390.842 37.7042Z" fill="#A55922"/>
<path d="M386.192 13C385.165 13 384.355 13.8168 384.355 14.7849V14.8455V14.9059L386.752 35.2668C386.783 36.2349 387.592 36.9912 388.588 36.9912C389.615 36.9912 390.424 36.1743 390.424 35.2062V35.1458V35.0852L388.028 14.7245C387.997 13.7564 387.187 13 386.192 13ZM386.192 13.9379C386.658 13.9379 387.063 14.3009 387.063 14.7849L389.459 35.2062C389.459 35.66 389.086 36.0534 388.588 36.0534C388.121 36.0534 387.716 35.6903 387.716 35.2062L385.32 14.7849C385.32 14.3311 385.694 13.9379 386.192 13.9379Z" fill="#482811"/>
<path d="M359.68 14.6904C358.653 14.6904 357.844 15.5074 357.844 16.4755V16.5359V16.5965L360.116 35.263C360.147 36.2311 360.956 36.9875 361.952 36.9875C362.979 36.9875 363.788 36.1707 363.788 35.2026V35.142V35.0816L361.516 16.415C361.485 15.4771 360.676 14.6904 359.68 14.6904ZM359.68 15.6586C360.147 15.6586 360.551 16.0216 360.551 16.5057L362.823 35.2026C362.823 35.6564 362.45 36.0496 361.952 36.0496C361.485 36.0496 361.08 35.6866 361.08 35.2026L358.808 16.5057C358.808 16.0216 359.182 15.6586 359.68 15.6586Z" fill="#482811"/>
<path fill-rule="evenodd" clip-rule="evenodd" d="M355.458 36.7141C355.458 38.257 355.8 39.4973 357.823 39.4973H397.097C399.12 39.4973 399.462 38.257 399.462 36.7141V36.6838C399.462 35.1409 399.12 33.9004 397.097 33.9004H357.823C355.8 33.9004 355.458 35.1409 355.458 36.6838V36.7141Z" fill="#A55922"/>
<path d="M368.434 13.2607C367.469 13.2607 366.66 14.0171 366.598 14.955L362.396 36.193L362.365 36.2839V36.3746C362.365 37.373 363.205 38.1898 364.201 38.1898C365.166 38.1898 365.975 37.4334 366.037 36.4956L370.239 15.2575L370.27 15.1667V15.076C370.27 14.0776 369.461 13.2607 368.434 13.2607ZM368.434 14.1986C368.901 14.1986 369.305 14.5919 369.305 15.0457L365.073 36.3443C365.073 36.8284 364.699 37.1915 364.201 37.1915C363.735 37.1915 363.33 36.7981 363.33 36.3443L367.562 15.0457C367.562 14.5919 367.967 14.1986 368.434 14.1986Z" fill="#482811"/>
<path d="M394.815 14.8896C393.85 14.8896 393.041 15.646 392.979 16.5839L389.026 36.1883L388.995 36.2791V36.3698C388.995 37.3682 389.835 38.185 390.831 38.185C391.796 38.185 392.605 37.4287 392.667 36.4908L396.62 16.8864L396.651 16.7957V16.7049C396.651 15.6762 395.842 14.8896 394.815 14.8896ZM394.815 15.8275C395.281 15.8275 395.686 16.2208 395.686 16.6746L391.703 36.3698C391.703 36.8539 391.329 37.217 390.831 37.217C390.364 37.217 389.96 36.8236 389.96 36.3698L393.943 16.6746C393.943 16.2208 394.348 15.8275 394.815 15.8275Z" fill="#482811"/>
<path d="M704.256 34.2793L662.744 34.4592C661.785 34.4592 661 35.2696 661 36.2299C661 37.1903 661.785 38.0005 662.744 38.0005L704.256 37.8204C705.215 37.8204 706 37.0102 706 36.0499C706 35.0895 705.215 34.2793 704.256 34.2793ZM704.256 35.2095C704.721 35.2095 705.099 35.5997 705.099 36.0499C705.099 36.5 704.721 36.8901 704.256 36.8901L662.744 37.0702C662.279 37.0702 661.901 36.6801 661.901 36.2299C661.901 35.7798 662.279 35.3896 662.744 35.3896L704.256 35.2095Z" fill="#482811"/>
<path d="M671.916 30.683H673.921C673.95 30.683 673.98 30.6529 673.98 30.6229V24.3208C673.98 24.2908 673.95 24.2607 673.921 24.2607H671.916C671.886 24.2607 671.857 24.2908 671.857 24.3208V30.6229C671.886 30.6529 671.886 30.683 671.916 30.683Z" fill="#A55922"/>
<path d="M672.325 30.1929H673.488V24.7611H672.325V30.1929ZM673.924 31.1232H671.918C671.656 31.1232 671.424 30.8831 671.424 30.613V24.3109C671.424 24.0409 671.656 23.8008 671.918 23.8008H673.924C674.185 23.8008 674.418 24.0409 674.418 24.3109V30.613C674.418 30.9131 674.185 31.1232 673.924 31.1232Z" fill="#482811"/>
<path d="M689.538 30.683H691.543C691.573 30.683 691.602 30.6529 691.602 30.6229V24.3208C691.602 24.2908 691.573 24.2607 691.543 24.2607H689.538C689.509 24.2607 689.479 24.2908 689.479 24.3208V30.6229C689.479 30.6529 689.509 30.683 689.538 30.683Z" fill="#A55922"/>
<path d="M689.94 30.1929H691.103V24.7611H689.94V30.1929ZM691.51 31.1232H689.504C689.242 31.1232 689.01 30.8831 689.01 30.613V24.3109C689.01 24.0409 689.242 23.8008 689.504 23.8008H691.51C691.771 23.8008 692.004 24.0409 692.004 24.3109V30.613C692.033 30.9131 691.8 31.1232 691.51 31.1232Z" fill="#482811"/>
<path d="M666.804 32.0596C666.688 32.0596 666.571 31.9995 666.484 31.9095C666.397 31.8195 666.339 31.6995 666.368 31.5795L666.426 30.1389C666.426 29.8989 666.63 29.6888 666.891 29.6888H694.333H694.42C694.478 29.6888 694.537 29.6888 694.653 29.6888C696.019 29.6888 698.461 29.2086 699.391 25.9376C699.42 25.8175 699.507 25.7275 699.624 25.6675C699.682 25.6375 699.769 25.6074 699.827 25.6074C699.885 25.6074 699.914 25.6075 699.973 25.6375L701.426 26.1176C701.659 26.2077 701.804 26.4477 701.717 26.6878C700.612 30.6191 697.531 32.0297 695.031 32.0297C694.711 32.0297 694.478 32.0596 694.362 32.0596C694.304 32.0596 694.246 32.0596 694.217 32.0596H694.188H666.804Z" fill="#A55922"/>
<path d="M668.574 24.7009H695.638V22.9003H668.574V24.7009ZM696.045 25.6612H668.167C667.905 25.6612 667.673 25.4211 667.673 25.151V22.5102C667.673 22.2401 667.905 22 668.167 22H696.045C696.307 22 696.539 22.2401 696.539 22.5102V25.151C696.539 25.4211 696.336 25.6612 696.045 25.6612Z" fill="#482811"/>
<path d="M694.938 30.7588C693.601 30.7588 692.525 31.8691 692.525 33.2496C692.525 34.63 693.601 35.7403 694.938 35.7403C696.275 35.7403 697.351 34.63 697.351 33.2496C697.351 31.8991 696.275 30.7588 694.938 30.7588ZM694.938 31.719C695.781 31.719 696.45 32.4093 696.45 33.2796C696.45 34.1499 695.781 34.84 694.938 34.84C694.095 34.84 693.427 34.1499 693.427 33.2796C693.427 32.4093 694.124 31.719 694.938 31.719Z" fill="#482811"/>
<path fill-rule="evenodd" clip-rule="evenodd" d="M662.742 37.5504C662.044 37.5504 661.463 36.9502 661.463 36.23C661.463 35.5097 662.044 34.9096 662.742 34.9096L704.254 34.7295C704.98 34.7295 705.533 35.3297 705.533 36.0499C705.533 36.7701 704.951 37.3705 704.254 37.3705L662.742 37.5504Z" fill="#A55922"/>
<path d="M699.825 25.1182C699.679 25.1182 699.534 25.1483 699.389 25.2383C699.185 25.3584 699.011 25.5684 698.953 25.8085C698.139 28.6294 696.162 29.2296 694.65 29.2296C694.563 29.2296 694.505 29.2296 694.447 29.2296C694.389 29.2296 694.36 29.2296 694.331 29.2296H666.86C666.366 29.2296 665.959 29.6197 665.959 30.1299L665.9 31.5703C665.9 31.8104 665.988 32.0805 666.162 32.2606C666.336 32.4407 666.569 32.5607 666.802 32.5607L694.127 32.5307C694.156 32.5307 694.156 32.5307 694.185 32.5307C694.214 32.5307 694.272 32.5307 694.36 32.5307C694.505 32.5307 694.709 32.5006 694.999 32.5006C697.674 32.5006 700.959 31.0002 702.121 26.8288C702.267 26.3486 702.005 25.8385 701.54 25.6885L700.086 25.2083C700.028 25.1483 699.941 25.1182 699.825 25.1182ZM699.825 26.0485L701.278 26.5287C700.057 30.8501 696.598 31.5404 695.028 31.5404C694.592 31.5404 694.272 31.5703 694.214 31.5703L666.831 31.6003L666.889 30.1599H694.36C694.418 30.1599 694.534 30.1599 694.679 30.1599C695.697 30.1599 698.749 29.9198 699.825 26.0485Z" fill="#482811"/>
<path d="M696.061 25.1667H668.183C668.154 25.1667 668.154 25.1367 668.154 25.1367V22.4959C668.154 22.4658 668.183 22.4658 668.183 22.4658H696.061C696.09 22.4658 696.09 22.4959 696.09 22.4959V25.1367C696.09 25.1667 696.09 25.1667 696.061 25.1667Z" fill="#A55922"/>
<path fill-rule="evenodd" clip-rule="evenodd" d="M694.938 35.2894C693.862 35.2894 692.961 34.389 692.961 33.2486C692.961 32.1383 693.833 31.208 694.938 31.208C696.042 31.208 696.914 32.1082 696.914 33.2486C696.914 34.389 696.013 35.2894 694.938 35.2894Z" fill="#A55922"/>
<path fill-rule="evenodd" clip-rule="evenodd" d="M670.262 35.2894C669.186 35.2894 668.285 34.389 668.285 33.2486C668.285 32.1383 669.157 31.208 670.262 31.208C671.367 31.208 672.239 32.1082 672.239 33.2486C672.21 34.389 671.337 35.2894 670.262 35.2894Z" fill="#A55922"/>
<path d="M670.262 30.7588C668.925 30.7588 667.85 31.8691 667.85 33.2496C667.85 34.63 668.925 35.7403 670.262 35.7403C671.6 35.7403 672.675 34.63 672.675 33.2496C672.675 31.8991 671.6 30.7588 670.262 30.7588ZM670.262 31.719C671.105 31.719 671.774 32.4093 671.774 33.2796C671.774 34.1499 671.105 34.84 670.262 34.84C669.419 34.84 668.751 34.1499 668.751 33.2796C668.751 32.4093 669.419 31.719 670.262 31.719Z" fill="#482811"/>
<path d="M80.3562 87.3V81.98H81.8162C82.4828 81.18 82.9762 80.0867 83.2962 78.7C83.6162 77.3133 83.7762 75.6067 83.7762 73.58V69.9H93.9962V81.98H96.0562V87.3H93.8162V84H82.6162V87.3H80.3562ZM84.3962 81.98H91.4362V71.9H86.1362V73.82C86.1362 75.7533 85.9895 77.38 85.6962 78.7C85.4162 80.02 84.9828 81.1133 84.3962 81.98ZM97.6815 84.28L96.9015 82.32C97.3415 82.16 97.7082 81.9533 98.0015 81.7C98.3082 81.4333 98.5482 81.1 98.7215 80.7C98.9082 80.2867 99.0415 79.78 99.1215 79.18C99.2015 78.5667 99.2415 77.84 99.2415 77V73.9H107.281V84H104.801V75.82H101.521V77.08C101.521 78.5333 101.388 79.7533 101.121 80.74C100.855 81.7133 100.441 82.4867 99.8815 83.06C99.3215 83.6333 98.5882 84.04 97.6815 84.28ZM110.129 84V73.9H112.389V81.54H111.789L117.529 73.9H119.589V84H117.329V76.34H117.949L112.189 84H110.129ZM122.434 84V73.9H124.914V77.86H129.474V73.9H131.954V84H129.474V79.78H124.914V84H122.434ZM138.777 84.2C137.897 84.2 137.124 83.9933 136.457 83.58C135.79 83.1533 135.27 82.5467 134.897 81.76C134.524 80.9733 134.337 80.0333 134.337 78.94C134.337 77.8467 134.524 76.9133 134.897 76.14C135.27 75.3533 135.79 74.7533 136.457 74.34C137.124 73.9133 137.897 73.7 138.777 73.7C139.63 73.7 140.377 73.9133 141.017 74.34C141.67 74.7533 142.104 75.3133 142.317 76.02H142.097L142.317 73.9H144.717C144.677 74.3133 144.637 74.7333 144.597 75.16C144.57 75.5867 144.557 76.0067 144.557 76.42V84H142.077L142.057 81.92H142.297C142.084 82.6133 141.65 83.1667 140.997 83.58C140.344 83.9933 139.604 84.2 138.777 84.2ZM139.477 82.28C140.264 82.28 140.897 82.0067 141.377 81.46C141.857 80.9 142.097 80.06 142.097 78.94C142.097 77.82 141.857 76.9867 141.377 76.44C140.897 75.8933 140.264 75.62 139.477 75.62C138.69 75.62 138.057 75.8933 137.577 76.44C137.097 76.9867 136.857 77.82 136.857 78.94C136.857 80.06 137.09 80.9 137.557 81.46C138.037 82.0067 138.677 82.28 139.477 82.28ZM158.965 84V81.02H152.345V79.68L159.265 69.9H160.785V79.54H162.905V81.02H160.785V84H158.965ZM158.965 79.54V72.1H159.425L153.845 79.98V79.54H158.965ZM169.277 84.18C168.317 84.18 167.397 84.0333 166.517 83.74C165.65 83.4467 164.924 83.0333 164.337 82.5L164.997 81.06C165.65 81.5933 166.324 81.98 167.017 82.22C167.71 82.46 168.444 82.58 169.217 82.58C170.244 82.58 171.024 82.3667 171.557 81.94C172.09 81.5 172.357 80.8733 172.357 80.06C172.357 79.26 172.084 78.6533 171.537 78.24C171.004 77.8267 170.217 77.62 169.177 77.62H167.017V76.08H169.037C169.917 76.08 170.624 75.8533 171.157 75.4C171.69 74.9467 171.957 74.3267 171.957 73.54C171.957 72.82 171.71 72.2733 171.217 71.9C170.737 71.5133 170.05 71.32 169.157 71.32C167.65 71.32 166.344 71.8467 165.237 72.9L164.577 71.48C165.137 70.92 165.83 70.4867 166.657 70.18C167.484 69.8733 168.357 69.72 169.277 69.72C170.677 69.72 171.777 70.04 172.577 70.68C173.377 71.32 173.777 72.2133 173.777 73.36C173.777 74.2267 173.53 74.9733 173.037 75.6C172.557 76.2133 171.897 76.62 171.057 76.82V76.6C172.044 76.7733 172.81 77.18 173.357 77.82C173.904 78.4467 174.177 79.2333 174.177 80.18C174.177 81.42 173.737 82.4 172.857 83.12C171.99 83.8267 170.797 84.18 169.277 84.18ZM176.929 84V73.94H178.449L182.149 80.52L185.869 73.94H187.369V84H185.769V75.98H186.209L182.609 82.38H181.709L178.109 75.96H178.529V84H176.929Z" fill="#482811"/>
<path d="M257.181 84.2C255.714 84.2 254.454 83.9067 253.401 83.32C252.361 82.72 251.561 81.88 251.001 80.8C250.441 79.7067 250.161 78.42 250.161 76.94C250.161 75.46 250.441 74.18 251.001 73.1C251.561 72.02 252.361 71.1867 253.401 70.6C254.454 70 255.714 69.7 257.181 69.7C258.167 69.7 259.054 69.84 259.841 70.12C260.641 70.4 261.327 70.8133 261.901 71.36L261.061 73.4C260.434 72.8933 259.827 72.5333 259.241 72.32C258.667 72.0933 258.007 71.98 257.261 71.98C255.834 71.98 254.741 72.4133 253.981 73.28C253.234 74.1333 252.861 75.3533 252.861 76.94C252.861 78.5267 253.234 79.7533 253.981 80.62C254.741 81.4867 255.834 81.92 257.261 81.92C258.007 81.92 258.667 81.8133 259.241 81.6C259.827 81.3733 260.434 81 261.061 80.48L261.901 82.52C261.327 83.0533 260.641 83.4667 259.841 83.76C259.054 84.0533 258.167 84.2 257.181 84.2ZM263.912 84.28L263.132 82.32C263.572 82.16 263.939 81.9533 264.232 81.7C264.539 81.4333 264.779 81.1 264.952 80.7C265.139 80.2867 265.272 79.78 265.352 79.18C265.432 78.5667 265.472 77.84 265.472 77V73.9H273.512V84H271.032V75.82H267.752V77.08C267.752 78.5333 267.619 79.7533 267.352 80.74C267.085 81.7133 266.672 82.4867 266.112 83.06C265.552 83.6333 264.819 84.04 263.912 84.28ZM280.999 84.2C279.959 84.2 279.059 83.9867 278.299 83.56C277.539 83.1333 276.946 82.5267 276.519 81.74C276.106 80.9533 275.899 80.02 275.899 78.94C275.899 77.86 276.106 76.9333 276.519 76.16C276.946 75.3733 277.539 74.7667 278.299 74.34C279.059 73.9133 279.959 73.7 280.999 73.7C282.039 73.7 282.939 73.9133 283.699 74.34C284.473 74.7667 285.066 75.3733 285.479 76.16C285.906 76.9333 286.119 77.86 286.119 78.94C286.119 80.02 285.906 80.9533 285.479 81.74C285.066 82.5267 284.473 83.1333 283.699 83.56C282.939 83.9867 282.039 84.2 280.999 84.2ZM280.999 82.28C281.786 82.28 282.413 82.0067 282.879 81.46C283.346 80.9 283.579 80.06 283.579 78.94C283.579 77.82 283.346 76.9867 282.879 76.44C282.413 75.8933 281.786 75.62 280.999 75.62C280.213 75.62 279.586 75.8933 279.119 76.44C278.653 76.9867 278.419 77.82 278.419 78.94C278.419 80.06 278.653 80.9 279.119 81.46C279.586 82.0067 280.213 82.28 280.999 82.28ZM286.968 84L289.088 80.22C289.355 79.78 289.608 79.42 289.848 79.14C290.102 78.8467 290.375 78.62 290.668 78.46C290.962 78.3 291.295 78.2 291.668 78.16L291.148 78.94L287.408 73.9H290.088L293.068 77.86H294.328V73.9H296.808V77.86H298.048L301.008 73.9H303.708L299.948 78.94L299.428 78.16C299.802 78.2 300.135 78.3 300.428 78.46C300.722 78.62 300.995 78.8467 301.248 79.14C301.515 79.42 301.775 79.78 302.028 80.22L304.148 84H301.488L299.768 80.96C299.595 80.6533 299.422 80.4133 299.248 80.24C299.075 80.0667 298.882 79.9467 298.668 79.88C298.455 79.8133 298.195 79.78 297.888 79.78H296.808V84H294.328V79.78H293.228C292.922 79.78 292.662 79.8133 292.448 79.88C292.235 79.9467 292.042 80.0667 291.868 80.24C291.708 80.4133 291.535 80.6533 291.348 80.96L289.628 84H286.968ZM305.461 84V73.9H307.941V77.86H312.501V73.9H314.981V84H312.501V79.78H307.941V84H305.461ZM322.464 84.2C321.424 84.2 320.524 83.9867 319.764 83.56C319.004 83.1333 318.411 82.5267 317.984 81.74C317.571 80.9533 317.364 80.02 317.364 78.94C317.364 77.86 317.571 76.9333 317.984 76.16C318.411 75.3733 319.004 74.7667 319.764 74.34C320.524 73.9133 321.424 73.7 322.464 73.7C323.504 73.7 324.404 73.9133 325.164 74.34C325.938 74.7667 326.531 75.3733 326.944 76.16C327.371 76.9333 327.584 77.86 327.584 78.94C327.584 80.02 327.371 80.9533 326.944 81.74C326.531 82.5267 325.938 83.1333 325.164 83.56C324.404 83.9867 323.504 84.2 322.464 84.2ZM322.464 82.28C323.251 82.28 323.878 82.0067 324.344 81.46C324.811 80.9 325.044 80.06 325.044 78.94C325.044 77.82 324.811 76.9867 324.344 76.44C323.878 75.8933 323.251 75.62 322.464 75.62C321.678 75.62 321.051 75.8933 320.584 76.44C320.118 76.9867 319.884 77.82 319.884 78.94C319.884 80.06 320.118 80.9 320.584 81.46C321.051 82.0067 321.678 82.28 322.464 82.28ZM334.673 84.2C333.633 84.2 332.72 83.9867 331.933 83.56C331.16 83.1333 330.56 82.5267 330.133 81.74C329.707 80.94 329.493 79.9933 329.493 78.9C329.493 77.8067 329.707 76.8733 330.133 76.1C330.573 75.3267 331.18 74.7333 331.953 74.32C332.727 73.9067 333.633 73.7 334.673 73.7C335.34 73.7 335.987 73.8067 336.613 74.02C337.253 74.22 337.773 74.5133 338.173 74.9L337.413 76.64C337.053 76.3067 336.647 76.06 336.193 75.9C335.753 75.7267 335.32 75.64 334.893 75.64C334 75.64 333.3 75.92 332.793 76.48C332.3 77.04 332.053 77.8533 332.053 78.92C332.053 79.9867 332.3 80.8067 332.793 81.38C333.3 81.9533 334 82.24 334.893 82.24C335.307 82.24 335.733 82.16 336.173 82C336.627 81.84 337.04 81.5933 337.413 81.26L338.173 82.98C337.76 83.3667 337.233 83.6667 336.593 83.88C335.967 84.0933 335.327 84.2 334.673 84.2ZM342.485 84V75.86H339.025V73.9H348.445V75.86H344.965V84H342.485ZM349.992 84V73.9H352.472V77.28H355.132C356.479 77.28 357.492 77.5667 358.172 78.14C358.852 78.7 359.192 79.5133 359.192 80.58C359.192 81.2733 359.032 81.88 358.712 82.4C358.392 82.9067 357.926 83.3 357.312 83.58C356.712 83.86 355.986 84 355.132 84H349.992ZM352.472 82.36H354.792C355.472 82.36 355.992 82.22 356.352 81.94C356.712 81.6467 356.892 81.2067 356.892 80.62C356.892 80.0333 356.712 79.6067 356.352 79.34C356.006 79.06 355.486 78.92 354.792 78.92H352.472V82.36ZM366.493 84.32L365.513 82.74C366.073 82.4467 366.567 82.0933 366.993 81.68C367.433 81.2667 367.793 80.7467 368.073 80.12C368.367 79.48 368.587 78.68 368.733 77.72C368.88 76.7467 368.953 75.5667 368.953 74.18V69.9H378.873V84H376.813V71.62H370.893V74.68C370.893 76.0933 370.793 77.3267 370.593 78.38C370.407 79.4333 370.127 80.3467 369.753 81.12C369.38 81.88 368.92 82.52 368.373 83.04C367.84 83.5467 367.213 83.9733 366.493 84.32ZM386.725 84.18C385.125 84.18 383.859 83.72 382.925 82.8C382.005 81.88 381.545 80.6133 381.545 79C381.545 77.9333 381.745 77.0133 382.145 76.24C382.559 75.4533 383.125 74.8467 383.845 74.42C384.565 73.98 385.405 73.76 386.365 73.76C387.285 73.76 388.065 73.96 388.705 74.36C389.345 74.7467 389.832 75.3 390.165 76.02C390.499 76.74 390.665 77.5933 390.665 78.58V79.18H382.965V78.1H389.425L389.085 78.36C389.085 77.32 388.852 76.5133 388.385 75.94C387.932 75.3667 387.259 75.08 386.365 75.08C385.392 75.08 384.639 75.42 384.105 76.1C383.572 76.7667 383.305 77.68 383.305 78.84V79.02C383.305 80.2467 383.605 81.1733 384.205 81.8C384.819 82.4267 385.665 82.74 386.745 82.74C387.345 82.74 387.905 82.6533 388.425 82.48C388.945 82.3067 389.445 82.02 389.925 81.62L390.525 82.88C390.072 83.2933 389.505 83.6133 388.825 83.84C388.159 84.0667 387.459 84.18 386.725 84.18ZM393.199 84V73.94H400.339V75.4H395.019V84H393.199ZM402.203 84V73.94H404.003V78.1H405.823L409.063 73.94H411.043L407.283 78.84L406.803 78.28C407.189 78.32 407.523 78.42 407.803 78.58C408.083 78.7267 408.349 78.9467 408.603 79.24C408.869 79.5333 409.156 79.9267 409.463 80.42L411.543 84H409.583L407.763 80.9C407.563 80.54 407.363 80.26 407.163 80.06C406.963 79.86 406.736 79.72 406.483 79.64C406.243 79.56 405.936 79.52 405.563 79.52H404.003V84H402.203ZM417.001 84.18C416.121 84.18 415.348 83.9733 414.681 83.56C414.014 83.1467 413.494 82.5467 413.121 81.76C412.748 80.9733 412.561 80.04 412.561 78.96C412.561 77.88 412.748 76.9533 413.121 76.18C413.494 75.3933 414.014 74.7933 414.681 74.38C415.348 73.9667 416.121 73.76 417.001 73.76C417.894 73.76 418.668 73.9867 419.321 74.44C419.988 74.88 420.428 75.4867 420.641 76.26H420.401L420.621 73.94H422.381C422.341 74.34 422.301 74.74 422.261 75.14C422.234 75.54 422.221 75.9333 422.221 76.32V84H420.401V81.7H420.621C420.408 82.46 419.968 83.0667 419.301 83.52C418.648 83.96 417.881 84.18 417.001 84.18ZM417.421 82.74C418.328 82.74 419.054 82.42 419.601 81.78C420.148 81.14 420.421 80.2 420.421 78.96C420.421 77.72 420.148 76.7867 419.601 76.16C419.054 75.5333 418.328 75.22 417.421 75.22C416.514 75.22 415.781 75.5333 415.221 76.16C414.674 76.7867 414.401 77.72 414.401 78.96C414.401 80.2 414.674 81.14 415.221 81.78C415.768 82.42 416.501 82.74 417.421 82.74ZM424.625 84L426.205 81.26C426.459 80.82 426.779 80.4667 427.165 80.2C427.552 79.92 427.959 79.78 428.385 79.78H428.705L428.685 79.96C427.552 79.96 426.665 79.7067 426.025 79.2C425.385 78.68 425.065 77.9333 425.065 76.96C425.065 76 425.379 75.26 426.005 74.74C426.632 74.2067 427.565 73.94 428.805 73.94H433.385V84H431.705V80.2H430.265C429.745 80.2 429.299 80.3333 428.925 80.6C428.552 80.8533 428.245 81.1933 428.005 81.62L426.645 84H424.625ZM429.125 78.94H431.705V75.18H429.125C428.339 75.18 427.752 75.3467 427.365 75.68C426.992 76.0133 426.805 76.4733 426.805 77.06C426.805 77.66 426.992 78.1267 427.365 78.46C427.752 78.78 428.339 78.94 429.125 78.94Z" fill="#482811"/>
<path d="M503.929 83V68.9H510.109C511.642 68.9 512.822 69.2267 513.649 69.88C514.476 70.52 514.889 71.4133 514.889 72.56C514.889 73.4133 514.636 74.1333 514.129 74.72C513.622 75.3067 512.922 75.7 512.029 75.9V75.6C513.056 75.7467 513.849 76.12 514.409 76.72C514.982 77.3067 515.269 78.0867 515.269 79.06C515.269 80.3133 514.836 81.2867 513.969 81.98C513.102 82.66 511.896 83 510.349 83H503.929ZM506.409 81.04H510.049C510.916 81.04 511.589 80.88 512.069 80.56C512.549 80.2267 512.789 79.6867 512.789 78.94C512.789 78.18 512.549 77.64 512.069 77.32C511.589 76.9867 510.916 76.82 510.049 76.82H506.409V81.04ZM506.409 74.88H509.669C510.589 74.88 511.269 74.7133 511.709 74.38C512.162 74.0333 512.389 73.5267 512.389 72.86C512.389 72.1933 512.162 71.6933 511.709 71.36C511.269 71.0133 510.589 70.84 509.669 70.84H506.409V74.88ZM517.678 87.32V75.42C517.678 75.0067 517.664 74.5867 517.638 74.16C517.611 73.7333 517.571 73.3133 517.518 72.9H519.938L520.158 75.02H519.938C520.138 74.3133 520.558 73.7533 521.198 73.34C521.851 72.9133 522.604 72.7 523.458 72.7C524.351 72.7 525.131 72.9133 525.798 73.34C526.464 73.7533 526.984 74.3533 527.358 75.14C527.731 75.9133 527.918 76.8467 527.918 77.94C527.918 79.0333 527.731 79.9733 527.358 80.76C526.984 81.5467 526.464 82.1533 525.798 82.58C525.131 82.9933 524.351 83.2 523.458 83.2C522.618 83.2 521.878 82.9933 521.238 82.58C520.598 82.1667 520.171 81.6133 519.958 80.92H520.178V87.32H517.678ZM522.758 81.28C523.558 81.28 524.198 81.0067 524.678 80.46C525.158 79.9 525.398 79.06 525.398 77.94C525.398 76.82 525.158 75.9867 524.678 75.44C524.198 74.8933 523.558 74.62 522.758 74.62C521.971 74.62 521.338 74.8933 520.858 75.44C520.378 75.9867 520.138 76.82 520.138 77.94C520.138 79.06 520.378 79.9 520.858 80.46C521.338 81.0067 521.971 81.28 522.758 81.28ZM535.234 83.2C533.54 83.2 532.214 82.7333 531.254 81.8C530.294 80.8667 529.814 79.5867 529.814 77.96C529.814 76.9067 530.02 75.9867 530.434 75.2C530.847 74.4133 531.42 73.8 532.154 73.36C532.9 72.92 533.767 72.7 534.754 72.7C535.727 72.7 536.54 72.9067 537.194 73.32C537.847 73.7333 538.34 74.3133 538.674 75.06C539.02 75.8067 539.194 76.68 539.194 77.68V78.34H531.834V77.02H537.414L537.074 77.3C537.074 76.3667 536.874 75.6533 536.474 75.16C536.087 74.6667 535.52 74.42 534.774 74.42C533.947 74.42 533.307 74.7133 532.854 75.3C532.414 75.8867 532.194 76.7067 532.194 77.76V78.02C532.194 79.1133 532.46 79.9333 532.994 80.48C533.54 81.0133 534.307 81.28 535.294 81.28C535.867 81.28 536.4 81.2067 536.894 81.06C537.4 80.9 537.88 80.6467 538.334 80.3L539.074 81.98C538.594 82.3667 538.02 82.6667 537.354 82.88C536.687 83.0933 535.98 83.2 535.234 83.2ZM541.504 83V72.9H543.584L547.064 78.94L550.544 72.9H552.624V83H550.424V75.7H550.884L547.644 81.36H546.484L543.244 75.7H543.704V83H541.504ZM554.629 83L556.169 80.34C556.435 79.8867 556.762 79.5267 557.149 79.26C557.549 78.98 557.962 78.84 558.389 78.84H558.829L558.809 79.06C557.622 79.06 556.709 78.8 556.069 78.28C555.429 77.76 555.109 77 555.109 76C555.109 75.0133 555.435 74.2533 556.089 73.72C556.755 73.1733 557.729 72.9 559.009 72.9H564.029V83H561.749V79.44H560.609C560.195 79.44 559.829 79.5533 559.509 79.78C559.202 80.0067 558.942 80.3 558.729 80.66L557.409 83H554.629ZM559.489 77.82H561.749V74.52H559.489C558.809 74.52 558.295 74.6667 557.949 74.96C557.615 75.2533 557.449 75.6533 557.449 76.16C557.449 76.6933 557.615 77.1067 557.949 77.4C558.295 77.68 558.809 77.82 559.489 77.82ZM573.187 83V81.26H576.467V70.66H577.507L573.507 73.1V71.1L577.047 68.9H578.547V81.26H581.627V83H573.187ZM588.779 83.18C587.153 83.18 585.899 82.56 585.019 81.32C584.153 80.0667 583.719 78.2733 583.719 75.94C583.719 73.5667 584.153 71.7733 585.019 70.56C585.899 69.3333 587.153 68.72 588.779 68.72C590.419 68.72 591.673 69.3333 592.539 70.56C593.406 71.7733 593.839 73.56 593.839 75.92C593.839 78.2667 593.399 80.0667 592.519 81.32C591.653 82.56 590.406 83.18 588.779 83.18ZM588.779 81.44C589.806 81.44 590.566 80.9933 591.059 80.1C591.566 79.2067 591.819 77.8133 591.819 75.92C591.819 74.0133 591.566 72.6267 591.059 71.76C590.566 70.88 589.806 70.44 588.779 70.44C587.766 70.44 587.006 70.88 586.499 71.76C585.993 72.6267 585.739 74.0067 585.739 75.9C585.739 77.8067 585.993 79.2067 586.499 80.1C587.019 80.9933 587.779 81.44 588.779 81.44ZM596.171 78.32V76.7H602.031V78.32H596.171ZM605.824 83V81.26H609.104V70.66H610.144L606.144 73.1V71.1L609.684 68.9H611.184V81.26H614.264V83H605.824ZM621.616 83.18C621.003 83.18 620.396 83.1133 619.796 82.98C619.196 82.8467 618.636 82.66 618.116 82.42C617.596 82.1667 617.143 81.8667 616.756 81.52L617.476 79.94C618.116 80.4333 618.769 80.8067 619.436 81.06C620.116 81.3 620.829 81.42 621.576 81.42C622.523 81.42 623.263 81.1733 623.796 80.68C624.343 80.1867 624.616 79.5267 624.616 78.7C624.616 77.8467 624.356 77.16 623.836 76.64C623.329 76.1067 622.623 75.84 621.716 75.84C621.089 75.84 620.516 75.9667 619.996 76.22C619.489 76.4733 619.043 76.86 618.656 77.38H617.216V68.9H625.756V70.64H619.196V75.72H618.676C619.036 75.2133 619.516 74.82 620.116 74.54C620.729 74.26 621.416 74.12 622.176 74.12C623.083 74.12 623.869 74.3067 624.536 74.68C625.203 75.0533 625.716 75.5733 626.076 76.24C626.449 76.9067 626.636 77.6933 626.636 78.6C626.636 79.5067 626.429 80.3067 626.016 81C625.616 81.68 625.036 82.2133 624.276 82.6C623.529 82.9867 622.643 83.18 621.616 83.18ZM634.26 83V72.92H635.94L639.58 79.36L643.22 72.92H644.9V83H643.12V75.18H643.56L640.06 81.38H639.1L635.6 75.18H636.04V83H634.26ZM647.932 83V72.92H649.772V81.06H649.212L655.292 72.92H656.972V83H655.152V74.84H655.732L649.612 83H647.932ZM660.002 83V72.92H662.002V77.02H667.102V72.92H669.102V83H667.102V78.6H662.002V83H660.002Z" fill="#482811"/>
</svg>
