<svg width="60" height="60" viewBox="0 0 60 60" fill="none" xmlns="http://www.w3.org/2000/svg">
<rect width="60" height="60" rx="30" fill="white"/>
<path d="M26.4465 40.9643V37.1308C26.4465 36.1558 27.2414 35.3635 28.2263 35.357H31.8339C32.8234 35.357 33.6256 36.1512 33.6256 37.1308V37.1308V40.9762C33.6254 41.804 34.2928 42.4806 35.1288 42.5H37.5339C39.9314 42.5 41.875 40.5758 41.875 38.2023V38.2023V27.2973C41.8622 26.3635 41.4193 25.4867 40.6725 24.9163L32.4472 18.3566C31.0062 17.2145 28.9578 17.2145 27.5168 18.3566L19.3275 24.9282C18.5778 25.4963 18.1342 26.3746 18.125 27.3092V38.2023C18.125 40.5758 20.0686 42.5 22.4661 42.5H24.8712C25.7279 42.5 26.4225 41.8124 26.4225 40.9643V40.9643" stroke="#FF4B19" stroke-width="1.5" stroke-linecap="round" stroke-linejoin="round"/>
</svg>
