<svg width="60" height="60" viewBox="0 0 60 60" fill="none" xmlns="http://www.w3.org/2000/svg">
<rect width="60" height="60" rx="30" fill="white"/>
<g clip-path="url(#clip0_89_513)">
<path d="M35.316 24.3234C33.7585 23.9744 31.6929 23.7822 29.4997 23.7822C27.3064 23.7822 25.2408 23.9745 23.6833 24.3234C21.6914 24.7698 20.8789 25.3597 20.8789 26.3595C20.8789 27.3592 21.6914 27.9491 23.6833 28.3955C25.2408 28.7446 27.3064 28.9367 29.4997 28.9367C31.6929 28.9367 33.7585 28.7444 35.316 28.3955C37.3079 27.9492 38.1204 27.3592 38.1204 26.3595C38.1204 25.3597 37.3079 24.7699 35.316 24.3234ZM34.7584 26.9839C33.3031 27.267 31.4355 27.4228 29.4997 27.4228C27.5638 27.4228 25.6962 27.2669 24.2409 26.9839C23.144 26.7706 22.5303 26.535 22.1949 26.3595C22.5303 26.1841 23.1441 25.9485 24.2409 25.7351C25.6962 25.4521 27.5638 25.2962 29.4997 25.2962C31.4355 25.2962 33.3031 25.4521 34.7584 25.7351C35.8553 25.9484 36.469 26.1841 36.8044 26.3595C36.469 26.5349 35.8552 26.7705 34.7584 26.9839Z" fill="#FF4B19"/>
<path d="M41.9918 34.6869L41.9425 34.2912C41.8914 33.8804 41.6308 33.6105 41.3606 33.6881C41.0904 33.7657 40.9127 34.1618 40.9638 34.5726L41.0131 34.9683C41.0583 35.3316 41.2673 35.5848 41.5018 35.5848C41.5325 35.5848 41.5637 35.5804 41.5949 35.5714C41.8652 35.4937 42.0429 35.0977 41.9918 34.6869Z" fill="#FF4B19"/>
<path d="M41.607 31.6002L40.9199 26.0798C40.7888 24.5833 39.5939 23.3593 37.3622 22.4386C35.2557 21.5695 32.4635 21.0908 29.4999 21.0908C26.5364 21.0908 23.7442 21.5695 21.6376 22.4386C19.406 23.3592 18.2111 24.5833 18.08 26.0797L17.0088 34.687C16.9576 35.0978 17.1353 35.4937 17.4055 35.5715C17.4368 35.5805 17.4679 35.5849 17.4987 35.5849C17.7332 35.5849 17.9422 35.3316 17.9874 34.9685L18.8076 28.3784C19.3993 29.11 20.3439 29.7459 21.6377 30.2796C23.6258 31.0999 26.2247 31.5721 29.002 31.6226V38.1517C29.002 38.5698 29.2249 38.9087 29.5 38.9087C29.775 38.9087 29.998 38.5698 29.998 38.1517V31.6226C32.7752 31.5721 35.3741 31.0998 37.3623 30.2796C38.656 29.7459 39.6006 29.1099 40.1924 28.3784L40.6284 31.8818C40.6736 32.2451 40.8826 32.4982 41.1171 32.4982C41.1479 32.4982 41.179 32.4938 41.2103 32.4847C41.4805 32.407 41.6582 32.011 41.607 31.6002ZM37.1014 28.8186C35.0775 29.6536 32.3779 30.1134 29.5 30.1134C26.6222 30.1134 23.9226 29.6536 21.8987 28.8186C19.9402 28.0105 19.0636 27.0012 19.0636 26.3592C19.0636 26.3411 19.0645 26.3226 19.0659 26.3039L19.0756 26.2262C19.1853 25.5837 20.0705 24.654 21.8987 23.8997C23.9226 23.0647 26.6222 22.6048 29.5 22.6048C32.3779 22.6048 35.0775 23.0647 37.1014 23.8997C38.9296 24.6539 39.8148 25.5837 39.9245 26.2262L39.9342 26.3039C39.9356 26.3225 39.9365 26.341 39.9365 26.3592C39.9365 27.0012 39.0598 28.0105 37.1014 28.8186Z" fill="#FF4B19"/>
</g>
<defs>
<clipPath id="clip0_89_513">
<rect width="25" height="38" fill="white" transform="translate(17 11)"/>
</clipPath>
</defs>
</svg>
