<svg width="60" height="60" viewBox="0 0 60 60" fill="none" xmlns="http://www.w3.org/2000/svg">
<rect width="60" height="60" rx="30" fill="white"/>
<path fill-rule="evenodd" clip-rule="evenodd" d="M31.3803 20.2213L33.6646 24.7847C33.8885 25.2327 34.3206 25.5433 34.8217 25.6152L39.9317 26.3508C41.1942 26.533 41.6966 28.0632 40.7829 28.9399L37.0877 32.4906C36.7246 32.8397 36.5593 33.3416 36.6452 33.8345L37.5172 38.8473C37.732 40.0873 36.4122 41.0334 35.2837 40.4467L30.7165 38.0784C30.2688 37.846 29.7325 37.846 29.2835 38.0784L24.7163 40.4467C23.5878 41.0334 22.268 40.0873 22.4841 38.8473L23.3548 33.8345C23.4407 33.3416 23.2754 32.8397 22.9123 32.4906L19.2171 28.9399C18.3034 28.0632 18.8058 26.533 20.0683 26.3508L25.1783 25.6152C25.6794 25.5433 26.1128 25.2327 26.3367 24.7847L28.6197 20.2213C29.1846 19.0929 30.8154 19.0929 31.3803 20.2213Z" stroke="#FF4B19" stroke-width="1.5" stroke-linecap="round" stroke-linejoin="round"/>
</svg>
