<svg width="419" height="110" viewBox="0 0 419 110" fill="none" xmlns="http://www.w3.org/2000/svg">
<rect width="419" height="110" rx="55" fill="url(#paint0_linear_89_227)"/>
<path d="M97.064 63V46.08H103.952C105.776 46.08 107.176 46.464 108.152 47.232C109.128 48 109.616 49.08 109.616 50.472C109.616 51.528 109.296 52.408 108.656 53.112C108.032 53.816 107.176 54.288 106.088 54.528V54.168C107.336 54.312 108.304 54.744 108.992 55.464C109.696 56.184 110.048 57.136 110.048 58.32C110.048 59.824 109.544 60.984 108.536 61.8C107.528 62.6 106.104 63 104.264 63H97.064ZM99.224 61.224H104.048C105.232 61.224 106.16 61 106.832 60.552C107.52 60.088 107.864 59.328 107.864 58.272C107.864 57.2 107.52 56.44 106.832 55.992C106.16 55.544 105.232 55.32 104.048 55.32H99.224V61.224ZM99.224 53.544H103.64C104.904 53.544 105.848 53.304 106.472 52.824C107.096 52.328 107.408 51.616 107.408 50.688C107.408 49.76 107.096 49.056 106.472 48.576C105.848 48.08 104.904 47.832 103.64 47.832H99.224V53.544ZM113.255 63V50.928H115.415V55.2H118.967C120.535 55.2 121.711 55.536 122.495 56.208C123.295 56.864 123.695 57.816 123.695 59.064C123.695 59.864 123.511 60.56 123.143 61.152C122.775 61.744 122.239 62.2 121.535 62.52C120.831 62.84 119.975 63 118.967 63H113.255ZM115.415 61.488H118.727C119.687 61.488 120.407 61.296 120.887 60.912C121.383 60.512 121.631 59.904 121.631 59.088C121.631 58.272 121.383 57.672 120.887 57.288C120.407 56.904 119.687 56.712 118.727 56.712H115.415V61.488ZM125.447 63V50.928H127.607V63H125.447ZM131.349 63V50.928H141.981V63H139.821V52.632H133.509V63H131.349ZM145.38 68.448L144.876 66.672C145.628 66.496 146.252 66.288 146.748 66.048C147.244 65.824 147.66 65.528 147.996 65.16C148.332 64.792 148.628 64.328 148.884 63.768L149.484 62.328L149.436 63.24L144.18 50.928H146.532L150.732 61.272H150.108L154.308 50.928H156.564L151.02 63.936C150.684 64.72 150.316 65.376 149.916 65.904C149.532 66.432 149.108 66.864 148.644 67.2C148.196 67.536 147.7 67.8 147.156 67.992C146.612 68.184 146.02 68.336 145.38 68.448ZM163.862 63.216C162.662 63.216 161.622 62.968 160.742 62.472C159.862 61.96 159.174 61.232 158.678 60.288C158.198 59.328 157.958 58.192 157.958 56.88C157.958 55.584 158.206 54.48 158.702 53.568C159.198 52.64 159.886 51.936 160.766 51.456C161.646 50.96 162.678 50.712 163.862 50.712C164.646 50.712 165.406 50.848 166.142 51.12C166.878 51.376 167.478 51.752 167.942 52.248L167.198 53.784C166.734 53.336 166.222 53.008 165.662 52.8C165.102 52.576 164.55 52.464 164.006 52.464C162.822 52.464 161.894 52.848 161.222 53.616C160.55 54.368 160.214 55.464 160.214 56.904C160.214 58.36 160.55 59.48 161.222 60.264C161.894 61.048 162.822 61.44 164.006 61.44C164.534 61.44 165.078 61.336 165.638 61.128C166.198 60.92 166.718 60.592 167.198 60.144L167.942 61.656C167.462 62.168 166.846 62.56 166.094 62.832C165.358 63.088 164.614 63.216 163.862 63.216ZM170.794 63V50.928H172.954V55.92H175.138L179.026 50.928H181.402L176.89 56.808L176.314 56.136C176.778 56.184 177.178 56.304 177.514 56.496C177.85 56.672 178.17 56.936 178.474 57.288C178.794 57.64 179.138 58.112 179.506 58.704L182.002 63H179.65L177.466 59.28C177.226 58.848 176.986 58.512 176.746 58.272C176.506 58.032 176.234 57.864 175.93 57.768C175.642 57.672 175.274 57.624 174.826 57.624H172.954V63H170.794ZM183.872 63V50.928H186.032V55.92H192.416V50.928H194.576V63H192.416V57.648H186.032V63H183.872ZM198.31 63V50.928H200.47V55.2H204.022C205.59 55.2 206.766 55.536 207.55 56.208C208.35 56.864 208.75 57.816 208.75 59.064C208.75 59.864 208.566 60.56 208.198 61.152C207.83 61.744 207.294 62.2 206.59 62.52C205.886 62.84 205.03 63 204.022 63H198.31ZM200.47 61.488H203.782C204.742 61.488 205.462 61.296 205.942 60.912C206.438 60.512 206.686 59.904 206.686 59.088C206.686 58.272 206.438 57.672 205.942 57.288C205.462 56.904 204.742 56.712 203.782 56.712H200.47V61.488ZM210.502 63V50.928H212.662V63H210.502ZM221.971 63.216C220.051 63.216 218.531 62.664 217.411 61.56C216.307 60.456 215.755 58.936 215.755 57C215.755 55.72 215.995 54.616 216.475 53.688C216.971 52.744 217.651 52.016 218.515 51.504C219.379 50.976 220.387 50.712 221.539 50.712C222.643 50.712 223.579 50.952 224.347 51.432C225.115 51.896 225.699 52.56 226.099 53.424C226.499 54.288 226.699 55.312 226.699 56.496V57.216H217.459V55.92H225.211L224.803 56.232C224.803 54.984 224.523 54.016 223.963 53.328C223.419 52.64 222.611 52.296 221.539 52.296C220.371 52.296 219.467 52.704 218.827 53.52C218.187 54.32 217.867 55.416 217.867 56.808V57.024C217.867 58.496 218.227 59.608 218.947 60.36C219.683 61.112 220.699 61.488 221.995 61.488C222.715 61.488 223.387 61.384 224.011 61.176C224.635 60.968 225.235 60.624 225.811 60.144L226.531 61.656C225.987 62.152 225.307 62.536 224.491 62.808C223.691 63.08 222.851 63.216 221.971 63.216ZM236.067 63V50.928H237.891L242.331 58.824L246.795 50.928H248.595V63H246.675V53.376H247.203L242.883 61.056H241.803L237.483 53.352H237.987V63H236.067ZM257.901 63.216C255.981 63.216 254.461 62.664 253.341 61.56C252.237 60.456 251.685 58.936 251.685 57C251.685 55.72 251.925 54.616 252.405 53.688C252.901 52.744 253.581 52.016 254.445 51.504C255.309 50.976 256.317 50.712 257.469 50.712C258.573 50.712 259.509 50.952 260.277 51.432C261.045 51.896 261.629 52.56 262.029 53.424C262.429 54.288 262.629 55.312 262.629 56.496V57.216H253.389V55.92H261.141L260.733 56.232C260.733 54.984 260.453 54.016 259.893 53.328C259.349 52.64 258.541 52.296 257.469 52.296C256.301 52.296 255.397 52.704 254.757 53.52C254.117 54.32 253.797 55.416 253.797 56.808V57.024C253.797 58.496 254.157 59.608 254.877 60.36C255.613 61.112 256.629 61.488 257.925 61.488C258.645 61.488 259.317 61.384 259.941 61.176C260.565 60.968 261.165 60.624 261.741 60.144L262.461 61.656C261.917 62.152 261.237 62.536 260.421 62.808C259.621 63.08 258.781 63.216 257.901 63.216ZM265.741 68.184V53.784C265.741 53.32 265.725 52.848 265.693 52.368C265.661 51.888 265.613 51.408 265.549 50.928H267.661L267.925 53.712H267.661C267.901 52.784 268.413 52.056 269.197 51.528C269.981 50.984 270.917 50.712 272.005 50.712C273.077 50.712 274.013 50.96 274.813 51.456C275.613 51.952 276.229 52.672 276.661 53.616C277.109 54.544 277.333 55.656 277.333 56.952C277.333 58.248 277.109 59.368 276.661 60.312C276.229 61.256 275.613 61.976 274.813 62.472C274.013 62.968 273.077 63.216 272.005 63.216C270.933 63.216 270.005 62.952 269.221 62.424C268.453 61.88 267.933 61.152 267.661 60.24H267.925V68.184H265.741ZM271.501 61.488C272.605 61.488 273.485 61.104 274.141 60.336C274.797 59.568 275.125 58.44 275.125 56.952C275.125 55.464 274.797 54.344 274.141 53.592C273.485 52.84 272.605 52.464 271.501 52.464C270.397 52.464 269.517 52.84 268.861 53.592C268.221 54.344 267.901 55.464 267.901 56.952C267.901 58.44 268.221 59.568 268.861 60.336C269.517 61.104 270.397 61.488 271.501 61.488ZM285.618 63.216C284.434 63.216 283.41 62.968 282.546 62.472C281.682 61.96 281.01 61.24 280.53 60.312C280.05 59.368 279.81 58.248 279.81 56.952C279.81 55.672 280.05 54.568 280.53 53.64C281.01 52.696 281.682 51.976 282.546 51.48C283.41 50.968 284.434 50.712 285.618 50.712C286.802 50.712 287.826 50.968 288.69 51.48C289.57 51.976 290.242 52.696 290.706 53.64C291.186 54.568 291.426 55.672 291.426 56.952C291.426 58.248 291.186 59.368 290.706 60.312C290.242 61.24 289.57 61.96 288.69 62.472C287.826 62.968 286.802 63.216 285.618 63.216ZM285.618 61.488C286.706 61.488 287.578 61.104 288.234 60.336C288.89 59.568 289.218 58.44 289.218 56.952C289.218 55.464 288.89 54.344 288.234 53.592C287.578 52.84 286.706 52.464 285.618 52.464C284.514 52.464 283.634 52.84 282.978 53.592C282.338 54.344 282.018 55.464 282.018 56.952C282.018 58.44 282.338 59.568 282.978 60.336C283.634 61.104 284.514 61.488 285.618 61.488ZM294.544 63V50.928H305.176V63H303.016V52.632H296.704V63H294.544ZM308.983 68.184V53.784C308.983 53.32 308.967 52.848 308.935 52.368C308.903 51.888 308.855 51.408 308.791 50.928H310.903L311.167 53.712H310.903C311.143 52.784 311.655 52.056 312.439 51.528C313.223 50.984 314.159 50.712 315.247 50.712C316.319 50.712 317.255 50.96 318.055 51.456C318.855 51.952 319.471 52.672 319.903 53.616C320.351 54.544 320.575 55.656 320.575 56.952C320.575 58.248 320.351 59.368 319.903 60.312C319.471 61.256 318.855 61.976 318.055 62.472C317.255 62.968 316.319 63.216 315.247 63.216C314.175 63.216 313.247 62.952 312.463 62.424C311.695 61.88 311.175 61.152 310.903 60.24H311.167V68.184H308.983ZM314.743 61.488C315.847 61.488 316.727 61.104 317.383 60.336C318.039 59.568 318.367 58.44 318.367 56.952C318.367 55.464 318.039 54.344 317.383 53.592C316.727 52.84 315.847 52.464 314.743 52.464C313.639 52.464 312.759 52.84 312.103 53.592C311.463 54.344 311.143 55.464 311.143 56.952C311.143 58.44 311.463 59.568 312.103 60.336C312.759 61.104 313.639 61.488 314.743 61.488ZM323.7 63V50.928H325.692V60.936H325.044L332.532 50.928H334.356V63H332.364V52.968H333.036L325.524 63H323.7ZM337.131 63L339.027 59.712C339.331 59.184 339.715 58.76 340.179 58.44C340.643 58.104 341.131 57.936 341.643 57.936H342.027L342.003 58.152C340.643 58.152 339.579 57.848 338.811 57.24C338.043 56.616 337.659 55.72 337.659 54.552C337.659 53.4 338.035 52.512 338.787 51.888C339.539 51.248 340.659 50.928 342.147 50.928H347.643V63H345.627V58.44H343.899C343.275 58.44 342.739 58.6 342.291 58.92C341.843 59.224 341.475 59.632 341.187 60.144L339.555 63H337.131ZM342.531 56.928H345.627V52.416H342.531C341.587 52.416 340.883 52.616 340.419 53.016C339.971 53.416 339.747 53.968 339.747 54.672C339.747 55.392 339.971 55.952 340.419 56.352C340.883 56.736 341.587 56.928 342.531 56.928ZM353.972 63V52.68H349.628V50.928H360.476V52.68H356.132V63H353.972ZM362.466 63V50.928H364.458V60.936H363.81L371.298 50.928H373.122V63H371.13V52.968H371.802L364.29 63H362.466ZM375.896 63L377.792 59.712C378.096 59.184 378.48 58.76 378.944 58.44C379.408 58.104 379.896 57.936 380.408 57.936H380.792L380.768 58.152C379.408 58.152 378.344 57.848 377.576 57.24C376.808 56.616 376.424 55.72 376.424 54.552C376.424 53.4 376.8 52.512 377.552 51.888C378.304 51.248 379.424 50.928 380.912 50.928H386.408V63H384.392V58.44H382.664C382.04 58.44 381.504 58.6 381.056 58.92C380.608 59.224 380.24 59.632 379.952 60.144L378.32 63H375.896ZM381.296 56.928H384.392V52.416H381.296C380.352 52.416 379.648 52.616 379.184 53.016C378.736 53.416 378.512 53.968 378.512 54.672C378.512 55.392 378.736 55.952 379.184 56.352C379.648 56.736 380.352 56.928 381.296 56.928Z" fill="white"/>
<rect x="30" y="30" width="50" height="50" rx="25" fill="white"/>
<g clip-path="url(#clip0_89_227)">
<path d="M65.999 52.635C65.9995 52.3363 65.9209 52.0428 65.7711 51.7844C65.6214 51.526 65.4059 51.3118 65.1465 51.1637L55.879 45.6637C55.6119 45.5079 55.3083 45.4258 54.999 45.4258C54.6898 45.4258 54.3861 45.5079 54.119 45.6637L44.8378 51.1637C44.5813 51.3159 44.3688 51.5322 44.2213 51.7914C44.0737 52.0505 43.9961 52.3436 43.9961 52.6418C43.9961 52.9401 44.0737 53.2332 44.2213 53.4923C44.3688 53.7515 44.5813 53.9678 44.8378 54.12L47.4778 55.66V59.5237C47.4794 59.8257 47.5586 60.1222 47.7079 60.3846C47.8572 60.6471 48.0715 60.8668 48.3303 61.0225L54.174 64.3912C54.4349 64.5357 54.7283 64.6115 55.0265 64.6115C55.3248 64.6115 55.6181 64.5357 55.879 64.3912L61.7228 61.0225C61.9815 60.8668 62.1958 60.6471 62.3451 60.3846C62.4944 60.1222 62.5737 59.8257 62.5753 59.5237V55.6187L64.2803 54.615V58.355H65.999V52.635ZM60.8703 59.51L54.999 62.8925L49.1965 59.5237V56.6775L54.119 59.6062C54.387 59.7594 54.6904 59.8399 54.999 59.8399C55.3077 59.8399 55.611 59.7594 55.879 59.6062L60.8565 56.6362L60.8703 59.51ZM54.999 58.1212L45.7178 52.6212L54.999 47.1075L64.2803 52.6075L54.999 58.1212Z" fill="#FF4B19"/>
</g>
<defs>
<linearGradient id="paint0_linear_89_227" x1="355.428" y1="8.88883e-06" x2="78.8971" y2="212.615" gradientUnits="userSpaceOnUse">
<stop stop-color="#FF4B19"/>
<stop offset="1" stop-color="#F27525"/>
</linearGradient>
<clipPath id="clip0_89_227">
<rect width="22" height="22" fill="white" transform="translate(44 44)"/>
</clipPath>
</defs>
</svg>
