<svg width="285" height="110" viewBox="0 0 285 110" fill="none" xmlns="http://www.w3.org/2000/svg">
<rect width="285" height="110" rx="55" fill="url(#paint0_linear_89_228)"/>
<path d="M97.064 63V46.08H99.272V53.544H102.584L101.984 53.928L107.288 46.08H109.808L104.096 54.312L103.28 53.64C104.304 53.752 105.168 54.096 105.872 54.672C106.592 55.248 107.224 56.056 107.768 57.096L110.72 63H108.296L105.896 58.056C105.432 57.096 104.896 56.416 104.288 56.016C103.68 55.616 102.92 55.416 102.008 55.416H99.272V63H97.064ZM117.805 63.216C116.621 63.216 115.597 62.968 114.733 62.472C113.869 61.96 113.197 61.24 112.717 60.312C112.237 59.368 111.997 58.248 111.997 56.952C111.997 55.672 112.237 54.568 112.717 53.64C113.197 52.696 113.869 51.976 114.733 51.48C115.597 50.968 116.621 50.712 117.805 50.712C118.989 50.712 120.013 50.968 120.877 51.48C121.757 51.976 122.429 52.696 122.893 53.64C123.373 54.568 123.613 55.672 123.613 56.952C123.613 58.248 123.373 59.368 122.893 60.312C122.429 61.24 121.757 61.96 120.877 62.472C120.013 62.968 118.989 63.216 117.805 63.216ZM117.805 61.488C118.893 61.488 119.765 61.104 120.421 60.336C121.077 59.568 121.405 58.44 121.405 56.952C121.405 55.464 121.077 54.344 120.421 53.592C119.765 52.84 118.893 52.464 117.805 52.464C116.701 52.464 115.821 52.84 115.165 53.592C114.525 54.344 114.205 55.464 114.205 56.952C114.205 58.44 114.525 59.568 115.165 60.336C115.821 61.104 116.701 61.488 117.805 61.488ZM126.803 68.184V53.784C126.803 53.32 126.787 52.848 126.755 52.368C126.723 51.888 126.675 51.408 126.611 50.928H128.723L128.987 53.712H128.723C128.963 52.784 129.475 52.056 130.259 51.528C131.043 50.984 131.979 50.712 133.067 50.712C134.139 50.712 135.075 50.96 135.875 51.456C136.675 51.952 137.291 52.672 137.723 53.616C138.171 54.544 138.395 55.656 138.395 56.952C138.395 58.248 138.171 59.368 137.723 60.312C137.291 61.256 136.675 61.976 135.875 62.472C135.075 62.968 134.139 63.216 133.067 63.216C131.995 63.216 131.067 62.952 130.283 62.424C129.515 61.88 128.995 61.152 128.723 60.24H128.987V68.184H126.803ZM132.563 61.488C133.667 61.488 134.547 61.104 135.203 60.336C135.859 59.568 136.187 58.44 136.187 56.952C136.187 55.464 135.859 54.344 135.203 53.592C134.547 52.84 133.667 52.464 132.563 52.464C131.459 52.464 130.579 52.84 129.923 53.592C129.283 54.344 128.963 55.464 128.963 56.952C128.963 58.44 129.283 59.568 129.923 60.336C130.579 61.104 131.459 61.488 132.563 61.488ZM141.52 63V50.928H152.152V63H149.992V52.632H143.68V63H141.52ZM161.048 63.216C159.864 63.216 158.84 62.968 157.976 62.472C157.112 61.96 156.44 61.24 155.96 60.312C155.48 59.368 155.24 58.248 155.24 56.952C155.24 55.672 155.48 54.568 155.96 53.64C156.44 52.696 157.112 51.976 157.976 51.48C158.84 50.968 159.864 50.712 161.048 50.712C162.232 50.712 163.256 50.968 164.12 51.48C165 51.976 165.672 52.696 166.136 53.64C166.616 54.568 166.856 55.672 166.856 56.952C166.856 58.248 166.616 59.368 166.136 60.312C165.672 61.24 165 61.96 164.12 62.472C163.256 62.968 162.232 63.216 161.048 63.216ZM161.048 61.488C162.136 61.488 163.008 61.104 163.664 60.336C164.32 59.568 164.648 58.44 164.648 56.952C164.648 55.464 164.32 54.344 163.664 53.592C163.008 52.84 162.136 52.464 161.048 52.464C159.944 52.464 159.064 52.84 158.408 53.592C157.768 54.344 157.448 55.464 157.448 56.952C157.448 58.44 157.768 59.568 158.408 60.336C159.064 61.104 159.944 61.488 161.048 61.488ZM170.046 68.184V53.784C170.046 53.32 170.03 52.848 169.998 52.368C169.966 51.888 169.918 51.408 169.854 50.928H171.966L172.23 53.712H171.966C172.206 52.784 172.718 52.056 173.502 51.528C174.286 50.984 175.222 50.712 176.31 50.712C177.382 50.712 178.318 50.96 179.118 51.456C179.918 51.952 180.534 52.672 180.966 53.616C181.414 54.544 181.638 55.656 181.638 56.952C181.638 58.248 181.414 59.368 180.966 60.312C180.534 61.256 179.918 61.976 179.118 62.472C178.318 62.968 177.382 63.216 176.31 63.216C175.238 63.216 174.31 62.952 173.526 62.424C172.758 61.88 172.238 61.152 171.966 60.24H172.23V68.184H170.046ZM175.806 61.488C176.91 61.488 177.79 61.104 178.446 60.336C179.102 59.568 179.43 58.44 179.43 56.952C179.43 55.464 179.102 54.344 178.446 53.592C177.79 52.84 176.91 52.464 175.806 52.464C174.702 52.464 173.822 52.84 173.166 53.592C172.526 54.344 172.206 55.464 172.206 56.952C172.206 58.44 172.526 59.568 173.166 60.336C173.822 61.104 174.702 61.488 175.806 61.488ZM189.443 63.216C188.387 63.216 187.459 62.968 186.659 62.472C185.859 61.976 185.235 61.256 184.787 60.312C184.339 59.368 184.115 58.248 184.115 56.952C184.115 55.656 184.339 54.544 184.787 53.616C185.235 52.672 185.859 51.952 186.659 51.456C187.459 50.96 188.387 50.712 189.443 50.712C190.515 50.712 191.443 50.984 192.227 51.528C193.027 52.056 193.555 52.784 193.811 53.712H193.523L193.787 50.928H195.899C195.851 51.408 195.803 51.888 195.755 52.368C195.723 52.848 195.707 53.32 195.707 53.784V63H193.523V60.24H193.787C193.531 61.152 193.003 61.88 192.203 62.424C191.419 62.952 190.499 63.216 189.443 63.216ZM189.947 61.488C191.035 61.488 191.907 61.104 192.563 60.336C193.219 59.568 193.547 58.44 193.547 56.952C193.547 55.464 193.219 54.344 192.563 53.592C191.907 52.84 191.035 52.464 189.947 52.464C188.859 52.464 187.979 52.84 187.307 53.592C186.651 54.344 186.323 55.464 186.323 56.952C186.323 58.44 186.651 59.568 187.307 60.336C187.963 61.104 188.843 61.488 189.947 61.488ZM202.144 63V52.68H197.8V50.928H208.648V52.68H204.304V63H202.144ZM210.638 63V50.928H212.63V60.936H211.982L219.47 50.928H221.294V63H219.302V52.968H219.974L212.462 63H210.638ZM225.028 63V50.928H230.98C232.404 50.928 233.46 51.2 234.148 51.744C234.852 52.288 235.204 53.072 235.204 54.096C235.204 54.864 234.94 55.512 234.412 56.04C233.884 56.552 233.196 56.864 232.348 56.976V56.664C233.356 56.696 234.148 56.992 234.724 57.552C235.316 58.096 235.612 58.8 235.612 59.664C235.612 60.688 235.22 61.504 234.436 62.112C233.668 62.704 232.588 63 231.196 63H225.028ZM227.092 61.56H231.052C231.868 61.56 232.492 61.392 232.924 61.056C233.356 60.704 233.572 60.208 233.572 59.568C233.572 58.912 233.356 58.416 232.924 58.08C232.492 57.744 231.868 57.576 231.052 57.576H227.092V61.56ZM227.092 56.136H230.788C231.54 56.136 232.124 55.968 232.54 55.632C232.956 55.296 233.164 54.832 233.164 54.24C233.164 53.632 232.956 53.168 232.54 52.848C232.124 52.528 231.54 52.368 230.788 52.368H227.092V56.136ZM238.552 63V50.928H240.712V55.2H244.264C245.832 55.2 247.008 55.536 247.792 56.208C248.592 56.864 248.992 57.816 248.992 59.064C248.992 59.864 248.808 60.56 248.44 61.152C248.072 61.744 247.536 62.2 246.832 62.52C246.128 62.84 245.272 63 244.264 63H238.552ZM240.712 61.488H244.024C244.984 61.488 245.704 61.296 246.184 60.912C246.68 60.512 246.928 59.904 246.928 59.088C246.928 58.272 246.68 57.672 246.184 57.288C245.704 56.904 244.984 56.712 244.024 56.712H240.712V61.488ZM250.744 63V50.928H252.904V63H250.744Z" fill="white"/>
<rect x="30" y="30" width="50" height="50" rx="25" fill="white"/>
<path d="M54.9961 59.6766V57.1396" stroke="#FF4B19" stroke-width="1.5" stroke-linecap="round" stroke-linejoin="round"/>
<path fill-rule="evenodd" clip-rule="evenodd" d="M61.19 48.3301C62.88 48.3301 64.24 49.7001 64.24 51.3901V54.8301C61.78 56.2701 58.53 57.1401 54.99 57.1401C51.45 57.1401 48.21 56.2701 45.75 54.8301V51.3801C45.75 49.6901 47.12 48.3301 48.81 48.3301H61.19Z" stroke="#FF4B19" stroke-width="1.5" stroke-linecap="round" stroke-linejoin="round"/>
<path d="M58.4961 48.326V47.96C58.4961 46.74 57.5061 45.75 56.2861 45.75H53.7061C52.4861 45.75 51.4961 46.74 51.4961 47.96V48.326" stroke="#FF4B19" stroke-width="1.5" stroke-linecap="round" stroke-linejoin="round"/>
<path d="M45.7754 58.4834L45.9644 60.9924C46.0924 62.6834 47.5014 63.9904 49.1964 63.9904H60.7954C62.4904 63.9904 63.8994 62.6834 64.0274 60.9924L64.2164 58.4834" stroke="#FF4B19" stroke-width="1.5" stroke-linecap="round" stroke-linejoin="round"/>
<defs>
<linearGradient id="paint0_linear_89_228" x1="307.358" y1="-26.3542" x2="8.244" y2="126.167" gradientUnits="userSpaceOnUse">
<stop stop-color="#F27525"/>
<stop offset="1" stop-color="#FF4B19"/>
</linearGradient>
</defs>
</svg>
