<svg width="338" height="110" viewBox="0 0 338 110" fill="none" xmlns="http://www.w3.org/2000/svg">
<rect width="338" height="110" rx="55" fill="url(#paint0_linear_89_229)"/>
<path d="M96.44 54.528C96.44 52.752 96.752 51.216 97.376 49.92C98 48.624 98.896 47.624 100.064 46.92C101.248 46.216 102.656 45.864 104.288 45.864C105.904 45.864 107.296 46.216 108.464 46.92C109.648 47.624 110.56 48.624 111.2 49.92C111.84 51.216 112.16 52.744 112.16 54.504C112.16 56.28 111.84 57.824 111.2 59.136C110.56 60.432 109.648 61.44 108.464 62.16C107.296 62.864 105.904 63.216 104.288 63.216C102.656 63.216 101.256 62.864 100.088 62.16C98.92 61.44 98.016 60.432 97.376 59.136C96.752 57.824 96.44 56.288 96.44 54.528ZM98.792 54.528C98.792 56.64 99.256 58.288 100.184 59.472C101.112 60.656 102.48 61.248 104.288 61.248C106.032 61.248 107.384 60.664 108.344 59.496C109.32 58.312 109.808 56.656 109.808 54.528C109.808 52.4 109.328 50.752 108.368 49.584C107.408 48.416 106.048 47.832 104.288 47.832C102.48 47.832 101.112 48.416 100.184 49.584C99.256 50.752 98.792 52.4 98.792 54.528ZM118.097 63V52.68H113.753V50.928H124.601V52.68H120.257V63H118.097ZM125.226 66.12V61.296H126.546C127.09 60.48 127.482 59.52 127.722 58.416C127.978 57.312 128.106 56 128.106 54.48V50.928H136.77V61.296H138.69V66.12H136.818V63H127.122V66.12H125.226ZM128.61 61.32H134.73V52.608H130.026V54.864C130.026 56.08 129.906 57.264 129.666 58.416C129.426 59.552 129.074 60.52 128.61 61.32ZM141.216 63V50.928H143.376V55.2H146.928C148.496 55.2 149.672 55.536 150.456 56.208C151.256 56.864 151.656 57.816 151.656 59.064C151.656 59.864 151.472 60.56 151.104 61.152C150.736 61.744 150.2 62.2 149.496 62.52C148.792 62.84 147.936 63 146.928 63H141.216ZM143.376 61.488H146.688C147.648 61.488 148.368 61.296 148.848 60.912C149.344 60.512 149.592 59.904 149.592 59.088C149.592 58.272 149.344 57.672 148.848 57.288C148.368 56.904 147.648 56.712 146.688 56.712H143.376V61.488ZM153.408 63V50.928H155.568V63H153.408ZM157.702 63L163.174 56.232V57.312L158.014 50.928H160.63L164.398 55.752H163.605L167.374 50.928H169.966L164.878 57.264V56.28L170.278 63H167.638L163.605 57.84H164.398L160.318 63H157.702ZM184.066 63.216C182.866 63.216 181.826 62.968 180.946 62.472C180.066 61.96 179.378 61.232 178.882 60.288C178.402 59.328 178.162 58.192 178.162 56.88C178.162 55.584 178.41 54.48 178.906 53.568C179.402 52.64 180.09 51.936 180.97 51.456C181.85 50.96 182.882 50.712 184.066 50.712C184.85 50.712 185.61 50.848 186.346 51.12C187.082 51.376 187.682 51.752 188.146 52.248L187.402 53.784C186.938 53.336 186.426 53.008 185.866 52.8C185.306 52.576 184.754 52.464 184.21 52.464C183.026 52.464 182.098 52.848 181.426 53.616C180.754 54.368 180.418 55.464 180.418 56.904C180.418 58.36 180.754 59.48 181.426 60.264C182.098 61.048 183.026 61.44 184.21 61.44C184.738 61.44 185.282 61.336 185.842 61.128C186.402 60.92 186.922 60.592 187.402 60.144L188.146 61.656C187.666 62.168 187.05 62.56 186.298 62.832C185.562 63.088 184.818 63.216 184.066 63.216ZM196.077 66.12V61.296H197.397C197.941 60.48 198.333 59.52 198.573 58.416C198.829 57.312 198.957 56 198.957 54.48V50.928H207.621V61.296H209.541V66.12H207.669V63H197.973V66.12H196.077ZM199.461 61.32H205.581V52.608H200.877V54.864C200.877 56.08 200.757 57.264 200.517 58.416C200.277 59.552 199.925 60.52 199.461 61.32ZM212.139 68.184V53.784C212.139 53.32 212.123 52.848 212.091 52.368C212.059 51.888 212.011 51.408 211.947 50.928H214.059L214.323 53.712H214.059C214.299 52.784 214.811 52.056 215.595 51.528C216.379 50.984 217.315 50.712 218.403 50.712C219.475 50.712 220.411 50.96 221.211 51.456C222.011 51.952 222.627 52.672 223.059 53.616C223.507 54.544 223.731 55.656 223.731 56.952C223.731 58.248 223.507 59.368 223.059 60.312C222.627 61.256 222.011 61.976 221.211 62.472C220.411 62.968 219.475 63.216 218.403 63.216C217.331 63.216 216.403 62.952 215.619 62.424C214.851 61.88 214.331 61.152 214.059 60.24H214.323V68.184H212.139ZM217.899 61.488C219.003 61.488 219.883 61.104 220.539 60.336C221.195 59.568 221.523 58.44 221.523 56.952C221.523 55.464 221.195 54.344 220.539 53.592C219.883 52.84 219.003 52.464 217.899 52.464C216.795 52.464 215.915 52.84 215.259 53.592C214.619 54.344 214.299 55.464 214.299 56.952C214.299 58.44 214.619 59.568 215.259 60.336C215.915 61.104 216.795 61.488 217.899 61.488ZM226.356 68.448L225.852 66.672C226.604 66.496 227.228 66.288 227.724 66.048C228.22 65.824 228.636 65.528 228.972 65.16C229.308 64.792 229.604 64.328 229.86 63.768L230.46 62.328L230.412 63.24L225.156 50.928H227.508L231.708 61.272H231.084L235.284 50.928H237.54L231.996 63.936C231.66 64.72 231.292 65.376 230.892 65.904C230.508 66.432 230.084 66.864 229.62 67.2C229.172 67.536 228.676 67.8 228.132 67.992C227.588 68.184 226.996 68.336 226.356 68.448ZM243.781 63.216C242.725 63.216 241.741 63.08 240.829 62.808C239.917 62.536 239.165 62.152 238.573 61.656L239.293 60.144C239.885 60.624 240.557 60.984 241.309 61.224C242.061 61.464 242.877 61.584 243.757 61.584C244.909 61.584 245.741 61.416 246.253 61.08C246.781 60.728 247.045 60.224 247.045 59.568C247.045 58.944 246.829 58.472 246.397 58.152C245.965 57.832 245.333 57.672 244.501 57.672H241.573V56.088H244.237C244.989 56.088 245.573 55.928 245.989 55.608C246.421 55.272 246.637 54.816 246.637 54.24C246.637 53.648 246.397 53.184 245.917 52.848C245.437 52.496 244.701 52.32 243.709 52.32C242.877 52.32 242.117 52.432 241.429 52.656C240.741 52.864 240.085 53.184 239.461 53.616L238.765 52.2C239.421 51.688 240.189 51.312 241.069 51.072C241.949 50.832 242.909 50.712 243.949 50.712C245.469 50.712 246.629 51.008 247.429 51.6C248.245 52.176 248.653 53 248.653 54.072C248.653 54.824 248.397 55.472 247.885 56.016C247.373 56.544 246.693 56.864 245.845 56.976V56.664C246.805 56.712 247.581 57.008 248.173 57.552C248.765 58.08 249.061 58.784 249.061 59.664C249.061 60.736 248.613 61.6 247.717 62.256C246.821 62.896 245.509 63.216 243.781 63.216ZM251.981 63V50.928H254.141V55.2H257.693C259.261 55.2 260.437 55.536 261.221 56.208C262.021 56.864 262.421 57.816 262.421 59.064C262.421 59.864 262.237 60.56 261.869 61.152C261.501 61.744 260.965 62.2 260.261 62.52C259.557 62.84 258.701 63 257.693 63H251.981ZM254.141 61.488H257.453C258.397 61.488 259.117 61.296 259.613 60.912C260.109 60.512 260.357 59.904 260.357 59.088C260.357 58.272 260.109 57.672 259.613 57.288C259.133 56.904 258.413 56.712 257.453 56.712H254.141V61.488ZM264.498 63L266.394 59.712C266.698 59.184 267.082 58.76 267.546 58.44C268.01 58.104 268.498 57.936 269.01 57.936H269.394L269.37 58.152C268.01 58.152 266.946 57.848 266.178 57.24C265.41 56.616 265.026 55.72 265.026 54.552C265.026 53.4 265.402 52.512 266.154 51.888C266.906 51.248 268.026 50.928 269.514 50.928H275.01V63H272.994V58.44H271.266C270.642 58.44 270.106 58.6 269.658 58.92C269.21 59.224 268.842 59.632 268.554 60.144L266.922 63H264.498ZM269.898 56.928H272.994V52.416H269.898C268.954 52.416 268.25 52.616 267.786 53.016C267.338 53.416 267.114 53.968 267.114 54.672C267.114 55.392 267.338 55.952 267.786 56.352C268.25 56.736 268.954 56.928 269.898 56.928ZM278.747 63V50.928H280.571L285.011 58.824L289.475 50.928H291.275V63H289.355V53.376H289.883L285.563 61.056H284.483L280.163 53.352H280.667V63H278.747ZM295.013 63V50.928H297.005V60.936H296.357L303.845 50.928H305.669V63H303.677V52.968H304.349L296.837 63H295.013Z" fill="white"/>
<rect x="30" y="30" width="50" height="50" rx="25" fill="white"/>
<path fill-rule="evenodd" clip-rule="evenodd" d="M52.877 58.2061C49.033 58.2061 45.75 58.7871 45.75 61.1151C45.75 63.4431 49.013 64.0451 52.877 64.0451C56.722 64.0451 60.004 63.4631 60.004 61.1361C60.004 58.8091 56.742 58.2061 52.877 58.2061Z" stroke="#FF4B19" stroke-width="1.5" stroke-linecap="round" stroke-linejoin="round"/>
<path fill-rule="evenodd" clip-rule="evenodd" d="M52.8776 54.886C55.4006 54.886 57.4456 52.841 57.4456 50.318C57.4456 47.795 55.4006 45.75 52.8776 45.75C50.3556 45.75 48.3106 47.795 48.3106 50.318C48.3016 52.832 50.3316 54.877 52.8466 54.886H52.8776Z" stroke="#FF4B19" stroke-width="1.5" stroke-linecap="round" stroke-linejoin="round"/>
<path d="M62.2031 51.6689V55.6789" stroke="#FF4B19" stroke-width="1.5" stroke-linecap="round" stroke-linejoin="round"/>
<path d="M64.2502 53.6738H60.1602" stroke="#FF4B19" stroke-width="1.5" stroke-linecap="round" stroke-linejoin="round"/>
<defs>
<linearGradient id="paint0_linear_89_229" x1="286.717" y1="8.88883e-06" x2="30.3829" y2="158.986" gradientUnits="userSpaceOnUse">
<stop stop-color="#FF4B19"/>
<stop offset="1" stop-color="#F27525"/>
</linearGradient>
</defs>
</svg>
