<svg width="309" height="110" viewBox="0 0 309 110" fill="none" xmlns="http://www.w3.org/2000/svg">
<rect width="309" height="110" rx="55" fill="url(#paint0_linear_89_230)"/>
<path d="M96.44 54.528C96.44 52.752 96.752 51.216 97.376 49.92C98 48.624 98.896 47.624 100.064 46.92C101.248 46.216 102.656 45.864 104.288 45.864C105.904 45.864 107.296 46.216 108.464 46.92C109.648 47.624 110.56 48.624 111.2 49.92C111.84 51.216 112.16 52.744 112.16 54.504C112.16 56.28 111.84 57.824 111.2 59.136C110.56 60.432 109.648 61.44 108.464 62.16C107.296 62.864 105.904 63.216 104.288 63.216C102.656 63.216 101.256 62.864 100.088 62.16C98.92 61.44 98.016 60.432 97.376 59.136C96.752 57.824 96.44 56.288 96.44 54.528ZM98.792 54.528C98.792 56.64 99.256 58.288 100.184 59.472C101.112 60.656 102.48 61.248 104.288 61.248C106.032 61.248 107.384 60.664 108.344 59.496C109.32 58.312 109.808 56.656 109.808 54.528C109.808 52.4 109.328 50.752 108.368 49.584C107.408 48.416 106.048 47.832 104.288 47.832C102.48 47.832 101.112 48.416 100.184 49.584C99.256 50.752 98.792 52.4 98.792 54.528ZM118.097 63V52.68H113.753V50.928H124.601V52.68H120.257V63H118.097ZM125.226 66.12V61.296H126.546C127.09 60.48 127.482 59.52 127.722 58.416C127.978 57.312 128.106 56 128.106 54.48V50.928H136.77V61.296H138.69V66.12H136.818V63H127.122V66.12H125.226ZM128.61 61.32H134.73V52.608H130.026V54.864C130.026 56.08 129.906 57.264 129.666 58.416C129.426 59.552 129.074 60.52 128.61 61.32ZM141.216 63V50.928H143.376V55.2H146.928C148.496 55.2 149.672 55.536 150.456 56.208C151.256 56.864 151.656 57.816 151.656 59.064C151.656 59.864 151.472 60.56 151.104 61.152C150.736 61.744 150.2 62.2 149.496 62.52C148.792 62.84 147.936 63 146.928 63H141.216ZM143.376 61.488H146.688C147.648 61.488 148.368 61.296 148.848 60.912C149.344 60.512 149.592 59.904 149.592 59.088C149.592 58.272 149.344 57.672 148.848 57.288C148.368 56.904 147.648 56.712 146.688 56.712H143.376V61.488ZM153.408 63V50.928H155.568V63H153.408ZM157.702 63L163.174 56.232V57.312L158.014 50.928H160.63L164.398 55.752H163.605L167.374 50.928H169.966L164.878 57.264V56.28L170.278 63H167.638L163.605 57.84H164.398L160.318 63H157.702ZM184.066 63.216C182.866 63.216 181.826 62.968 180.946 62.472C180.066 61.96 179.378 61.232 178.882 60.288C178.402 59.328 178.162 58.192 178.162 56.88C178.162 55.584 178.41 54.48 178.906 53.568C179.402 52.64 180.09 51.936 180.97 51.456C181.85 50.96 182.882 50.712 184.066 50.712C184.85 50.712 185.61 50.848 186.346 51.12C187.082 51.376 187.682 51.752 188.146 52.248L187.402 53.784C186.938 53.336 186.426 53.008 185.866 52.8C185.306 52.576 184.754 52.464 184.21 52.464C183.026 52.464 182.098 52.848 181.426 53.616C180.754 54.368 180.418 55.464 180.418 56.904C180.418 58.36 180.754 59.48 181.426 60.264C182.098 61.048 183.026 61.44 184.21 61.44C184.738 61.44 185.282 61.336 185.842 61.128C186.402 60.92 186.922 60.592 187.402 60.144L188.146 61.656C187.666 62.168 187.05 62.56 186.298 62.832C185.562 63.088 184.818 63.216 184.066 63.216ZM202.581 63.216C201.381 63.216 200.341 62.968 199.461 62.472C198.581 61.96 197.893 61.232 197.397 60.288C196.917 59.328 196.677 58.192 196.677 56.88C196.677 55.584 196.925 54.48 197.421 53.568C197.917 52.64 198.605 51.936 199.485 51.456C200.365 50.96 201.397 50.712 202.581 50.712C203.365 50.712 204.125 50.848 204.861 51.12C205.597 51.376 206.197 51.752 206.661 52.248L205.917 53.784C205.453 53.336 204.941 53.008 204.381 52.8C203.821 52.576 203.269 52.464 202.725 52.464C201.541 52.464 200.613 52.848 199.941 53.616C199.269 54.368 198.933 55.464 198.933 56.904C198.933 58.36 199.269 59.48 199.941 60.264C200.613 61.048 201.541 61.44 202.725 61.44C203.253 61.44 203.797 61.336 204.357 61.128C204.917 60.92 205.437 60.592 205.917 60.144L206.661 61.656C206.181 62.168 205.565 62.56 204.813 62.832C204.077 63.088 203.333 63.216 202.581 63.216ZM215.081 63.216C213.161 63.216 211.641 62.664 210.521 61.56C209.417 60.456 208.865 58.936 208.865 57C208.865 55.72 209.105 54.616 209.585 53.688C210.081 52.744 210.761 52.016 211.625 51.504C212.489 50.976 213.497 50.712 214.649 50.712C215.753 50.712 216.689 50.952 217.457 51.432C218.225 51.896 218.809 52.56 219.209 53.424C219.609 54.288 219.809 55.312 219.809 56.496V57.216H210.569V55.92H218.321L217.913 56.232C217.913 54.984 217.633 54.016 217.073 53.328C216.529 52.64 215.721 52.296 214.649 52.296C213.481 52.296 212.577 52.704 211.937 53.52C211.297 54.32 210.977 55.416 210.977 56.808V57.024C210.977 58.496 211.337 59.608 212.057 60.36C212.793 61.112 213.809 61.488 215.105 61.488C215.825 61.488 216.497 61.384 217.121 61.176C217.745 60.968 218.345 60.624 218.921 60.144L219.641 61.656C219.097 62.152 218.417 62.536 217.601 62.808C216.801 63.08 215.961 63.216 215.081 63.216ZM222.849 63V50.928H224.673L229.113 58.824L233.577 50.928H235.377V63H233.457V53.376H233.985L229.665 61.056H228.585L224.265 53.352H224.769V63H222.849ZM239.114 63V50.928H241.274V55.2H244.826C246.394 55.2 247.57 55.536 248.354 56.208C249.154 56.864 249.554 57.816 249.554 59.064C249.554 59.864 249.37 60.56 249.002 61.152C248.634 61.744 248.098 62.2 247.394 62.52C246.69 62.84 245.834 63 244.826 63H239.114ZM241.274 61.488H244.586C245.53 61.488 246.25 61.296 246.746 60.912C247.242 60.512 247.49 59.904 247.49 59.088C247.49 58.272 247.242 57.672 246.746 57.288C246.266 56.904 245.546 56.712 244.586 56.712H241.274V61.488ZM257.924 63.216C256.004 63.216 254.484 62.664 253.364 61.56C252.26 60.456 251.708 58.936 251.708 57C251.708 55.72 251.948 54.616 252.428 53.688C252.924 52.744 253.604 52.016 254.468 51.504C255.332 50.976 256.34 50.712 257.492 50.712C258.596 50.712 259.532 50.952 260.3 51.432C261.068 51.896 261.652 52.56 262.052 53.424C262.452 54.288 262.652 55.312 262.652 56.496V57.216H253.412V55.92H261.164L260.756 56.232C260.756 54.984 260.476 54.016 259.916 53.328C259.372 52.64 258.564 52.296 257.492 52.296C256.324 52.296 255.42 52.704 254.78 53.52C254.14 54.32 253.82 55.416 253.82 56.808V57.024C253.82 58.496 254.18 59.608 254.9 60.36C255.636 61.112 256.652 61.488 257.948 61.488C258.668 61.488 259.34 61.384 259.964 61.176C260.588 60.968 261.188 60.624 261.764 60.144L262.484 61.656C261.94 62.152 261.26 62.536 260.444 62.808C259.644 63.08 258.804 63.216 257.924 63.216ZM265.692 63V50.928H267.684V60.936H267.036L274.524 50.928H276.348V63H274.356V52.968H275.028L267.516 63H265.692ZM271.02 49.824C270.332 49.824 269.7 49.704 269.124 49.464C268.548 49.224 268.052 48.88 267.636 48.432C267.236 47.968 266.932 47.392 266.724 46.704L267.972 46.248C268.26 47.016 268.652 47.584 269.148 47.952C269.644 48.304 270.268 48.48 271.02 48.48C271.788 48.48 272.42 48.312 272.916 47.976C273.412 47.64 273.844 47.072 274.212 46.272L275.388 46.704C274.988 47.792 274.404 48.584 273.636 49.08C272.884 49.576 272.012 49.824 271.02 49.824Z" fill="white"/>
<rect x="30" y="30" width="50" height="50" rx="25" fill="white"/>
<path d="M60.8887 53.8967C62.2837 53.7007 63.3577 52.5047 63.3607 51.0557C63.3607 49.6277 62.3197 48.4437 60.9547 48.2197" stroke="#FF4B19" stroke-width="1.5" stroke-linecap="round" stroke-linejoin="round"/>
<path d="M62.7285 57.25C64.0795 57.452 65.0225 57.925 65.0225 58.9C65.0225 59.571 64.5785 60.007 63.8605 60.281" stroke="#FF4B19" stroke-width="1.5" stroke-linecap="round" stroke-linejoin="round"/>
<path fill-rule="evenodd" clip-rule="evenodd" d="M54.8867 57.6641C51.6727 57.6641 48.9277 58.1511 48.9277 60.0961C48.9277 62.0401 51.6557 62.5411 54.8867 62.5411C58.1007 62.5411 60.8447 62.0591 60.8447 60.1131C60.8447 58.1671 58.1177 57.6641 54.8867 57.6641Z" stroke="#FF4B19" stroke-width="1.5" stroke-linecap="round" stroke-linejoin="round"/>
<path fill-rule="evenodd" clip-rule="evenodd" d="M54.8874 54.888C56.9964 54.888 58.7064 53.179 58.7064 51.069C58.7064 48.96 56.9964 47.25 54.8874 47.25C52.7784 47.25 51.0684 48.96 51.0684 51.069C51.0604 53.171 52.7574 54.881 54.8594 54.888H54.8874Z" stroke="#FF4B19" stroke-width="1.5" stroke-linecap="round" stroke-linejoin="round"/>
<path d="M48.8841 53.8967C47.4881 53.7007 46.4151 52.5047 46.4121 51.0557C46.4121 49.6277 47.4531 48.4437 48.8181 48.2197" stroke="#FF4B19" stroke-width="1.5" stroke-linecap="round" stroke-linejoin="round"/>
<path d="M47.044 57.25C45.693 57.452 44.75 57.925 44.75 58.9C44.75 59.571 45.194 60.007 45.912 60.281" stroke="#FF4B19" stroke-width="1.5" stroke-linecap="round" stroke-linejoin="round"/>
<defs>
<linearGradient id="paint0_linear_89_230" x1="333.241" y1="-26.3542" x2="20.2733" y2="146.67" gradientUnits="userSpaceOnUse">
<stop stop-color="#F27525"/>
<stop offset="1" stop-color="#FF4B19"/>
</linearGradient>
</defs>
</svg>
