<svg width="37" height="36" viewBox="0 0 37 36" fill="none" xmlns="http://www.w3.org/2000/svg">
<path d="M16.6553 1.4044C17.3407 -0.232078 19.6593 -0.232078 20.3447 1.4044L24.0085 10.1518C24.2968 10.8403 24.9446 11.3109 25.6884 11.3724L35.1399 12.1537C36.9081 12.2999 37.6246 14.505 36.28 15.6626L29.0929 21.8501C28.5272 22.3371 28.2798 23.0986 28.4512 23.825L30.6287 33.0553C31.0361 34.7822 29.1603 36.145 27.6439 35.2239L19.5383 30.3006C18.9003 29.9132 18.0997 29.9132 17.4617 30.3006L9.35609 35.224C7.83968 36.145 5.96387 34.7822 6.37126 33.0553L8.54883 23.825C8.72021 23.0986 8.4728 22.3371 7.90714 21.8501L0.720008 15.6626C-0.624568 14.505 0.0919256 12.2999 1.86011 12.1537L11.3116 11.3724C12.0554 11.3109 12.7032 10.8403 12.9915 10.1518L16.6553 1.4044Z" fill="url(#paint0_linear_4_230)"/>
<defs>
<linearGradient id="paint0_linear_4_230" x1="12.5" y1="12.5" x2="14" y2="11" gradientUnits="userSpaceOnUse">
<stop offset="0.395" stop-color="#FF4B19"/>
<stop offset="0.4299" stop-color="#FF5D30"/>
</linearGradient>
</defs>
</svg>
