<svg width="40" height="50" viewBox="0 0 40 50" fill="none" xmlns="http://www.w3.org/2000/svg">
<g clip-path="url(#clip0_89_389)">
<rect x="11.3203" y="12.6138" width="17.3843" height="21.9727" fill="white"/>
<path fill-rule="evenodd" clip-rule="evenodd" d="M25.6678 1.10266C30.3534 -1.35503 36.1549 0.43534 38.6211 5.10249C41.0872 9.76965 39.2881 15.5436 34.6025 18.0013L30.7496 20.0398C34.0688 20.1619 37.2344 21.997 38.8919 25.1342C41.3581 29.8014 39.563 35.5753 34.8733 38.033L14.3276 48.8973C9.64188 51.3549 3.84039 49.5646 1.37425 44.8974C-1.09189 40.2303 0.707178 34.4563 5.39285 31.9987L9.24569 29.9601C5.9265 29.838 2.76095 28.0029 1.10338 24.8657C-1.36276 20.1985 0.436307 14.4246 5.12197 11.9669L25.6678 1.10266ZM14.5782 17.3055L27.014 25.0325L14.5782 32.7229V17.3055Z" fill="#F40407"/>
</g>
<defs>
<clipPath id="clip0_89_389">
<rect width="40" height="50" fill="white"/>
</clipPath>
</defs>
</svg>
