<svg width="24" height="24" viewBox="0 0 24 24" fill="none" xmlns="http://www.w3.org/2000/svg">
<path fill-rule="evenodd" clip-rule="evenodd" d="M9.877 15.2061C6.033 15.2061 2.75 15.7871 2.75 18.1151C2.75 20.4431 6.013 21.0451 9.877 21.0451C13.722 21.0451 17.004 20.4631 17.004 18.1361C17.004 15.8091 13.742 15.2061 9.877 15.2061Z" stroke="#FF4B19" stroke-width="1.5" stroke-linecap="round" stroke-linejoin="round"/>
<path fill-rule="evenodd" clip-rule="evenodd" d="M9.87758 11.886C12.4006 11.886 14.4456 9.841 14.4456 7.318C14.4456 4.795 12.4006 2.75 9.87758 2.75C7.35558 2.75 5.31058 4.795 5.31058 7.318C5.30158 9.832 7.33158 11.877 9.84658 11.886H9.87758Z" stroke="#FF4B19" stroke-width="1.5" stroke-linecap="round" stroke-linejoin="round"/>
<path d="M19.2031 8.66895V12.6789" stroke="#FF4B19" stroke-width="1.5" stroke-linecap="round" stroke-linejoin="round"/>
<path d="M21.2502 10.6738H17.1602" stroke="#FF4B19" stroke-width="1.5" stroke-linecap="round" stroke-linejoin="round"/>
</svg>
