<svg width="22" height="22" viewBox="0 0 22 22" fill="none" xmlns="http://www.w3.org/2000/svg">
<g clip-path="url(#clip0_89_225)">
<path d="M21.999 8.63497C21.9995 8.33631 21.9209 8.04284 21.7711 7.78442C21.6214 7.526 21.4059 7.31184 21.1465 7.16372L11.879 1.66372C11.6119 1.50789 11.3083 1.42578 10.999 1.42578C10.6898 1.42578 10.3861 1.50789 10.119 1.66372L0.837776 7.16372C0.5813 7.31591 0.368835 7.53221 0.221264 7.79137C0.0736927 8.05052 -0.00390625 8.34362 -0.00390625 8.64185C-0.00390625 8.94008 0.0736927 9.23317 0.221264 9.49233C0.368835 9.75149 0.5813 9.96779 0.837776 10.12L3.47778 11.66V15.5237C3.47936 15.8257 3.55862 16.1222 3.70792 16.3846C3.85722 16.6471 4.07154 16.8668 4.33028 17.0225L10.174 20.3912C10.4349 20.5357 10.7283 20.6115 11.0265 20.6115C11.3248 20.6115 11.6181 20.5357 11.879 20.3912L17.7228 17.0225C17.9815 16.8668 18.1958 16.6471 18.3451 16.3846C18.4944 16.1222 18.5737 15.8257 18.5753 15.5237V11.6187L20.2803 10.615V14.355H21.999V8.63497ZM16.8703 15.51L10.999 18.8925L5.19653 15.5237V12.6775L10.119 15.6062C10.387 15.7594 10.6904 15.8399 10.999 15.8399C11.3077 15.8399 11.611 15.7594 11.879 15.6062L16.8565 12.6362L16.8703 15.51ZM10.999 14.1212L1.71778 8.62122L10.999 3.10747L20.2803 8.60747L10.999 14.1212Z" fill="#FF4B19"/>
</g>
<defs>
<clipPath id="clip0_89_225">
<rect width="22" height="22" fill="white"/>
</clipPath>
</defs>
</svg>
