<?xml version="1.0" encoding="UTF-8"?>
<svg id="Layer_1" xmlns="http://www.w3.org/2000/svg" viewBox="0 0 566.93 425.2">
  <defs>
    <style>
      .cls-1 {
        fill: #231f20;
      }
    </style>
  </defs>
  <path class="cls-1" d="M244.57,146.22c-.21.33-.41.64-.6.91-.55.79-2.2,1.5-3.31,1.91-2.15,9.52-4.32,20.09-7.32,35.49,1.31-.41,2.65-.83,3.94-1.23,2.98-15.88,5.07-26.7,7.29-37.08M252.65,101.82c-3.56,13.42-6.12,23.03-8.31,31.77,1.31-1.54,2.78-3.29,4.26-5.13,1.66-6.96,3.6-14.74,6.04-24.4-.57-.73-1.23-1.48-1.99-2.24M259.2,84.42c-.72.1-2.33,1.47-2.61,2.53-.94,3.54-1.81,6.86-2.64,9.97.74.05,1.56.12,2.45.21.96-3.79,2-7.84,3.12-12.22.1-.4-.04-.53-.31-.5M183.85,164.14h0c-.43,2.71-.86,6-.87,6.08h.08c1.36-.2,2.49-2.75,4.1-5.17l1.1-.31s-.2,4.59-2.39,11.56c0,0-.07.98,1.03,1.22,1.19.25,1.67,4.96.34,6.42,0,0-.1.68-1.45.87-.43.06-.99.07-1.72,0,0,0-1.75-2.7-1.78-4.87,0,0-.08-9.86.07-14.08.33-.47,1.16-1.34,1.42-1.67l.07-.05M195.77,177.55c.45-.04.89-.08,1.31-.11-.22.24-.45.5-.5.58,6.13-.45,7.19.62,13.32.17.07-.14.13-.31.2-.48l-4.92-.7c.12-.03.24-.06.36-.09,1.16-.09,2.46-.2,3.97-.34l.85.17c.13-.02-.83,3.58-1.05,5h-.02c-.65.09.28,10.36-1.38,17.62,0,0-1.07,6.18-2.15,10.09-1.07,3.89-3.31,18.95-3.31,18.95l-3.14.66s-.98-20.36.4-23.61c.65-1.52.83-12.75.83-12.75l-3.11,1.59s-5.33,10.37-9,18.03l-1.64,2.91-5.3,13.16c-1.79.26-3.59.57-5.4.95.71-5.01,2.18-12.59,4.83-16.31,0,0,3.07-13.58,5.49-17.2,0,0,7.09-14.28,9.38-18.29M219.37,150.84l-.03.03c-3.68,3.16-2.27,3.21-2.1,7.48-.08.12-.16.25-.24.37,1.95.68,4.83,1.04,7.12.93l.11-.12-.05.03c0-2.03.94-4.71.77-6.78-1.45-.46-2.95-1.05-4.36-1.87-.14-.01-1.02-.1-1.21-.07M219.05,150.05c.33.16.66.34.97.52-.24-.15-.48-.32-.72-.49-.01,0-.11-.02-.26-.03M241.55,142.31c.78.67,1.84,1.46,3.29,2.37.15.09.31.18.47.26-.23.43-.49.87-.74,1.28-.21.33-.41.64-.6.91-.55.79-2.2,1.5-3.31,1.91-.62.22-1.06.36-1.06.36,0,0-9.02,5.83-12.34,8.08-.82.56-2.26,1.67-3.02,2.07l-.05.03c0-2.03.94-4.71.77-6.78-.03-.38-.1-.74-.22-1.07l.29-.19c3-1.89,12.24-3.93,12.24-3.93,0,0,.07,0,.19-.01.37-.05,1.18-.3,1.57-1.49.66-2.04,2.25-3.53,2.54-3.79M193.04,148.54h.08s-.01,0-.01,0h-.02s-.04,0-.04,0M199.3,147.12c.32-.05.63-.08.92-.11,5.03-.37,12.89.09,18.82,3.04.33.16.66.34.97.52.19.11.39.22.58.34h-.02c-.14-.02-1.02-.1-1.21-.07l-.03.03c-3.68,3.16-2.27,3.21-2.1,7.48-.08.12-.16.25-.24.37-1.07,1.68-1.82,3.18-3.82,5.55,0,0-1.9,7.63-3.27,11.53-.89.25-2.32.62-4.37,1.13-.12.03-.24.06-.36.09l4.92.7c-.07.17-.13.33-.2.48-6.13.45-7.19-.63-13.32-.17.05-.08.28-.34.5-.58.19-.21.38-.42.43-.48,0,0-4.1-11.45-2.44-19.82,0,0,.35-.9-.63-.76l-.11.02s-2.26,2.85-5.18,6.19c-.75.73-1.4,1.59-1.99,2.47-1.61,2.42-2.74,4.97-4.1,5.16h-.08c0-.07.45-3.36.87-6.07.09-.58.18-1.14.27-1.63.16-.89,6.38-13.61,8.93-13.97h.02s0,0,0,0h.01s.01,0,.01,0c.19-.04,1.05-.29,2.18-.58,1.2-.31,2.7-.65,4.01-.84M249.05,96.85s1.82-.13,4.9.08c.74.05,1.56.12,2.45.21,7.54.81,19.82,3.51,31.74,12.15,0,0-1.64,8.95-3.82,12.35,0,0-.32,3.04,1.93,4.41l1.17-7.94s4.18-2.28,9.68-3.06c5.9-.84,13.32.06,18.69,7.39,0,0-2.91,12.4-2.73,16.19,0,0,.68,1.81,1.89,2.6l.48-5.11s10.07,1.42,12.58,5.36l-.56,2.54s9.31,1.41,14.07.97c-.12.48-.33.93-.58,1.37-3.61,2.58-11.59,7.47-21.87,8.93-3.31.47-6.85.58-10.57.15l2.73-6.2s-.79.15-2.25.36c-3.86.55-12.39,1.47-23.21.89-14.91-.79-12.18-1.72-12.18-1.72l.36-7.32s-8.73,2.77-16.88,3.93c-4.7.67-9.2.8-11.74-.45-.17-.08-.32-.17-.47-.26-1.45-.91-2.51-1.69-3.29-2.37-2.64-2.28-1.99-3.24-1.99-3.24,0,0,2.03-2.25,4.78-5.47,1.31-1.54,2.78-3.29,4.26-5.13,4.34-5.38,8.83-11.46,9.89-14.78,0,0,.2-4.43-3.85-9.62-.57-.73-1.23-1.48-1.99-2.24-1.1-1.1-2.41-2.2-3.97-3.29l.37-1.68M210.99,131.69c1.25-.18,2.82.01,3.91,1.59,0,0,.63,3.82-.1,7.13,0,0-.78,3.73-3.05,5.06h-.02c-.3.05-3.66.47-5.56-1.76,0,0-1.27-5.5-1.09-7.59,0,0,1.28-1.93,3.91-3.81,0,0,.87-.47,2-.63"/>
  <g>
    <path class="cls-1" d="M275.57,196.69c-3.07,3.21-5.73,6.51-8.14,10.13,3.04-.66,5.21-1.18,8.13-1.82,0-2.84,0-5.4,0-8.31Z"/>
    <polygon class="cls-1" points="253.15 230.54 253.22 230.46 253.22 230.46 253.15 230.48 253.15 230.49 253.15 230.54"/>
    <path class="cls-1" d="M445.44,199.71l.63-2.67c.82-3.45,2.43-8.18,3.37-9.35l2.12-2.64-2.64-5.32-3.17.45c-.95.14-1.59.23-17.49,7.89l-2.67,1.29-.64,3.33-14.75,6.01,1.33,6.32c-2.51.66-4.16,1.14-5.75,1.61-1.29.38-2.55.75-4.27,1.21l-.16.05,2.18-5.97-8.46,2.62c-3.27,1.01-6.26,2.29-9.13,3.89l-12.67-2.28-.41,1.17-6.71,1.18c-3.03.53-5.9,1.35-8.6,2.22l-.31-1.01-10.47,1.87,5.66-3.34-5.92-4.06c-4.57-3.15-8.12-7.1-11.02-10.94.63-.52,1.24-1.03,1.88-1.54,1.94-1.56,3.89-3.11,5.85-4.65,1.32-1.03,2.64-2.04,3.99-3.08l9.3-7.16-18.61-6.2-2.32,1.8c-.53.42-1.09.85-1.66,1.3l.05-.15-5.79-.09c-.44,0-.94.02-1.49.1-1.89.27-5,1.13-7.78,2.11l-.22-.55-3.17.25c-1.71.13-3.44.32-5.19.56-7.3,1.04-14.86,3.09-22.98,6.22l-.22-1.32-4.53,1c-1.26.28-2.51.54-3.76.8-1.65.35-3.31.69-4.97,1.07l-3.07.7c-.14-.71-.31-1.43-.52-2.14l-.99-3.31-3.66.46c-.61.08-1.37.19-2.24.31-4.73.67-13.14,2.01-16.65,2.79l-2.42.53-.88,1.46c-5.53,1.55-14.72,4.52-18.98,5.9l-7.24,2.34,3.61,5.44c1.61,2.4,4.79,2.68,8.22,2.9-.3.76-.59,1.52-.88,2.28-2.63,6.92-4.2,12.31-5.1,17.46-.29,1.66-.56,3.46-.62,5.43l-.04,1.6c-2.15.6-4.22,1.3-6.3,2.06l-2.74.97-.74,2.33c-2.53.67-4.17,1.15-5.77,1.62-1.29.38-2.56.75-4.28,1.21l-.16.05,2.18-5.97-8.45,2.61c-1.64.5-3.2,1.08-4.71,1.72-.08-.44-.18-.83-.31-1.16l-1.11-2.75-3.17.24c-1.7.12-3.42.31-5.15.56-4.8.68-9.72,1.8-14.83,3.38-.05-.21-.09-.41-.15-.61l-.99-3.31-3.66.46c-.61.08-1.37.19-2.24.31-4.73.67-13.14,2.01-16.65,2.79l-2.43.53-.87,1.45c-5.86,1.62-15.64,4.72-19.07,5.82l-6.94,2.25,3.61,5.44c1.59,2.37,4.7,2.7,8.05,2.99-.31.79-.62,1.58-.92,2.38-2.63,6.92-4.2,12.31-5.1,17.46-.28,1.57-.56,3.44-.62,5.43l-.16,5.72,5.76-1.61c3.6-1.02,6.91-2.12,10.11-3.39l.52-.2-1.16,6.19,6.61-1.66c2.23-.56,4.57-1.21,6.92-2.04l-.22,1.47,6.46-1.76c3.4-.92,6.77-2.03,10.31-3.39l3.39-1.31.32-3.45c.35-3.8,1.04-7.66,2.09-11.68l2.11,1.2,2.31-1c.41-.18.85-.41,1.29-.64-.82,3.38-1.57,6.93-2.27,10.76l-1.33,7.29,7.2-2.54c1.26-.45,7.18-2.7,8.47-3.21l1.59-.63,1.02-1.4s1.25-1.7,3.17-4.18l-.56,1.93,3.1,5.01,9.34-3.59,14.54-1.07,2.28-7.58c1.66,2.56,3.39,4.76,5.24,6.7.63.65,1.29,1.28,1.95,1.9l3.23,3.08,5.5-3.24,3.66-2.16,7.87-4.63c.04.25.08.48.12.69l1.23,5.96,9.41-5.81,11.1-2.75.83-3.39c.08-.34.18-.72.28-1.13,1.63,1.81,3.73,3.04,6.23,3.64,1.85.44,3.84.52,5.9.23.85-.12,1.73-.3,2.62-.55,2.98-.82,5.78-2.26,8.32-4.28,2.31-1.84,4.33-4.08,6.11-6.75.75.05,1.58.03,2.54-.11,1.24-.18,2.6-.49,4.02-.88-.44,1.61-.86,3.28-1.2,5.06l-1.23,6.57,6.6-1.65c3.28-.83,6.79-1.8,10.22-3.35l2.76-1.25.2-1c.84.51,1.78.92,2.8,1.21,1.81.52,3.82.68,5.94.48.46-.04.92-.09,1.38-.16,1.8-.25,3.61-.69,5.43-1.31l-.21.82,18.29-4.36,1.05-3.02c.18-.5.34-.99.5-1.47.31-.92.6-1.8.95-2.67.4-1,.84-1.76,1.29-2.36-.44,1.64-.87,3.34-1.21,5.15l-1.23,6.57,6.6-1.65c1.32-.33,2.69-.71,4.07-1.11l-.37,2.01,7.2-2.54c.68-.24,6.72-2.51,8.47-3.21l1.58-.63,1.02-1.4s1.25-1.71,3.18-4.18l-.56,1.93,3.1,5.02,6.23-2.4-.59,3.21,7.2-2.54c3.24-1.15,6.23-2.32,8.47-3.21l1.59-.63,1.02-1.4s1.25-1.71,3.18-4.18l-.57,1.93,3.08,5.03,14.53-5.59.69-2.96c2.01-8.69,5.08-17.3,9.37-26.35l4.02-8.49-7.62,1.92ZM430.02,195.49l.7-3.56s15.12-7.29,15.87-7.39l.02.02c-2.47,3.06-4.47,11.59-4.47,11.59l-25.04,6.35-.33-1.59,13.26-5.4ZM318.71,180.55c2.73-1.14,6.86-2.37,8.82-2.64.28-.04.52-.06.71-.06-1.4,4.11-2.79,8.21-4.25,12.53,2.56-2.19,4.91-4.22,7.32-6.28-.16-.51-.33-1.04-.52-1.63,2.65-2.41,5.42-4.64,8.3-6.86,2.69.9,5.39,1.8,8.23,2.74-2.04,1.58-4,3.06-5.94,4.58-1.99,1.55-3.97,3.12-5.93,4.71-1.93,1.56-3.83,3.16-5.79,4.78,4.05,5.88,8.51,11.3,14.52,15.42-3,1.77-5.88,3.47-8.81,5.2-5.8-4.9-9.43-11.38-12.64-18.18l-.24.03c-1.55,5.15-3.1,10.3-4.67,15.54-2.62.2-5.26.39-8,.59,2.77-10.28,5.69-20.4,8.9-30.45ZM330.18,216.6l-9.49-1.7,2.11-7.02c2.04,3.13,4.45,6.09,7.38,8.73ZM318.14,215.63l-.02.05-6.72,1.18c-3.04.53-5.09,1.24-7.46,2.05-.5.17-1.04.35-1.61.54l-1.96.66c-.82-.45-1.69-.82-2.65-1.08-.48-.13-.95-.23-1.44-.31l.13-1.43c.35-3.8.1-3.51,1.15-7.54l2.11,1.2,2.31-1c.97-.42,2.06-1.03,3.18-1.73-.62,2.23-.3.35-.93,2.67l-1.59,5.89,15.49-1.13ZM275.26,190.58c-.04-.87-.08-1.66-.13-2.59,2.9-.65,5.76-1.22,8.69-1.87.07.41.18.79.19,1.17.08,1.76.17,3.52.21,5.28.09,3.9.1,7.82.23,11.71.07,1.79.14,3.59.44,5.33.89-3.19,1.94-6.36,3.07-9.52.96-2.66,2-5.3,3-7.95.08-.21.15-.42.23-.64-1.3-1.47-2.6-2.92-3.98-4.47,7.91-3.21,15.84-5.6,23.91-6.74,1.63-.23,3.27-.41,4.92-.54.6,1.48-1.17,11.46-2.07,14.05-3.57,3.86-9.62,8.58-12.82,9.96-1.54-.87-3.12-1.77-4.81-2.73.38-.28.66-.49.95-.69,2.75-1.87,5.44-3.82,7.89-6.1.37-.34.71-.7,1.06-1.06,0-1.13,1.22-5.07,1.22-6.28-2.54.55-5.01,1.26-7.51,2.16-3.86,9.16-6.72,18.41-7.61,28-3.19,1.23-6.39,2.3-9.76,3.21.13-.83.21-1.54.34-2.25.16-.89.34-1.77.53-2.66-1.98,1.23-4,2.48-6.08,3.76-1.08-3.21-1.34-6.62-1.66-10-2.15.72-3.93,1.28-6.82,2.29-1.88.65-3.15.77-4.24,2.9-.96,1.89-2.37,4.26-3.42,6.98-1.99-.94-3.97-1.88-5.95-2.82-.35,1.5-.68,3.01-.99,4.53-2.96,1.34-6.03,2.21-9.27,3.02.44-2.37,1.09-4.61,1.7-6.86.62-2.27,1.26-4.53,1.92-6.91l.36-1.79c1.94-5.83,3.66-11.68,5.68-17.49,2.54.46,5.03.91,7.61,1.38-2.24,6.83-4.39,13.66-6.15,20.58.29-.45.59-.91.89-1.36.97-1.44,1.99-2.84,3.02-4.3-.28-.43-.56-.87-.9-1.4,4.39-6.58,10.05-12.08,16.1-17.33ZM271.87,221.77c-1.74.47-3.55,1.03-5.39,1.75l-1.29.5-.11-.68-.31.07.19-.5c.65-1.71,1.5-3.28,2.31-4.8.23-.44.46-.86.69-1.29l.23-.08c.28-.09.58-.18.89-.29.53-.18,1.01-.35,1.48-.52.27,1.91.65,3.84,1.3,5.76l.02.07ZM228.76,220.51c.98-5.6,2.77-11.08,4.84-16.51.83-2.19,1.71-4.37,2.57-6.56.07-.18.13-.37.2-.6-4.1.03-5.24.38-7.9.38-2.15,0-2.06-1.84-2.56-2.58,4.69-1.52,16.6-5.38,21.28-6.53.26-.43.51-.87.79-1.34,3.28-.72,11.43-2.02,16.23-2.7.85-.12,1.59-.22,2.18-.3.66,2.2.85,4.51,1.13,6.89-1.02.14-2.3.31-3.73.51-5.9.84-14.41,2.14-18.59,3.11-.6.98-6.59,15.64-7.42,27.73-3.17,1.25-6.31,2.28-9.58,3.2.05-1.61.28-3.17.55-4.71ZM150.13,274.98c-2.96,1.34-6.03,2.21-9.28,3.02.44-2.37,1.1-4.61,1.71-6.86.61-2.27,1.26-4.53,1.92-6.91l.36-1.79c1.93-5.83,3.66-11.68,5.68-17.48,2.54.45,5.03.9,7.61,1.37-3.11,9.47-6.03,18.94-8,28.65ZM173.7,256.33c-1.54-.87-3.12-1.77-4.81-2.72.38-.29.66-.5.95-.7,2.75-1.87,5.45-3.82,7.89-6.1.37-.34.71-.7,1.06-1.06,0-1.13,0-2.21,0-3.42-2.53.55-5.01,1.26-7.51,2.16-3.86,9.15-6.72,18.4-7.61,27.99-3.19,1.23-6.39,2.3-9.76,3.22.13-.84.21-1.54.34-2.26,1.09-6.05,2.9-12.01,5.03-17.92.95-2.66,2-5.3,2.99-7.95.08-.21.15-.43.23-.65-1.09-1.23-2.19-2.46-3.33-3.73-5.82.84-13.61,2.05-17.55,2.96-.6.98-6.59,15.64-7.42,27.73-3.16,1.25-6.31,2.28-9.58,3.21.05-1.62.28-3.18.55-4.72.98-5.6,2.77-11.08,4.84-16.51.83-2.19,1.71-4.37,2.57-6.56.07-.18.13-.37.2-.6-2.2-.05-4.84.05-7.14.09-2.34.06-2.56-1.66-3.1-2.48,4.69-1.52,16.39-5.2,21.06-6.34.26-.43.51-.87.79-1.34,3.28-.72,11.43-2.02,16.23-2.7.85-.12,1.59-.22,2.18-.3.47,1.56.7,3.18.9,4.84,6.2-2.21,12.42-3.87,18.73-4.76,1.63-.23,3.27-.41,4.92-.54.6,1.48.05,8.59-.85,11.18-3.57,3.86-9.62,8.58-12.82,9.96ZM199.22,267.23c-.08-.14-.18-.28-.26-.41,0,0,3.23-11.12,3.92-13.66l1.76-5.84c-8.59,8.47-17.42,20.6-17.42,20.6-2.69,1.08-5.4,2.12-8.26,3.13,1.41-7.71,3.19-15.23,5.73-22.71.61-.09,1.17-.17,1.82-.26,1.04-2.55,2.07-5.07,3.14-7.67,2.58-1.45,5.29-2.6,8.18-3.49l-4.93,13.46c-.54,1.42-1.71,4.33-2.23,5.7,8.12-10.64,11.31-13.42,13.3-15.57l.08-.23c4.55-1.22,5.96-1.81,12.89-3.56-4.23,8.93-7.56,18-9.75,27.45-2.59.99-5.22,2-7.96,3.06ZM367.47,244.33c.44-2.37,1.09-4.62,1.7-6.86.62-2.27,1.26-4.53,1.92-6.91-.64.15-1.23.29-1.81.45-1.73.47-3.31.96-5.02,1.35-3.53,1.02-3.74.64-4.76,3.24-.55,1.39-2.47,7.35-3,8.89-2.67.63-5.38,1.28-8.23,1.96.55-2.23,1.26-4.36,1.92-6.49.67-2.13,1.34-4.26,2.03-6.38.7-2.15,1.44-4.31,2.19-6.54-.46-.3-.93-.63-1.47-1.01.56-1.45,1.15-2.89,1.77-4.33-5.12.88-10.18,1.64-15.27,2.85-.79,1.96-1.57,3.88-2.42,5.98,4.62-1.3,9.07-2.64,13.71-3.6-1.53,2.45-2.99,4.79-4.51,7.21-2.73.5-5.48.99-8.25,1.5-.59-.75-1.17-1.47-1.83-2.28-.71,2.04-1.44,3.92-1.58,5.88-.11,1.48.63,2.24,2.09,2.34.5.03.99,0,1.49-.07,1.06-.15,2.1-.5,3.12-.89,2.57-.99,5.12-2.09,7.68-3.14.14-.06.28-.09.52-.15-.3,2.11-.6,4.13-.91,6.29-1.01.62-2.03,1.33-3.11,1.9-2.87,1.52-5.84,2.57-8.91,3-.37.05-.74.1-1.11.13-1.47.14-2.89.05-4.23-.34-3.85-1.09-5.32-4.43-4.83-8.13.38-2.78,1.31-5.48,2.34-8.16.62-1.61,1.29-3.21,1.97-4.9-.59-.87-1.19-1.75-1.81-2.66-2.68,8.33-5.15,16.68-6.88,25.2-2.96,1.35-6.03,2.22-9.28,3.03.45-2.37,1.1-4.62,1.71-6.86.61-2.27.82-3.15,1.48-5.54-.84.3-4.56,1.59-4.56,1.59-2.23.68-4.5,1.35-6.27,1.6-1.57.22-2.72.11-3.08-.63-.21-.45-.39-1.2-.54-2.07-.36.85-.78,1.68-1.21,2.5-1.68,3.2-3.77,6.03-6.55,8.26-1.93,1.54-4,2.6-6.25,3.22-.66.18-1.31.32-1.96.41-1.4.2-2.77.17-4.12-.16-3.03-.73-5.01-2.75-6.11-5.8-.73-2.02-.85-4.16-.62-6.38-.46.22-2.5,1.25-2.95,1.54h0c-1.15,4.02-2.64,9.33-3.39,12.38-2.69.67-5.32,1.32-8.07,2l.05-.21c-1.62,1-3.27,2.02-4.95,3.06-.83-4.02-1.89-18.31-1.89-21.22-3.07,3.22-4.85,5.3-7.26,8.92,1.41-.89,1.01-.53,2.58-1.41-1.39,2.68-4.61,7.87-7.19,12.03.61.47,1.24.93,1.89,1.38-3,1.77-5.87,3.47-8.85,5.22-.89-.86-1.8-1.67-2.65-2.55-3.53-3.7-6.17-8.05-8.49-12.63-.45-.89-.88-1.79-1.33-2.69-.06-.12-.14-.22-.33-.5-1.61,5.35-3.15,10.5-4.73,15.74-2.61.19-5.25.38-8,.58,2.76-10.27,5.69-20.39,8.91-30.5,3.11-1.12,6.22-2.19,9.55-2.78-1.44,4.23-2.83,8.33-4.22,12.43l.12.06c2.36-2.02,4.71-4.05,7.13-6.11-.08-.25-.18-.53-.26-.81-.08-.25-.16-.5-.26-.83,2.64-2.4,5.41-4.63,8.29-6.86,2.71.91,5.42,1.81,8.26,2.76-6.07,4.59-11.94,9.19-17.67,14.07,2.15,3.12,4.41,6.11,6.97,8.84.69-.98,1.39-1.96,2.1-2.96-.28-.43-.56-.87-.9-1.4,4.36-6.54,9.9-13.06,15.98-19.8v-.11s.06-.02.06-.02c0-.13.02-.25.04-.25,0,0,.02.06.03.24,2.85-.64,5.67-1.2,8.56-1.84.07.41.17.79.19,1.17.08,1.76.17,3.52.21,5.28.09,3.91.09,7.82.23,11.71.03.91.07,1.82.13,2.73,1.87-7.36,3.82-14.67,5.99-21.96,3.02-1.18,6.06-1.92,9.19-2.58-1.21,3.68-2.39,7.35-3.54,11.03.83-.19,1.65-.38,2.47-.57,1.01-2.23,2.37-4.3,4.08-6.2,2.44-2.69,5.28-4.62,8.56-5.6.9-.27,1.8-.48,2.69-.6,1.58-.22,3.13-.19,4.65.23,2.61.71,4.44,2.59,5.19,5.18.73-1.63,1.49-3.25,2.3-4.87,3.12-1.04,5.04-1.83,8.28-2.39-1.8,4.88-3.24,10.23-4.16,14.43,2.93-.71,4.48-1.22,7.28-1.9.41,1.2.79,2.31,1.18,3.43,1.93-5.84,3.66-11.68,5.68-17.49,2.54.46,5.03.91,7.61,1.37-.06.18-.12.37-.18.55,4.06-1.27,8.09-2.26,12.12-3.33.28-.46.53-.91.85-1.45,3.84-.69,7.7-1.38,11.64-2.09.55,1.79.75,3.61.98,5.45.71-1.59,1.46-3.18,2.25-4.77,3.13-1.05,6.26-2.01,9.5-2.57-1.8,4.89-3.55,9.67-5.37,14.6,2.93-.71,5.69-1.38,8.49-2.07.41,1.2.79,2.31,1.18,3.43,1.93-5.83,3.66-11.68,5.67-17.49,2.55.46,5.03.91,7.62,1.37-3.11,9.48-6.04,18.95-8,28.66-2.96,1.34-6.03,2.21-9.28,3.02ZM398.13,239.01c-.08-.14-.17-.28-.25-.42,0,0,3.23-11.12,3.91-13.66l1.76-5.84c-8.58,8.46-17.41,20.6-17.41,20.6-2.7,1.08-5.4,2.12-8.27,3.13,1.42-7.71,3.19-15.23,5.74-22.71.6-.09,1.17-.17,1.82-.26,1.04-2.54,2.07-5.07,3.13-7.67,2.58-1.45,5.3-2.6,8.18-3.49l-4.93,13.46c-.54,1.42-1.71,4.33-2.22,5.7,8.11-10.63,11.31-13.42,13.3-15.57l.08-.23c4.55-1.22,5.96-1.81,12.88-3.56-4.23,8.93-7.56,18-9.75,27.45-2.59.99-5.21,2-7.96,3.06ZM435.72,231.75c-2.59.99-5.21,2-7.96,3.06-.08-.14-.18-.28-.26-.41,0,0,3.23-11.12,3.92-13.66l1.76-5.84c-8.59,8.47-17.42,20.6-17.42,20.6-2.69,1.08-5.4,2.12-8.26,3.13,1.41-7.71,3.19-15.23,5.73-22.71.61-.09,1.17-.17,1.82-.26,1.05-2.55,2.07-5.07,3.14-7.67,2.58-1.45,5.29-2.6,8.18-3.49l-4.93,13.46c-.54,1.42-1.71,4.33-2.23,5.7,8.12-10.64,11.31-13.42,13.3-15.57l.08-.23c4.56-1.22,5.96-1.81,12.89-3.56-4.23,8.93-7.56,18-9.75,27.45Z"/>
    <path class="cls-1" d="M300.87,237.51l.21.26c-.02-.23-.04-.46-.06-.67-.05.14-.1.27-.15.41Z"/>
    <path class="cls-1" d="M294.19,231.56c-.43-.8-1.21-1.19-2.1-1.17-.34,0-.68.03-1.01.08-1.83.26-3.5,1.13-4.98,2.65-1.74,1.81-2.79,4-3.68,6.31-.23.62-.42,1.26-.64,1.93.49.14.89.24,1.35.39-.06.31-.09.52-.13.74-.16.87-.27,1.73-.13,2.6.25,1.46,1.02,2.27,2.4,2.32.39.01.77,0,1.15-.06,1.64-.23,3.13-1.11,4.42-2.47,3.05-3.22,4.36-7.03,4.05-11.25-.05-.73-.37-1.43-.71-2.06Z"/>
  </g>
  <g>
    <g>
      <path class="cls-1" d="M208.99,287.02c-3.97,3.7-8.34,8.47-12.56,13.47,3.12,4.58,6.76,8.74,10.51,11.78l-5.3,4.61c-3.4-2.84-6.84-6.75-9.8-10.72-2.93,3.73-5.58,7.43-7.73,10.7l-6.31-3.4c2.72-3.78,6.42-8.32,10.29-12.8-.77-1.26-1.5-2.48-2.13-3.63l-1.89.71c-1.12-2.09-2.39-5.03-3.2-7.27l8.65-3.87c.92,2.79,2.13,5.65,3.62,8.41,3.35-3.7,6.65-7.08,9.31-9.63l6.55,1.62Z"/>
      <path class="cls-1" d="M201.65,317.55l-.33-.27c-3.79-3.17-7.19-7.25-9.49-10.28-2.62,3.37-5.14,6.87-7.31,10.16l-.25.38-7.22-3.89.33-.46c2.45-3.42,5.93-7.75,10.08-12.56-.68-1.11-1.25-2.08-1.74-2.96l-1.9.71-.21-.38c-1.05-1.96-2.35-4.91-3.23-7.34l-.16-.44,9.58-4.29.17.53c.87,2.65,1.97,5.24,3.25,7.7,2.97-3.26,6.09-6.48,8.86-9.12l.2-.19,7.72,1.91-.67.63c-3.61,3.37-7.74,7.79-12.27,13.14,3.16,4.59,6.68,8.51,10.2,11.36l.46.38-6.07,5.28ZM191.85,305.35l.39.52c2.2,2.95,5.59,7.1,9.4,10.36l4.53-3.94c-3.52-2.94-7.02-6.91-10.15-11.51l-.21-.31.24-.29c4.38-5.19,8.39-9.52,11.93-12.89l-5.4-1.34c-2.85,2.74-6.07,6.07-9.09,9.41l-.47.53-.34-.62c-1.37-2.54-2.54-5.22-3.48-7.97l-7.72,3.45c.8,2.14,1.87,4.6,2.8,6.38l1.89-.7.21.38c.57,1.04,1.27,2.22,2.12,3.61l.19.31-.24.28c-4.04,4.68-7.46,8.92-9.93,12.3l5.41,2.91c2.23-3.37,4.82-6.94,7.51-10.36l.4-.51Z"/>
    </g>
    <g>
      <path class="cls-1" d="M230.85,296.59l1.45,1.37c-2.31,7.5-7.24,13.07-14.76,13.98-6.91.84-11.25-3.59-11.92-9.15-1.07-8.84,5.31-17.75,14.74-18.9,6.34-.77,10.56,2.33,11.16,7.26.2,1.64,0,3.45-.66,5.44ZM220.68,290.33c-4.55.55-7.03,3.95-8.29,9.54l1.44.3c-.15.77-.19,1.53-.1,2.2.21,1.76,1.28,3.06,3.68,2.77,5.16-.63,7.92-6.44,7.37-10.98-.27-2.23-1.49-4.14-4.1-3.83Z"/>
      <path class="cls-1" d="M215.87,312.54c-2.69,0-5.07-.81-6.96-2.39-2.09-1.75-3.44-4.34-3.8-7.3-1.14-9.41,5.81-18.32,15.18-19.46,3.18-.39,5.97.16,8.07,1.57,2.06,1.39,3.32,3.51,3.64,6.12.2,1.68,0,3.48-.58,5.35l1.44,1.37-.09.3c-2.57,8.36-7.96,13.45-15.18,14.33-.59.07-1.16.11-1.72.11ZM222.23,284.28c-.59,0-1.2.04-1.82.11-8.83,1.08-15.39,9.47-14.31,18.34.33,2.71,1.55,5.07,3.45,6.65,2.07,1.73,4.81,2.44,7.92,2.06,6.72-.82,11.77-5.55,14.25-13.33l-1.45-1.38.1-.3c.62-1.85.83-3.6.64-5.22-.28-2.32-1.39-4.19-3.21-5.41-1.49-1.01-3.4-1.52-5.57-1.52ZM216.75,305.67c-.95,0-1.73-.26-2.33-.78-.65-.56-1.06-1.41-1.19-2.47-.07-.58-.06-1.22.03-1.87l-1.47-.31.11-.49c1.38-6.13,4.23-9.38,8.72-9.93h0c2.5-.31,4.3,1.33,4.65,4.26.29,2.4-.31,5.12-1.61,7.27-1.47,2.44-3.67,3.95-6.2,4.26-.25.03-.48.04-.71.04ZM212.99,299.48l1.42.3-.1.49c-.14.71-.17,1.41-.1,2.04.1.82.38,1.44.85,1.83.52.45,1.29.61,2.27.5,2.21-.27,4.15-1.61,5.46-3.79,1.19-1.97,1.74-4.45,1.47-6.64-.14-1.13-.75-3.72-3.54-3.39-3.95.48-6.42,3.24-7.75,8.66Z"/>
    </g>
    <g>
      <path class="cls-1" d="M254.63,283.94c-3.78.46-8.02,1.21-12.16,2.11l5.42,1.13c-2.21,6.98-3.92,14.96-3.55,21.67-2.41.89-5.82,2.02-8.38,2.65-.32-8.77,2.13-18.08,4.75-25.07-2.65.64-5.2,1.35-7.55,2.07l-4.92-4.8c6.65-2,12.53-3.15,18.56-4.16l.52-1.17c2.14-.42,4.4-.77,6.56-1.04,1.1-.13,2.15-.26,3.18-.35.61,1.59,1.36,4.72,1.7,6.54-1.27.08-2.65.24-4.12.42Z"/>
      <path class="cls-1" d="M235.47,312.13l-.02-.61c-.35-9.36,2.5-18.97,4.46-24.38-2.22.55-4.44,1.17-6.61,1.84l-.28.09-5.74-5.6.81-.24c6.85-2.06,12.87-3.21,18.35-4.13l.51-1.17.26-.05c2.11-.41,4.39-.77,6.59-1.04,1.11-.13,2.17-.26,3.2-.35l.37-.03.13.35c.65,1.7,1.4,4.9,1.73,6.62l.11.56-.57.03c-1.25.08-2.62.24-4.07.42l-.08-.49.06.5c-2.96.36-6.3.91-9.78,1.62l3.62.75-.17.53c-1.83,5.78-3.92,14.2-3.53,21.49l.02.37-.35.13c-2.33.86-5.78,2.01-8.44,2.66l-.6.15ZM241.27,286.32l-.11.29c-1.88,5.01-4.94,14.73-4.74,24.25,2.39-.62,5.27-1.58,7.39-2.35-.3-7.13,1.65-15.21,3.43-20.95l-5.97-1.24ZM229.19,283.94l4.1,4c2.23-.68,4.51-1.31,6.78-1.87h0s.09-.02.09-.02c.14-.03.28-.07.43-.1l.92-.22v.04s.87-.19.87-.19c4.34-.94,8.56-1.68,12.21-2.12h0l.06.5-.04-.5c1.25-.15,2.44-.3,3.56-.38-.36-1.78-.95-4.14-1.44-5.55-.9.08-1.82.2-2.77.31-2.1.26-4.26.59-6.27.98l-.52,1.18-.27.04c-5.31.89-11.11,1.98-17.68,3.91Z"/>
    </g>
    <g>
      <path class="cls-1" d="M312.14,273.22c-4.68,3.59-10.79,8.66-14.51,12.01,3.78,4.62,8.95,10.14,14.79,13.68l-7.43,4.4c-5.48-4.02-10.01-10.37-13.5-16.3-.92,4.28-1.82,9.15-2.62,13.73l-7.21.4c1.44-9.18,3.27-19.25,4.82-26.5,2.49-.9,5.6-1.83,8.38-2.33-.86,3.48-1.73,7.16-2.57,11.11,1.81-1.77,4.07-3.83,5.99-5.41l-.71-1.46c2.11-2,4.69-4.18,6.8-5.87l7.78,2.55Z"/>
      <path class="cls-1" d="M304.96,303.9l-.27-.2c-4.45-3.26-8.7-8.29-12.97-15.35-.92,4.38-1.77,9.15-2.35,12.47l-.07.39-8.23.46.1-.61c1.44-9.19,3.29-19.36,4.83-26.53l.06-.27.26-.09c1.72-.62,5.12-1.76,8.46-2.35l.76-.13-.18.75c-.62,2.54-1.42,5.83-2.22,9.5,1.51-1.43,3.12-2.87,4.53-4.05l-.7-1.44.27-.25c1.84-1.75,4.33-3.9,6.83-5.9l.21-.17,8.94,2.93-.75.58c-4.43,3.39-10.29,8.23-14.12,11.66,4.94,5.98,9.77,10.42,14.35,13.2l.71.43-8.43,4.99ZM291.27,285.64l.65,1.1c4.34,7.37,8.62,12.6,13.1,15.95l6.43-3.81c-4.57-2.92-9.34-7.41-14.21-13.35l-.3-.37.35-.32c3.64-3.27,9.31-7.98,13.79-11.45l-6.62-2.17c-2.29,1.84-4.55,3.79-6.29,5.42l.73,1.48-.3.25c-1.83,1.51-4.06,3.53-5.96,5.39l-1.18,1.16.34-1.62c.84-3.96,1.7-7.56,2.39-10.37-2.86.58-5.66,1.5-7.28,2.07-1.49,6.98-3.26,16.7-4.66,25.59l6.2-.34c.64-3.63,1.57-8.81,2.56-13.36l.27-1.25Z"/>
    </g>
    <g>
      <path class="cls-1" d="M333.49,281.98l1.45,1.37c-2.31,7.5-7.24,13.06-14.76,13.98-6.91.84-11.25-3.59-11.92-9.15-1.07-8.84,5.31-17.75,14.74-18.9,6.34-.77,10.56,2.33,11.16,7.26.2,1.64,0,3.45-.66,5.44ZM323.32,275.72c-4.55.55-7.03,3.95-8.29,9.54l1.44.3c-.15.77-.19,1.53-.1,2.2.21,1.76,1.28,3.06,3.68,2.77,5.16-.63,7.92-6.44,7.37-10.98-.27-2.23-1.5-4.14-4.1-3.83Z"/>
      <path class="cls-1" d="M318.5,297.94c-6.56,0-10.15-4.84-10.74-9.69-.54-4.41.75-9.04,3.53-12.7,2.88-3.8,7.02-6.2,11.65-6.76,6.35-.78,11.06,2.32,11.71,7.69.2,1.68,0,3.48-.58,5.35l1.44,1.37-.09.3c-2.57,8.36-7.96,13.45-15.18,14.33-.6.07-1.18.11-1.74.11ZM324.87,269.67c-.58,0-1.19.04-1.82.11-4.36.53-8.26,2.79-10.97,6.37-2.62,3.45-3.84,7.82-3.33,11.97.6,4.95,4.36,9.55,11.37,8.71,6.72-.82,11.77-5.55,14.25-13.34l-1.45-1.38.1-.3c.62-1.84.83-3.6.64-5.22-.53-4.33-3.9-6.93-8.78-6.93ZM319.4,291.06c-.95,0-1.73-.26-2.33-.78-.65-.56-1.06-1.41-1.19-2.47-.07-.58-.06-1.22.03-1.87l-1.47-.31.11-.5c1.38-6.13,4.23-9.38,8.72-9.93h0c2.51-.31,4.3,1.33,4.65,4.26.29,2.4-.31,5.12-1.61,7.27-1.47,2.44-3.67,3.95-6.2,4.26-.25.03-.48.04-.71.04ZM315.64,284.87l1.42.3-.1.49c-.14.71-.17,1.41-.1,2.04.1.82.39,1.44.85,1.83.52.45,1.29.61,2.27.5,2.21-.27,4.15-1.61,5.46-3.79,1.19-1.97,1.74-4.45,1.47-6.64-.14-1.13-.76-3.73-3.54-3.39-3.95.48-6.42,3.24-7.75,8.66Z"/>
    </g>
    <g>
      <path class="cls-1" d="M360.57,272.66c-1.54,1.26-3.27,2.58-4.98,3.82,3.56.44,5.37,2.44,5.66,4.83.83,6.84-9.17,11.47-14.88,12.33l-3.33-3.96-.15,2.84c-2.16.9-5.11,1.77-7.67,2.44l-.07-.59c-.47-3.87.44-11.01,3.91-20.12l-4.12-4.02c7.35-3,14.48-4.78,21.35-5.61,1.34-.16,2.65-.28,3.96-.36.2.61.32,1.31.41,2.05.27,2.19.12,4.75-.09,6.36ZM353.74,271.82l-.2-1.68c-2.17.46-4.45,1.06-6.6,1.75-2.21,5.23-3.35,11.16-3.82,16.78.32-.04.62-.04.94-.07,2.68-.33,10.29-2.56,9.85-6.2-.22-1.84-2.76-3.4-7.33-3.24l7.15-7.34Z"/>
      <path class="cls-1" d="M334.79,295.58l-.14-1.15c-.57-4.69.86-12.17,3.82-20.05l-4.43-4.33.71-.29c7.03-2.87,14.26-4.77,21.48-5.65,1.34-.16,2.65-.28,3.99-.36l.39-.02.12.37c.19.58.33,1.27.44,2.15.27,2.24.13,4.82-.09,6.49l-.03.2-.15.12c-1.19.98-2.58,2.05-4.07,3.15,2.81.69,4.62,2.52,4.93,5.05.89,7.35-9.53,12.02-15.3,12.88l-.28.04-2.69-3.2-.1,1.88-.29.12c-2.39.99-5.52,1.89-7.73,2.46l-.55.14ZM335.83,270.39l3.81,3.72-.12.31c-4.43,11.63-4.09,18.16-3.88,19.88v.02c2.7-.72,5.06-1.47,6.76-2.15l.2-3.78.04.04c.56-6.39,1.85-12.01,3.84-16.72l.09-.21.22-.07c2.05-.67,4.35-1.28,6.65-1.77l.54-.11.3,2.46-6.49,6.66c4.28.14,6.42,1.88,6.63,3.68.22,1.79-1.18,3.47-4.03,4.85-2.17,1.05-4.77,1.72-6.25,1.9-.17.02-.34.03-.5.04-.12,0-.24.01-.36.03l3.31,3.94c5.34-.9,14.97-5.25,14.18-11.73-.29-2.42-2.2-4.02-5.23-4.39l-1.26-.16,1.03-.75c1.75-1.27,3.41-2.54,4.8-3.68.19-1.55.32-3.98.07-6.04-.08-.62-.17-1.15-.29-1.59-1.18.08-2.34.19-3.53.33-6.89.84-13.79,2.62-20.51,5.29ZM347.31,272.3c-1.86,4.48-3.09,9.8-3.64,15.83.11,0,.22-.01.33-.03,1.18-.14,3.73-.74,5.94-1.81,1.7-.82,3.68-2.15,3.47-3.83-.18-1.46-2.39-2.95-6.81-2.8l-1.25.04,7.86-8.06-.11-.9c-2,.44-3.99.98-5.79,1.55Z"/>
    </g>
    <g>
      <path class="cls-1" d="M387.69,273.6l1.45,1.37c-2.31,7.5-7.24,13.06-14.76,13.98-6.91.84-11.25-3.59-11.92-9.15-1.07-8.84,5.31-17.75,14.74-18.9,6.34-.77,10.56,2.33,11.16,7.26.2,1.64,0,3.45-.66,5.44ZM377.52,267.33c-4.55.55-7.03,3.95-8.29,9.54l1.44.3c-.15.77-.18,1.53-.1,2.2.21,1.76,1.28,3.06,3.68,2.77,5.16-.63,7.92-6.44,7.37-10.98-.27-2.23-1.5-4.14-4.1-3.83Z"/>
      <path class="cls-1" d="M372.69,289.55c-6.56,0-10.15-4.84-10.74-9.69-.54-4.41.75-9.04,3.53-12.7,2.88-3.8,7.02-6.2,11.65-6.76,6.35-.77,11.06,2.32,11.71,7.69.2,1.67,0,3.47-.58,5.35l1.44,1.37-.09.3c-2.57,8.36-7.96,13.45-15.18,14.33-.6.07-1.18.11-1.74.11ZM379.07,261.29c-.58,0-1.19.04-1.82.11-4.36.53-8.26,2.79-10.97,6.37-2.62,3.45-3.84,7.82-3.33,11.97.6,4.95,4.37,9.57,11.37,8.71,6.72-.82,11.77-5.55,14.25-13.34l-1.45-1.38.1-.3c.62-1.85.83-3.6.64-5.22-.53-4.33-3.9-6.93-8.78-6.93ZM373.59,282.68c-.95,0-1.73-.26-2.33-.78-.65-.56-1.06-1.41-1.19-2.47-.07-.59-.06-1.22.03-1.87l-1.47-.31.11-.5c1.38-6.13,4.23-9.38,8.72-9.93h0c2.51-.31,4.3,1.33,4.65,4.26.6,4.93-2.46,10.88-7.81,11.53-.25.03-.48.04-.71.04ZM369.83,276.49l1.42.3-.1.49c-.14.7-.17,1.41-.1,2.04.1.82.39,1.44.85,1.83.52.45,1.29.61,2.27.5,4.76-.58,7.48-5.96,6.94-10.42-.14-1.13-.77-3.72-3.54-3.39-3.95.48-6.42,3.24-7.75,8.66Z"/>
    </g>
    <g>
      <path class="cls-1" d="M280.32,287.56c-.16-1.4-.43-2.75-.75-3.78-3.75.5-8.3,1.34-12.24,2.45,1.21-4.69,3.15-10.97,3.15-10.97-4.51.55-10.28,2.36-13.88,3.95l4,3.4c-2.02,7.11-4.35,17.27-4.54,25.15,2.56-.63,5.98-1.76,8.38-2.65-.22-4.59.47-8.46,1.33-12.21,2.37-.88,4.62-1.69,6.89-2.23l.21,5.46c-2.08,2.47-5.06,5.32-8.17,7.72l4.79,2.21c3.56-2.15,8.37-6.37,10.89-9.24.12-1.52.22-6.77-.06-9.28Z"/>
      <path class="cls-1" d="M255.54,308.42l.02-.65c.22-8.95,3.14-20.22,4.47-24.97l-4.37-3.71.73-.32c3.44-1.52,9.3-3.41,14.02-3.99l.77-.09-.23.74c-.02.06-1.73,5.6-2.93,10.11,3.4-.91,7.52-1.72,11.47-2.24l.42-.05.13.4c.34,1.1.62,2.48.77,3.87h0c.28,2.54.18,7.82.06,9.37v.17s-.12.12-.12.12c-2.47,2.81-7.26,7.07-11.01,9.34l-.23.14-4.59-2.13c0,.19.01.39.02.58l.02.37-.34.13c-2.34.86-5.78,2.01-8.44,2.66l-.64.16ZM257.54,279.36l3.63,3.09-.09.31c-1.25,4.41-4.15,15.44-4.5,24.37,2.38-.62,5.25-1.58,7.35-2.34,0-.25-.02-.49-.02-.73l-.17-.08.17-.13c-.05-4.16.63-7.76,1.38-11.04l.06-.26.25-.09c2.46-.91,4.68-1.71,6.94-2.25l.59-.14.24,6.27-.12.15c-2.03,2.42-4.77,5.04-7.6,7.29l3.8,1.76c3.53-2.19,8.09-6.24,10.44-8.88.11-1.7.2-6.62-.07-9.02h0c-.13-1.17-.35-2.32-.61-3.28-4.1.56-8.36,1.42-11.74,2.38l-.84.24.22-.84c.95-3.7,2.38-8.43,2.93-10.24-4.15.61-9,2.15-12.23,3.49ZM266.2,293.29c-.67,2.95-1.26,6.16-1.3,9.79,2.77-2.18,5.46-4.74,7.46-7.1l-.18-4.66c-1.93.5-3.87,1.19-5.98,1.97Z"/>
    </g>
  </g>
</svg>