<svg width="25" height="25" viewBox="0 0 25 25" fill="none" xmlns="http://www.w3.org/2000/svg">
<path d="M4.9952 7.34981C4.9952 6.04877 6.04936 4.99461 7.3504 4.99356H8.42228C9.04415 4.99356 9.63999 4.74669 10.0817 4.30919L10.8306 3.55919C11.7483 2.63627 13.24 2.63211 14.1629 3.54981L14.1639 3.55086L14.1733 3.55919L14.9233 4.30919C15.365 4.74773 15.9608 4.99356 16.5827 4.99356H17.6535C18.9546 4.99356 20.0098 6.04773 20.0098 7.34981V8.41961C20.0098 9.04148 20.2556 9.63836 20.6942 10.08L21.4442 10.83C22.3671 11.7477 22.3723 13.2394 21.4546 14.1623L21.4535 14.1634L21.4442 14.1727L20.6942 14.9227C20.2556 15.3634 20.0098 15.9592 20.0098 16.5811V17.6529C20.0098 18.954 18.9556 20.0081 17.6546 20.0081H17.6535H16.5806C15.9587 20.0081 15.3619 20.255 14.9212 20.6936L14.1712 21.4425C13.2546 22.3654 11.7639 22.3706 10.841 21.455C10.84 21.454 10.8389 21.4529 10.8379 21.4519L10.8285 21.4425L10.0796 20.6936C9.63895 20.255 9.04207 20.0092 8.4202 20.0081H7.3504C6.04936 20.0081 4.9952 18.954 4.9952 17.6529V16.579C4.9952 15.9571 4.74832 15.3613 4.30978 14.9206L3.56082 14.1706C2.6379 13.254 2.6327 11.7634 3.54936 10.8404C3.54936 10.8394 3.5504 10.8384 3.55145 10.8373L3.56082 10.8279L4.30978 10.0779C4.74832 9.63627 4.9952 9.04044 4.9952 8.41752V7.34981" stroke="#25262B" stroke-width="1.5" stroke-linecap="round" stroke-linejoin="round"/>
<path d="M9.82422 15.1784L15.1784 9.82422" stroke="#25262B" stroke-width="1.5" stroke-linecap="round" stroke-linejoin="round"/>
<path d="M15.1001 15.1038H15.1095" stroke="#25262B" stroke-width="2" stroke-linecap="round" stroke-linejoin="round"/>
<path d="M9.89115 9.89583H9.90052" stroke="#25262B" stroke-width="2" stroke-linecap="round" stroke-linejoin="round"/>
</svg>
