<svg width="326" height="115" viewBox="0 0 326 115" fill="none" xmlns="http://www.w3.org/2000/svg">
<rect width="326" height="115" rx="57.5" fill="#FF4B19"/>
<path d="M62.064 42V25.08H76.344V42H74.136V26.952H64.272V42H62.064ZM85.4304 42.216C84.2464 42.216 83.2224 41.968 82.3584 41.472C81.4944 40.96 80.8224 40.24 80.3424 39.312C79.8624 38.368 79.6224 37.248 79.6224 35.952C79.6224 34.672 79.8624 33.568 80.3424 32.64C80.8224 31.696 81.4944 30.976 82.3584 30.48C83.2224 29.968 84.2464 29.712 85.4304 29.712C86.6144 29.712 87.6384 29.968 88.5024 30.48C89.3824 30.976 90.0544 31.696 90.5184 32.64C90.9984 33.568 91.2384 34.672 91.2384 35.952C91.2384 37.248 90.9984 38.368 90.5184 39.312C90.0544 40.24 89.3824 40.96 88.5024 41.472C87.6384 41.968 86.6144 42.216 85.4304 42.216ZM85.4304 40.488C86.5184 40.488 87.3904 40.104 88.0464 39.336C88.7024 38.568 89.0304 37.44 89.0304 35.952C89.0304 34.464 88.7024 33.344 88.0464 32.592C87.3904 31.84 86.5184 31.464 85.4304 31.464C84.3264 31.464 83.4464 31.84 82.7904 32.592C82.1504 33.344 81.8304 34.464 81.8304 35.952C81.8304 37.44 82.1504 38.568 82.7904 39.336C83.4464 40.104 84.3264 40.488 85.4304 40.488ZM99.6124 42.216C98.4124 42.216 97.3724 41.968 96.4924 41.472C95.6124 40.96 94.9244 40.232 94.4284 39.288C93.9484 38.328 93.7084 37.192 93.7084 35.88C93.7084 34.584 93.9564 33.48 94.4524 32.568C94.9484 31.64 95.6364 30.936 96.5164 30.456C97.3964 29.96 98.4284 29.712 99.6124 29.712C100.396 29.712 101.156 29.848 101.892 30.12C102.628 30.376 103.228 30.752 103.692 31.248L102.948 32.784C102.484 32.336 101.972 32.008 101.412 31.8C100.852 31.576 100.3 31.464 99.7564 31.464C98.5724 31.464 97.6444 31.848 96.9724 32.616C96.3004 33.368 95.9644 34.464 95.9644 35.904C95.9644 37.36 96.3004 38.48 96.9724 39.264C97.6444 40.048 98.5724 40.44 99.7564 40.44C100.284 40.44 100.828 40.336 101.388 40.128C101.948 39.92 102.468 39.592 102.948 39.144L103.692 40.656C103.212 41.168 102.596 41.56 101.844 41.832C101.108 42.088 100.364 42.216 99.6124 42.216ZM106.544 42V29.928H108.368L112.808 37.824L117.272 29.928H119.072V42H117.152V32.376H117.68L113.36 40.056H112.28L107.96 32.352H108.464V42H106.544ZM127.97 42.216C126.786 42.216 125.762 41.968 124.898 41.472C124.034 40.96 123.362 40.24 122.882 39.312C122.402 38.368 122.162 37.248 122.162 35.952C122.162 34.672 122.402 33.568 122.882 32.64C123.362 31.696 124.034 30.976 124.898 30.48C125.762 29.968 126.786 29.712 127.97 29.712C129.154 29.712 130.178 29.968 131.042 30.48C131.922 30.976 132.594 31.696 133.057 32.64C133.538 33.568 133.778 34.672 133.778 35.952C133.778 37.248 133.538 38.368 133.057 39.312C132.594 40.24 131.922 40.96 131.042 41.472C130.178 41.968 129.154 42.216 127.97 42.216ZM127.97 40.488C129.058 40.488 129.93 40.104 130.586 39.336C131.242 38.568 131.57 37.44 131.57 35.952C131.57 34.464 131.242 33.344 130.586 32.592C129.93 31.84 129.058 31.464 127.97 31.464C126.866 31.464 125.986 31.84 125.33 32.592C124.69 33.344 124.37 34.464 124.37 35.952C124.37 37.44 124.69 38.568 125.33 39.336C125.986 40.104 126.866 40.488 127.97 40.488ZM139.487 42V31.68H135.143V29.928H145.991V31.68H141.647V42H139.487ZM148.053 47.184V32.784C148.053 32.32 148.037 31.848 148.005 31.368C147.973 30.888 147.925 30.408 147.861 29.928H149.973L150.237 32.712H149.973C150.213 31.784 150.725 31.056 151.509 30.528C152.293 29.984 153.229 29.712 154.317 29.712C155.389 29.712 156.325 29.96 157.125 30.456C157.925 30.952 158.541 31.672 158.973 32.616C159.421 33.544 159.645 34.656 159.645 35.952C159.645 37.248 159.421 38.368 158.973 39.312C158.541 40.256 157.925 40.976 157.125 41.472C156.325 41.968 155.389 42.216 154.317 42.216C153.245 42.216 152.317 41.952 151.533 41.424C150.765 40.88 150.245 40.152 149.973 39.24H150.237V47.184H148.053ZM153.813 40.488C154.917 40.488 155.797 40.104 156.453 39.336C157.109 38.568 157.437 37.44 157.437 35.952C157.437 34.464 157.109 33.344 156.453 32.592C155.797 31.84 154.917 31.464 153.813 31.464C152.709 31.464 151.829 31.84 151.173 32.592C150.533 33.344 150.213 34.464 150.213 35.952C150.213 37.44 150.533 38.568 151.173 39.336C151.829 40.104 152.709 40.488 153.813 40.488ZM168.338 42.216C166.418 42.216 164.898 41.664 163.778 40.56C162.674 39.456 162.122 37.936 162.122 36C162.122 34.72 162.362 33.616 162.842 32.688C163.338 31.744 164.018 31.016 164.882 30.504C165.746 29.976 166.754 29.712 167.906 29.712C169.01 29.712 169.946 29.952 170.714 30.432C171.482 30.896 172.066 31.56 172.466 32.424C172.866 33.288 173.066 34.312 173.066 35.496V36.216H163.826V34.92H171.578L171.17 35.232C171.17 33.984 170.89 33.016 170.33 32.328C169.786 31.64 168.978 31.296 167.906 31.296C166.738 31.296 165.834 31.704 165.194 32.52C164.554 33.32 164.234 34.416 164.234 35.808V36.024C164.234 37.496 164.594 38.608 165.314 39.36C166.05 40.112 167.066 40.488 168.362 40.488C169.082 40.488 169.754 40.384 170.378 40.176C171.002 39.968 171.602 39.624 172.178 39.144L172.898 40.656C172.354 41.152 171.674 41.536 170.858 41.808C170.058 42.08 169.218 42.216 168.338 42.216ZM178.698 42V31.68H174.354V29.928H185.202V31.68H180.858V42H178.698ZM187.192 42V29.928H189.352V34.2H192.904C194.472 34.2 195.648 34.536 196.432 35.208C197.232 35.864 197.632 36.816 197.632 38.064C197.632 38.864 197.448 39.56 197.08 40.152C196.712 40.744 196.176 41.2 195.472 41.52C194.768 41.84 193.912 42 192.904 42H187.192ZM189.352 40.488H192.664C193.608 40.488 194.328 40.296 194.824 39.912C195.32 39.512 195.568 38.904 195.568 38.088C195.568 37.272 195.32 36.672 194.824 36.288C194.344 35.904 193.624 35.712 192.664 35.712H189.352V40.488ZM217.203 45.12V42H206.763V29.928H208.923V40.296H214.971V29.928H217.131V40.296H219.051V45.12H217.203ZM227.12 42.216C225.2 42.216 223.68 41.664 222.56 40.56C221.456 39.456 220.904 37.936 220.904 36C220.904 34.72 221.144 33.616 221.624 32.688C222.12 31.744 222.8 31.016 223.664 30.504C224.528 29.976 225.536 29.712 226.688 29.712C227.792 29.712 228.728 29.952 229.496 30.432C230.264 30.896 230.848 31.56 231.248 32.424C231.648 33.288 231.848 34.312 231.848 35.496V36.216H222.608V34.92H230.36L229.952 35.232C229.952 33.984 229.672 33.016 229.112 32.328C228.568 31.64 227.76 31.296 226.688 31.296C225.52 31.296 224.616 31.704 223.976 32.52C223.336 33.32 223.016 34.416 223.016 35.808V36.024C223.016 37.496 223.376 38.608 224.096 39.36C224.832 40.112 225.848 40.488 227.144 40.488C227.864 40.488 228.536 40.384 229.16 40.176C229.784 39.968 230.384 39.624 230.96 39.144L231.68 40.656C231.136 41.152 230.456 41.536 229.64 41.808C228.84 42.08 228 42.216 227.12 42.216ZM234.888 42V29.928H237.048V34.92H243.432V29.928H245.592V42H243.432V36.648H237.048V42H234.888ZM249.325 42V29.928H251.485V34.2H255.037C256.605 34.2 257.781 34.536 258.565 35.208C259.365 35.864 259.765 36.816 259.765 38.064C259.765 38.864 259.581 39.56 259.213 40.152C258.845 40.744 258.309 41.2 257.605 41.52C256.901 41.84 256.045 42 255.037 42H249.325ZM251.485 40.488H254.797C255.757 40.488 256.477 40.296 256.957 39.912C257.453 39.512 257.701 38.904 257.701 38.088C257.701 37.272 257.453 36.672 256.957 36.288C256.477 35.904 255.757 35.712 254.797 35.712H251.485V40.488ZM261.517 42V29.928H263.677V42H261.517Z" fill="white"/>
<rect x="98" y="55" width="40" height="40" rx="20" fill="#FF5729"/>
<rect x="108" y="55" width="40" height="40" rx="20" fill="#FF6236"/>
<rect x="118" y="55" width="40" height="40" rx="20" fill="#FF714A"/>
<rect x="128" y="55" width="40" height="40" rx="20" fill="#FF805D"/>
<rect x="138" y="55" width="40" height="40" rx="20" fill="#FF8C6D"/>
<rect x="148" y="55" width="40" height="40" rx="20" fill="#FF977A"/>
<rect x="158" y="55" width="40" height="40" rx="20" fill="#FFA48B"/>
<rect x="168" y="55" width="40" height="40" rx="20" fill="#FFB29C"/>
<rect x="178" y="55" width="40" height="40" rx="20" fill="#FFC1B0"/>
<rect x="188" y="55" width="40" height="40" rx="20" fill="white"/>
<path d="M207 68L214 75L207 82" stroke="#FF4B19" stroke-width="1.5" stroke-linecap="round"/>
</svg>
