<svg width="55" height="55" viewBox="0 0 55 55" fill="none" xmlns="http://www.w3.org/2000/svg">
<path d="M0 26.4C0 13.9549 0 7.73238 3.86619 3.86619C7.73238 0 13.9549 0 26.4 0H28.6C41.0451 0 47.2676 0 51.1338 3.86619C55 7.73238 55 13.9549 55 26.4V28.6C55 41.0451 55 47.2676 51.1338 51.1338C47.2676 55 41.0451 55 28.6 55H26.4C13.9549 55 7.73238 55 3.86619 51.1338C0 47.2676 0 41.0451 0 28.6V26.4Z" fill="url(#paint0_linear_89_589)"/>
<path d="M10.5366 25.5594L39.8022 14.1398C41.1605 13.6431 42.3468 14.4751 41.9067 16.5537L41.9092 16.5512L36.9262 40.3095C36.5569 41.994 35.5679 42.4035 34.1843 41.61L26.596 35.95L22.9359 39.5185C22.5312 39.9281 22.1897 40.2737 21.4056 40.2737L21.9443 32.4584L36.008 19.6C36.6202 19.0548 35.8715 18.7476 35.0646 19.2903L17.6848 30.3644L10.1926 27.999C8.56613 27.4768 8.53072 26.353 10.5366 25.5594Z" fill="white"/>
<defs>
<linearGradient id="paint0_linear_89_589" x1="27.5" y1="0" x2="27.5" y2="55" gradientUnits="userSpaceOnUse">
<stop stop-color="#289FDB"/>
<stop offset="0.765625" stop-color="#1086C2"/>
</linearGradient>
</defs>
</svg>
