<svg width="30" height="30" viewBox="0 0 30 30" fill="none" xmlns="http://www.w3.org/2000/svg">
<path d="M15.0342 0H14.9658C6.70042 0 0 6.70044 0 14.9658V15.0342C0 23.2996 6.70042 30 14.9658 30H15.0342C23.2996 30 30 23.2996 30 15.0342V14.9658C30 6.70044 23.2996 0 15.0342 0Z" fill="white"/>
<path d="M5.68214 14.4877C5.72418 14.4667 5.76624 14.4467 5.80723 14.4278C6.51984 14.0978 7.24191 13.7887 7.96293 13.4797C8.00182 13.4797 8.06697 13.4345 8.10375 13.4198C8.15946 13.3957 8.21517 13.3725 8.27088 13.3484L8.59145 13.2107C8.80587 13.1192 9.01921 13.0278 9.23363 12.9364C9.6614 12.7535 10.0892 12.5706 10.517 12.3867C11.3725 12.0209 12.2291 11.6541 13.0847 11.2883C13.9402 10.9226 14.7968 10.5557 15.6524 10.19C16.5079 9.82421 17.3645 9.45739 18.2201 9.09163C19.0756 8.72586 19.9322 8.35905 20.7878 7.99328C20.978 7.9113 21.184 7.78938 21.3879 7.75365C21.5593 7.72317 21.7264 7.66431 21.8987 7.63172C22.2256 7.56971 22.5861 7.54449 22.8993 7.68007C23.0076 7.72737 23.1074 7.79358 23.1905 7.87662C23.5878 8.26971 23.5321 8.91505 23.448 9.4679C22.8625 13.321 22.2771 17.1752 21.6906 21.0284C21.6107 21.557 21.5014 22.1372 21.0842 22.4714C20.731 22.7542 20.2286 22.7857 19.7924 22.6659C19.3562 22.545 18.9716 22.2917 18.5942 22.0426C17.0292 21.0063 15.4632 19.97 13.8982 18.9336C13.5261 18.6877 13.112 18.3661 13.1162 17.9194C13.1183 17.6503 13.2791 17.4107 13.4431 17.1973C14.8031 15.4231 16.7654 14.2039 18.2253 12.5117C18.4313 12.2731 18.5932 11.8422 18.3105 11.7045C18.1423 11.6225 17.9489 11.734 17.7954 11.8401C15.8657 13.1802 13.9371 14.5213 12.0074 15.8614C11.3778 16.2986 10.7177 16.7485 9.95886 16.8557C9.27989 16.9524 8.59671 16.7632 7.93981 16.5698C7.38906 16.408 6.83935 16.2419 6.29175 16.0706C6.00061 15.9802 5.70001 15.8824 5.47509 15.6775C5.25016 15.4725 5.1209 15.1278 5.25649 14.8545C5.34162 14.6832 5.50664 14.5749 5.68006 14.4866L5.68214 14.4877Z" fill="#25262B"/>
</svg>
