<svg width="55" height="55" viewBox="0 0 55 55" fill="none" xmlns="http://www.w3.org/2000/svg">
<g clip-path="url(#clip0_89_553)">
<path d="M0 26.4C0 13.9549 0 7.73238 3.86619 3.86619C7.73238 0 13.9549 0 26.4 0H28.6C41.0451 0 47.2676 0 51.1338 3.86619C55 7.73238 55 13.9549 55 26.4V28.6C55 41.0451 55 47.2676 51.1338 51.1338C47.2676 55 41.0451 55 28.6 55H26.4C13.9549 55 7.73238 55 3.86619 51.1338C0 47.2676 0 41.0451 0 28.6V26.4Z" fill="#0077FF"/>
<path d="M29.1709 39.6C16.3928 39.6 9.10447 30.9288 8.80078 16.5H15.2015C15.4118 27.0904 20.1305 31.5763 23.8681 32.5012V16.5H29.8953V25.6336C33.5863 25.2405 37.4636 21.0784 38.7718 16.5H44.7989C43.7944 22.142 39.5896 26.3042 36.5994 28.0153C39.5896 29.4027 44.3787 33.033 46.2008 39.6H39.5662C38.1412 35.2066 34.5908 31.8075 29.8953 31.345V39.6H29.1709Z" fill="white"/>
</g>
<defs>
<clipPath id="clip0_89_553">
<rect width="55" height="55" fill="white"/>
</clipPath>
</defs>
</svg>
