<svg width="30" height="30" viewBox="0 0 30 30" fill="none" xmlns="http://www.w3.org/2000/svg">
<path d="M15.0342 0H14.9658C6.7004 0 0 6.7004 0 14.9658V15.0342C0 23.2996 6.7004 30 14.9658 30H15.0342C23.2996 30 30 23.2996 30 15.0342V14.9658C30 6.7004 23.2996 0 15.0342 0Z" fill="white"/>
<path d="M17.9232 19.3881C14.0837 19.3881 10.96 16.2634 10.959 12.4239C10.96 11.4506 11.7525 10.6592 12.7237 10.6592C12.8235 10.6592 12.9223 10.6676 13.0169 10.6844C13.225 10.7191 13.4226 10.7895 13.6045 10.8957C13.6307 10.9114 13.6486 10.9367 13.6528 10.9661L14.0585 13.5233C14.0638 13.5538 14.0543 13.5832 14.0343 13.6053C13.8105 13.8533 13.5246 14.032 13.2061 14.1213L13.0527 14.1644L13.1105 14.3126C13.6339 15.6453 14.6997 16.7101 16.0334 17.2356L16.1816 17.2944L16.2247 17.141C16.3141 16.8225 16.4927 16.5366 16.7408 16.3128C16.7587 16.2959 16.7828 16.2875 16.807 16.2875C16.8123 16.2875 16.8175 16.2875 16.8238 16.2886L19.381 16.6943C19.4115 16.6995 19.4367 16.7164 19.4525 16.7426C19.5576 16.9245 19.628 17.1231 19.6638 17.3312C19.6806 17.4237 19.6879 17.5215 19.6879 17.6234C19.6879 18.5956 18.8965 19.3871 17.9232 19.3881Z" fill="#25262B"/>
<path d="M24.7319 14.1579C24.5248 11.8182 23.4528 9.6478 21.7133 8.0471C19.9633 6.4369 17.693 5.5498 15.3187 5.5498C10.1076 5.5498 5.86766 9.7897 5.86766 15.0008C5.86766 16.7497 6.35006 18.4535 7.26346 19.9376L5.22656 24.4466L11.7483 23.7518C12.8824 24.2164 14.0827 24.4518 15.3177 24.4518C15.6424 24.4518 15.9756 24.435 16.3098 24.4003C16.6041 24.3688 16.9016 24.3225 17.1938 24.2637C21.5577 23.3818 24.7434 19.5087 24.7687 15.0513V15.0008C24.7687 14.717 24.7561 14.4332 24.7308 14.1579H24.7319ZM11.9995 21.7727L8.39126 22.1574L9.46856 19.7705L9.25306 19.4814C9.23736 19.4604 9.22156 19.4394 9.20366 19.4152C8.26826 18.1235 7.77426 16.5973 7.77426 15.0019C7.77426 10.8418 11.1587 7.45751 15.3187 7.45751C19.216 7.45751 22.5194 10.4981 22.8379 14.3796C22.8547 14.5877 22.8642 14.7969 22.8642 15.0029C22.8642 15.0618 22.8631 15.1196 22.8621 15.1816C22.7822 18.6616 20.3511 21.6171 16.9499 22.3697C16.6903 22.4275 16.4244 22.4716 16.1595 22.5C15.8842 22.5315 15.6014 22.5473 15.3208 22.5473C14.3213 22.5473 13.3501 22.3539 12.4325 21.9713C12.3306 21.9304 12.2307 21.8862 12.1372 21.841L12.0006 21.7748L11.9995 21.7727Z" fill="#25262B"/>
</svg>
